*
*
G04 PADS VX.2.3 Build Number: 10035676 generated Gerber (RS-274-X) file*
G04 PC Version=2.1*
*
%IN "IO-1735-1.pcb"*%
*
%MOIN*%
*
%FSLAX35Y35*%
*
*
*
*
G04 PC Standard Apertures*
*
*
G04 Thermal Relief Aperture macro.*
%AMTER*
1,1,$1,0,0*
1,0,$1-$2,0,0*
21,0,$3,$4,0,0,45*
21,0,$3,$4,0,0,135*
%
*
*
G04 Annular Aperture macro.*
%AMANN*
1,1,$1,0,0*
1,0,$2,0,0*
%
*
*
G04 Odd Aperture macro.*
%AMODD*
1,1,$1,0,0*
1,0,$1-0.005,0,0*
%
*
*
G04 PC Custom Aperture Macros*
*
*
*
*
*
*
G04 PC Aperture Table*
*
%ADD010C,0.001*%
%ADD016R,0.03X0.04*%
%ADD017R,0.04X0.03*%
%ADD020R,0.062X0.06*%
%ADD025R,0.048X0.05*%
%ADD027C,0.06*%
%ADD028C,0.075*%
%ADD055R,0.06X0.06*%
%ADD056C,0.005*%
%ADD058C,0.01*%
%ADD060C,0.02*%
%ADD061C,0.015*%
%ADD064C,0.03*%
%ADD065C,0.04*%
%ADD094C,0.08*%
%ADD169C,0.002*%
%ADD273R,0.024X0.05*%
%ADD274R,0.095X0.13*%
*
*
*
*
G04 PC Circuitry*
G04 Layer Name IO-1735-1.pcb - circuitry*
%LPD*%
*
*
G04 PC Custom Flashes*
G04 Layer Name IO-1735-1.pcb - flashes*
%LPD*%
*
*
G04 PC Circuitry*
G04 Layer Name IO-1735-1.pcb - circuitry*
%LPD*%
*
G54D10*
G54D16*
G01X1964188Y1601650D03*
Y1595250D03*
G54D17*
X1978988Y1615450D03*
X1985388D03*
X1979488Y1601450D03*
X1985888D03*
X2026388Y1624450D03*
X2019988D03*
X1979488Y1595450D03*
X1985888D03*
X1992988Y1571950D03*
X1999388D03*
X2019988D03*
X2026388D03*
X1958488Y1636450D03*
X1964888D03*
G54D20*
X2012288Y1552450D03*
X2026088D03*
X1958788Y1644450D03*
X1972588D03*
G54D25*
X1985188Y1608450D03*
X1977188D03*
G54D27*
X1992688Y1602950D03*
Y1592950D03*
Y1582950D03*
X2022688D03*
Y1592950D03*
Y1602950D03*
Y1612950D03*
X1958788Y1644450D02*
Y1653050D01*
X1958788D02*
X1962688Y1656950D01*
X1962688D02*
X1977438D01*
X1977438D02*
X1982688Y1651700D01*
X1982688D02*
Y1644450D01*
X1962688Y1666950D02*
Y1656950D01*
G54D28*
X1982688Y1644450D03*
Y1634450D03*
Y1624450D03*
X2011188D03*
X1982688Y1586950D03*
Y1576950D03*
Y1566950D03*
X2011188D03*
G54D55*
X1992688Y1612950D03*
G54D56*
X2016388Y1566950D02*
G75*
G03X2016388I-5201J0D01*
G01X1967938Y1726950D02*
G03X1967938I-5251J0D01*
G01X2028138Y1746950D02*
G03X2028138I-5451J0D01*
G01X2035438Y1752336D02*
G03X2035430Y1752354I-25J0D01*
G01X2033091Y1754693*
G03X2033074Y1754700I-17J-18*
G01X1952301*
G03X1952284Y1754693I0J-25*
G01X1949945Y1752354*
G03X1949938Y1752336I18J-18*
G01X1949938D02*
Y1546564D01*
X1949938D02*
G03X1949945Y1546546I25J-0D01*
G01X1952284Y1544207*
G03X1952301Y1544200I17J18*
G01X2028074*
G03X2028091Y1544207I-0J25*
G01X2030430Y1546546*
G03X2030437Y1546564I-17J18*
G01X2030438D02*
Y1548628D01*
X2030438D02*
G03X2030392Y1548642I-25J0D01*
G01X2029188Y1548000D02*
G03X2030392Y1548642I-0J1450D01*
G01X2029188Y1548000D02*
X2022988D01*
X2021537Y1549450D02*
G03X2022988Y1548000I1451J0D01*
G01X2021537Y1549450D02*
Y1555450D01*
X2022988Y1556900D02*
G03X2021537Y1555450I-0J-1450D01*
G01X2022988Y1556900D02*
X2024212D01*
G03X2024237Y1556925I0J25*
G01Y1568985*
G03X2024215Y1569010I-25J0*
G01X2023208Y1569607D02*
G03X2024215Y1569010I1180J843D01*
G01X2023208Y1569607D02*
G03X2023167I-20J-15D01*
G01X2022454Y1569077D02*
G03X2023167Y1569607I-466J1373D01*
G01X2022454Y1569077D02*
G03X2022438Y1569054I9J-23D01*
G01Y1560350*
X2021720Y1558618D02*
G03X2022438Y1560350I-1732J1732D01*
G01X2021720Y1558618D02*
X2016845Y1553742D01*
G03X2016838Y1553725I18J-17*
G01Y1549450*
X2015388Y1548000D02*
G03X2016838Y1549450I-0J1450D01*
G01X2015388Y1548000D02*
X2009188D01*
X2007737Y1549450D02*
G03X2009188Y1548000I1451J0D01*
G01X2007737Y1549450D02*
Y1555450D01*
X2009188Y1556900D02*
G03X2007737Y1555450I-0J-1450D01*
G01X2009188Y1556900D02*
X2013062D01*
G03X2013080Y1556907I0J25*
G01X2017530Y1561358*
G03X2017537Y1561375I-18J17*
G01Y1569054*
G03X2017521Y1569077I-25J-0*
G01X2016537Y1570450D02*
G03X2017521Y1569077I1451J0D01*
G01X2016537Y1570450D02*
Y1571925D01*
G03X2016530Y1571942I-25J-0*
G01X2002980Y1585493*
G03X2002962Y1585500I-18J-18*
G01X1996382*
G03X1996361Y1585461I0J-25*
G01X1997138Y1582950D02*
G03X1996361Y1585461I-4450J0D01*
G01X1997138Y1582950D02*
X1997138D01*
X1997130Y1582691D02*
G03X1997138Y1582950I-4442J259D01*
G01X1997130Y1582691D02*
Y1582690D01*
X1997130*
G03X1997137Y1582672I25J-0*
G01X2001473Y1578336*
X2002338Y1576250D02*
G03X2001473Y1578336I-2951J0D01*
G01X2002338Y1576250D02*
Y1574557D01*
G03X2002346Y1574538I25J-0*
G01X2002838Y1573450D02*
G03X2002346Y1574538I-1450J0D01*
G01X2002838Y1573450D02*
Y1570450D01*
X2002346Y1569362D02*
G03X2002838Y1570450I-958J1088D01*
G01X2002346Y1569362D02*
G03X2002338Y1569343I17J-19D01*
G01Y1566650*
X2001473Y1564564D02*
G03X2002338Y1566650I-2086J2086D01*
G01X2001473Y1564564D02*
X1997845Y1560935D01*
G03X1997838Y1560918I18J-17*
G01Y1560425*
G03X1997863Y1560400I25J0*
G01X1999638*
X2001088Y1558950D02*
G03X1999638Y1560400I-1450J0D01*
G01X2001088Y1558950D02*
Y1555425D01*
G03X2001113Y1555400I25J0*
G01X2001392*
G03X2001405Y1555404I-0J25*
G01Y1549496D02*
G03Y1555404I1783J2954D01*
G01Y1549496D02*
G03X2001392Y1549500I-13J-21D01*
G01X2001113*
G03X2001088Y1549475I-0J-25*
G01Y1545950*
X1999638Y1544500D02*
G03X2001088Y1545950I-0J1450D01*
G01X1999638Y1544500D02*
X1990138D01*
X1988687Y1545950D02*
G03X1990138Y1544500I1451J0D01*
G01X1988687Y1545950D02*
Y1558950D01*
X1990138Y1560400D02*
G03X1988687Y1558950I-0J-1450D01*
G01X1990138Y1560400D02*
X1991912D01*
G03X1991937Y1560425I0J25*
G01Y1562150*
X1992802Y1564236D02*
G03X1991937Y1562150I2086J-2086D01*
G01X1992802Y1564236D02*
X1996430Y1567865D01*
G03X1996437Y1567882I-18J17*
G01Y1569343*
G03X1996429Y1569362I-25J0*
G01X1996095Y1569792D02*
G03X1996429Y1569362I1293J658D01*
G01X1996095Y1569792D02*
G03X1996052Y1569794I-22J-11D01*
G01X1994988Y1569200D02*
G03X1996052Y1569794I-0J1250D01*
G01X1994988Y1569200D02*
X1990988D01*
X1989737Y1570450D02*
G03X1990988Y1569200I1251J0D01*
G01X1989737Y1570450D02*
Y1573450D01*
X1990988Y1574700D02*
G03X1989737Y1573450I-0J-1250D01*
G01X1990988Y1574700D02*
X1994988D01*
X1996052Y1574106D02*
G03X1994988Y1574700I-1064J-656D01*
G01X1996052Y1574106D02*
G03X1996095Y1574108I21J13D01*
G01X1996429Y1574538D02*
G03X1996095Y1574108I959J-1088D01*
G01X1996429Y1574538D02*
G03X1996437Y1574557I-17J19D01*
G01Y1575018*
G03X1996430Y1575035I-25J-0*
G01X1992965Y1578500*
G03X1992946Y1578507I-17J-17*
G01X1988237Y1582950D02*
G03X1992946Y1578508I4451J0D01*
G01X1989038Y1585497D02*
G03X1988237Y1582950I3650J-2547D01*
G01X1989038Y1585497D02*
G03X1989022Y1585535I-20J14D01*
G01X1987853Y1586082D02*
G03X1989022Y1585535I1585J1868D01*
G01X1987853Y1586082D02*
G03X1987812Y1586067I-16J-20D01*
G01X1983807Y1581872D02*
G03X1987812Y1586067I-1119J5078D01*
G01X1983807Y1581872D02*
G03X1983787Y1581847I5J-25D01*
G01X1983787D02*
G03X1983807Y1581823I25J0D01*
G01Y1572077D02*
G03Y1581823I-1119J4873D01*
G01Y1572077D02*
G03X1983787Y1572053I5J-24D01*
G01X1983787D02*
G03X1983807Y1572028I25J-0D01*
G01X1981568D02*
G03X1983807I1120J-5078D01*
G01X1981568D02*
G03X1981588Y1572053I-5J25D01*
G01X1981588D02*
G03X1981568Y1572077I-25J-0D01*
G01Y1581823D02*
G03Y1572077I1120J-4873D01*
G01Y1581823D02*
G03X1981588Y1581847I-5J24D01*
G01X1981588D02*
G03X1981568Y1581872I-25J0D01*
G01X1983518Y1592083D02*
G03X1981568Y1581872I-830J-5133D01*
G01X1983518Y1592083D02*
G03X1983544Y1592120I4J25D01*
G01X1983343Y1592596D02*
G03X1983544Y1592120I2345J711D01*
G01X1983343Y1592596D02*
G03X1983329Y1592612I-24J-7D01*
G01X1982595Y1593292D02*
G03X1983329Y1592612I1293J658D01*
G01X1982595Y1593292D02*
G03X1982552Y1593294I-22J-11D01*
G01X1981488Y1592700D02*
G03X1982552Y1593294I-0J1250D01*
G01X1981488Y1592700D02*
X1977488D01*
X1976237Y1593950D02*
G03X1977488Y1592700I1251J0D01*
G01X1976237Y1593950D02*
Y1596950D01*
X1977488Y1598200D02*
G03X1976237Y1596950I-0J-1250D01*
G01X1977488Y1598200D02*
X1981488D01*
X1982552Y1597606D02*
G03X1981488Y1598200I-1064J-656D01*
G01X1982552Y1597606D02*
G03X1982595Y1597608I21J13D01*
G01X1983421Y1598323D02*
G03X1982595Y1597608I466J-1373D01*
G01X1983421Y1598323D02*
G03X1983437Y1598346I-9J23D01*
G01Y1598554*
G03X1983421Y1598577I-25J-0*
G01X1982708Y1599107D02*
G03X1983421Y1598577I1179J843D01*
G01X1982708Y1599107D02*
G03X1982667I-20J-15D01*
G01X1981488Y1598500D02*
G03X1982667Y1599107I-0J1450D01*
G01X1981488Y1598500D02*
X1977488D01*
X1977198Y1598529D02*
G03X1977488Y1598500I290J1421D01*
G01X1977198Y1598529D02*
G03X1977193Y1598530I-5J-24D01*
G01X1966764Y1598666*
G03X1966745Y1598658I-1J-25*
G01X1966345Y1598358D02*
G03X1966745Y1598658I-657J1292D01*
G01X1966345Y1598358D02*
G03X1966331Y1598335I11J-23D01*
X1966343Y1598314I25J0*
G01X1966938Y1597250D02*
G03X1966343Y1598314I-1250J0D01*
G01X1966938Y1597250D02*
Y1593250D01*
X1965688Y1592000D02*
G03X1966938Y1593250I-0J1250D01*
G01X1965688Y1592000D02*
X1962688D01*
X1961437Y1593250D02*
G03X1962688Y1592000I1251J0D01*
G01X1961437Y1593250D02*
Y1597250D01*
X1962032Y1598314D02*
G03X1961437Y1597250I656J-1064D01*
G01X1962032Y1598314D02*
G03X1962044Y1598335I-13J21D01*
X1962030Y1598358I-25J0*
G01X1961237Y1599650D02*
G03X1962030Y1598358I1451J0D01*
G01X1961237Y1599650D02*
Y1612175D01*
G03X1961222Y1612198I-25J0*
G01X1959739Y1614377D02*
G03X1961222Y1612198I2449J73D01*
G01X1959739Y1614377D02*
G03X1959712Y1614401I-25J-1D01*
G01X1959647Y1614400D02*
G03X1959712Y1614401I0J1450D01*
G01X1959647Y1614400D02*
X1957247D01*
X1955797Y1615850D02*
G03X1957247Y1614400I1450J0D01*
G01X1955797Y1615850D02*
Y1620850D01*
X1955994Y1621579D02*
G03X1955797Y1620850I1253J-729D01*
G01X1955994Y1621579D02*
G03X1955997Y1621592I-22J13D01*
G01Y1624308*
G03X1955994Y1624321I-25J0*
G01X1955797Y1625050D02*
G03X1955994Y1624321I1450J-0D01*
G01X1955797Y1625050D02*
Y1629648D01*
G03X1955795Y1629659I-25J0*
G01X1955497Y1630950D02*
G03X1955795Y1629659I2950J0D01*
G01X1955497Y1630950D02*
X1955497D01*
X1955502Y1631108D02*
G03X1955497Y1630950I2945J-158D01*
G01X1955502Y1631108D02*
Y1631110D01*
Y1633876*
G03X1955494Y1633894I-25J-0*
G01X1955037Y1634950D02*
G03X1955494Y1633894I1451J0D01*
G01X1955037Y1634950D02*
Y1640138D01*
X1955037D02*
G03X1955024Y1640161I-25J0D01*
G01X1954237Y1641450D02*
G03X1955024Y1640161I1451J0D01*
G01X1954237Y1641450D02*
Y1647450D01*
X1954336Y1647975D02*
G03X1954237Y1647450I1352J-525D01*
G01X1954336Y1647975D02*
G03X1954337Y1647984I-24J9D01*
G01Y1653050*
X1955641Y1656197D02*
G03X1954337Y1653050I3147J-3147D01*
G01X1955641Y1656197D02*
X1957310Y1657866D01*
G03X1957317Y1657880I-17J18*
G01X1958233Y1660090D02*
G03X1957317Y1657880I4455J-3140D01*
G01X1958233Y1660090D02*
G03X1958237Y1660104I-21J14D01*
G01Y1663796*
G03X1958233Y1663810I-25J-0*
G01X1967142D02*
G03X1958233I-4454J3140D01*
G01X1967142D02*
G03X1967138Y1663796I21J-14D01*
G01Y1661425*
G03X1967163Y1661400I25J0*
G01X1977438*
X1980584Y1660097D02*
G03X1977438Y1661400I-3146J-3147D01*
G01X1980584Y1660097D02*
X1985834Y1654847D01*
X1987138Y1651700D02*
G03X1985834Y1654847I-4451J0D01*
G01X1987138Y1651700D02*
Y1647147D01*
G03X1987141Y1647134I25J0*
G01X1983807Y1639372D02*
G03X1987141Y1647134I-1119J5078D01*
G01X1983807Y1639372D02*
G03X1983787Y1639347I5J-25D01*
G01X1983787D02*
G03X1983807Y1639323I25J0D01*
G01Y1629577D02*
G03Y1639323I-1119J4873D01*
G01Y1629577D02*
G03X1983787Y1629553I5J-24D01*
G01X1983787D02*
G03X1983807Y1629528I25J-0D01*
G01X1981468Y1619395D02*
G03X1983807Y1629528I1220J5055D01*
G01X1981468Y1619395D02*
G03X1981438Y1619371I-5J-24D01*
G01Y1618346*
G03X1981454Y1618323I25J0*
G01X1982167Y1617793D02*
G03X1981454Y1618323I-1179J-843D01*
G01X1982167Y1617793D02*
G03X1982208I21J15D01*
G01X1983388Y1618400D02*
G03X1982208Y1617793I-0J-1450D01*
G01X1983388Y1618400D02*
X1987388D01*
X1988822Y1617159D02*
G03X1987388Y1618400I-1434J-209D01*
G01X1988822Y1617159D02*
G03X1988861Y1617142I25J3D01*
G01X1989688Y1617400D02*
G03X1988861Y1617142I-1J-1450D01*
G01X1989688Y1617400D02*
X1995688D01*
X1997138Y1615950D02*
G03X1995688Y1617400I-1450J0D01*
G01X1997138Y1615950D02*
Y1610225D01*
G03X1997153Y1610202I25J-0*
G01X1997920Y1609682D02*
G03X1997153Y1610202I-1732J-1732D01*
G01X1997920Y1609682D02*
X2000420Y1607182D01*
X2001138Y1605450D02*
G03X2000420Y1607182I-2450J0D01*
G01X2001138Y1605450D02*
Y1594950D01*
X2000420Y1593218D02*
G03X2001138Y1594950I-1732J1732D01*
G01X2000420Y1593218D02*
X1998420Y1591218D01*
X1996688Y1590500D02*
G03X1998420Y1591218I-0J2450D01*
G01X1996688Y1590500D02*
X1996416D01*
G03X1996395Y1590489I-0J-25*
G01X1996361Y1590439D02*
G03X1996395Y1590489I-3674J2511D01*
G01X1996361Y1590439D02*
G03X1996382Y1590400I21J-14D01*
G01X2003988*
X2005720Y1589682D02*
G03X2003988Y1590400I-1732J-1732D01*
G01X2005720Y1589682D02*
X2020495Y1574907D01*
G03X2020513Y1574900I18J18*
G01X2021988*
X2023167Y1574293D02*
G03X2021988Y1574900I-1179J-843D01*
G01X2023167Y1574293D02*
G03X2023208I21J15D01*
G01X2023921Y1574823D02*
G03X2023208Y1574293I466J-1373D01*
G01X2023921Y1574823D02*
G03X2023937Y1574846I-9J23D01*
G01Y1576150*
X2024165Y1577182D02*
G03X2023937Y1576150I2223J-1032D01*
G01X2024165Y1577182D02*
X2025075Y1579140D01*
G03X2025039Y1579172I-23J11*
G01X2025198Y1586624D02*
G03X2025039Y1579172I-2510J-3674D01*
G01X2025198Y1586624D02*
G03X2025237Y1586645I14J21D01*
G01Y1586925*
G03X2025230Y1586942I-25J-0*
G01X2023591Y1588581*
G03X2023569Y1588588I-17J-17*
G01X2018980Y1590489D02*
G03X2023569Y1588588I3708J2461D01*
G01X2018980Y1590489D02*
G03X2018959Y1590500I-21J-14D01*
G01X2014688*
X2012955Y1591218D02*
G03X2014687Y1590500I1732J1732D01*
G01X2012955Y1591218D02*
X2009455Y1594718D01*
X2008737Y1596450D02*
G03X2009455Y1594718I2451J-0D01*
G01X2008737Y1596450D02*
Y1619848D01*
G03X2008724Y1619870I-25J0*
G01X2013651D02*
G03X2008724I-2463J4580D01*
G01X2013651D02*
G03X2013638Y1619848I12J-22D01*
G01Y1597475*
G03X2013645Y1597458I25J0*
G01X2015695Y1595407*
G03X2015713Y1595400I18J18*
G01X2018959*
G03X2018980Y1595411I0J25*
G01X2027138Y1592950D02*
G03X2018980Y1595411I-4450J0D01*
G01X2027138Y1592950D02*
X2027138D01*
X2027049Y1592069D02*
G03X2027138Y1592950I-4361J881D01*
G01X2027049Y1592069D02*
G03X2027056Y1592046I25J-5D01*
G01X2029420Y1589682*
X2030138Y1587950D02*
G03X2029420Y1589682I-2450J0D01*
G01X2030138Y1587950D02*
Y1578950D01*
X2029910Y1577918D02*
G03X2030138Y1578950I-2223J1032D01*
G01X2029910Y1577918D02*
X2028840Y1575614D01*
G03X2028838Y1575603I23J-11*
G01Y1574846*
G03X2028854Y1574823I25J0*
G01X2029838Y1573450D02*
G03X2028854Y1574823I-1450J0D01*
G01X2029838Y1573450D02*
Y1570450D01*
X2029149Y1569216D02*
G03X2029838Y1570450I-762J1234D01*
G01X2029149Y1569216D02*
G03X2029138Y1569195I14J-21D01*
G01Y1556925*
G03X2029163Y1556900I25J0*
G01X2029188*
X2030392Y1556258D02*
G03X2029188Y1556900I-1204J-808D01*
G01X2030392Y1556258D02*
G03X2030437Y1556272I21J14D01*
G01X2030438D02*
Y1602468D01*
X2030438D02*
G03X2030395Y1602485I-25J-0D01*
G01X2028773Y1600864*
X2026688Y1600000D02*
G03X2028773Y1600864I-0J2950D01*
G01X2026688Y1600000D02*
X2026030D01*
G03X2026012Y1599992I0J-25*
G01X2025696Y1606229D02*
G03X2026012Y1599992I-3008J-3279D01*
G01X2025696Y1606229D02*
G03X2025737Y1606248I16J19D01*
G01Y1609652*
G03X2025696Y1609671I-25J0*
G01Y1616229D02*
G03Y1609671I-3008J-3279D01*
G01Y1616229D02*
G03X2025737Y1616248I16J19D01*
G01Y1620918*
G03X2025730Y1620935I-25J-0*
G01X2025173Y1621493*
G03X2025155Y1621500I-18J-18*
G01X2024388*
X2023095Y1622292D02*
G03X2024388Y1621500I1293J658D01*
G01X2023095Y1622292D02*
G03X2023052Y1622294I-22J-11D01*
G01X2021988Y1621700D02*
G03X2023052Y1622294I-0J1250D01*
G01X2021988Y1621700D02*
X2017988D01*
X2016737Y1622950D02*
G03X2017988Y1621700I1251J0D01*
G01X2016737Y1622950D02*
Y1625950D01*
X2017988Y1627200D02*
G03X2016737Y1625950I-0J-1250D01*
G01X2017988Y1627200D02*
X2021988D01*
X2023052Y1626606D02*
G03X2021988Y1627200I-1064J-656D01*
G01X2023052Y1626606D02*
G03X2023095Y1626608I21J13D01*
G01X2023429Y1627038D02*
G03X2023095Y1626608I959J-1088D01*
G01X2023429Y1627038D02*
G03X2023437Y1627057I-17J19D01*
G01Y1631475*
G03X2023412Y1631500I-25J-0*
G01X2020138*
X2018687Y1632950D02*
G03X2020138Y1631500I1451J0D01*
G01X2018687Y1632950D02*
Y1645950D01*
X2020138Y1647400D02*
G03X2018687Y1645950I-0J-1450D01*
G01X2020138Y1647400D02*
X2025748D01*
G03X2025766Y1647407I0J25*
G01X2027230Y1648872*
G03X2027237Y1648889I-18J17*
G01Y1654239*
G03X2027191Y1654252I-25J-0*
G01X2017437Y1656950D02*
G03X2027191Y1654252I5251J0D01*
G01X2021014Y1661926D02*
G03X2017437Y1656950I1674J-4976D01*
G01X2021014Y1661926D02*
G03Y1661974I-8J24D01*
G01X2017437Y1666950D02*
G03X2021014Y1661974I5251J0D01*
G01X2027191Y1669648D02*
G03X2017437Y1666950I-4503J-2698D01*
G01X2027191Y1669648D02*
G03X2027237Y1669661I21J13D01*
G01Y1724239*
G03X2027191Y1724252I-25J-0*
G01Y1729648D02*
G03Y1724252I-4503J-2698D01*
G01Y1729648D02*
G03X2027237Y1729661I21J13D01*
G01Y1730511*
G03X2027230Y1730528I-25J-0*
G01X2024266Y1733493*
G03X2024248Y1733500I-18J-18*
G01X1993188*
X1990748Y1734510D02*
G03X1993188Y1733500I2440J2440D01*
G01X1990748Y1734510D02*
X1981766Y1743493D01*
G03X1981748Y1743500I-18J-18*
G01X1966918*
G03X1966899Y1743491I0J-25*
G01Y1750409D02*
G03Y1743491I-4211J-3459D01*
G01Y1750409D02*
G03X1966918Y1750400I19J16D01*
G01X1983188*
X1985627Y1749390D02*
G03X1983188Y1750400I-2439J-2440D01*
G01X1985627Y1749390D02*
X1994609Y1740407D01*
G03X1994627Y1740400I18J18*
G01X2025688*
X2028127Y1739390D02*
G03X2025688Y1740400I-2439J-2440D01*
G01X2028127Y1739390D02*
X2033127Y1734390D01*
X2034138Y1731950D02*
G03X2033127Y1734390I-3450J0D01*
G01X2034138Y1731950D02*
Y1647450D01*
X2033125Y1645008D02*
G03X2034138Y1647450I-2438J2442D01*
G01X2033125Y1645008D02*
X2031095Y1642978D01*
G03X2031088Y1642961I18J-17*
G01Y1632950*
X2029638Y1631500D02*
G03X2031088Y1632950I-0J1450D01*
G01X2029638Y1631500D02*
X2029363D01*
G03X2029338Y1631475I-0J-25*
G01Y1627057*
G03X2029346Y1627038I25J-0*
G01X2029838Y1625950D02*
G03X2029346Y1627038I-1450J0D01*
G01X2029838Y1625950D02*
Y1625182D01*
G03X2029845Y1625165I25J0*
G01X2030395Y1624615*
G03X2030437Y1624632I18J17*
G01X2030438D02*
Y1628054D01*
X2030438D02*
X2035430Y1633046D01*
G03X2035437Y1633064I-17J18*
G01X2035438D02*
Y1752336D01*
X1987588Y1604500D02*
G03X1987721Y1604506I-0J1450D01*
G01X1987588Y1604500D02*
X1982788D01*
X1981337Y1605950D02*
G03X1982788Y1604500I1451J0D01*
G01X1981337Y1605950D02*
Y1610950D01*
X1982788Y1612400D02*
G03X1981337Y1610950I-0J-1450D01*
G01X1982788Y1612400D02*
X1982912D01*
G03X1982937Y1612425I0J25*
G01Y1612554*
G03X1982921Y1612577I-25J-0*
G01X1982208Y1613107D02*
G03X1982921Y1612577I1179J843D01*
G01X1982208Y1613107D02*
G03X1982167I-20J-15D01*
G01X1980988Y1612500D02*
G03X1982167Y1613107I-0J1450D01*
G01X1980988Y1612500D02*
X1976988D01*
X1975537Y1613950D02*
G03X1976988Y1612500I1451J0D01*
G01X1975537Y1613950D02*
Y1616950D01*
X1976521Y1618323D02*
G03X1975537Y1616950I467J-1373D01*
G01X1976521Y1618323D02*
G03X1976537Y1618346I-9J23D01*
G01Y1620750*
X1977255Y1622482D02*
G03X1976537Y1620750I1733J-1732D01*
G01X1977255Y1622482D02*
X1977701Y1622929D01*
G03X1977707Y1622953I-17J17*
G01X1977487Y1624450D02*
G03X1977707Y1622953I5201J-0D01*
G01X1981568Y1629528D02*
G03X1977487Y1624450I1120J-5078D01*
G01X1981568Y1629528D02*
G03X1981588Y1629553I-5J25D01*
G01X1981588D02*
G03X1981568Y1629577I-25J-0D01*
G01Y1639323D02*
G03Y1629577I1120J-4873D01*
G01Y1639323D02*
G03X1981588Y1639347I-5J24D01*
G01X1981588D02*
G03X1981568Y1639372I-25J0D01*
G01X1978234Y1647134D02*
G03X1981568Y1639372I4454J-2684D01*
G01X1978234Y1647134D02*
G03X1978237Y1647147I-22J13D01*
G01Y1649846*
G03X1978230Y1649864I-25J0*
G01X1975602Y1652493*
G03X1975584Y1652500I-18J-18*
G01X1965842*
G03X1965827Y1652495I-0J-25*
G01X1963617Y1651580D02*
G03X1965827Y1652495I-930J5370D01*
G01X1963617Y1651580D02*
G03X1963604Y1651573I4J-25D01*
G01X1963245Y1651214*
G03X1963238Y1651196I18J-18*
G01Y1647984*
G03X1963239Y1647975I25J-0*
G01X1963338Y1647450D02*
G03X1963239Y1647975I-1451J0D01*
G01X1963338Y1647450D02*
Y1641450D01*
X1961961Y1640002D02*
G03X1963338Y1641450I-73J1448D01*
G01X1961961Y1640002D02*
G03X1961938Y1639977I2J-25D01*
G01Y1638828*
G03X1961981Y1638810I25J-0*
G01X1962888Y1639200D02*
G03X1961981Y1638810I-0J-1250D01*
G01X1962888Y1639200D02*
X1966888D01*
X1968138Y1637950D02*
G03X1966888Y1639200I-1250J0D01*
G01X1968138Y1637950D02*
Y1634950D01*
X1966888Y1633700D02*
G03X1968138Y1634950I-0J1250D01*
G01X1966888Y1633700D02*
X1962888D01*
X1961823Y1634294D02*
G03X1962888Y1633700I1065J656D01*
G01X1961823Y1634294D02*
G03X1961780Y1634292I-21J-13D01*
G01X1961411Y1633832D02*
G03X1961780Y1634292I-923J1118D01*
G01X1961411Y1633832D02*
G03X1961402Y1633813I16J-19D01*
G01Y1631325*
G03X1961427Y1631300I25J0*
G01X1963388*
X1964044Y1631113D02*
G03X1963388Y1631300I-657J-1063D01*
G01X1964044Y1631113D02*
G03X1964071I14J22D01*
G01X1964728Y1631300D02*
G03X1964071Y1631113I-0J-1250D01*
G01X1964728Y1631300D02*
X1967128D01*
X1968378Y1630050D02*
G03X1967128Y1631300I-1250J0D01*
G01X1968378Y1630050D02*
Y1625050D01*
X1967128Y1623800D02*
G03X1968378Y1625050I-0J1250D01*
G01X1967128Y1623800D02*
X1964728D01*
X1964071Y1623987D02*
G03X1964728Y1623800I657J1063D01*
G01X1964071Y1623987D02*
G03X1964044I-13J-22D01*
G01X1963387Y1623800D02*
G03X1964044Y1623987I0J1250D01*
G01X1963388Y1623800D02*
X1960988D01*
X1960924Y1623802D02*
G03X1960988Y1623800I64J1248D01*
G01X1960924Y1623802D02*
G03X1960897Y1623777I-2J-25D01*
G01Y1622324*
G03X1960923Y1622299I25J-0*
G01X1960988Y1622300D02*
G03X1960923Y1622299I-0J-1450D01*
G01X1960988Y1622300D02*
X1963388D01*
X1964046Y1622142D02*
G03X1963388Y1622300I-658J-1292D01*
G01X1964046Y1622142D02*
G03X1964069I12J22D01*
G01X1964728Y1622300D02*
G03X1964069Y1622142I-0J-1450D01*
G01X1964728Y1622300D02*
X1967128D01*
X1968578Y1620850D02*
G03X1967128Y1622300I-1450J0D01*
G01X1968578Y1620850D02*
Y1615850D01*
X1968381Y1615121D02*
G03X1968578Y1615850I-1253J729D01*
G01X1968381Y1615121D02*
G03X1968378Y1615108I22J-13D01*
G01Y1614450*
X1967150Y1612327D02*
G03X1968378Y1614450I-1222J2123D01*
G01X1967150Y1612327D02*
G03X1967138Y1612305I13J-22D01*
G01Y1604586*
G03X1967162Y1604561I25J0*
G01X1979507Y1604400*
X1981488*
X1982667Y1603793D02*
G03X1981488Y1604400I-1179J-843D01*
G01X1982667Y1603793D02*
G03X1982708I21J15D01*
G01X1983888Y1604400D02*
G03X1982708Y1603793I-0J-1450D01*
G01X1983888Y1604400D02*
X1987442D01*
G03X1987447Y1604401I0J25*
G01X1987729Y1604457*
G03X1987721Y1604506I-5J24*
G01X2016388Y1566950D02*
G03X2016388I-5201J0D01*
G01X2006488Y1645950D02*
Y1632950D01*
X2005238Y1631700D02*
G03X2006488Y1632950I-0J1250D01*
G01X2005238Y1631700D02*
X1995738D01*
X1994487Y1632950D02*
G03X1995738Y1631700I1251J0D01*
G01X1994487Y1632950D02*
Y1645950D01*
X1995738Y1647200D02*
G03X1994487Y1645950I-0J-1250D01*
G01X1995738Y1647200D02*
X2005238D01*
X2006488Y1645950D02*
G03X2005238Y1647200I-1250J0D01*
G01X1976488Y1558950D02*
Y1545950D01*
X1975238Y1544700D02*
G03X1976488Y1545950I-0J1250D01*
G01X1975238Y1544700D02*
X1965738D01*
X1964487Y1545950D02*
G03X1965738Y1544700I1251J0D01*
G01X1964487Y1545950D02*
Y1558950D01*
X1965738Y1560200D02*
G03X1964487Y1558950I-0J-1250D01*
G01X1965738Y1560200D02*
X1975238D01*
X1976488Y1558950D02*
G03X1975238Y1560200I-1250J0D01*
G01X1967938Y1726950D02*
G03X1967938I-5251J0D01*
G01X2028138Y1746950D02*
G03X2028138I-5451J0D01*
G01X1980838Y1610950D02*
Y1605950D01*
X1979588Y1604700D02*
G03X1980838Y1605950I-0J1250D01*
G01X1979588Y1604700D02*
X1974788D01*
X1973537Y1605950D02*
G03X1974788Y1604700I1251J0D01*
G01X1973537Y1605950D02*
Y1610950D01*
X1974788Y1612200D02*
G03X1973537Y1610950I-0J-1250D01*
G01X1974788Y1612200D02*
X1979588D01*
X1980838Y1610950D02*
G03X1979588Y1612200I-1250J0D01*
G01X1976938Y1647450D02*
Y1641450D01*
X1975688Y1640200D02*
G03X1976938Y1641450I-0J1250D01*
G01X1975688Y1640200D02*
X1969488D01*
X1968237Y1641450D02*
G03X1969488Y1640200I1251J0D01*
G01X1968237Y1641450D02*
Y1647450D01*
X1969488Y1648700D02*
G03X1968237Y1647450I-0J-1250D01*
G01X1969488Y1648700D02*
X1975688D01*
X1976938Y1647450D02*
G03X1975688Y1648700I-1250J0D01*
G01X2024475Y1752099D02*
X2035438D01*
X2025449Y1751649D02*
X2035438D01*
X2026101Y1751199D02*
X2035438D01*
X2026596Y1750749D02*
X2035438D01*
X2026987Y1750299D02*
X2035438D01*
X2027303Y1749849D02*
X2035438D01*
X2027556Y1749399D02*
X2035438D01*
X2027758Y1748949D02*
X2035438D01*
X2027913Y1748499D02*
X2035438D01*
X2028026Y1748049D02*
X2035438D01*
X2028099Y1747599D02*
X2035438D01*
X2028134Y1747149D02*
X2035438D01*
X2028132Y1746699D02*
X2035438D01*
X2028092Y1746249D02*
X2035438D01*
X2028015Y1745799D02*
X2035438D01*
X2027897Y1745349D02*
X2035438D01*
X2027737Y1744899D02*
X2035438D01*
X2027530Y1744449D02*
X2035438D01*
X2027269Y1743999D02*
X2035438D01*
X2026946Y1743549D02*
X2035438D01*
X2026544Y1743099D02*
X2035438D01*
X2026034Y1742649D02*
X2035438D01*
X2025357Y1742199D02*
X2035438D01*
X2024315Y1741749D02*
X2035438D01*
X1993718Y1741299D02*
X2035438D01*
X1994168Y1740849D02*
X2035438D01*
X2025783Y1740399D02*
X2035438D01*
X2027394Y1739949D02*
X2035438D01*
X2028013Y1739499D02*
X2035438D01*
X2028468Y1739049D02*
X2035438D01*
X2028918Y1738599D02*
X2035438D01*
X2029368Y1738149D02*
X2035438D01*
X2029818Y1737699D02*
X2035438D01*
X2030268Y1737249D02*
X2035438D01*
X2030718Y1736799D02*
X2035438D01*
X2031168Y1736349D02*
X2035438D01*
X2031618Y1735899D02*
X2035438D01*
X2032068Y1735449D02*
X2035438D01*
X2032518Y1734999D02*
X2035438D01*
X2032968Y1734549D02*
X2035438D01*
X2033387Y1734099D02*
X2035438D01*
X2033690Y1733649D02*
X2035438D01*
X2033904Y1733199D02*
X2035438D01*
X2034044Y1732749D02*
X2035438D01*
X2034120Y1732299D02*
X2035438D01*
X2034138Y1731849D02*
X2035438D01*
X2034138Y1731399D02*
X2035438D01*
X2034138Y1730949D02*
X2035438D01*
X2034138Y1730499D02*
X2035438D01*
X2034138Y1730049D02*
X2035438D01*
X2034138Y1729599D02*
X2035438D01*
X2034138Y1729149D02*
X2035438D01*
X2034138Y1728699D02*
X2035438D01*
X2034138Y1728249D02*
X2035438D01*
X2034138Y1727799D02*
X2035438D01*
X2034138Y1727349D02*
X2035438D01*
X2034138Y1726899D02*
X2035438D01*
X2034138Y1726449D02*
X2035438D01*
X2034138Y1725999D02*
X2035438D01*
X2034138Y1725549D02*
X2035438D01*
X2034138Y1725099D02*
X2035438D01*
X2034138Y1724649D02*
X2035438D01*
X2034138Y1724199D02*
X2035438D01*
X2034138Y1723749D02*
X2035438D01*
X2034138Y1723299D02*
X2035438D01*
X2034138Y1722849D02*
X2035438D01*
X2034138Y1722399D02*
X2035438D01*
X2034138Y1721949D02*
X2035438D01*
X2034138Y1721499D02*
X2035438D01*
X2034138Y1721049D02*
X2035438D01*
X2034138Y1720599D02*
X2035438D01*
X2034138Y1720149D02*
X2035438D01*
X2034138Y1719699D02*
X2035438D01*
X2034138Y1719249D02*
X2035438D01*
X2034138Y1718799D02*
X2035438D01*
X2034138Y1718349D02*
X2035438D01*
X2034138Y1717899D02*
X2035438D01*
X2034138Y1717449D02*
X2035438D01*
X2034138Y1716999D02*
X2035438D01*
X2034138Y1716549D02*
X2035438D01*
X2034138Y1716099D02*
X2035438D01*
X2034138Y1715649D02*
X2035438D01*
X2034138Y1715199D02*
X2035438D01*
X2034138Y1714749D02*
X2035438D01*
X2034138Y1714299D02*
X2035438D01*
X2034138Y1713849D02*
X2035438D01*
X2034138Y1713399D02*
X2035438D01*
X2034138Y1712949D02*
X2035438D01*
X2034138Y1712499D02*
X2035438D01*
X2034138Y1712049D02*
X2035438D01*
X2034138Y1711599D02*
X2035438D01*
X2034138Y1711149D02*
X2035438D01*
X2034138Y1710699D02*
X2035438D01*
X2034138Y1710249D02*
X2035438D01*
X2034138Y1709799D02*
X2035438D01*
X2034138Y1709349D02*
X2035438D01*
X2034138Y1708899D02*
X2035438D01*
X2034138Y1708449D02*
X2035438D01*
X2034138Y1707999D02*
X2035438D01*
X2034138Y1707549D02*
X2035438D01*
X2034138Y1707099D02*
X2035438D01*
X2034138Y1706649D02*
X2035438D01*
X2034138Y1706199D02*
X2035438D01*
X2034138Y1705749D02*
X2035438D01*
X2034138Y1705299D02*
X2035438D01*
X2034138Y1704849D02*
X2035438D01*
X2034138Y1704399D02*
X2035438D01*
X2034138Y1703949D02*
X2035438D01*
X2034138Y1703499D02*
X2035438D01*
X2034138Y1703049D02*
X2035438D01*
X2034138Y1702599D02*
X2035438D01*
X2034138Y1702149D02*
X2035438D01*
X2034138Y1701699D02*
X2035438D01*
X2034138Y1701249D02*
X2035438D01*
X2034138Y1700799D02*
X2035438D01*
X2034138Y1700349D02*
X2035438D01*
X2034138Y1699899D02*
X2035438D01*
X2034138Y1699449D02*
X2035438D01*
X2034138Y1698999D02*
X2035438D01*
X2034138Y1698549D02*
X2035438D01*
X2034138Y1698099D02*
X2035438D01*
X2034138Y1697649D02*
X2035438D01*
X2034138Y1697199D02*
X2035438D01*
X2034138Y1696749D02*
X2035438D01*
X2034138Y1696299D02*
X2035438D01*
X2034138Y1695849D02*
X2035438D01*
X2034138Y1695399D02*
X2035438D01*
X2034138Y1694949D02*
X2035438D01*
X2034138Y1694499D02*
X2035438D01*
X2034138Y1694049D02*
X2035438D01*
X2034138Y1693599D02*
X2035438D01*
X2034138Y1693149D02*
X2035438D01*
X2034138Y1692699D02*
X2035438D01*
X2034138Y1692249D02*
X2035438D01*
X2034138Y1691799D02*
X2035438D01*
X2034138Y1691349D02*
X2035438D01*
X2034138Y1690899D02*
X2035438D01*
X2034138Y1690449D02*
X2035438D01*
X2034138Y1689999D02*
X2035438D01*
X2034138Y1689549D02*
X2035438D01*
X2034138Y1689099D02*
X2035438D01*
X2034138Y1688649D02*
X2035438D01*
X2034138Y1688199D02*
X2035438D01*
X2034138Y1687749D02*
X2035438D01*
X2034138Y1687299D02*
X2035438D01*
X2034138Y1686849D02*
X2035438D01*
X2034138Y1686399D02*
X2035438D01*
X2034138Y1685949D02*
X2035438D01*
X2034138Y1685499D02*
X2035438D01*
X2034138Y1685049D02*
X2035438D01*
X2034138Y1684599D02*
X2035438D01*
X2034138Y1684149D02*
X2035438D01*
X2034138Y1683699D02*
X2035438D01*
X2034138Y1683249D02*
X2035438D01*
X2034138Y1682799D02*
X2035438D01*
X2034138Y1682349D02*
X2035438D01*
X2034138Y1681899D02*
X2035438D01*
X2034138Y1681449D02*
X2035438D01*
X2034138Y1680999D02*
X2035438D01*
X2034138Y1680549D02*
X2035438D01*
X2034138Y1680099D02*
X2035438D01*
X2034138Y1679649D02*
X2035438D01*
X2034138Y1679199D02*
X2035438D01*
X2034138Y1678749D02*
X2035438D01*
X2034138Y1678299D02*
X2035438D01*
X2034138Y1677849D02*
X2035438D01*
X2034138Y1677399D02*
X2035438D01*
X2034138Y1676949D02*
X2035438D01*
X2034138Y1676499D02*
X2035438D01*
X2034138Y1676049D02*
X2035438D01*
X2034138Y1675599D02*
X2035438D01*
X2034138Y1675149D02*
X2035438D01*
X2034138Y1674699D02*
X2035438D01*
X2034138Y1674249D02*
X2035438D01*
X2034138Y1673799D02*
X2035438D01*
X2034138Y1673349D02*
X2035438D01*
X2034138Y1672899D02*
X2035438D01*
X2034138Y1672449D02*
X2035438D01*
X2034138Y1671999D02*
X2035438D01*
X2034138Y1671549D02*
X2035438D01*
X2034138Y1671099D02*
X2035438D01*
X2034138Y1670649D02*
X2035438D01*
X2034138Y1670199D02*
X2035438D01*
X2034138Y1669749D02*
X2035438D01*
X2034138Y1669299D02*
X2035438D01*
X2034138Y1668849D02*
X2035438D01*
X2034138Y1668399D02*
X2035438D01*
X2034138Y1667949D02*
X2035438D01*
X2034138Y1667499D02*
X2035438D01*
X2034138Y1667049D02*
X2035438D01*
X2034138Y1666599D02*
X2035438D01*
X2034138Y1666149D02*
X2035438D01*
X2034138Y1665699D02*
X2035438D01*
X2034138Y1665249D02*
X2035438D01*
X2034138Y1664799D02*
X2035438D01*
X2034138Y1664349D02*
X2035438D01*
X2034138Y1663899D02*
X2035438D01*
X2034138Y1663449D02*
X2035438D01*
X2034138Y1662999D02*
X2035438D01*
X2034138Y1662549D02*
X2035438D01*
X2034138Y1662099D02*
X2035438D01*
X2034138Y1661649D02*
X2035438D01*
X2034138Y1661199D02*
X2035438D01*
X2034138Y1660749D02*
X2035438D01*
X2034138Y1660299D02*
X2035438D01*
X2034138Y1659849D02*
X2035438D01*
X2034138Y1659399D02*
X2035438D01*
X2034138Y1658949D02*
X2035438D01*
X2034138Y1658499D02*
X2035438D01*
X2034138Y1658049D02*
X2035438D01*
X2034138Y1657599D02*
X2035438D01*
X2034138Y1657149D02*
X2035438D01*
X2034138Y1656699D02*
X2035438D01*
X2034138Y1656249D02*
X2035438D01*
X2034138Y1655799D02*
X2035438D01*
X2034138Y1655349D02*
X2035438D01*
X2034138Y1654899D02*
X2035438D01*
X2034138Y1654449D02*
X2035438D01*
X2034138Y1653999D02*
X2035438D01*
X2034138Y1653549D02*
X2035438D01*
X2034138Y1653099D02*
X2035438D01*
X2034138Y1652649D02*
X2035438D01*
X2034138Y1652199D02*
X2035438D01*
X2034138Y1651749D02*
X2035438D01*
X2034138Y1651299D02*
X2035438D01*
X2034138Y1650849D02*
X2035438D01*
X2034138Y1650399D02*
X2035438D01*
X2034138Y1649949D02*
X2035438D01*
X2034138Y1649499D02*
X2035438D01*
X2034138Y1649049D02*
X2035438D01*
X2034138Y1648599D02*
X2035438D01*
X2034138Y1648149D02*
X2035438D01*
X2034138Y1647699D02*
X2035438D01*
X2034132Y1647249D02*
X2035438D01*
X2034075Y1646799D02*
X2035438D01*
X2033957Y1646349D02*
X2035438D01*
X2033769Y1645899D02*
X2035438D01*
X2033498Y1645449D02*
X2035438D01*
X2033115Y1644999D02*
X2035438D01*
X2032665Y1644549D02*
X2035438D01*
X2032215Y1644099D02*
X2035438D01*
X2031765Y1643649D02*
X2035438D01*
X2031315Y1643199D02*
X2035438D01*
X2031088Y1642749D02*
X2035438D01*
X2031088Y1642299D02*
X2035438D01*
X2031088Y1641849D02*
X2035438D01*
X2031088Y1641399D02*
X2035438D01*
X2031088Y1640949D02*
X2035438D01*
X2031088Y1640499D02*
X2035438D01*
X2031088Y1640049D02*
X2035438D01*
X2031088Y1639599D02*
X2035438D01*
X2031088Y1639149D02*
X2035438D01*
X2031088Y1638699D02*
X2035438D01*
X2031088Y1638249D02*
X2035438D01*
X2031088Y1637799D02*
X2035438D01*
X2031088Y1637349D02*
X2035438D01*
X2031088Y1636899D02*
X2035438D01*
X2031088Y1636449D02*
X2035438D01*
X2031088Y1635999D02*
X2035438D01*
X2031088Y1635549D02*
X2035438D01*
X2031088Y1635099D02*
X2035438D01*
X2031088Y1634649D02*
X2035438D01*
X2031088Y1634199D02*
X2035438D01*
X2031088Y1633749D02*
X2035438D01*
X2031088Y1633299D02*
X2035438D01*
X1950140Y1752549D02*
X2035235D01*
X2031084Y1632849D02*
X2035233D01*
X1950590Y1752999D02*
X2034785D01*
X2030979Y1632399D02*
X2034783D01*
X1951040Y1753449D02*
X2034335D01*
X2030686Y1631949D02*
X2034333D01*
X1951490Y1753899D02*
X2033885D01*
X2029355Y1631499D02*
X2033883D01*
X1951940Y1754349D02*
X2033435D01*
X2029338Y1631049D02*
X2033433D01*
X2029338Y1630599D02*
X2032983D01*
X2029338Y1630149D02*
X2032533D01*
X2029338Y1629699D02*
X2032083D01*
X2029338Y1629249D02*
X2031633D01*
X2029338Y1628799D02*
X2031183D01*
X2029338Y1628349D02*
X2030733D01*
X2029338Y1627899D02*
X2030438D01*
X2029338Y1627449D02*
X2030438D01*
X2029389Y1626999D02*
X2030438D01*
X2029708Y1626549D02*
X2030438D01*
X2029830Y1626099D02*
X2030438D01*
X2029838Y1625649D02*
X2030438D01*
X2029838Y1625199D02*
X2030438D01*
X2030261Y1624749D02*
X2030438D01*
X2030158Y1602249D02*
X2030438D01*
X2029708Y1601799D02*
X2030438D01*
X2029258Y1601349D02*
X2030438D01*
X2028808Y1600899D02*
X2030438D01*
X2028251Y1600449D02*
X2030438D01*
X2026022Y1599999D02*
X2030438D01*
X2025557Y1599549D02*
X2030438D01*
X2024917Y1599099D02*
X2030438D01*
X2023828Y1598649D02*
X2030438D01*
X2013638Y1598199D02*
X2030438D01*
X2013638Y1597749D02*
X2030438D01*
X2023632Y1597299D02*
X2030438D01*
X2024833Y1596849D02*
X2030438D01*
X2025500Y1596399D02*
X2030438D01*
X2025975Y1595949D02*
X2030438D01*
X2026335Y1595499D02*
X2030438D01*
X2026612Y1595049D02*
X2030438D01*
X2026821Y1594599D02*
X2030438D01*
X2026973Y1594149D02*
X2030438D01*
X2027074Y1593699D02*
X2030438D01*
X2027127Y1593249D02*
X2030438D01*
X2027135Y1592799D02*
X2030438D01*
X2027097Y1592349D02*
X2030438D01*
X2027204Y1591899D02*
X2030438D01*
X2027654Y1591449D02*
X2030438D01*
X2028104Y1590999D02*
X2030438D01*
X2028554Y1590549D02*
X2030438D01*
X2029004Y1590099D02*
X2030438D01*
X2029453Y1589649D02*
X2030438D01*
X2029795Y1589199D02*
X2030438D01*
X2030004Y1588749D02*
X2030438D01*
X2030113Y1588299D02*
X2030438D01*
X2030138Y1587849D02*
X2030438D01*
X2030138Y1587399D02*
X2030438D01*
X2030138Y1586949D02*
X2030438D01*
X2030138Y1586499D02*
X2030438D01*
X2030138Y1586049D02*
X2030438D01*
X2030138Y1585599D02*
X2030438D01*
X2030138Y1585149D02*
X2030438D01*
X2030138Y1584699D02*
X2030438D01*
X2030138Y1584249D02*
X2030438D01*
X2030138Y1583799D02*
X2030438D01*
X2030138Y1583349D02*
X2030438D01*
X2030138Y1582899D02*
X2030438D01*
X2030138Y1582449D02*
X2030438D01*
X2030138Y1581999D02*
X2030438D01*
X2030138Y1581549D02*
X2030438D01*
X2030138Y1581099D02*
X2030438D01*
X2030138Y1580649D02*
X2030438D01*
X2030138Y1580199D02*
X2030438D01*
X2030138Y1579749D02*
X2030438D01*
X2030138Y1579299D02*
X2030438D01*
X2030135Y1578849D02*
X2030438D01*
X2030075Y1578399D02*
X2030438D01*
X2029924Y1577949D02*
X2030438D01*
X2029715Y1577499D02*
X2030438D01*
X2029506Y1577049D02*
X2030438D01*
X2029297Y1576599D02*
X2030438D01*
X2029088Y1576149D02*
X2030438D01*
X2028879Y1575699D02*
X2030438D01*
X2028838Y1575249D02*
X2030438D01*
X2028920Y1574799D02*
X2030438D01*
X2029525Y1574349D02*
X2030438D01*
X2029766Y1573899D02*
X2030438D01*
X2029838Y1573449D02*
X2030438D01*
X2029838Y1572999D02*
X2030438D01*
X2029838Y1572549D02*
X2030438D01*
X2029838Y1572099D02*
X2030438D01*
X2029838Y1571649D02*
X2030438D01*
X2029838Y1571199D02*
X2030438D01*
X2029838Y1570749D02*
X2030438D01*
X2029830Y1570299D02*
X2030438D01*
X2029707Y1569849D02*
X2030438D01*
X2029386Y1569399D02*
X2030438D01*
X2029138Y1568949D02*
X2030438D01*
X2029138Y1568499D02*
X2030438D01*
X2029138Y1568049D02*
X2030438D01*
X2029138Y1567599D02*
X2030438D01*
X2029138Y1567149D02*
X2030438D01*
X2029138Y1566699D02*
X2030438D01*
X2029138Y1566249D02*
X2030438D01*
X2029138Y1565799D02*
X2030438D01*
X2029138Y1565349D02*
X2030438D01*
X2029138Y1564899D02*
X2030438D01*
X2029138Y1564449D02*
X2030438D01*
X2029138Y1563999D02*
X2030438D01*
X2029138Y1563549D02*
X2030438D01*
X2029138Y1563099D02*
X2030438D01*
X2029138Y1562649D02*
X2030438D01*
X2029138Y1562199D02*
X2030438D01*
X2029138Y1561749D02*
X2030438D01*
X2029138Y1561299D02*
X2030438D01*
X2029138Y1560849D02*
X2030438D01*
X2029138Y1560399D02*
X2030438D01*
X2029138Y1559949D02*
X2030438D01*
X2029138Y1559499D02*
X2030438D01*
X2029138Y1559049D02*
X2030438D01*
X2029138Y1558599D02*
X2030438D01*
X2029138Y1558149D02*
X2030438D01*
X2029138Y1557699D02*
X2030438D01*
X2029138Y1557249D02*
X2030438D01*
X2029720Y1556799D02*
X2030438D01*
X2030325Y1556349D02*
X2030438D01*
X2030000Y1548249D02*
X2030438D01*
X2001088Y1547799D02*
X2030438D01*
X2001088Y1547349D02*
X2030438D01*
X2001088Y1546899D02*
X2030438D01*
X2001088Y1546449D02*
X2030333D01*
X2001088Y1545999D02*
X2029883D01*
X2001031Y1545549D02*
X2029433D01*
X2000811Y1545099D02*
X2028983D01*
X2000277Y1544649D02*
X2028533D01*
X2026557Y1730499D02*
X2027237D01*
X2026926Y1730049D02*
X2027237D01*
X2027159Y1724199D02*
X2027237D01*
X2026849Y1723749D02*
X2027237D01*
X2026460Y1723299D02*
X2027237D01*
X2025965Y1722849D02*
X2027237D01*
X2025304Y1722399D02*
X2027237D01*
X2024284Y1721949D02*
X2027237D01*
X1949938Y1721499D02*
X2027237D01*
X1949938Y1721049D02*
X2027237D01*
X1949938Y1720599D02*
X2027237D01*
X1949938Y1720149D02*
X2027237D01*
X1949938Y1719699D02*
X2027237D01*
X1949938Y1719249D02*
X2027237D01*
X1949938Y1718799D02*
X2027237D01*
X1949938Y1718349D02*
X2027237D01*
X1949938Y1717899D02*
X2027237D01*
X1949938Y1717449D02*
X2027237D01*
X1949938Y1716999D02*
X2027237D01*
X1949938Y1716549D02*
X2027237D01*
X1949938Y1716099D02*
X2027237D01*
X1949938Y1715649D02*
X2027237D01*
X1949938Y1715199D02*
X2027237D01*
X1949938Y1714749D02*
X2027237D01*
X1949938Y1714299D02*
X2027237D01*
X1949938Y1713849D02*
X2027237D01*
X1949938Y1713399D02*
X2027237D01*
X1949938Y1712949D02*
X2027237D01*
X1949938Y1712499D02*
X2027237D01*
X1949938Y1712049D02*
X2027237D01*
X1949938Y1711599D02*
X2027237D01*
X1949938Y1711149D02*
X2027237D01*
X1949938Y1710699D02*
X2027237D01*
X1949938Y1710249D02*
X2027237D01*
X1949938Y1709799D02*
X2027237D01*
X1949938Y1709349D02*
X2027237D01*
X1949938Y1708899D02*
X2027237D01*
X1949938Y1708449D02*
X2027237D01*
X1949938Y1707999D02*
X2027237D01*
X1949938Y1707549D02*
X2027237D01*
X1949938Y1707099D02*
X2027237D01*
X1949938Y1706649D02*
X2027237D01*
X1949938Y1706199D02*
X2027237D01*
X1949938Y1705749D02*
X2027237D01*
X1949938Y1705299D02*
X2027237D01*
X1949938Y1704849D02*
X2027237D01*
X1949938Y1704399D02*
X2027237D01*
X1949938Y1703949D02*
X2027237D01*
X1949938Y1703499D02*
X2027237D01*
X1949938Y1703049D02*
X2027237D01*
X1949938Y1702599D02*
X2027237D01*
X1949938Y1702149D02*
X2027237D01*
X1949938Y1701699D02*
X2027237D01*
X1949938Y1701249D02*
X2027237D01*
X1949938Y1700799D02*
X2027237D01*
X1949938Y1700349D02*
X2027237D01*
X1949938Y1699899D02*
X2027237D01*
X1949938Y1699449D02*
X2027237D01*
X1949938Y1698999D02*
X2027237D01*
X1949938Y1698549D02*
X2027237D01*
X1949938Y1698099D02*
X2027237D01*
X1949938Y1697649D02*
X2027237D01*
X1949938Y1697199D02*
X2027237D01*
X1949938Y1696749D02*
X2027237D01*
X1949938Y1696299D02*
X2027237D01*
X1949938Y1695849D02*
X2027237D01*
X1949938Y1695399D02*
X2027237D01*
X1949938Y1694949D02*
X2027237D01*
X1949938Y1694499D02*
X2027237D01*
X1949938Y1694049D02*
X2027237D01*
X1949938Y1693599D02*
X2027237D01*
X1949938Y1693149D02*
X2027237D01*
X1949938Y1692699D02*
X2027237D01*
X1949938Y1692249D02*
X2027237D01*
X1949938Y1691799D02*
X2027237D01*
X1949938Y1691349D02*
X2027237D01*
X1949938Y1690899D02*
X2027237D01*
X1949938Y1690449D02*
X2027237D01*
X1949938Y1689999D02*
X2027237D01*
X1949938Y1689549D02*
X2027237D01*
X1949938Y1689099D02*
X2027237D01*
X1949938Y1688649D02*
X2027237D01*
X1949938Y1688199D02*
X2027237D01*
X1949938Y1687749D02*
X2027237D01*
X1949938Y1687299D02*
X2027237D01*
X1949938Y1686849D02*
X2027237D01*
X1949938Y1686399D02*
X2027237D01*
X1949938Y1685949D02*
X2027237D01*
X1949938Y1685499D02*
X2027237D01*
X1949938Y1685049D02*
X2027237D01*
X1949938Y1684599D02*
X2027237D01*
X1949938Y1684149D02*
X2027237D01*
X1949938Y1683699D02*
X2027237D01*
X1949938Y1683249D02*
X2027237D01*
X1949938Y1682799D02*
X2027237D01*
X1949938Y1682349D02*
X2027237D01*
X1949938Y1681899D02*
X2027237D01*
X1949938Y1681449D02*
X2027237D01*
X1949938Y1680999D02*
X2027237D01*
X1949938Y1680549D02*
X2027237D01*
X1949938Y1680099D02*
X2027237D01*
X1949938Y1679649D02*
X2027237D01*
X1949938Y1679199D02*
X2027237D01*
X1949938Y1678749D02*
X2027237D01*
X1949938Y1678299D02*
X2027237D01*
X1949938Y1677849D02*
X2027237D01*
X1949938Y1677399D02*
X2027237D01*
X1949938Y1676949D02*
X2027237D01*
X1949938Y1676499D02*
X2027237D01*
X1949938Y1676049D02*
X2027237D01*
X1949938Y1675599D02*
X2027237D01*
X1949938Y1675149D02*
X2027237D01*
X1949938Y1674699D02*
X2027237D01*
X1949938Y1674249D02*
X2027237D01*
X1949938Y1673799D02*
X2027237D01*
X1949938Y1673349D02*
X2027237D01*
X1949938Y1672899D02*
X2027237D01*
X1949938Y1672449D02*
X2027237D01*
X2024127Y1671999D02*
X2027237D01*
X2025220Y1671549D02*
X2027237D01*
X2025905Y1671099D02*
X2027237D01*
X2026413Y1670649D02*
X2027237D01*
X2026812Y1670199D02*
X2027237D01*
X2027129Y1669749D02*
X2027237D01*
X2027029Y1653999D02*
X2027237D01*
X2026687Y1653549D02*
X2027237D01*
X2026255Y1653099D02*
X2027237D01*
X2025698Y1652649D02*
X2027237D01*
X2024921Y1652199D02*
X2027237D01*
X2023401Y1651749D02*
X2027237D01*
X1987138Y1651299D02*
X2027237D01*
X1987138Y1650849D02*
X2027237D01*
X1987138Y1650399D02*
X2027237D01*
X1987138Y1649949D02*
X2027237D01*
X1987138Y1649499D02*
X2027237D01*
X1987138Y1649049D02*
X2027237D01*
X1987138Y1648599D02*
X2026957D01*
X2026089Y1730949D02*
X2026810D01*
X1987138Y1648149D02*
X2026507D01*
X2025475Y1731399D02*
X2026360D01*
X1987138Y1647699D02*
X2026057D01*
X2024576Y1731849D02*
X2025910D01*
X2014789Y1620699D02*
X2025737D01*
X2014252Y1620249D02*
X2025737D01*
X2013638Y1619799D02*
X2025737D01*
X2013638Y1619349D02*
X2025737D01*
X2013638Y1618899D02*
X2025737D01*
X2013638Y1618449D02*
X2025737D01*
X2013638Y1617999D02*
X2025737D01*
X2013638Y1617549D02*
X2025737D01*
X2024297Y1617099D02*
X2025737D01*
X2025162Y1616649D02*
X2025737D01*
X2025434Y1609449D02*
X2025737D01*
X2024734Y1608999D02*
X2025737D01*
X2023344Y1608549D02*
X2025737D01*
X2013638Y1608099D02*
X2025737D01*
X2013638Y1607649D02*
X2025737D01*
X2024011Y1607199D02*
X2025737D01*
X2025005Y1606749D02*
X2025737D01*
X2025618Y1606299D02*
X2025737D01*
X2015205Y1621149D02*
X2025517D01*
X1949938Y1732299D02*
X2025460D01*
X2024640Y1586949D02*
X2025224D01*
X1949938Y1732749D02*
X2025010D01*
X2024414Y1578849D02*
X2024939D01*
X2022796Y1587399D02*
X2024774D01*
X2017004Y1578399D02*
X2024730D01*
X1949938Y1733199D02*
X2024560D01*
X2017454Y1577949D02*
X2024521D01*
X2007554Y1587849D02*
X2024324D01*
X2017904Y1577499D02*
X2024312D01*
X2022438Y1568949D02*
X2024237D01*
X2022438Y1568499D02*
X2024237D01*
X2022438Y1568049D02*
X2024237D01*
X2022438Y1567599D02*
X2024237D01*
X2022438Y1567149D02*
X2024237D01*
X2022438Y1566699D02*
X2024237D01*
X2022438Y1566249D02*
X2024237D01*
X2022438Y1565799D02*
X2024237D01*
X2022438Y1565349D02*
X2024237D01*
X2022438Y1564899D02*
X2024237D01*
X2022438Y1564449D02*
X2024237D01*
X2022438Y1563999D02*
X2024237D01*
X2022438Y1563549D02*
X2024237D01*
X2022438Y1563099D02*
X2024237D01*
X2022438Y1562649D02*
X2024237D01*
X2022438Y1562199D02*
X2024237D01*
X2022438Y1561749D02*
X2024237D01*
X2022438Y1561299D02*
X2024237D01*
X2022438Y1560849D02*
X2024237D01*
X2022438Y1560399D02*
X2024237D01*
X2022404Y1559949D02*
X2024237D01*
X2022285Y1559499D02*
X2024237D01*
X2022063Y1559049D02*
X2024237D01*
X2021701Y1558599D02*
X2024237D01*
X2021251Y1558149D02*
X2024237D01*
X2020801Y1557699D02*
X2024237D01*
X2020351Y1557249D02*
X2024237D01*
X2018354Y1577049D02*
X2024108D01*
X2018804Y1576599D02*
X2023979D01*
X2019254Y1576149D02*
X2023937D01*
X2019704Y1575699D02*
X2023937D01*
X2020154Y1575249D02*
X2023937D01*
X2007104Y1588299D02*
X2023874D01*
X2015536Y1621599D02*
X2023862D01*
X2022520Y1574799D02*
X2023855D01*
X1986352Y1631049D02*
X2023437D01*
X1985876Y1630599D02*
X2023437D01*
X1985237Y1630149D02*
X2023437D01*
X1984245Y1629699D02*
X2023437D01*
X2013191Y1629249D02*
X2023437D01*
X2014039Y1628799D02*
X2023437D01*
X2014628Y1628349D02*
X2023437D01*
X2015079Y1627899D02*
X2023437D01*
X2015436Y1627449D02*
X2023437D01*
X1986724Y1631499D02*
X2023420D01*
X2022986Y1569399D02*
X2023389D01*
X2022668Y1626999D02*
X2023386D01*
X2022854Y1622049D02*
X2023252D01*
X2023125Y1574349D02*
X2023250D01*
X2008004Y1587399D02*
X2022579D01*
X2019901Y1556799D02*
X2022455D01*
X2016200Y1548249D02*
X2022175D01*
X2013638Y1608549D02*
X2022031D01*
X1987137Y1651749D02*
X2021974D01*
X2019451Y1556349D02*
X2021850D01*
X2016628Y1548699D02*
X2021747D01*
X2013804Y1597299D02*
X2021743D01*
X2019001Y1555899D02*
X2021609D01*
X2016806Y1549149D02*
X2021569D01*
X2013638Y1598649D02*
X2021547D01*
X2018551Y1555449D02*
X2021537D01*
X2018101Y1554999D02*
X2021537D01*
X2017651Y1554549D02*
X2021537D01*
X2017201Y1554099D02*
X2021537D01*
X2016838Y1553649D02*
X2021537D01*
X2016838Y1553199D02*
X2021537D01*
X2016838Y1552749D02*
X2021537D01*
X2016838Y1552299D02*
X2021537D01*
X2016838Y1551849D02*
X2021537D01*
X2016838Y1551399D02*
X2021537D01*
X2016838Y1550949D02*
X2021537D01*
X2016838Y1550499D02*
X2021537D01*
X2016838Y1550049D02*
X2021537D01*
X2016838Y1549599D02*
X2021537D01*
X2013638Y1607199D02*
X2021364D01*
X1964740Y1671999D02*
X2021248D01*
X2006654Y1588749D02*
X2021221D01*
X1964284Y1721949D02*
X2021091D01*
X2013638Y1617099D02*
X2021078D01*
X1993268Y1741749D02*
X2021060D01*
X2016554Y1578849D02*
X2020961D01*
X1964475Y1752099D02*
X2020900D01*
X1964576Y1731849D02*
X2020799D01*
X2008454Y1586949D02*
X2020735D01*
X1967138Y1662099D02*
X2020681D01*
X2013638Y1608999D02*
X2020641D01*
X2014254Y1596849D02*
X2020542D01*
X2013638Y1599099D02*
X2020458D01*
X1987109Y1652199D02*
X2020454D01*
X2013638Y1606749D02*
X2020370D01*
X1967138Y1661649D02*
X2020345D01*
X2006204Y1589199D02*
X2020294D01*
X2013638Y1616649D02*
X2020213D01*
X1965612Y1671549D02*
X2020155D01*
X2016104Y1579299D02*
X2020144D01*
X1965304Y1722399D02*
X2020071D01*
X1992818Y1742199D02*
X2020018D01*
X2008904Y1586499D02*
X2020002D01*
X2013638Y1609449D02*
X2019941D01*
X1965449Y1751649D02*
X2019926D01*
X1965475Y1731399D02*
X2019900D01*
X2014704Y1596399D02*
X2019875D01*
X1967138Y1662549D02*
X2019825D01*
X2013638Y1599549D02*
X2019818D01*
X2013638Y1606299D02*
X2019757D01*
X2005754Y1589649D02*
X2019704D01*
X1987035Y1652649D02*
X2019677D01*
X2013638Y1616199D02*
X2019646D01*
X1978761Y1661199D02*
X2019603D01*
X2015654Y1579749D02*
X2019597D01*
X2009354Y1586049D02*
X2019494D01*
X1987138Y1647249D02*
X2019493D01*
X1966222Y1671099D02*
X2019470D01*
X2013638Y1609899D02*
X2019448D01*
X1965965Y1722849D02*
X2019410D01*
X2015154Y1595949D02*
X2019400D01*
X2013638Y1599999D02*
X2019357D01*
X1992368Y1742649D02*
X2019341D01*
X2013638Y1605849D02*
X2019311D01*
X1966089Y1730949D02*
X2019286D01*
X1966101Y1751199D02*
X2019274D01*
X2005165Y1590099D02*
X2019271D01*
X1967138Y1662999D02*
X2019231D01*
X2013638Y1615749D02*
X2019228D01*
X2015204Y1580199D02*
X2019190D01*
X1986912Y1653099D02*
X2019120D01*
X2009804Y1585599D02*
X2019112D01*
X2005986Y1631949D02*
X2019089D01*
X2013638Y1610349D02*
X2019077D01*
X1979755Y1660749D02*
X2019064D01*
X2015604Y1595499D02*
X2019040D01*
X2013638Y1600449D02*
X2019007D01*
X2013638Y1605399D02*
X2018972D01*
X2006155Y1646799D02*
X2018962D01*
X1966690Y1670649D02*
X2018962D01*
X1966460Y1723299D02*
X2018915D01*
X2013638Y1615299D02*
X2018908D01*
X2014754Y1580649D02*
X2018879D01*
X1991918Y1743099D02*
X2018831D01*
X2010254Y1585149D02*
X2018819D01*
X1966557Y1730499D02*
X2018818D01*
X2006359Y1632399D02*
X2018796D01*
X2013638Y1610799D02*
X2018792D01*
X1966596Y1750749D02*
X2018779D01*
X1967138Y1663449D02*
X2018776D01*
X2006422Y1646349D02*
X2018743D01*
X2013638Y1600899D02*
X2018738D01*
X2013638Y1604949D02*
X2018712D01*
X2006483Y1632849D02*
X2018691D01*
X1986735Y1653549D02*
X2018688D01*
X2006488Y1645899D02*
X2018687D01*
X2006488Y1645449D02*
X2018687D01*
X2006488Y1644999D02*
X2018687D01*
X2006488Y1644549D02*
X2018687D01*
X2006488Y1644099D02*
X2018687D01*
X2006488Y1643649D02*
X2018687D01*
X2006488Y1643199D02*
X2018687D01*
X2006488Y1642749D02*
X2018687D01*
X2006488Y1642299D02*
X2018687D01*
X2006488Y1641849D02*
X2018687D01*
X2006488Y1641399D02*
X2018687D01*
X2006488Y1640949D02*
X2018687D01*
X2006488Y1640499D02*
X2018687D01*
X2006488Y1640049D02*
X2018687D01*
X2006488Y1639599D02*
X2018687D01*
X2006488Y1639149D02*
X2018687D01*
X2006488Y1638699D02*
X2018687D01*
X2006488Y1638249D02*
X2018687D01*
X2006488Y1637799D02*
X2018687D01*
X2006488Y1637349D02*
X2018687D01*
X2006488Y1636899D02*
X2018687D01*
X2006488Y1636449D02*
X2018687D01*
X2006488Y1635999D02*
X2018687D01*
X2006488Y1635549D02*
X2018687D01*
X2006488Y1635099D02*
X2018687D01*
X2006488Y1634649D02*
X2018687D01*
X2006488Y1634199D02*
X2018687D01*
X2006488Y1633749D02*
X2018687D01*
X2006488Y1633299D02*
X2018687D01*
X2013638Y1614849D02*
X2018663D01*
X1980368Y1660299D02*
X2018644D01*
X2014304Y1581099D02*
X2018641D01*
X2010704Y1584699D02*
X2018595D01*
X2013638Y1611249D02*
X2018576D01*
X1967063Y1670199D02*
X2018563D01*
X2013638Y1601349D02*
X2018536D01*
X1966849Y1723749D02*
X2018526D01*
X2013638Y1604499D02*
X2018516D01*
X2013638Y1614399D02*
X2018480D01*
X2013854Y1581549D02*
X2018464D01*
X1966926Y1730049D02*
X2018449D01*
X2011154Y1584249D02*
X2018431D01*
X1991468Y1743549D02*
X2018429D01*
X2013638Y1611699D02*
X2018417D01*
X1967203Y1663899D02*
X2018415D01*
X2013638Y1601799D02*
X2018389D01*
X1984018Y1750299D02*
X2018388D01*
X2013638Y1604049D02*
X2018375D01*
X2013638Y1613949D02*
X2018351D01*
X1986498Y1653999D02*
X2018346D01*
X2013404Y1581999D02*
X2018340D01*
X2011604Y1583799D02*
X2018319D01*
X1980832Y1659849D02*
X2018310D01*
X2013638Y1612149D02*
X2018310D01*
X2013638Y1602249D02*
X2018293D01*
X2013638Y1603599D02*
X2018285D01*
X2013638Y1613499D02*
X2018271D01*
X2012954Y1582449D02*
X2018266D01*
X2012054Y1583349D02*
X2018255D01*
X2013638Y1612599D02*
X2018251D01*
X1967364Y1669749D02*
X2018246D01*
X2013638Y1602699D02*
X2018245D01*
X2013638Y1603149D02*
X2018242D01*
X2013638Y1613049D02*
X2018239D01*
X2012504Y1582899D02*
X2018238D01*
X1967159Y1724199D02*
X2018216D01*
X1967220Y1729599D02*
X2018155D01*
X1967477Y1664349D02*
X2018127D01*
X1991018Y1743999D02*
X2018106D01*
X1985058Y1749849D02*
X2018072D01*
X1986187Y1654449D02*
X2018072D01*
X1981282Y1659399D02*
X2018044D01*
X1967605Y1669299D02*
X2017992D01*
X1967406Y1724649D02*
X2017969D01*
X1967455Y1729149D02*
X2017920D01*
X1967695Y1664799D02*
X2017898D01*
X1985782Y1654899D02*
X2017855D01*
X1990568Y1744449D02*
X2017845D01*
X1981732Y1658949D02*
X2017833D01*
X1985618Y1749399D02*
X2017819D01*
X1967796Y1668849D02*
X2017793D01*
X1967600Y1725099D02*
X2017775D01*
X1967638Y1728699D02*
X2017737D01*
X1967865Y1665249D02*
X2017721D01*
X1985332Y1655349D02*
X2017688D01*
X1982182Y1658499D02*
X2017671D01*
X1967941Y1668399D02*
X2017641D01*
X1990118Y1744899D02*
X2017638D01*
X1967747Y1725549D02*
X2017628D01*
X1986068Y1748949D02*
X2017617D01*
X1967774Y1728249D02*
X2017601D01*
X1967992Y1665699D02*
X2017589D01*
X1984882Y1655799D02*
X2017565D01*
X1982632Y1658049D02*
X2017554D01*
X2015988Y1568949D02*
X2017537D01*
X2016152Y1568499D02*
X2017537D01*
X2016270Y1568049D02*
X2017537D01*
X2016347Y1567599D02*
X2017537D01*
X2016384Y1567149D02*
X2017537D01*
X2016381Y1566699D02*
X2017537D01*
X2016340Y1566249D02*
X2017537D01*
X2016258Y1565799D02*
X2017537D01*
X2016135Y1565349D02*
X2017537D01*
X2015966Y1564899D02*
X2017537D01*
X2015746Y1564449D02*
X2017537D01*
X2015469Y1563999D02*
X2017537D01*
X2015121Y1563549D02*
X2017537D01*
X2014681Y1563099D02*
X2017537D01*
X2014110Y1562649D02*
X2017537D01*
X2013301Y1562199D02*
X2017537D01*
X1998658Y1561749D02*
X2017537D01*
X1968045Y1667949D02*
X2017533D01*
X1967851Y1725999D02*
X2017524D01*
X1967868Y1727799D02*
X2017507D01*
X1968078Y1666149D02*
X2017499D01*
X1984432Y1656249D02*
X2017485D01*
X1989668Y1745349D02*
X2017478D01*
X1983082Y1657599D02*
X2017478D01*
X1998208Y1561299D02*
X2017471D01*
X1968110Y1667499D02*
X2017466D01*
X1986518Y1748499D02*
X2017462D01*
X1967914Y1726449D02*
X2017461D01*
X1967922Y1727349D02*
X2017453D01*
X1968126Y1666599D02*
X2017449D01*
X1983982Y1656699D02*
X2017443D01*
X1983532Y1657149D02*
X2017441D01*
X1968137Y1667049D02*
X2017438D01*
X1967937Y1726899D02*
X2017438D01*
X1989218Y1745799D02*
X2017360D01*
X1986968Y1748049D02*
X2017349D01*
X2015720Y1626999D02*
X2017307D01*
X1988768Y1746249D02*
X2017283D01*
X1987418Y1747599D02*
X2017276D01*
X1988318Y1746699D02*
X2017243D01*
X1987868Y1747149D02*
X2017241D01*
X2015800Y1622049D02*
X2017121D01*
X1997838Y1560849D02*
X2017021D01*
X2015775Y1569399D02*
X2016989D01*
X2015945Y1626549D02*
X2016890D01*
X2016008Y1622499D02*
X2016822D01*
X2016119Y1626099D02*
X2016746D01*
X2016247Y1625649D02*
X2016737D01*
X2016333Y1625199D02*
X2016737D01*
X2016379Y1624749D02*
X2016737D01*
X2016385Y1624299D02*
X2016737D01*
X2016353Y1623849D02*
X2016737D01*
X2016280Y1623399D02*
X2016737D01*
X2016166Y1622949D02*
X2016737D01*
X2015505Y1569849D02*
X2016668D01*
X1999700Y1560399D02*
X2016571D01*
X2015166Y1570299D02*
X2016545D01*
X2013415Y1571649D02*
X2016537D01*
X2014186Y1571199D02*
X2016537D01*
X2014739Y1570749D02*
X2016537D01*
X2011916Y1572099D02*
X2016374D01*
X2000689Y1559949D02*
X2016121D01*
X2002838Y1572549D02*
X2015924D01*
X2000980Y1559499D02*
X2015671D01*
X2002838Y1572999D02*
X2015474D01*
X2001084Y1559049D02*
X2015221D01*
X2002838Y1573449D02*
X2015024D01*
X2001088Y1558599D02*
X2014771D01*
X2002766Y1573899D02*
X2014574D01*
X2001088Y1558149D02*
X2014321D01*
X1997174Y1590549D02*
X2014201D01*
X2002525Y1574349D02*
X2014124D01*
X2001088Y1557699D02*
X2013871D01*
X2002338Y1574799D02*
X2013674D01*
X2001088Y1557249D02*
X2013421D01*
X2002338Y1575249D02*
X2013224D01*
X1998169Y1590999D02*
X2013206D01*
X2002338Y1575699D02*
X2012774D01*
X1998651Y1591449D02*
X2012724D01*
X2002338Y1576149D02*
X2012324D01*
X1999101Y1591899D02*
X2012274D01*
X2002317Y1576599D02*
X2011874D01*
X1999551Y1592349D02*
X2011824D01*
X2002227Y1577049D02*
X2011424D01*
X2000001Y1592799D02*
X2011374D01*
X2002060Y1577499D02*
X2010974D01*
X2000450Y1593249D02*
X2010924D01*
X2001799Y1577949D02*
X2010524D01*
X2000794Y1593699D02*
X2010474D01*
X2002838Y1572099D02*
X2010459D01*
X2001411Y1578399D02*
X2010074D01*
X2001003Y1594149D02*
X2010024D01*
X2000961Y1578849D02*
X2009624D01*
X2001112Y1594599D02*
X2009574D01*
X1984691Y1629249D02*
X2009184D01*
X2001138Y1595049D02*
X2009178D01*
X2000511Y1579299D02*
X2009174D01*
X1999108Y1562199D02*
X2009074D01*
X2002838Y1571649D02*
X2008960D01*
X2001138Y1595499D02*
X2008930D01*
X2001138Y1595949D02*
X2008789D01*
X2001138Y1596399D02*
X2008738D01*
X1985012Y1619799D02*
X2008737D01*
X1983696Y1619349D02*
X2008737D01*
X1981438Y1618899D02*
X2008737D01*
X1981438Y1618449D02*
X2008737D01*
X1988389Y1617999D02*
X2008737D01*
X1988708Y1617549D02*
X2008737D01*
X1996572Y1617099D02*
X2008737D01*
X1996958Y1616649D02*
X2008737D01*
X1997116Y1616199D02*
X2008737D01*
X1997138Y1615749D02*
X2008737D01*
X1997138Y1615299D02*
X2008737D01*
X1997138Y1614849D02*
X2008737D01*
X1997138Y1614399D02*
X2008737D01*
X1997138Y1613949D02*
X2008737D01*
X1997138Y1613499D02*
X2008737D01*
X1997138Y1613049D02*
X2008737D01*
X1997138Y1612599D02*
X2008737D01*
X1997138Y1612149D02*
X2008737D01*
X1997138Y1611699D02*
X2008737D01*
X1997138Y1611249D02*
X2008737D01*
X1997138Y1610799D02*
X2008737D01*
X1997138Y1610349D02*
X2008737D01*
X1997673Y1609899D02*
X2008737D01*
X1998154Y1609449D02*
X2008737D01*
X1998604Y1608999D02*
X2008737D01*
X1999054Y1608549D02*
X2008737D01*
X1999504Y1608099D02*
X2008737D01*
X1999954Y1607649D02*
X2008737D01*
X2000404Y1607199D02*
X2008737D01*
X2000765Y1606749D02*
X2008737D01*
X2000986Y1606299D02*
X2008737D01*
X2001105Y1605849D02*
X2008737D01*
X2001138Y1605399D02*
X2008737D01*
X2001138Y1604949D02*
X2008737D01*
X2001138Y1604499D02*
X2008737D01*
X2001138Y1604049D02*
X2008737D01*
X2001138Y1603599D02*
X2008737D01*
X2001138Y1603149D02*
X2008737D01*
X2001138Y1602699D02*
X2008737D01*
X2001138Y1602249D02*
X2008737D01*
X2001138Y1601799D02*
X2008737D01*
X2001138Y1601349D02*
X2008737D01*
X2001138Y1600899D02*
X2008737D01*
X2001138Y1600449D02*
X2008737D01*
X2001138Y1599999D02*
X2008737D01*
X2001138Y1599549D02*
X2008737D01*
X2001138Y1599099D02*
X2008737D01*
X2001138Y1598649D02*
X2008737D01*
X2001138Y1598199D02*
X2008737D01*
X2001138Y1597749D02*
X2008737D01*
X2001138Y1597299D02*
X2008737D01*
X2001138Y1596849D02*
X2008737D01*
X2000061Y1579749D02*
X2008724D01*
X2001088Y1556799D02*
X2008655D01*
X2001088Y1548249D02*
X2008375D01*
X1985539Y1628799D02*
X2008336D01*
X1999611Y1580199D02*
X2008274D01*
X1999558Y1562649D02*
X2008265D01*
X2002838Y1571199D02*
X2008189D01*
X1985752Y1620249D02*
X2008123D01*
X2001088Y1556349D02*
X2008050D01*
X2001088Y1548699D02*
X2007947D01*
X1999161Y1580649D02*
X2007824D01*
X2003283Y1555899D02*
X2007809D01*
X2004189Y1549149D02*
X2007769D01*
X1986128Y1628349D02*
X2007747D01*
X2004894Y1555449D02*
X2007737D01*
X2005513Y1554999D02*
X2007737D01*
X2005926Y1554549D02*
X2007737D01*
X2006218Y1554099D02*
X2007737D01*
X2006423Y1553649D02*
X2007737D01*
X2006555Y1553199D02*
X2007737D01*
X2006625Y1552749D02*
X2007737D01*
X2006634Y1552299D02*
X2007737D01*
X2006585Y1551849D02*
X2007737D01*
X2006473Y1551399D02*
X2007737D01*
X2006294Y1550949D02*
X2007737D01*
X2006033Y1550499D02*
X2007737D01*
X2005665Y1550049D02*
X2007737D01*
X2005130Y1549599D02*
X2007737D01*
X2000008Y1563099D02*
X2007694D01*
X2002838Y1570749D02*
X2007636D01*
X1986289Y1620699D02*
X2007586D01*
X1998711Y1581099D02*
X2007374D01*
X1986579Y1627899D02*
X2007296D01*
X2000458Y1563549D02*
X2007254D01*
X2002830Y1570299D02*
X2007209D01*
X1986705Y1621149D02*
X2007170D01*
X1986936Y1627449D02*
X2006939D01*
X1998261Y1581549D02*
X2006924D01*
X2000908Y1563999D02*
X2006906D01*
X2002707Y1569849D02*
X2006870D01*
X1987036Y1621599D02*
X2006839D01*
X1987220Y1626999D02*
X2006655D01*
X2001358Y1564449D02*
X2006629D01*
X2002386Y1569399D02*
X2006600D01*
X1987300Y1622049D02*
X2006575D01*
X1997811Y1581999D02*
X2006474D01*
X1987445Y1626549D02*
X2006430D01*
X2001761Y1564899D02*
X2006409D01*
X2002338Y1568949D02*
X2006387D01*
X1987508Y1622499D02*
X2006367D01*
X1987619Y1626099D02*
X2006256D01*
X2002035Y1565349D02*
X2006240D01*
X2002338Y1568499D02*
X2006223D01*
X1987666Y1622949D02*
X2006209D01*
X1987747Y1625649D02*
X2006128D01*
X2002212Y1565799D02*
X2006117D01*
X2002338Y1568049D02*
X2006105D01*
X1987780Y1623399D02*
X2006095D01*
X1987833Y1625199D02*
X2006042D01*
X2002310Y1566249D02*
X2006035D01*
X2002338Y1567599D02*
X2006028D01*
X1997361Y1582449D02*
X2006024D01*
X1987853Y1623849D02*
X2006022D01*
X1987879Y1624749D02*
X2005996D01*
X2002338Y1566699D02*
X2005994D01*
X2002338Y1567149D02*
X2005991D01*
X1987885Y1624299D02*
X2005990D01*
X1997137Y1582899D02*
X2005574D01*
X1997120Y1583349D02*
X2005124D01*
X1997056Y1583799D02*
X2004674D01*
X1996944Y1584249D02*
X2004224D01*
X1996780Y1584699D02*
X2003774D01*
X1996556Y1585149D02*
X2003324D01*
X2001088Y1555899D02*
X2003092D01*
X2001088Y1549149D02*
X2002186D01*
X2001088Y1555449D02*
X2001481D01*
X1987201Y1574799D02*
X1996437D01*
X1987488Y1568949D02*
X1996437D01*
X1987652Y1568499D02*
X1996437D01*
X1987770Y1568049D02*
X1996437D01*
X1995664Y1569399D02*
X1996389D01*
X1995856Y1574349D02*
X1996250D01*
X1987389Y1575249D02*
X1996217D01*
X1987847Y1567599D02*
X1996164D01*
X1987528Y1575699D02*
X1995767D01*
X1987884Y1567149D02*
X1995714D01*
X1987623Y1576149D02*
X1995317D01*
X1987881Y1566699D02*
X1995264D01*
X1987017Y1631949D02*
X1994989D01*
X1987675Y1576599D02*
X1994867D01*
X1987327Y1646799D02*
X1994820D01*
X1987840Y1566249D02*
X1994814D01*
X1987247Y1632399D02*
X1994616D01*
X1987528Y1646349D02*
X1994553D01*
X1987424Y1632849D02*
X1994492D01*
X1987682Y1645899D02*
X1994487D01*
X1987791Y1645449D02*
X1994487D01*
X1987858Y1644999D02*
X1994487D01*
X1987887Y1644549D02*
X1994487D01*
X1987876Y1644099D02*
X1994487D01*
X1987825Y1643649D02*
X1994487D01*
X1987735Y1643199D02*
X1994487D01*
X1987601Y1642749D02*
X1994487D01*
X1987422Y1642299D02*
X1994487D01*
X1987190Y1641849D02*
X1994487D01*
X1986898Y1641399D02*
X1994487D01*
X1986532Y1640949D02*
X1994487D01*
X1986068Y1640499D02*
X1994487D01*
X1985457Y1640049D02*
X1994487D01*
X1984560Y1639599D02*
X1994487D01*
X1984397Y1639149D02*
X1994487D01*
X1985324Y1638699D02*
X1994487D01*
X1985939Y1638249D02*
X1994487D01*
X1986401Y1637799D02*
X1994487D01*
X1986762Y1637349D02*
X1994487D01*
X1987047Y1636899D02*
X1994487D01*
X1987271Y1636449D02*
X1994487D01*
X1987442Y1635999D02*
X1994487D01*
X1987565Y1635549D02*
X1994487D01*
X1987645Y1635099D02*
X1994487D01*
X1987684Y1634649D02*
X1994487D01*
X1987681Y1634199D02*
X1994487D01*
X1987638Y1633749D02*
X1994487D01*
X1987553Y1633299D02*
X1994487D01*
X1987687Y1577049D02*
X1994417D01*
X1987758Y1565799D02*
X1994364D01*
X1987657Y1577499D02*
X1993967D01*
X1987635Y1565349D02*
X1993914D01*
X1987587Y1577949D02*
X1993517D01*
X1987466Y1564899D02*
X1993464D01*
X1987473Y1578399D02*
X1993067D01*
X1987246Y1564449D02*
X1993014D01*
X1986969Y1563999D02*
X1992589D01*
X1986621Y1563549D02*
X1992290D01*
X1949938Y1733649D02*
X1992186D01*
X1986181Y1563099D02*
X1992094D01*
X1985610Y1562649D02*
X1991980D01*
X1984801Y1562199D02*
X1991938D01*
X1949938Y1561749D02*
X1991937D01*
X1949938Y1561299D02*
X1991937D01*
X1949938Y1560849D02*
X1991937D01*
X1949938Y1734099D02*
X1991245D01*
X1987313Y1578849D02*
X1990961D01*
X1949938Y1734549D02*
X1990710D01*
X1987275Y1569399D02*
X1990311D01*
X1949938Y1734999D02*
X1990260D01*
X1987102Y1579299D02*
X1990144D01*
X1986958Y1574349D02*
X1990119D01*
X1949938Y1560399D02*
X1990075D01*
X1987005Y1569849D02*
X1989892D01*
X1986649Y1573899D02*
X1989821D01*
X1949938Y1735449D02*
X1989810D01*
X1986666Y1570299D02*
X1989747D01*
X1986257Y1573449D02*
X1989737D01*
X1985751Y1572999D02*
X1989737D01*
X1985060Y1572549D02*
X1989737D01*
X1983898Y1572099D02*
X1989737D01*
X1984915Y1571649D02*
X1989737D01*
X1985686Y1571199D02*
X1989737D01*
X1986239Y1570749D02*
X1989737D01*
X1986831Y1579749D02*
X1989597D01*
X1951842Y1544649D02*
X1989498D01*
X1949938Y1735899D02*
X1989360D01*
X1986488Y1580199D02*
X1989190D01*
X1975989Y1559949D02*
X1989086D01*
X1976153Y1545099D02*
X1988964D01*
X1949938Y1736349D02*
X1988910D01*
X1986052Y1580649D02*
X1988879D01*
X1987566Y1585149D02*
X1988819D01*
X1976361Y1559499D02*
X1988795D01*
X1987709Y1585599D02*
X1988749D01*
X1976421Y1545549D02*
X1988744D01*
X1976484Y1559049D02*
X1988691D01*
X1976488Y1558599D02*
X1988687D01*
X1976488Y1558149D02*
X1988687D01*
X1976488Y1557699D02*
X1988687D01*
X1976488Y1557249D02*
X1988687D01*
X1976488Y1556799D02*
X1988687D01*
X1976488Y1556349D02*
X1988687D01*
X1976488Y1555899D02*
X1988687D01*
X1976488Y1555449D02*
X1988687D01*
X1976488Y1554999D02*
X1988687D01*
X1976488Y1554549D02*
X1988687D01*
X1976488Y1554099D02*
X1988687D01*
X1976488Y1553649D02*
X1988687D01*
X1976488Y1553199D02*
X1988687D01*
X1976488Y1552749D02*
X1988687D01*
X1976488Y1552299D02*
X1988687D01*
X1976488Y1551849D02*
X1988687D01*
X1976488Y1551399D02*
X1988687D01*
X1976488Y1550949D02*
X1988687D01*
X1976488Y1550499D02*
X1988687D01*
X1976488Y1550049D02*
X1988687D01*
X1976488Y1549599D02*
X1988687D01*
X1976488Y1549149D02*
X1988687D01*
X1976488Y1548699D02*
X1988687D01*
X1976488Y1548249D02*
X1988687D01*
X1976488Y1547799D02*
X1988687D01*
X1976488Y1547349D02*
X1988687D01*
X1976488Y1546899D02*
X1988687D01*
X1976488Y1546449D02*
X1988687D01*
X1976488Y1545999D02*
X1988687D01*
X1985478Y1581099D02*
X1988641D01*
X1987375Y1584699D02*
X1988595D01*
X1984650Y1581549D02*
X1988464D01*
X1949938Y1736799D02*
X1988460D01*
X1987131Y1584249D02*
X1988431D01*
X1984276Y1581999D02*
X1988340D01*
X1986824Y1583799D02*
X1988319D01*
X1985291Y1582449D02*
X1988266D01*
X1986439Y1583349D02*
X1988255D01*
X1985947Y1582899D02*
X1988238D01*
X1949938Y1737249D02*
X1988010D01*
X1987809Y1586049D02*
X1987892D01*
X1949938Y1737699D02*
X1987560D01*
X1949938Y1738149D02*
X1987110D01*
X1949938Y1738599D02*
X1986660D01*
X1949938Y1739049D02*
X1986210D01*
X1949938Y1739499D02*
X1985760D01*
X1949938Y1739949D02*
X1985310D01*
X1949938Y1740399D02*
X1984860D01*
X1949938Y1740849D02*
X1984410D01*
X1949938Y1741299D02*
X1983960D01*
X1964315Y1741749D02*
X1983510D01*
X1966554Y1592349D02*
X1983433D01*
X1982127Y1598649D02*
X1983248D01*
X1981545Y1598199D02*
X1983150D01*
X1965357Y1742199D02*
X1983060D01*
X1981974Y1592799D02*
X1983006D01*
X1982661Y1599099D02*
X1982714D01*
X1982449Y1597749D02*
X1982677D01*
X1982522Y1593249D02*
X1982618D01*
X1966034Y1742649D02*
X1982610D01*
X1981989Y1617999D02*
X1982386D01*
X1966544Y1743099D02*
X1982160D01*
X1981438Y1619349D02*
X1981679D01*
X1949938Y1572099D02*
X1981477D01*
X1949938Y1581999D02*
X1981099D01*
X1949938Y1591899D02*
X1981090D01*
X1949938Y1581549D02*
X1980725D01*
X1949938Y1562199D02*
X1980574D01*
X1949938Y1571649D02*
X1980460D01*
X1949938Y1572549D02*
X1980315D01*
X1949938Y1582449D02*
X1980084D01*
X1949938Y1591449D02*
X1980079D01*
X1949938Y1581099D02*
X1979897D01*
X1949938Y1562649D02*
X1979765D01*
X1949938Y1571199D02*
X1979689D01*
X1949938Y1572999D02*
X1979624D01*
X1949938Y1582899D02*
X1979428D01*
X1949938Y1590999D02*
X1979424D01*
X1949938Y1580649D02*
X1979323D01*
X1949938Y1563099D02*
X1979194D01*
X1949938Y1570749D02*
X1979136D01*
X1949938Y1573449D02*
X1979118D01*
X1949938Y1583349D02*
X1978936D01*
X1949938Y1590549D02*
X1978934D01*
X1949938Y1580199D02*
X1978887D01*
X1949938Y1563549D02*
X1978754D01*
X1949938Y1573899D02*
X1978726D01*
X1949938Y1570299D02*
X1978709D01*
X1949938Y1583799D02*
X1978551D01*
X1949938Y1590099D02*
X1978549D01*
X1949938Y1579749D02*
X1978544D01*
X1949938Y1574349D02*
X1978417D01*
X1949938Y1563999D02*
X1978406D01*
X1949938Y1569849D02*
X1978370D01*
X1949938Y1579299D02*
X1978273D01*
X1949938Y1584249D02*
X1978244D01*
X1949938Y1589649D02*
X1978243D01*
X1949938Y1574799D02*
X1978174D01*
X1949938Y1564449D02*
X1978129D01*
X1949938Y1569399D02*
X1978100D01*
X1949938Y1578849D02*
X1978062D01*
X1949938Y1584699D02*
X1978000D01*
X1949938Y1589199D02*
X1977999D01*
X1949938Y1575249D02*
X1977986D01*
X1949938Y1564899D02*
X1977909D01*
X1949938Y1578399D02*
X1977902D01*
X1949938Y1568949D02*
X1977887D01*
X1949938Y1575699D02*
X1977847D01*
X1949938Y1585149D02*
X1977809D01*
X1949938Y1588749D02*
X1977808D01*
X1949938Y1577949D02*
X1977788D01*
X1949938Y1576149D02*
X1977752D01*
X1949938Y1565349D02*
X1977740D01*
X1949938Y1568499D02*
X1977723D01*
X1949938Y1577499D02*
X1977718D01*
X1949938Y1576599D02*
X1977700D01*
X1949938Y1577049D02*
X1977688D01*
X1949938Y1585599D02*
X1977666D01*
X1949938Y1588299D02*
X1977665D01*
X1949938Y1565799D02*
X1977617D01*
X1949938Y1568049D02*
X1977605D01*
X1949938Y1586049D02*
X1977566D01*
X1949938Y1587849D02*
X1977566D01*
X1949938Y1566249D02*
X1977535D01*
X1949938Y1567599D02*
X1977528D01*
X1949938Y1586499D02*
X1977507D01*
X1949938Y1587399D02*
X1977507D01*
X1949938Y1566699D02*
X1977494D01*
X1949938Y1567149D02*
X1977491D01*
X1949938Y1586949D02*
X1977487D01*
X1966501Y1598199D02*
X1977430D01*
X1966853Y1592799D02*
X1977001D01*
X1966834Y1597749D02*
X1976526D01*
X1966938Y1593249D02*
X1976453D01*
X1966937Y1597299D02*
X1976287D01*
X1966938Y1593699D02*
X1976263D01*
X1966938Y1596849D02*
X1976237D01*
X1966938Y1596399D02*
X1976237D01*
X1966938Y1595949D02*
X1976237D01*
X1966938Y1595499D02*
X1976237D01*
X1966938Y1595049D02*
X1976237D01*
X1966938Y1594599D02*
X1976237D01*
X1966938Y1594149D02*
X1976237D01*
X1966736Y1598649D02*
X1968092D01*
X1949938Y1559949D02*
X1964986D01*
X1951392Y1545099D02*
X1964822D01*
X1949938Y1559499D02*
X1964614D01*
X1950942Y1545549D02*
X1964554D01*
X1949938Y1559049D02*
X1964491D01*
X1949938Y1558599D02*
X1964487D01*
X1949938Y1558149D02*
X1964487D01*
X1949938Y1557699D02*
X1964487D01*
X1949938Y1557249D02*
X1964487D01*
X1949938Y1556799D02*
X1964487D01*
X1949938Y1556349D02*
X1964487D01*
X1949938Y1555899D02*
X1964487D01*
X1949938Y1555449D02*
X1964487D01*
X1949938Y1554999D02*
X1964487D01*
X1949938Y1554549D02*
X1964487D01*
X1949938Y1554099D02*
X1964487D01*
X1949938Y1553649D02*
X1964487D01*
X1949938Y1553199D02*
X1964487D01*
X1949938Y1552749D02*
X1964487D01*
X1949938Y1552299D02*
X1964487D01*
X1949938Y1551849D02*
X1964487D01*
X1949938Y1551399D02*
X1964487D01*
X1949938Y1550949D02*
X1964487D01*
X1949938Y1550499D02*
X1964487D01*
X1949938Y1550049D02*
X1964487D01*
X1949938Y1549599D02*
X1964487D01*
X1949938Y1549149D02*
X1964487D01*
X1949938Y1548699D02*
X1964487D01*
X1949938Y1548249D02*
X1964487D01*
X1949938Y1547799D02*
X1964487D01*
X1949938Y1547349D02*
X1964487D01*
X1949938Y1546899D02*
X1964487D01*
X1950042Y1546449D02*
X1964487D01*
X1950492Y1545999D02*
X1964487D01*
X1949938Y1598199D02*
X1961874D01*
X1949938Y1592349D02*
X1961821D01*
X1949938Y1598649D02*
X1961639D01*
X1949938Y1597749D02*
X1961541D01*
X1949938Y1592799D02*
X1961522D01*
X1949938Y1597299D02*
X1961438D01*
X1949938Y1596849D02*
X1961437D01*
X1949938Y1596399D02*
X1961437D01*
X1949938Y1595949D02*
X1961437D01*
X1949938Y1595499D02*
X1961437D01*
X1949938Y1595049D02*
X1961437D01*
X1949938Y1594599D02*
X1961437D01*
X1949938Y1594149D02*
X1961437D01*
X1949938Y1593699D02*
X1961437D01*
X1949938Y1593249D02*
X1961437D01*
X1949938Y1599099D02*
X1961346D01*
X1949938Y1599549D02*
X1961241D01*
X1949938Y1612149D02*
X1961237D01*
X1949938Y1611699D02*
X1961237D01*
X1949938Y1611249D02*
X1961237D01*
X1949938Y1610799D02*
X1961237D01*
X1949938Y1610349D02*
X1961237D01*
X1949938Y1609899D02*
X1961237D01*
X1949938Y1609449D02*
X1961237D01*
X1949938Y1608999D02*
X1961237D01*
X1949938Y1608549D02*
X1961237D01*
X1949938Y1608099D02*
X1961237D01*
X1949938Y1607649D02*
X1961237D01*
X1949938Y1607199D02*
X1961237D01*
X1949938Y1606749D02*
X1961237D01*
X1949938Y1606299D02*
X1961237D01*
X1949938Y1605849D02*
X1961237D01*
X1949938Y1605399D02*
X1961237D01*
X1949938Y1604949D02*
X1961237D01*
X1949938Y1604499D02*
X1961237D01*
X1949938Y1604049D02*
X1961237D01*
X1949938Y1603599D02*
X1961237D01*
X1949938Y1603149D02*
X1961237D01*
X1949938Y1602699D02*
X1961237D01*
X1949938Y1602249D02*
X1961237D01*
X1949938Y1601799D02*
X1961237D01*
X1949938Y1601349D02*
X1961237D01*
X1949938Y1600899D02*
X1961237D01*
X1949938Y1600449D02*
X1961237D01*
X1949938Y1599999D02*
X1961237D01*
X1949938Y1721949D02*
X1961091D01*
X1949938Y1741749D02*
X1961060D01*
X1949938Y1752099D02*
X1960900D01*
X1949938Y1731849D02*
X1960799D01*
X1949938Y1671999D02*
X1960635D01*
X1949938Y1612599D02*
X1960583D01*
X1949938Y1613049D02*
X1960178D01*
X1949938Y1722399D02*
X1960071D01*
X1949938Y1742199D02*
X1960018D01*
X1949938Y1613499D02*
X1959930D01*
X1949938Y1751649D02*
X1959926D01*
X1949938Y1731399D02*
X1959900D01*
X1949938Y1613949D02*
X1959789D01*
X1949938Y1671549D02*
X1959763D01*
X1949938Y1614399D02*
X1959725D01*
X1949938Y1722849D02*
X1959410D01*
X1949938Y1742649D02*
X1959341D01*
X1949938Y1730949D02*
X1959286D01*
X1949938Y1751199D02*
X1959274D01*
X1949938Y1671099D02*
X1959153D01*
X1949938Y1723299D02*
X1958915D01*
X1949938Y1743099D02*
X1958831D01*
X1949938Y1730499D02*
X1958818D01*
X1949938Y1750749D02*
X1958779D01*
X1949938Y1670649D02*
X1958685D01*
X1949938Y1723749D02*
X1958526D01*
X1949938Y1730049D02*
X1958449D01*
X1949938Y1743549D02*
X1958429D01*
X1949938Y1750299D02*
X1958388D01*
X1949938Y1670199D02*
X1958312D01*
X1949938Y1663449D02*
X1958237D01*
X1949938Y1662999D02*
X1958237D01*
X1949938Y1662549D02*
X1958237D01*
X1949938Y1662099D02*
X1958237D01*
X1949938Y1661649D02*
X1958237D01*
X1949938Y1661199D02*
X1958237D01*
X1949938Y1660749D02*
X1958237D01*
X1949938Y1660299D02*
X1958237D01*
X1949938Y1724199D02*
X1958216D01*
X1949938Y1663899D02*
X1958172D01*
X1949938Y1729599D02*
X1958155D01*
X1949938Y1743999D02*
X1958106D01*
X1949938Y1749849D02*
X1958072D01*
X1949938Y1659849D02*
X1958072D01*
X1949938Y1669749D02*
X1958011D01*
X1949938Y1724649D02*
X1957969D01*
X1949938Y1729149D02*
X1957920D01*
X1949938Y1664349D02*
X1957898D01*
X1949938Y1744449D02*
X1957845D01*
X1949938Y1749399D02*
X1957819D01*
X1949938Y1659399D02*
X1957819D01*
X1949938Y1725099D02*
X1957775D01*
X1949938Y1669299D02*
X1957770D01*
X1949938Y1728699D02*
X1957737D01*
X1949938Y1664799D02*
X1957680D01*
X1949938Y1744899D02*
X1957638D01*
X1949938Y1725549D02*
X1957628D01*
X1949938Y1658949D02*
X1957617D01*
X1949938Y1748949D02*
X1957617D01*
X1949938Y1728249D02*
X1957601D01*
X1949938Y1668849D02*
X1957579D01*
X1949938Y1725999D02*
X1957524D01*
X1949938Y1665249D02*
X1957510D01*
X1949938Y1727799D02*
X1957507D01*
X1949938Y1745349D02*
X1957478D01*
X1949938Y1748499D02*
X1957462D01*
X1949938Y1658499D02*
X1957462D01*
X1949938Y1726449D02*
X1957461D01*
X1949938Y1727349D02*
X1957453D01*
X1949938Y1726899D02*
X1957438D01*
X1949938Y1668399D02*
X1957434D01*
X1949938Y1665699D02*
X1957383D01*
X1949938Y1745799D02*
X1957360D01*
X1949938Y1748049D02*
X1957349D01*
X1949938Y1658049D02*
X1957349D01*
X1949938Y1667949D02*
X1957330D01*
X1949938Y1666149D02*
X1957297D01*
X1949938Y1746249D02*
X1957283D01*
X1949938Y1747599D02*
X1957276D01*
X1949938Y1667499D02*
X1957265D01*
X1949938Y1666599D02*
X1957249D01*
X1949938Y1746699D02*
X1957243D01*
X1949938Y1747149D02*
X1957241D01*
X1949938Y1667049D02*
X1957238D01*
X1949938Y1657599D02*
X1957043D01*
X1949938Y1657149D02*
X1956593D01*
X1949938Y1614849D02*
X1956199D01*
X1949938Y1656699D02*
X1956143D01*
X1949938Y1624299D02*
X1955997D01*
X1949938Y1623849D02*
X1955997D01*
X1949938Y1623399D02*
X1955997D01*
X1949938Y1622949D02*
X1955997D01*
X1949938Y1622499D02*
X1955997D01*
X1949938Y1622049D02*
X1955997D01*
X1949938Y1621599D02*
X1955997D01*
X1949938Y1615299D02*
X1955906D01*
X1949938Y1624749D02*
X1955829D01*
X1949938Y1621149D02*
X1955828D01*
X1949938Y1615749D02*
X1955801D01*
X1949938Y1629249D02*
X1955797D01*
X1949938Y1628799D02*
X1955797D01*
X1949938Y1628349D02*
X1955797D01*
X1949938Y1627899D02*
X1955797D01*
X1949938Y1627449D02*
X1955797D01*
X1949938Y1626999D02*
X1955797D01*
X1949938Y1626549D02*
X1955797D01*
X1949938Y1626099D02*
X1955797D01*
X1949938Y1625649D02*
X1955797D01*
X1949938Y1625199D02*
X1955797D01*
X1949938Y1620699D02*
X1955797D01*
X1949938Y1620249D02*
X1955797D01*
X1949938Y1619799D02*
X1955797D01*
X1949938Y1619349D02*
X1955797D01*
X1949938Y1618899D02*
X1955797D01*
X1949938Y1618449D02*
X1955797D01*
X1949938Y1617999D02*
X1955797D01*
X1949938Y1617549D02*
X1955797D01*
X1949938Y1617099D02*
X1955797D01*
X1949938Y1616649D02*
X1955797D01*
X1949938Y1616199D02*
X1955797D01*
X1949938Y1629699D02*
X1955776D01*
X1949938Y1656249D02*
X1955693D01*
X1949938Y1630149D02*
X1955608D01*
X1949938Y1630599D02*
X1955518D01*
X1949938Y1633749D02*
X1955502D01*
X1949938Y1633299D02*
X1955502D01*
X1949938Y1632849D02*
X1955502D01*
X1949938Y1632399D02*
X1955502D01*
X1949938Y1631949D02*
X1955502D01*
X1949938Y1631499D02*
X1955502D01*
X1949938Y1631049D02*
X1955499D01*
X1949938Y1655799D02*
X1955288D01*
X1949938Y1634199D02*
X1955247D01*
X1949938Y1634649D02*
X1955069D01*
X1949938Y1640049D02*
X1955037D01*
X1949938Y1639599D02*
X1955037D01*
X1949938Y1639149D02*
X1955037D01*
X1949938Y1638699D02*
X1955037D01*
X1949938Y1638249D02*
X1955037D01*
X1949938Y1637799D02*
X1955037D01*
X1949938Y1637349D02*
X1955037D01*
X1949938Y1636899D02*
X1955037D01*
X1949938Y1636449D02*
X1955037D01*
X1949938Y1635999D02*
X1955037D01*
X1949938Y1635549D02*
X1955037D01*
X1949938Y1635099D02*
X1955037D01*
X1949938Y1655349D02*
X1954977D01*
X1949938Y1654899D02*
X1954740D01*
X1949938Y1640499D02*
X1954593D01*
X1949938Y1654449D02*
X1954563D01*
X1949938Y1653999D02*
X1954440D01*
X1949938Y1653549D02*
X1954366D01*
X1949938Y1653099D02*
X1954338D01*
X1949938Y1652649D02*
X1954337D01*
X1949938Y1652199D02*
X1954337D01*
X1949938Y1651749D02*
X1954337D01*
X1949938Y1651299D02*
X1954337D01*
X1949938Y1650849D02*
X1954337D01*
X1949938Y1650399D02*
X1954337D01*
X1949938Y1649949D02*
X1954337D01*
X1949938Y1649499D02*
X1954337D01*
X1949938Y1649049D02*
X1954337D01*
X1949938Y1648599D02*
X1954337D01*
X1949938Y1648149D02*
X1954337D01*
X1949938Y1640949D02*
X1954327D01*
X1949938Y1647699D02*
X1954259D01*
X1949938Y1641399D02*
X1954238D01*
X1949938Y1647249D02*
X1954237D01*
X1949938Y1646799D02*
X1954237D01*
X1949938Y1646349D02*
X1954237D01*
X1949938Y1645899D02*
X1954237D01*
X1949938Y1645449D02*
X1954237D01*
X1949938Y1644999D02*
X1954237D01*
X1949938Y1644549D02*
X1954237D01*
X1949938Y1644099D02*
X1954237D01*
X1949938Y1643649D02*
X1954237D01*
X1949938Y1643199D02*
X1954237D01*
X1949938Y1642749D02*
X1954237D01*
X1949938Y1642299D02*
X1954237D01*
X1949938Y1641849D02*
X1954237D01*
X1971959Y1604499D02*
X1987742D01*
X1982434Y1604049D02*
X1982941D01*
X1981513Y1612599D02*
X1982862D01*
X1982123Y1613049D02*
X1982252D01*
X1979942Y1612149D02*
X1981972D01*
X1980336Y1604949D02*
X1981739D01*
X1980589Y1611699D02*
X1981546D01*
X1980709Y1605399D02*
X1981446D01*
X1980801Y1611249D02*
X1981369D01*
X1980833Y1605849D02*
X1981341D01*
X1980838Y1610799D02*
X1981337D01*
X1980838Y1610349D02*
X1981337D01*
X1980838Y1609899D02*
X1981337D01*
X1980838Y1609449D02*
X1981337D01*
X1980838Y1608999D02*
X1981337D01*
X1980838Y1608549D02*
X1981337D01*
X1980838Y1608099D02*
X1981337D01*
X1980838Y1607649D02*
X1981337D01*
X1980838Y1607199D02*
X1981337D01*
X1980838Y1606749D02*
X1981337D01*
X1980838Y1606299D02*
X1981337D01*
X1968378Y1629699D02*
X1981130D01*
X1967242Y1639149D02*
X1980978D01*
X1961938Y1639599D02*
X1980815D01*
X1968378Y1629249D02*
X1980684D01*
X1968374Y1630149D02*
X1980138D01*
X1967889Y1638699D02*
X1980051D01*
X1962260Y1640049D02*
X1979918D01*
X1968378Y1628799D02*
X1979836D01*
X1968251Y1630599D02*
X1979499D01*
X1968101Y1638249D02*
X1979436D01*
X1976498Y1640499D02*
X1979307D01*
X1968378Y1628349D02*
X1979247D01*
X1967879Y1631049D02*
X1979023D01*
X1968138Y1637799D02*
X1978974D01*
X1976833Y1640949D02*
X1978843D01*
X1968378Y1627899D02*
X1978796D01*
X1961402Y1631499D02*
X1978651D01*
X1968138Y1637349D02*
X1978613D01*
X1976936Y1641399D02*
X1978477D01*
X1968378Y1627449D02*
X1978439D01*
X1961402Y1631949D02*
X1978358D01*
X1968138Y1636899D02*
X1978328D01*
X1963238Y1649499D02*
X1978237D01*
X1963238Y1649049D02*
X1978237D01*
X1976181Y1648599D02*
X1978237D01*
X1976724Y1648149D02*
X1978237D01*
X1976913Y1647699D02*
X1978237D01*
X1976938Y1647249D02*
X1978237D01*
X1976938Y1641849D02*
X1978185D01*
X1968378Y1626999D02*
X1978155D01*
X1963238Y1649949D02*
X1978146D01*
X1961402Y1632399D02*
X1978128D01*
X1968138Y1636449D02*
X1978104D01*
X1976938Y1646799D02*
X1978048D01*
X1976938Y1642299D02*
X1977953D01*
X1961402Y1632849D02*
X1977951D01*
X1968138Y1635999D02*
X1977933D01*
X1968378Y1626549D02*
X1977930D01*
X1976938Y1646349D02*
X1977847D01*
X1961402Y1633299D02*
X1977822D01*
X1968138Y1635549D02*
X1977810D01*
X1976938Y1642749D02*
X1977774D01*
X1968378Y1626099D02*
X1977756D01*
X1967233Y1633749D02*
X1977737D01*
X1968138Y1635099D02*
X1977730D01*
X1960897Y1622949D02*
X1977708D01*
X1963238Y1650399D02*
X1977696D01*
X1967887Y1634199D02*
X1977694D01*
X1976938Y1645899D02*
X1977693D01*
X1968101Y1634649D02*
X1977691D01*
X1976938Y1643199D02*
X1977640D01*
X1968378Y1625649D02*
X1977628D01*
X1960897Y1623399D02*
X1977595D01*
X1976938Y1645449D02*
X1977584D01*
X1976938Y1643649D02*
X1977550D01*
X1968378Y1625199D02*
X1977542D01*
X1967473Y1623849D02*
X1977522D01*
X1976938Y1644999D02*
X1977517D01*
X1976938Y1644099D02*
X1977499D01*
X1968341Y1624749D02*
X1977496D01*
X1968127Y1624299D02*
X1977490D01*
X1976938Y1644549D02*
X1977488D01*
X1960897Y1622499D02*
X1977271D01*
X1963238Y1650849D02*
X1977246D01*
X1967944Y1622049D02*
X1976910D01*
X1963329Y1651299D02*
X1976796D01*
X1968369Y1621599D02*
X1976689D01*
X1968547Y1621149D02*
X1976570D01*
X1968578Y1620699D02*
X1976537D01*
X1968578Y1620249D02*
X1976537D01*
X1968578Y1619799D02*
X1976537D01*
X1968578Y1619349D02*
X1976537D01*
X1968578Y1618899D02*
X1976537D01*
X1968578Y1618449D02*
X1976537D01*
X1967532Y1612599D02*
X1976462D01*
X1964315Y1651749D02*
X1976346D01*
X1968578Y1617999D02*
X1975986D01*
X1965357Y1652199D02*
X1975896D01*
X1967937Y1613049D02*
X1975852D01*
X1968578Y1617549D02*
X1975667D01*
X1968185Y1613499D02*
X1975610D01*
X1968578Y1617099D02*
X1975545D01*
X1968578Y1616649D02*
X1975537D01*
X1968578Y1616199D02*
X1975537D01*
X1968574Y1615749D02*
X1975537D01*
X1968469Y1615299D02*
X1975537D01*
X1968378Y1614849D02*
X1975537D01*
X1968377Y1614399D02*
X1975537D01*
X1968326Y1613949D02*
X1975537D01*
X1967138Y1612149D02*
X1974433D01*
X1967138Y1604949D02*
X1974039D01*
X1967138Y1611699D02*
X1973786D01*
X1967138Y1605399D02*
X1973666D01*
X1967138Y1611249D02*
X1973574D01*
X1967138Y1605849D02*
X1973542D01*
X1967138Y1610799D02*
X1973537D01*
X1967138Y1610349D02*
X1973537D01*
X1967138Y1609899D02*
X1973537D01*
X1967138Y1609449D02*
X1973537D01*
X1967138Y1608999D02*
X1973537D01*
X1967138Y1608549D02*
X1973537D01*
X1967138Y1608099D02*
X1973537D01*
X1967138Y1607649D02*
X1973537D01*
X1967138Y1607199D02*
X1973537D01*
X1967138Y1606749D02*
X1973537D01*
X1967138Y1606299D02*
X1973537D01*
X1963238Y1648599D02*
X1968994D01*
X1962982Y1640499D02*
X1968677D01*
X1963238Y1648149D02*
X1968451D01*
X1963248Y1640949D02*
X1968342D01*
X1963316Y1647699D02*
X1968262D01*
X1963337Y1641399D02*
X1968239D01*
X1963338Y1647249D02*
X1968237D01*
X1963338Y1646799D02*
X1968237D01*
X1963338Y1646349D02*
X1968237D01*
X1963338Y1645899D02*
X1968237D01*
X1963338Y1645449D02*
X1968237D01*
X1963338Y1644999D02*
X1968237D01*
X1963338Y1644549D02*
X1968237D01*
X1963338Y1644099D02*
X1968237D01*
X1963338Y1643649D02*
X1968237D01*
X1963338Y1643199D02*
X1968237D01*
X1963338Y1642749D02*
X1968237D01*
X1963338Y1642299D02*
X1968237D01*
X1963338Y1641849D02*
X1968237D01*
X1963733Y1623849D02*
X1964382D01*
X1961402Y1633749D02*
X1962542D01*
X1961938Y1639149D02*
X1962533D01*
X1961728Y1634199D02*
X1961888D01*
G54D58*
X1899676Y1489153D02*
Y1480950D01*
Y1489153D02*
X1902233D01*
X1903085Y1488763*
X1903085D02*
X1903369Y1488372D01*
X1903653Y1487591*
Y1486809*
X1903369Y1486028*
X1903085Y1485638*
X1903085D02*
X1902233Y1485247D01*
X1899676D02*
X1902233D01*
X1903085Y1484856*
X1903369Y1484466*
X1903653Y1483684*
Y1482513*
X1903653D02*
X1903369Y1481731D01*
X1903085Y1481341*
X1902233Y1480950*
X1899676*
X1906210Y1489153D02*
Y1480950D01*
Y1489153D02*
X1908767D01*
X1909619Y1488763*
X1909619D02*
X1909903Y1488372D01*
X1910188Y1487591*
Y1486809*
X1909903Y1486028*
X1909619Y1485638*
X1909619D02*
X1908767Y1485247D01*
X1906210*
X1908199D02*
X1910188Y1480950D01*
X1914449Y1489153D02*
X1913881Y1488763D01*
X1913881D02*
X1913313Y1487981D01*
X1913028Y1487200*
X1912744Y1486028*
Y1484075*
X1913028Y1482903*
X1913313Y1482122*
X1913881Y1481341*
X1914449Y1480950*
X1915585*
X1916153Y1481341*
X1916722Y1482122*
X1917006Y1482903*
X1917290Y1484075*
Y1486028*
X1917006Y1487200*
X1916722Y1487981*
X1916153Y1488763*
X1916153D02*
X1915585Y1489153D01*
X1914449*
X1921551D02*
X1920983Y1488763D01*
X1920983D02*
X1920415Y1487981D01*
X1920131Y1487200*
X1919847Y1486028*
Y1484075*
X1920131Y1482903*
X1920415Y1482122*
X1920983Y1481341*
X1921551Y1480950*
X1922688*
X1923256Y1481341*
X1923824Y1482122*
X1924108Y1482903*
X1924392Y1484075*
Y1486028*
X1924108Y1487200*
X1923824Y1487981*
X1923256Y1488763*
X1923256D02*
X1922688Y1489153D01*
X1921551*
X1926949D02*
Y1480950D01*
X1930926Y1489153D02*
X1926949Y1483684D01*
X1928369Y1485638D02*
X1930926Y1480950D01*
X1933483Y1489153D02*
Y1480950D01*
X1937460Y1489153D02*
Y1480950D01*
X1933483Y1485247D02*
X1937460D01*
X1942290Y1489153D02*
X1940017Y1480950D01*
X1942290Y1489153D02*
X1944563Y1480950D01*
X1940869Y1483684D02*
X1943710D01*
X1947119Y1489153D02*
X1949392Y1480950D01*
X1951665Y1489153D02*
X1949392Y1480950D01*
X1954222Y1489153D02*
Y1480950D01*
Y1489153D02*
X1957915D01*
X1954222Y1485247D02*
X1956494D01*
X1954222Y1480950D02*
X1957915D01*
X1960472Y1489153D02*
Y1480950D01*
Y1489153D02*
X1964449Y1480950D01*
Y1489153D02*
Y1480950D01*
X1973540Y1489153D02*
Y1480950D01*
Y1489153D02*
X1977517Y1480950D01*
Y1489153D02*
Y1480950D01*
X1982347Y1489153D02*
X1980074Y1480950D01*
X1982347Y1489153D02*
X1984619Y1480950D01*
X1980926Y1483684D02*
X1983767D01*
X1989165Y1489153D02*
Y1480950D01*
X1987176Y1489153D02*
X1991153D01*
X1993710D02*
Y1480950D01*
X1997972Y1489153D02*
X1997403Y1488763D01*
X1997403D02*
X1996835Y1487981D01*
X1996551Y1487200*
X1996267Y1486028*
Y1484075*
X1996551Y1482903*
X1996835Y1482122*
X1997403Y1481341*
X1997972Y1480950*
X1999108*
X1999676Y1481341*
X2000244Y1482122*
X2000528Y1482903*
X2000813Y1484075*
Y1486028*
X2000528Y1487200*
X2000244Y1487981*
X1999676Y1488763*
X1999676D02*
X1999108Y1489153D01*
X1997972*
X2003369D02*
Y1480950D01*
Y1489153D02*
X2007347Y1480950D01*
Y1489153D02*
Y1480950D01*
X2012176Y1489153D02*
X2009903Y1480950D01*
X2012176Y1489153D02*
X2014449Y1480950D01*
X2010756Y1483684D02*
X2013597D01*
X2017006Y1489153D02*
Y1480950D01*
X2020415*
X2029506Y1489153D02*
Y1480950D01*
X2032915*
X2037744Y1489153D02*
X2035472Y1480950D01*
X2037744Y1489153D02*
X2040017Y1480950D01*
X2036324Y1483684D02*
X2039165D01*
X2042574Y1489153D02*
Y1480950D01*
Y1489153D02*
X2045131D01*
X2045983Y1488763*
X2045983D02*
X2046267Y1488372D01*
X2046551Y1487591*
Y1486809*
X2046267Y1486028*
X2045983Y1485638*
X2045983D02*
X2045131Y1485247D01*
X2042574D02*
X2045131D01*
X2045983Y1484856*
X2046267Y1484466*
X2046551Y1483684*
Y1482513*
X2046551D02*
X2046267Y1481731D01*
X2045983Y1481341*
X2045131Y1480950*
X2042574*
X2050813Y1489153D02*
X2050244Y1488763D01*
X2050244D02*
X2049676Y1487981D01*
X2049392Y1487200*
X2049108Y1486028*
Y1484075*
X2049392Y1482903*
X2049676Y1482122*
X2050244Y1481341*
X2050813Y1480950*
X2051949*
X2052517Y1481341*
X2053085Y1482122*
X2053369Y1482903*
X2053653Y1484075*
Y1486028*
X2053369Y1487200*
X2053085Y1487981*
X2052517Y1488763*
X2052517D02*
X2051949Y1489153D01*
X2050813*
X2056210D02*
Y1480950D01*
Y1489153D02*
X2058767D01*
X2059619Y1488763*
X2059619D02*
X2059903Y1488372D01*
X2060188Y1487591*
Y1486809*
X2059903Y1486028*
X2059619Y1485638*
X2059619D02*
X2058767Y1485247D01*
X2056210*
X2058199D02*
X2060188Y1480950D01*
X2065017Y1489153D02*
X2062744Y1480950D01*
X2065017Y1489153D02*
X2067290Y1480950D01*
X2063597Y1483684D02*
X2066438D01*
X2071835Y1489153D02*
Y1480950D01*
X2069847Y1489153D02*
X2073824D01*
X2078085D02*
X2077517Y1488763D01*
X2077517D02*
X2076949Y1487981D01*
X2076665Y1487200*
X2076381Y1486028*
Y1484075*
X2076665Y1482903*
X2076949Y1482122*
X2077517Y1481341*
X2078085Y1480950*
X2079222*
X2079790Y1481341*
X2080358Y1482122*
X2080642Y1482903*
X2080926Y1484075*
Y1486028*
X2080642Y1487200*
X2080358Y1487981*
X2079790Y1488763*
X2079790D02*
X2079222Y1489153D01*
X2078085*
X2083483D02*
Y1480950D01*
Y1489153D02*
X2086040D01*
X2086892Y1488763*
X2086892D02*
X2087176Y1488372D01*
X2087460Y1487591*
Y1486809*
X2087176Y1486028*
X2086892Y1485638*
X2086892D02*
X2086040Y1485247D01*
X2083483*
X2085472D02*
X2087460Y1480950D01*
X2090017Y1489153D02*
X2092290Y1485247D01*
Y1480950*
X2094563Y1489153D02*
X2092290Y1485247D01*
X2013665Y1465653D02*
Y1457450D01*
X2017926Y1465653D02*
X2017358Y1465263D01*
X2017358D02*
X2016790Y1464481D01*
X2016506Y1463700*
X2016222Y1462528*
Y1460575*
X2016506Y1459403*
X2016790Y1458622*
X2017358Y1457841*
X2017926Y1457450*
X2019063*
X2019063D02*
X2019631Y1457841D01*
X2020199Y1458622*
X2020483Y1459403*
X2020767Y1460575*
Y1462528*
X2020483Y1463700*
X2020199Y1464481*
X2019631Y1465263*
X2019631D02*
X2019063Y1465653D01*
X2019063D02*
X2017926D01*
X2023324Y1460966D02*
X2028438D01*
X2030994Y1464091D02*
X2031563Y1464481D01*
X2031563D02*
X2032415Y1465653D01*
Y1457450*
X2038949Y1465653D02*
X2036108Y1457450D01*
X2034972Y1465653D02*
X2038949D01*
X2042074D02*
X2045199D01*
X2043494Y1462528*
X2044347*
X2044915Y1462138*
X2044915D02*
X2045199Y1461747D01*
X2045483Y1460575*
Y1459794*
X2045199Y1458622*
X2044631Y1457841*
X2043778Y1457450*
X2042926*
X2042074Y1457841*
X2041790Y1458231*
X2041506Y1459013*
X2051733Y1465653D02*
X2048892D01*
X2048608Y1462138*
X2048608D02*
X2048892Y1462528D01*
X2049744Y1462919*
X2050597*
X2051449Y1462528*
X2052017Y1461747*
X2052301Y1460575*
X2052017Y1459794*
X2051733Y1458622*
X2051165Y1457841*
X2050313Y1457450*
X2050313D02*
X2049460D01*
X2048608Y1457841*
X2048324Y1458231*
X2048040Y1459013*
X2054858Y1460966D02*
X2059972D01*
X2062528Y1464091D02*
X2063097Y1464481D01*
X2063949Y1465653*
Y1457450*
X2073040Y1465653D02*
Y1457450D01*
Y1465653D02*
X2075597D01*
X2076449Y1465263*
X2076449D02*
X2076733Y1464872D01*
X2077017Y1464091*
Y1463309*
X2076733Y1462528*
X2076449Y1462138*
X2076449D02*
X2075597Y1461747D01*
X2073040*
X2075028D02*
X2077017Y1457450D01*
X2079574Y1465653D02*
Y1457450D01*
Y1465653D02*
X2083267D01*
X2079574Y1461747D02*
X2081847D01*
X2079574Y1457450D02*
X2083267D01*
X2085824Y1465653D02*
X2088097Y1457450D01*
X2090369Y1465653D02*
X2088097Y1457450D01*
X2099460Y1460966D02*
X2104574D01*
X1900250Y1465153D02*
X1897977Y1456950D01*
X1900250Y1465153D02*
X1902523Y1456950D01*
X1898830Y1459684D02*
X1901670D01*
X1905080Y1465153D02*
Y1456950D01*
X1909057Y1465153D02*
X1905080Y1459684D01*
X1906500Y1461638D02*
X1909057Y1456950D01*
X1916727Y1466716D02*
X1911614Y1454216D01*
X1919284Y1465153D02*
X1920705Y1456950D01*
X1922125Y1465153D02*
X1920705Y1456950D01*
X1922125Y1465153D02*
X1923545Y1456950D01*
X1924966Y1465153D02*
X1923545Y1456950D01*
X1928659Y1465153D02*
X1928943Y1464763D01*
X1928943D02*
X1929227Y1465153D01*
X1928943Y1465544*
X1928659Y1465153*
X1928943Y1462419D02*
Y1455778D01*
X1928659Y1454606*
X1928091Y1454216*
X1927523*
X1934057Y1465153D02*
X1931784Y1456950D01*
X1934057Y1465153D02*
X1936330Y1456950D01*
X1932636Y1459684D02*
X1935477D01*
X1953659Y1465153D02*
X1952807Y1464763D01*
X1952807D02*
X1952239Y1463591D01*
X1951955Y1461638*
X1951955D02*
Y1460466D01*
X1952239Y1458513*
X1952239D02*
X1952807Y1457341D01*
X1953659Y1456950*
X1954227*
X1955080Y1457341*
X1955648Y1458513*
X1955648D02*
X1955932Y1460466D01*
Y1461638*
X1955932D02*
X1955648Y1463591D01*
X1955080Y1464763*
X1955080D02*
X1954227Y1465153D01*
X1953659*
X1962182Y1462419D02*
X1961898Y1461247D01*
X1961330Y1460466*
X1960477Y1460075*
X1960193*
X1959341Y1460466*
X1958773Y1461247*
X1958489Y1462419*
Y1462809*
X1958773Y1463981*
X1959341Y1464763*
X1959341D02*
X1960193Y1465153D01*
X1960477*
X1961330Y1464763*
X1961330D02*
X1961898Y1463981D01*
X1962182Y1462419*
Y1460466*
X1961898Y1458513*
X1961898D02*
X1961330Y1457341D01*
X1960477Y1456950*
X1959909*
X1959057Y1457341*
X1958773Y1458122*
X1964739Y1460466D02*
X1969852D01*
X1972409Y1463591D02*
X1972977Y1463981D01*
X1973830Y1465153*
Y1456950*
X1980080Y1462419D02*
X1979795Y1461247D01*
X1979227Y1460466*
X1978375Y1460075*
X1978091*
X1977239Y1460466*
X1976670Y1461247*
X1976386Y1462419*
Y1462809*
X1976670Y1463981*
X1977239Y1464763*
X1977239D02*
X1978091Y1465153D01*
X1978375*
X1979227Y1464763*
X1979227D02*
X1979795Y1463981D01*
X1980080Y1462419*
Y1460466*
X1979795Y1458513*
X1979795D02*
X1979227Y1457341D01*
X1978375Y1456950*
X1977807*
X1976955Y1457341*
X1976670Y1458122*
X1982636Y1460466D02*
X1987750D01*
X1990307Y1463591D02*
X1990875Y1463981D01*
X1991727Y1465153*
Y1456950*
X1995705Y1465153D02*
X1994852Y1464763D01*
X1994852D02*
X1994568Y1463981D01*
Y1463200*
X1994852Y1462419*
X1995420Y1462028*
X1996557Y1461638*
X1996557D02*
X1997409Y1461247D01*
X1997977Y1460466*
X1998261Y1459684*
Y1458513*
X1998261D02*
X1997977Y1457731D01*
X1997693Y1457341*
X1996841Y1456950*
X1995705*
X1994852Y1457341*
X1994568Y1457731*
X1994284Y1458513*
X1994284D02*
Y1459684D01*
X1994568Y1460466*
X1995136Y1461247*
X1995989Y1461638*
X1995989D02*
X1997125Y1462028D01*
X1997693Y1462419*
X1997977Y1463200*
Y1463981*
X1997693Y1464763*
X1997693D02*
X1996841Y1465153D01*
X1995705*
X1910403Y1451653D02*
Y1443450D01*
X1913813*
X1918642Y1451653D02*
X1916369Y1443450D01*
X1918642Y1451653D02*
X1920915Y1443450D01*
X1917222Y1446184D02*
X1920063D01*
X1923472Y1451653D02*
X1925744Y1447747D01*
Y1443450*
X1928017Y1451653D02*
X1925744Y1447747D01*
X1930574Y1451653D02*
Y1443450D01*
Y1451653D02*
X1934267D01*
X1930574Y1447747D02*
X1932847D01*
X1930574Y1443450D02*
X1934267D01*
X1936824Y1451653D02*
Y1443450D01*
Y1451653D02*
X1939381D01*
X1940233Y1451263*
X1940233D02*
X1940517Y1450872D01*
X1940801Y1450091*
Y1449309*
X1940517Y1448528*
X1940233Y1448138*
X1940233D02*
X1939381Y1447747D01*
X1936824*
X1938813D02*
X1940801Y1443450D01*
X1949892Y1450091D02*
X1950460Y1450481D01*
X1951313Y1451653*
Y1443450*
X1960403Y1446966D02*
X1965517D01*
X1976597Y1451653D02*
Y1443450D01*
X1974608Y1451653D02*
X1978585D01*
X1982847D02*
X1982278Y1451263D01*
X1982278D02*
X1981710Y1450481D01*
X1981426Y1449700*
X1981142Y1448528*
Y1446575*
X1981426Y1445403*
X1981710Y1444622*
X1982278Y1443841*
X1982847Y1443450*
X1983983*
X1984551Y1443841*
X1985119Y1444622*
X1985403Y1445403*
X1985688Y1446575*
Y1448528*
X1985403Y1449700*
X1985119Y1450481*
X1984551Y1451263*
X1984551D02*
X1983983Y1451653D01*
X1982847*
X1988244D02*
Y1443450D01*
Y1451653D02*
X1990801D01*
X1991653Y1451263*
X1991653D02*
X1991938Y1450872D01*
X1992222Y1450091*
Y1448919*
X1991938Y1448138*
X1991938D02*
X1991653Y1447747D01*
X1990801Y1447356*
X1988244*
X2001313Y1446966D02*
X2006426D01*
X2015517Y1451653D02*
Y1443450D01*
Y1451653D02*
X2018074D01*
X2018926Y1451263*
X2018926D02*
X2019210Y1450872D01*
X2019494Y1450091*
Y1448919*
X2019210Y1448138*
X2019210D02*
X2018926Y1447747D01*
X2018074Y1447356*
X2015517*
X2022051Y1451653D02*
Y1443450D01*
Y1451653D02*
X2024608D01*
X2025460Y1451263*
X2025460D02*
X2025744Y1450872D01*
X2026028Y1450091*
Y1449309*
X2025744Y1448528*
X2025460Y1448138*
X2025460D02*
X2024608Y1447747D01*
X2022051*
X2024040D02*
X2026028Y1443450D01*
X2028585Y1451653D02*
Y1443450D01*
X2031142Y1451653D02*
Y1443450D01*
Y1451653D02*
X2033415Y1443450D01*
X2035688Y1451653D02*
X2033415Y1443450D01*
X2035688Y1451653D02*
Y1443450D01*
X2040517Y1451653D02*
X2038244Y1443450D01*
X2040517Y1451653D02*
X2042790Y1443450D01*
X2039097Y1446184D02*
X2041938D01*
X2045347Y1451653D02*
Y1443450D01*
Y1451653D02*
X2047903D01*
X2048756Y1451263*
X2048756D02*
X2049040Y1450872D01*
X2049324Y1450091*
Y1449309*
X2049040Y1448528*
X2048756Y1448138*
X2048756D02*
X2047903Y1447747D01*
X2045347*
X2047335D02*
X2049324Y1443450D01*
X2051881Y1451653D02*
X2054153Y1447747D01*
Y1443450*
X2056426Y1451653D02*
X2054153Y1447747D01*
X2069494Y1450481D02*
X2068926Y1451263D01*
X2068926D02*
X2068074Y1451653D01*
X2066938*
X2066085Y1451263*
X2066085D02*
X2065517Y1450481D01*
Y1449700*
X2065801Y1448919*
X2066085Y1448528*
X2066653Y1448138*
X2066653D02*
X2068358Y1447356D01*
X2068926Y1446966*
X2069210Y1446575*
X2069494Y1445794*
Y1444622*
X2068926Y1443841*
X2068074Y1443450*
X2066938*
X2066085Y1443841*
X2065517Y1444622*
X2072051Y1451653D02*
Y1443450D01*
X2074608Y1451653D02*
Y1443450D01*
Y1451653D02*
X2076597D01*
X2077449Y1451263*
X2077449D02*
X2078017Y1450481D01*
X2078301Y1449700*
X2078585Y1448528*
Y1446575*
X2078301Y1445403*
X2078017Y1444622*
X2077449Y1443841*
X2076597Y1443450*
X2074608*
X2081142Y1451653D02*
Y1443450D01*
Y1451653D02*
X2084835D01*
X2081142Y1447747D02*
X2083415D01*
X2081142Y1443450D02*
X2084835D01*
X1892580Y1477153D02*
Y1468950D01*
Y1477153D02*
X1894568D01*
X1895420Y1476763*
X1895420D02*
X1895989Y1475981D01*
X1896273Y1475200*
X1896557Y1474028*
Y1472075*
X1896273Y1470903*
X1895989Y1470122*
X1895420Y1469341*
X1894568Y1468950*
X1892580*
X1899114Y1477153D02*
Y1468950D01*
Y1477153D02*
X1902807D01*
X1899114Y1473247D02*
X1901386D01*
X1899114Y1468950D02*
X1902807D01*
X1907352Y1477153D02*
Y1468950D01*
X1905364Y1477153D02*
X1909341D01*
X1911898D02*
Y1468950D01*
Y1477153D02*
X1915591D01*
X1911898Y1473247D02*
X1914170D01*
X1911898Y1468950D02*
X1915591D01*
X1922409Y1475200D02*
X1922125Y1475981D01*
X1921557Y1476763*
X1921557D02*
X1920989Y1477153D01*
X1919852*
X1919284Y1476763*
X1919284D02*
X1918716Y1475981D01*
X1918432Y1475200*
X1918148Y1474028*
Y1472075*
X1918432Y1470903*
X1918716Y1470122*
X1919284Y1469341*
X1919852Y1468950*
X1920989*
X1921557Y1469341*
X1922125Y1470122*
X1922409Y1470903*
X1926955Y1477153D02*
Y1468950D01*
X1924966Y1477153D02*
X1928943D01*
X1933205D02*
X1932636Y1476763D01*
X1932636D02*
X1932068Y1475981D01*
X1931784Y1475200*
X1931500Y1474028*
Y1472075*
X1931784Y1470903*
X1932068Y1470122*
X1932636Y1469341*
X1933205Y1468950*
X1934341*
X1934909Y1469341*
X1935477Y1470122*
X1935761Y1470903*
X1936045Y1472075*
Y1474028*
X1935761Y1475200*
X1935477Y1475981*
X1934909Y1476763*
X1934909D02*
X1934341Y1477153D01*
X1933205*
X1938602D02*
Y1468950D01*
Y1477153D02*
X1941159D01*
X1942011Y1476763*
X1942011D02*
X1942295Y1476372D01*
X1942580Y1475591*
Y1474809*
X1942295Y1474028*
X1942011Y1473638*
X1942011D02*
X1941159Y1473247D01*
X1938602*
X1940591D02*
X1942580Y1468950D01*
X1951670Y1477153D02*
Y1468950D01*
Y1477153D02*
X1954227D01*
X1955080Y1476763*
X1955080D02*
X1955364Y1476372D01*
X1955648Y1475591*
Y1474809*
X1955364Y1474028*
X1955080Y1473638*
X1955080D02*
X1954227Y1473247D01*
X1951670D02*
X1954227D01*
X1955080Y1472856*
X1955364Y1472466*
X1955648Y1471684*
Y1470513*
X1955648D02*
X1955364Y1469731D01*
X1955080Y1469341*
X1954227Y1468950*
X1951670*
X1958205Y1477153D02*
Y1468950D01*
X1963034Y1477153D02*
X1960761Y1468950D01*
X1963034Y1477153D02*
X1965307Y1468950D01*
X1961614Y1471684D02*
X1964455D01*
X1971841Y1475981D02*
X1971273Y1476763D01*
X1971273D02*
X1970420Y1477153D01*
X1969284*
X1968432Y1476763*
X1968432D02*
X1967864Y1475981D01*
Y1475200*
X1968148Y1474419*
X1968432Y1474028*
X1969000Y1473638*
X1969000D02*
X1970705Y1472856D01*
X1971273Y1472466*
X1971557Y1472075*
X1971841Y1471294*
Y1470122*
X1971273Y1469341*
X1970420Y1468950*
X1969284*
X1968432Y1469341*
X1967864Y1470122*
X1980932Y1477153D02*
Y1468950D01*
Y1477153D02*
X1982920D01*
X1983773Y1476763*
X1983773D02*
X1984341Y1475981D01*
X1984625Y1475200*
X1984909Y1474028*
Y1472075*
X1984625Y1470903*
X1984341Y1470122*
X1983773Y1469341*
X1982920Y1468950*
X1980932*
X1987466Y1477153D02*
Y1468950D01*
Y1477153D02*
X1990023D01*
X1990875Y1476763*
X1990875D02*
X1991159Y1476372D01*
X1991443Y1475591*
Y1474809*
X1991159Y1474028*
X1990875Y1473638*
X1990875D02*
X1990023Y1473247D01*
X1987466*
X1989455D02*
X1991443Y1468950D01*
X1994000Y1477153D02*
Y1468950D01*
X1996557Y1477153D02*
X1998830Y1468950D01*
X2001102Y1477153D02*
X1998830Y1468950D01*
X2003659Y1477153D02*
Y1468950D01*
Y1477153D02*
X2007352D01*
X2003659Y1473247D02*
X2005932D01*
X2003659Y1468950D02*
X2007352D01*
X2009909Y1477153D02*
Y1468950D01*
Y1477153D02*
X2012466D01*
X2013318Y1476763*
X2013318D02*
X2013602Y1476372D01*
X2013886Y1475591*
Y1474809*
X2013602Y1474028*
X2013318Y1473638*
X2013318D02*
X2012466Y1473247D01*
X2009909*
X2011898D02*
X2013886Y1468950D01*
X2022977Y1477153D02*
Y1468950D01*
Y1477153D02*
X2025534D01*
X2026386Y1476763*
X2026386D02*
X2026670Y1476372D01*
X2026955Y1475591*
Y1474419*
X2026670Y1473638*
X2026670D02*
X2026386Y1473247D01*
X2025534Y1472856*
X2022977*
X2029511Y1477153D02*
Y1468950D01*
X2036330Y1475200D02*
X2036045Y1475981D01*
X2035477Y1476763*
X2035477D02*
X2034909Y1477153D01*
X2033773*
X2033205Y1476763*
X2033205D02*
X2032636Y1475981D01*
X2032352Y1475200*
X2032068Y1474028*
Y1472075*
X2032352Y1470903*
X2032636Y1470122*
X2033205Y1469341*
X2033773Y1468950*
X2034909*
X2035477Y1469341*
X2036045Y1470122*
X2036330Y1470903*
Y1472075*
X2034909D02*
X2036330D01*
X2043148Y1475200D02*
X2042864Y1475981D01*
X2042295Y1476763*
X2042295D02*
X2041727Y1477153D01*
X2040591*
X2040023Y1476763*
X2040023D02*
X2039455Y1475981D01*
X2039170Y1475200*
X2038886Y1474028*
Y1472075*
X2039170Y1470903*
X2039455Y1470122*
X2040023Y1469341*
X2040591Y1468950*
X2041727*
X2042295Y1469341*
X2042864Y1470122*
X2043148Y1470903*
Y1472075*
X2041727D02*
X2043148D01*
X2045705Y1477153D02*
X2047977Y1473247D01*
Y1468950*
X2050250Y1477153D02*
X2047977Y1473247D01*
X2052807Y1477153D02*
Y1468950D01*
Y1477153D02*
X2055364D01*
X2056216Y1476763*
X2056216D02*
X2056500Y1476372D01*
X2056784Y1475591*
Y1474809*
X2056500Y1474028*
X2056216Y1473638*
X2056216D02*
X2055364Y1473247D01*
X2052807D02*
X2055364D01*
X2056216Y1472856*
X2056500Y1472466*
X2056784Y1471684*
Y1470513*
X2056784D02*
X2056500Y1469731D01*
X2056216Y1469341*
X2055364Y1468950*
X2052807*
X2061614Y1477153D02*
X2059341Y1468950D01*
X2061614Y1477153D02*
X2063886Y1468950D01*
X2060193Y1471684D02*
X2063034D01*
X2070705Y1475200D02*
X2070420Y1475981D01*
X2069852Y1476763*
X2069852D02*
X2069284Y1477153D01*
X2068148*
X2067580Y1476763*
X2067580D02*
X2067011Y1475981D01*
X2066727Y1475200*
X2066443Y1474028*
Y1472075*
X2066727Y1470903*
X2067011Y1470122*
X2067580Y1469341*
X2068148Y1468950*
X2069284*
X2069852Y1469341*
X2070420Y1470122*
X2070705Y1470903*
X2073261Y1477153D02*
Y1468950D01*
X2077239Y1477153D02*
X2073261Y1471684D01*
X2074682Y1473638D02*
X2077239Y1468950D01*
X2086330Y1477153D02*
Y1468950D01*
Y1477153D02*
X2088886D01*
X2089739Y1476763*
X2089739D02*
X2090023Y1476372D01*
X2090307Y1475591*
Y1474419*
X2090023Y1473638*
X2090023D02*
X2089739Y1473247D01*
X2088886Y1472856*
X2086330*
X2097125Y1475200D02*
X2096841Y1475981D01*
X2096273Y1476763*
X2096273D02*
X2095705Y1477153D01*
X2094568*
X2094000Y1476763*
X2094000D02*
X2093432Y1475981D01*
X2093148Y1475200*
X2092864Y1474028*
Y1472075*
X2093148Y1470903*
X2093432Y1470122*
X2094000Y1469341*
X2094568Y1468950*
X2095705*
X2096273Y1469341*
X2096841Y1470122*
X2097125Y1470903*
X2099682Y1477153D02*
Y1468950D01*
Y1477153D02*
X2102239D01*
X2103091Y1476763*
X2103091D02*
X2103375Y1476372D01*
X2103659Y1475591*
Y1474809*
X2103375Y1474028*
X2103091Y1473638*
X2103091D02*
X2102239Y1473247D01*
X2099682D02*
X2102239D01*
X2103091Y1472856*
X2103375Y1472466*
X2103659Y1471684*
Y1470513*
X2103659D02*
X2103375Y1469731D01*
X2103091Y1469341*
X2102239Y1468950*
X2099682*
G54D60*
X2012288Y1552450D02*
X2012188Y1552550D01*
X2012188D02*
X2019988Y1560350D01*
X2019988D02*
Y1571950D01*
X2026088Y1552450D02*
X2026688D01*
X2026688D02*
Y1571450D01*
X1985688Y1593307D02*
Y1595450D01*
X1985688D02*
X1985888D01*
X1985688Y1593307D02*
X1989438Y1587950D01*
X1989438D02*
X2003988D01*
X2003988D02*
X2019988Y1571950D01*
X1985888Y1595450D02*
Y1601450D01*
X1985888D02*
X1987688Y1601950D01*
X1987688D02*
X1992688Y1602950D01*
X2022688Y1592950D02*
X2027688Y1587950D01*
X1992688Y1592950D02*
X1996688D01*
X1996688D02*
X1998688Y1594950D01*
X1998688D02*
Y1605450D01*
X2026688Y1571450D02*
X2026388Y1571950D01*
X2026388D02*
Y1576150D01*
X2026388D02*
X2027688Y1578950D01*
X2027688D02*
Y1587950D01*
X1958452Y1635968D02*
X1958488Y1636450D01*
X1964188Y1614450D02*
X1965928D01*
Y1618350*
X1962188D02*
Y1614450D01*
X1962188D02*
X1964188D01*
X1958447Y1618350D02*
Y1627550D01*
Y1630950*
X1962188Y1627550D02*
Y1631950D01*
X1962188D02*
X1964688D01*
X1964188Y1613450D02*
Y1614450D01*
X1964688Y1631950D02*
X1965928D01*
Y1627550*
X1964688Y1631950D02*
Y1632950D01*
X1985188Y1608450D02*
X1985388Y1608650D01*
X1985388D02*
Y1615450D01*
X1985188Y1608450D02*
X1986688Y1607950D01*
X1986688D02*
X1996188D01*
X1996188D02*
X1998688Y1605450D01*
X1978988Y1615450D02*
Y1620750D01*
X1978988D02*
X1982688Y1624450D01*
X2011188D02*
Y1596450D01*
X2011188D02*
X2014688Y1592950D01*
X2014688D02*
X2022688D01*
X1986223Y1637986D02*
X1985339Y1637102D01*
X1986223Y1630914D02*
X1985339Y1631798D01*
X1979152Y1637986D02*
X1980036Y1637102D01*
X1979152Y1630914D02*
X1980036Y1631798D01*
X1958975Y1730662D02*
X1959859Y1729778D01*
X1958975Y1723238D02*
X1959859Y1724122D01*
X1966400Y1723238D02*
X1965516Y1724122D01*
X1966400Y1730662D02*
X1965516Y1729778D01*
X1986223Y1580486D02*
X1985339Y1579602D01*
X1979152Y1580486D02*
X1980036Y1579602D01*
X1979152Y1573414D02*
X1980036Y1574298D01*
X1986223Y1573414D02*
X1985339Y1574298D01*
X2018975Y1670662D02*
X2019859Y1669778D01*
X2018975Y1663238D02*
X2019859Y1664122D01*
X2026400Y1670662D02*
X2025516Y1669778D01*
X2018975Y1660662D02*
X2019859Y1659778D01*
X2018975Y1653238D02*
X2019859Y1654122D01*
X2026400Y1653238D02*
X2025516Y1654122D01*
X2018975Y1730662D02*
X2019859Y1729778D01*
X2018975Y1723238D02*
X2019859Y1724122D01*
X2026400Y1723238D02*
X2025516Y1724122D01*
G54D61*
X1994488Y1639450D02*
X1995738D01*
X2000488Y1631700D02*
Y1632950D01*
X2006488Y1639450D02*
X2005238D01*
X2000488Y1647200D02*
Y1645950D01*
X2019988Y1621700D02*
Y1622950D01*
Y1627200D02*
Y1625950D01*
X2016738Y1624450D02*
X2017988D01*
X1972588Y1648700D02*
Y1647450D01*
X1968238Y1644450D02*
X1969488D01*
X1972588Y1640200D02*
Y1641450D01*
X1976938Y1644450D02*
X1975688D01*
X1966938Y1595250D02*
X1965688D01*
X1961438D02*
X1962688D01*
X1964188Y1592000D02*
Y1593250D01*
X1992988Y1574700D02*
Y1573450D01*
X1989738Y1571950D02*
X1990988D01*
X1992988Y1569200D02*
Y1570450D01*
X1964888Y1639200D02*
Y1637950D01*
Y1633700D02*
Y1634950D01*
X1968138Y1636450D02*
X1966888D01*
X1965928Y1623800D02*
Y1625050D01*
X1968378Y1627550D02*
X1967128D01*
X1965928Y1631300D02*
Y1630050D01*
X1962188Y1623800D02*
Y1625050D01*
Y1631300D02*
Y1630050D01*
X1979488Y1598200D02*
Y1596950D01*
X1976238Y1595450D02*
X1977488D01*
X1979488Y1592700D02*
Y1593950D01*
X1976488Y1552450D02*
X1975238D01*
X1970488Y1560200D02*
Y1558950D01*
X1964488Y1552450D02*
X1965738D01*
X1970488Y1544700D02*
Y1545950D01*
X1973538Y1608450D02*
X1974788D01*
X1980838D02*
X1979588D01*
X1977188Y1612200D02*
Y1610950D01*
G54D64*
X1962688Y1552450D02*
X1970488D01*
X1994888D02*
Y1562150D01*
X1994888D02*
X1999388Y1566650D01*
X1999388D02*
Y1571950D01*
X1994888Y1552450D02*
X2003188D01*
X1964188Y1586950D02*
Y1595250D01*
Y1613450D02*
Y1601650D01*
X1964188D02*
X1979488Y1601450D01*
X1982688Y1576950D02*
X1987688Y1571950D01*
X1987688D02*
X1992988D01*
X1971188Y1595450D02*
X1979488D01*
X2022688Y1602950D02*
X2026688D01*
X2026688D02*
X2028688Y1604950D01*
X2028688D02*
Y1622150D01*
X1992688Y1582950D02*
X1999388Y1576250D01*
X1999388D02*
Y1571950D01*
X1958447Y1630950D02*
X1958452D01*
Y1635968*
X1964888Y1636450D02*
X1969688D01*
X1971188Y1608450D02*
X1977188D01*
X1958488Y1642150D02*
X1958988Y1644250D01*
X1964688Y1632950D02*
Y1636450D01*
X1964688D02*
X1964888D01*
X1972688Y1639450D02*
X1969688Y1636450D01*
X1969688D02*
X1971688Y1634450D01*
X1971688D02*
X1982688D01*
X2000488Y1639450D02*
X2008188D01*
X2008188D02*
X2019988Y1627650D01*
X2019988D02*
Y1624450D01*
X2024888Y1639450D02*
X2026388Y1637950D01*
X2026388D02*
Y1624450D01*
X2026388D02*
X2028688Y1622150D01*
X1972588Y1644450D02*
Y1650350D01*
X1972588D02*
X1972688Y1650450D01*
X1972588Y1644450D02*
X1972688Y1644350D01*
X1972688D02*
Y1639450D01*
X1958788Y1644450D02*
X1958988Y1644250D01*
X2022688Y1666950D02*
Y1656950D01*
X1962688Y1726950D02*
X2022688D01*
X2022688D02*
Y1666950D01*
G54D65*
X1958488Y1636450D02*
Y1642150D01*
X1982688Y1634450D02*
X1989188D01*
X1989188D02*
X1992688Y1639450D01*
X1992688D02*
X2000488D01*
X2000488D02*
Y1649950D01*
X2000488D02*
X2007488Y1656950D01*
X2007488D02*
X2022688D01*
X2024888Y1639450D02*
Y1641650D01*
X2024888D02*
X2030688Y1647450D01*
X1962688Y1746950D02*
X1983188D01*
X1983188D02*
X1993188Y1736950D01*
X1993188D02*
X2025688D01*
X2025688D02*
X2030688Y1731950D01*
X2030688D02*
Y1647450D01*
X1962688Y1552450D03*
X2003188D03*
X1964188Y1586950D03*
X1971188Y1595450D03*
Y1608450D03*
X1972688Y1650450D03*
G54D94*
X2022688Y1656950D03*
Y1666950D03*
Y1726950D03*
Y1746950D03*
X1962688D03*
Y1726950D03*
Y1666950D03*
Y1656950D03*
G54D169*
X1947688Y1756950D02*
Y1541950D01*
X1947688D02*
X2032688D01*
X2032688D02*
Y1626950D01*
X2032688D02*
X2037688Y1631950D01*
X2037688D02*
Y1756950D01*
X2037688D02*
X1947688D01*
G54D273*
X1965928Y1627550D03*
X1962188D03*
X1958447D03*
Y1618350D03*
X1962188D03*
X1965928D03*
G54D274*
X2024888Y1639450D03*
X2000488D03*
X1970488Y1552450D03*
X1994888D03*
G74*
X0Y0D02*
M02*
