*
*
G04 PADS VX.2.3 Build Number: 10035676 generated Gerber (RS-274-X) file*
G04 PC Version=2.1*
*
%IN "IO-1735-1.pcb"*%
*
%MOIN*%
*
%FSLAX35Y35*%
*
*
*
*
G04 PC Standard Apertures*
*
*
G04 Thermal Relief Aperture macro.*
%AMTER*
1,1,$1,0,0*
1,0,$1-$2,0,0*
21,0,$3,$4,0,0,45*
21,0,$3,$4,0,0,135*
%
*
*
G04 Annular Aperture macro.*
%AMANN*
1,1,$1,0,0*
1,0,$2,0,0*
%
*
*
G04 Odd Aperture macro.*
%AMODD*
1,1,$1,0,0*
1,0,$1-0.005,0,0*
%
*
*
G04 PC Custom Aperture Macros*
*
*
*
*
*
*
G04 PC Aperture Table*
*
%ADD010C,0.001*%
%ADD058C,0.01*%
%ADD169C,0.002*%
%ADD275R,0.0635X0.0615*%
%ADD276R,0.0415X0.0315*%
%ADD277R,0.0495X0.0515*%
%ADD278C,0.0815*%
%ADD279R,0.0255X0.0515*%
%ADD280C,0.0765*%
%ADD281R,0.0965X0.1315*%
%ADD282R,0.0315X0.0415*%
%ADD283R,0.0615X0.0615*%
%ADD284C,0.0615*%
*
*
*
*
G04 PC Circuitry*
G04 Layer Name IO-1735-1.pcb - circuitry*
%LPD*%
*
*
G04 PC Custom Flashes*
G04 Layer Name IO-1735-1.pcb - flashes*
%LPD*%
*
*
G04 PC Circuitry*
G04 Layer Name IO-1735-1.pcb - circuitry*
%LPD*%
*
G54D10*
G54D58*
G01X1899676Y1489153D02*
Y1480950D01*
Y1489153D02*
X1902233D01*
X1903085Y1488763*
X1903085D02*
X1903369Y1488372D01*
X1903653Y1487591*
Y1486809*
X1903369Y1486028*
X1903085Y1485638*
X1903085D02*
X1902233Y1485247D01*
X1899676D02*
X1902233D01*
X1903085Y1484856*
X1903369Y1484466*
X1903653Y1483684*
Y1482513*
X1903653D02*
X1903369Y1481731D01*
X1903085Y1481341*
X1902233Y1480950*
X1899676*
X1906210Y1489153D02*
Y1480950D01*
Y1489153D02*
X1908767D01*
X1909619Y1488763*
X1909619D02*
X1909903Y1488372D01*
X1910188Y1487591*
Y1486809*
X1909903Y1486028*
X1909619Y1485638*
X1909619D02*
X1908767Y1485247D01*
X1906210*
X1908199D02*
X1910188Y1480950D01*
X1914449Y1489153D02*
X1913881Y1488763D01*
X1913881D02*
X1913313Y1487981D01*
X1913028Y1487200*
X1912744Y1486028*
Y1484075*
X1913028Y1482903*
X1913313Y1482122*
X1913881Y1481341*
X1914449Y1480950*
X1915585*
X1916153Y1481341*
X1916722Y1482122*
X1917006Y1482903*
X1917290Y1484075*
Y1486028*
X1917006Y1487200*
X1916722Y1487981*
X1916153Y1488763*
X1916153D02*
X1915585Y1489153D01*
X1914449*
X1921551D02*
X1920983Y1488763D01*
X1920983D02*
X1920415Y1487981D01*
X1920131Y1487200*
X1919847Y1486028*
Y1484075*
X1920131Y1482903*
X1920415Y1482122*
X1920983Y1481341*
X1921551Y1480950*
X1922688*
X1923256Y1481341*
X1923824Y1482122*
X1924108Y1482903*
X1924392Y1484075*
Y1486028*
X1924108Y1487200*
X1923824Y1487981*
X1923256Y1488763*
X1923256D02*
X1922688Y1489153D01*
X1921551*
X1926949D02*
Y1480950D01*
X1930926Y1489153D02*
X1926949Y1483684D01*
X1928369Y1485638D02*
X1930926Y1480950D01*
X1933483Y1489153D02*
Y1480950D01*
X1937460Y1489153D02*
Y1480950D01*
X1933483Y1485247D02*
X1937460D01*
X1942290Y1489153D02*
X1940017Y1480950D01*
X1942290Y1489153D02*
X1944563Y1480950D01*
X1940869Y1483684D02*
X1943710D01*
X1947119Y1489153D02*
X1949392Y1480950D01*
X1951665Y1489153D02*
X1949392Y1480950D01*
X1954222Y1489153D02*
Y1480950D01*
Y1489153D02*
X1957915D01*
X1954222Y1485247D02*
X1956494D01*
X1954222Y1480950D02*
X1957915D01*
X1960472Y1489153D02*
Y1480950D01*
Y1489153D02*
X1964449Y1480950D01*
Y1489153D02*
Y1480950D01*
X1973540Y1489153D02*
Y1480950D01*
Y1489153D02*
X1977517Y1480950D01*
Y1489153D02*
Y1480950D01*
X1982347Y1489153D02*
X1980074Y1480950D01*
X1982347Y1489153D02*
X1984619Y1480950D01*
X1980926Y1483684D02*
X1983767D01*
X1989165Y1489153D02*
Y1480950D01*
X1987176Y1489153D02*
X1991153D01*
X1993710D02*
Y1480950D01*
X1997972Y1489153D02*
X1997403Y1488763D01*
X1997403D02*
X1996835Y1487981D01*
X1996551Y1487200*
X1996267Y1486028*
Y1484075*
X1996551Y1482903*
X1996835Y1482122*
X1997403Y1481341*
X1997972Y1480950*
X1999108*
X1999676Y1481341*
X2000244Y1482122*
X2000528Y1482903*
X2000813Y1484075*
Y1486028*
X2000528Y1487200*
X2000244Y1487981*
X1999676Y1488763*
X1999676D02*
X1999108Y1489153D01*
X1997972*
X2003369D02*
Y1480950D01*
Y1489153D02*
X2007347Y1480950D01*
Y1489153D02*
Y1480950D01*
X2012176Y1489153D02*
X2009903Y1480950D01*
X2012176Y1489153D02*
X2014449Y1480950D01*
X2010756Y1483684D02*
X2013597D01*
X2017006Y1489153D02*
Y1480950D01*
X2020415*
X2029506Y1489153D02*
Y1480950D01*
X2032915*
X2037744Y1489153D02*
X2035472Y1480950D01*
X2037744Y1489153D02*
X2040017Y1480950D01*
X2036324Y1483684D02*
X2039165D01*
X2042574Y1489153D02*
Y1480950D01*
Y1489153D02*
X2045131D01*
X2045983Y1488763*
X2045983D02*
X2046267Y1488372D01*
X2046551Y1487591*
Y1486809*
X2046267Y1486028*
X2045983Y1485638*
X2045983D02*
X2045131Y1485247D01*
X2042574D02*
X2045131D01*
X2045983Y1484856*
X2046267Y1484466*
X2046551Y1483684*
Y1482513*
X2046551D02*
X2046267Y1481731D01*
X2045983Y1481341*
X2045131Y1480950*
X2042574*
X2050813Y1489153D02*
X2050244Y1488763D01*
X2050244D02*
X2049676Y1487981D01*
X2049392Y1487200*
X2049108Y1486028*
Y1484075*
X2049392Y1482903*
X2049676Y1482122*
X2050244Y1481341*
X2050813Y1480950*
X2051949*
X2052517Y1481341*
X2053085Y1482122*
X2053369Y1482903*
X2053653Y1484075*
Y1486028*
X2053369Y1487200*
X2053085Y1487981*
X2052517Y1488763*
X2052517D02*
X2051949Y1489153D01*
X2050813*
X2056210D02*
Y1480950D01*
Y1489153D02*
X2058767D01*
X2059619Y1488763*
X2059619D02*
X2059903Y1488372D01*
X2060188Y1487591*
Y1486809*
X2059903Y1486028*
X2059619Y1485638*
X2059619D02*
X2058767Y1485247D01*
X2056210*
X2058199D02*
X2060188Y1480950D01*
X2065017Y1489153D02*
X2062744Y1480950D01*
X2065017Y1489153D02*
X2067290Y1480950D01*
X2063597Y1483684D02*
X2066438D01*
X2071835Y1489153D02*
Y1480950D01*
X2069847Y1489153D02*
X2073824D01*
X2078085D02*
X2077517Y1488763D01*
X2077517D02*
X2076949Y1487981D01*
X2076665Y1487200*
X2076381Y1486028*
Y1484075*
X2076665Y1482903*
X2076949Y1482122*
X2077517Y1481341*
X2078085Y1480950*
X2079222*
X2079790Y1481341*
X2080358Y1482122*
X2080642Y1482903*
X2080926Y1484075*
Y1486028*
X2080642Y1487200*
X2080358Y1487981*
X2079790Y1488763*
X2079790D02*
X2079222Y1489153D01*
X2078085*
X2083483D02*
Y1480950D01*
Y1489153D02*
X2086040D01*
X2086892Y1488763*
X2086892D02*
X2087176Y1488372D01*
X2087460Y1487591*
Y1486809*
X2087176Y1486028*
X2086892Y1485638*
X2086892D02*
X2086040Y1485247D01*
X2083483*
X2085472D02*
X2087460Y1480950D01*
X2090017Y1489153D02*
X2092290Y1485247D01*
Y1480950*
X2094563Y1489153D02*
X2092290Y1485247D01*
X2013665Y1465653D02*
Y1457450D01*
X2017926Y1465653D02*
X2017358Y1465263D01*
X2017358D02*
X2016790Y1464481D01*
X2016506Y1463700*
X2016222Y1462528*
Y1460575*
X2016506Y1459403*
X2016790Y1458622*
X2017358Y1457841*
X2017926Y1457450*
X2019063*
X2019063D02*
X2019631Y1457841D01*
X2020199Y1458622*
X2020483Y1459403*
X2020767Y1460575*
Y1462528*
X2020483Y1463700*
X2020199Y1464481*
X2019631Y1465263*
X2019631D02*
X2019063Y1465653D01*
X2019063D02*
X2017926D01*
X2023324Y1460966D02*
X2028438D01*
X2030994Y1464091D02*
X2031563Y1464481D01*
X2031563D02*
X2032415Y1465653D01*
Y1457450*
X2038949Y1465653D02*
X2036108Y1457450D01*
X2034972Y1465653D02*
X2038949D01*
X2042074D02*
X2045199D01*
X2043494Y1462528*
X2044347*
X2044915Y1462138*
X2044915D02*
X2045199Y1461747D01*
X2045483Y1460575*
Y1459794*
X2045199Y1458622*
X2044631Y1457841*
X2043778Y1457450*
X2042926*
X2042074Y1457841*
X2041790Y1458231*
X2041506Y1459013*
X2051733Y1465653D02*
X2048892D01*
X2048608Y1462138*
X2048608D02*
X2048892Y1462528D01*
X2049744Y1462919*
X2050597*
X2051449Y1462528*
X2052017Y1461747*
X2052301Y1460575*
X2052017Y1459794*
X2051733Y1458622*
X2051165Y1457841*
X2050313Y1457450*
X2050313D02*
X2049460D01*
X2048608Y1457841*
X2048324Y1458231*
X2048040Y1459013*
X2054858Y1460966D02*
X2059972D01*
X2062528Y1464091D02*
X2063097Y1464481D01*
X2063949Y1465653*
Y1457450*
X2073040Y1465653D02*
Y1457450D01*
Y1465653D02*
X2075597D01*
X2076449Y1465263*
X2076449D02*
X2076733Y1464872D01*
X2077017Y1464091*
Y1463309*
X2076733Y1462528*
X2076449Y1462138*
X2076449D02*
X2075597Y1461747D01*
X2073040*
X2075028D02*
X2077017Y1457450D01*
X2079574Y1465653D02*
Y1457450D01*
Y1465653D02*
X2083267D01*
X2079574Y1461747D02*
X2081847D01*
X2079574Y1457450D02*
X2083267D01*
X2085824Y1465653D02*
X2088097Y1457450D01*
X2090369Y1465653D02*
X2088097Y1457450D01*
X2099460Y1460966D02*
X2104574D01*
X1900250Y1465153D02*
X1897977Y1456950D01*
X1900250Y1465153D02*
X1902523Y1456950D01*
X1898830Y1459684D02*
X1901670D01*
X1905080Y1465153D02*
Y1456950D01*
X1909057Y1465153D02*
X1905080Y1459684D01*
X1906500Y1461638D02*
X1909057Y1456950D01*
X1916727Y1466716D02*
X1911614Y1454216D01*
X1919284Y1465153D02*
X1920705Y1456950D01*
X1922125Y1465153D02*
X1920705Y1456950D01*
X1922125Y1465153D02*
X1923545Y1456950D01*
X1924966Y1465153D02*
X1923545Y1456950D01*
X1928659Y1465153D02*
X1928943Y1464763D01*
X1928943D02*
X1929227Y1465153D01*
X1928943Y1465544*
X1928659Y1465153*
X1928943Y1462419D02*
Y1455778D01*
X1928659Y1454606*
X1928091Y1454216*
X1927523*
X1934057Y1465153D02*
X1931784Y1456950D01*
X1934057Y1465153D02*
X1936330Y1456950D01*
X1932636Y1459684D02*
X1935477D01*
X1953659Y1465153D02*
X1952807Y1464763D01*
X1952807D02*
X1952239Y1463591D01*
X1951955Y1461638*
X1951955D02*
Y1460466D01*
X1952239Y1458513*
X1952239D02*
X1952807Y1457341D01*
X1953659Y1456950*
X1954227*
X1955080Y1457341*
X1955648Y1458513*
X1955648D02*
X1955932Y1460466D01*
Y1461638*
X1955932D02*
X1955648Y1463591D01*
X1955080Y1464763*
X1955080D02*
X1954227Y1465153D01*
X1953659*
X1962182Y1462419D02*
X1961898Y1461247D01*
X1961330Y1460466*
X1960477Y1460075*
X1960193*
X1959341Y1460466*
X1958773Y1461247*
X1958489Y1462419*
Y1462809*
X1958773Y1463981*
X1959341Y1464763*
X1959341D02*
X1960193Y1465153D01*
X1960477*
X1961330Y1464763*
X1961330D02*
X1961898Y1463981D01*
X1962182Y1462419*
Y1460466*
X1961898Y1458513*
X1961898D02*
X1961330Y1457341D01*
X1960477Y1456950*
X1959909*
X1959057Y1457341*
X1958773Y1458122*
X1964739Y1460466D02*
X1969852D01*
X1972409Y1463591D02*
X1972977Y1463981D01*
X1973830Y1465153*
Y1456950*
X1980080Y1462419D02*
X1979795Y1461247D01*
X1979227Y1460466*
X1978375Y1460075*
X1978091*
X1977239Y1460466*
X1976670Y1461247*
X1976386Y1462419*
Y1462809*
X1976670Y1463981*
X1977239Y1464763*
X1977239D02*
X1978091Y1465153D01*
X1978375*
X1979227Y1464763*
X1979227D02*
X1979795Y1463981D01*
X1980080Y1462419*
Y1460466*
X1979795Y1458513*
X1979795D02*
X1979227Y1457341D01*
X1978375Y1456950*
X1977807*
X1976955Y1457341*
X1976670Y1458122*
X1982636Y1460466D02*
X1987750D01*
X1990307Y1463591D02*
X1990875Y1463981D01*
X1991727Y1465153*
Y1456950*
X1995705Y1465153D02*
X1994852Y1464763D01*
X1994852D02*
X1994568Y1463981D01*
Y1463200*
X1994852Y1462419*
X1995420Y1462028*
X1996557Y1461638*
X1996557D02*
X1997409Y1461247D01*
X1997977Y1460466*
X1998261Y1459684*
Y1458513*
X1998261D02*
X1997977Y1457731D01*
X1997693Y1457341*
X1996841Y1456950*
X1995705*
X1994852Y1457341*
X1994568Y1457731*
X1994284Y1458513*
X1994284D02*
Y1459684D01*
X1994568Y1460466*
X1995136Y1461247*
X1995989Y1461638*
X1995989D02*
X1997125Y1462028D01*
X1997693Y1462419*
X1997977Y1463200*
Y1463981*
X1997693Y1464763*
X1997693D02*
X1996841Y1465153D01*
X1995705*
X1946057Y1450481D02*
X1945489Y1451263D01*
X1945489D02*
X1944636Y1451653D01*
X1943500*
X1942648Y1451263*
X1942648D02*
X1942080Y1450481D01*
Y1449700*
X1942364Y1448919*
X1942648Y1448528*
X1943216Y1448138*
X1943216D02*
X1944920Y1447356D01*
X1945489Y1446966*
X1945773Y1446575*
X1946057Y1445794*
Y1444622*
X1945489Y1443841*
X1944636Y1443450*
X1943500*
X1942648Y1443841*
X1942080Y1444622*
X1950318Y1451653D02*
X1949750Y1451263D01*
X1949750D02*
X1949182Y1450481D01*
X1948898Y1449700*
X1948614Y1448528*
Y1446575*
X1948898Y1445403*
X1949182Y1444622*
X1949750Y1443841*
X1950318Y1443450*
X1951455*
X1952023Y1443841*
X1952591Y1444622*
X1952875Y1445403*
X1953159Y1446575*
Y1448528*
X1952875Y1449700*
X1952591Y1450481*
X1952023Y1451263*
X1952023D02*
X1951455Y1451653D01*
X1950318*
X1955716D02*
Y1443450D01*
X1959125*
X1961682Y1451653D02*
Y1443450D01*
Y1451653D02*
X1963670D01*
X1964523Y1451263*
X1964523D02*
X1965091Y1450481D01*
X1965375Y1449700*
X1965659Y1448528*
Y1446575*
X1965375Y1445403*
X1965091Y1444622*
X1964523Y1443841*
X1963670Y1443450*
X1961682*
X1968216Y1451653D02*
Y1443450D01*
Y1451653D02*
X1971909D01*
X1968216Y1447747D02*
X1970489D01*
X1968216Y1443450D02*
X1971909D01*
X1974466Y1451653D02*
Y1443450D01*
Y1451653D02*
X1977023D01*
X1977875Y1451263*
X1977875D02*
X1978159Y1450872D01*
X1978443Y1450091*
Y1449309*
X1978159Y1448528*
X1977875Y1448138*
X1977875D02*
X1977023Y1447747D01*
X1974466*
X1976455D02*
X1978443Y1443450D01*
X1987534Y1451653D02*
Y1443450D01*
Y1451653D02*
X1989807Y1443450D01*
X1992080Y1451653D02*
X1989807Y1443450D01*
X1992080Y1451653D02*
Y1443450D01*
X1996909Y1451653D02*
X1994636Y1443450D01*
X1996909Y1451653D02*
X1999182Y1443450D01*
X1995489Y1446184D02*
X1998330D01*
X2005716Y1450481D02*
X2005148Y1451263D01*
X2005148D02*
X2004295Y1451653D01*
X2003159*
X2002307Y1451263*
X2002307D02*
X2001739Y1450481D01*
Y1449700*
X2002023Y1448919*
X2002307Y1448528*
X2002875Y1448138*
X2002875D02*
X2004580Y1447356D01*
X2005148Y1446966*
X2005432Y1446575*
X2005716Y1445794*
Y1444622*
X2005148Y1443841*
X2004295Y1443450*
X2003159*
X2002307Y1443841*
X2001739Y1444622*
X2008273Y1451653D02*
Y1443450D01*
X2012250Y1451653D02*
X2008273Y1446184D01*
X2009693Y1448138D02*
X2012250Y1443450D01*
X2021341Y1446966D02*
X2026455D01*
X2037534Y1451653D02*
Y1443450D01*
X2035545Y1451653D02*
X2039523D01*
X2043784D02*
X2043216Y1451263D01*
X2043216D02*
X2042648Y1450481D01*
X2042364Y1449700*
X2042080Y1448528*
Y1446575*
X2042364Y1445403*
X2042648Y1444622*
X2043216Y1443841*
X2043784Y1443450*
X2044920*
X2045489Y1443841*
X2046057Y1444622*
X2046341Y1445403*
X2046625Y1446575*
Y1448528*
X2046341Y1449700*
X2046057Y1450481*
X2045489Y1451263*
X2045489D02*
X2044920Y1451653D01*
X2043784*
X2049182D02*
Y1443450D01*
Y1451653D02*
X2051739D01*
X2052591Y1451263*
X2052591D02*
X2052875Y1450872D01*
X2053159Y1450091*
Y1448919*
X2052875Y1448138*
X2052875D02*
X2052591Y1447747D01*
X2051739Y1447356*
X2049182*
X1892580Y1477153D02*
Y1468950D01*
Y1477153D02*
X1894568D01*
X1895420Y1476763*
X1895420D02*
X1895989Y1475981D01*
X1896273Y1475200*
X1896557Y1474028*
Y1472075*
X1896273Y1470903*
X1895989Y1470122*
X1895420Y1469341*
X1894568Y1468950*
X1892580*
X1899114Y1477153D02*
Y1468950D01*
Y1477153D02*
X1902807D01*
X1899114Y1473247D02*
X1901386D01*
X1899114Y1468950D02*
X1902807D01*
X1907352Y1477153D02*
Y1468950D01*
X1905364Y1477153D02*
X1909341D01*
X1911898D02*
Y1468950D01*
Y1477153D02*
X1915591D01*
X1911898Y1473247D02*
X1914170D01*
X1911898Y1468950D02*
X1915591D01*
X1922409Y1475200D02*
X1922125Y1475981D01*
X1921557Y1476763*
X1921557D02*
X1920989Y1477153D01*
X1919852*
X1919284Y1476763*
X1919284D02*
X1918716Y1475981D01*
X1918432Y1475200*
X1918148Y1474028*
Y1472075*
X1918432Y1470903*
X1918716Y1470122*
X1919284Y1469341*
X1919852Y1468950*
X1920989*
X1921557Y1469341*
X1922125Y1470122*
X1922409Y1470903*
X1926955Y1477153D02*
Y1468950D01*
X1924966Y1477153D02*
X1928943D01*
X1933205D02*
X1932636Y1476763D01*
X1932636D02*
X1932068Y1475981D01*
X1931784Y1475200*
X1931500Y1474028*
Y1472075*
X1931784Y1470903*
X1932068Y1470122*
X1932636Y1469341*
X1933205Y1468950*
X1934341*
X1934909Y1469341*
X1935477Y1470122*
X1935761Y1470903*
X1936045Y1472075*
Y1474028*
X1935761Y1475200*
X1935477Y1475981*
X1934909Y1476763*
X1934909D02*
X1934341Y1477153D01*
X1933205*
X1938602D02*
Y1468950D01*
Y1477153D02*
X1941159D01*
X1942011Y1476763*
X1942011D02*
X1942295Y1476372D01*
X1942580Y1475591*
Y1474809*
X1942295Y1474028*
X1942011Y1473638*
X1942011D02*
X1941159Y1473247D01*
X1938602*
X1940591D02*
X1942580Y1468950D01*
X1951670Y1477153D02*
Y1468950D01*
Y1477153D02*
X1954227D01*
X1955080Y1476763*
X1955080D02*
X1955364Y1476372D01*
X1955648Y1475591*
Y1474809*
X1955364Y1474028*
X1955080Y1473638*
X1955080D02*
X1954227Y1473247D01*
X1951670D02*
X1954227D01*
X1955080Y1472856*
X1955364Y1472466*
X1955648Y1471684*
Y1470513*
X1955648D02*
X1955364Y1469731D01*
X1955080Y1469341*
X1954227Y1468950*
X1951670*
X1958205Y1477153D02*
Y1468950D01*
X1963034Y1477153D02*
X1960761Y1468950D01*
X1963034Y1477153D02*
X1965307Y1468950D01*
X1961614Y1471684D02*
X1964455D01*
X1971841Y1475981D02*
X1971273Y1476763D01*
X1971273D02*
X1970420Y1477153D01*
X1969284*
X1968432Y1476763*
X1968432D02*
X1967864Y1475981D01*
Y1475200*
X1968148Y1474419*
X1968432Y1474028*
X1969000Y1473638*
X1969000D02*
X1970705Y1472856D01*
X1971273Y1472466*
X1971557Y1472075*
X1971841Y1471294*
Y1470122*
X1971273Y1469341*
X1970420Y1468950*
X1969284*
X1968432Y1469341*
X1967864Y1470122*
X1980932Y1477153D02*
Y1468950D01*
Y1477153D02*
X1982920D01*
X1983773Y1476763*
X1983773D02*
X1984341Y1475981D01*
X1984625Y1475200*
X1984909Y1474028*
Y1472075*
X1984625Y1470903*
X1984341Y1470122*
X1983773Y1469341*
X1982920Y1468950*
X1980932*
X1987466Y1477153D02*
Y1468950D01*
Y1477153D02*
X1990023D01*
X1990875Y1476763*
X1990875D02*
X1991159Y1476372D01*
X1991443Y1475591*
Y1474809*
X1991159Y1474028*
X1990875Y1473638*
X1990875D02*
X1990023Y1473247D01*
X1987466*
X1989455D02*
X1991443Y1468950D01*
X1994000Y1477153D02*
Y1468950D01*
X1996557Y1477153D02*
X1998830Y1468950D01*
X2001102Y1477153D02*
X1998830Y1468950D01*
X2003659Y1477153D02*
Y1468950D01*
Y1477153D02*
X2007352D01*
X2003659Y1473247D02*
X2005932D01*
X2003659Y1468950D02*
X2007352D01*
X2009909Y1477153D02*
Y1468950D01*
Y1477153D02*
X2012466D01*
X2013318Y1476763*
X2013318D02*
X2013602Y1476372D01*
X2013886Y1475591*
Y1474809*
X2013602Y1474028*
X2013318Y1473638*
X2013318D02*
X2012466Y1473247D01*
X2009909*
X2011898D02*
X2013886Y1468950D01*
X2022977Y1477153D02*
Y1468950D01*
Y1477153D02*
X2025534D01*
X2026386Y1476763*
X2026386D02*
X2026670Y1476372D01*
X2026955Y1475591*
Y1474419*
X2026670Y1473638*
X2026670D02*
X2026386Y1473247D01*
X2025534Y1472856*
X2022977*
X2029511Y1477153D02*
Y1468950D01*
X2036330Y1475200D02*
X2036045Y1475981D01*
X2035477Y1476763*
X2035477D02*
X2034909Y1477153D01*
X2033773*
X2033205Y1476763*
X2033205D02*
X2032636Y1475981D01*
X2032352Y1475200*
X2032068Y1474028*
Y1472075*
X2032352Y1470903*
X2032636Y1470122*
X2033205Y1469341*
X2033773Y1468950*
X2034909*
X2035477Y1469341*
X2036045Y1470122*
X2036330Y1470903*
Y1472075*
X2034909D02*
X2036330D01*
X2043148Y1475200D02*
X2042864Y1475981D01*
X2042295Y1476763*
X2042295D02*
X2041727Y1477153D01*
X2040591*
X2040023Y1476763*
X2040023D02*
X2039455Y1475981D01*
X2039170Y1475200*
X2038886Y1474028*
Y1472075*
X2039170Y1470903*
X2039455Y1470122*
X2040023Y1469341*
X2040591Y1468950*
X2041727*
X2042295Y1469341*
X2042864Y1470122*
X2043148Y1470903*
Y1472075*
X2041727D02*
X2043148D01*
X2045705Y1477153D02*
X2047977Y1473247D01*
Y1468950*
X2050250Y1477153D02*
X2047977Y1473247D01*
X2052807Y1477153D02*
Y1468950D01*
Y1477153D02*
X2055364D01*
X2056216Y1476763*
X2056216D02*
X2056500Y1476372D01*
X2056784Y1475591*
Y1474809*
X2056500Y1474028*
X2056216Y1473638*
X2056216D02*
X2055364Y1473247D01*
X2052807D02*
X2055364D01*
X2056216Y1472856*
X2056500Y1472466*
X2056784Y1471684*
Y1470513*
X2056784D02*
X2056500Y1469731D01*
X2056216Y1469341*
X2055364Y1468950*
X2052807*
X2061614Y1477153D02*
X2059341Y1468950D01*
X2061614Y1477153D02*
X2063886Y1468950D01*
X2060193Y1471684D02*
X2063034D01*
X2070705Y1475200D02*
X2070420Y1475981D01*
X2069852Y1476763*
X2069852D02*
X2069284Y1477153D01*
X2068148*
X2067580Y1476763*
X2067580D02*
X2067011Y1475981D01*
X2066727Y1475200*
X2066443Y1474028*
Y1472075*
X2066727Y1470903*
X2067011Y1470122*
X2067580Y1469341*
X2068148Y1468950*
X2069284*
X2069852Y1469341*
X2070420Y1470122*
X2070705Y1470903*
X2073261Y1477153D02*
Y1468950D01*
X2077239Y1477153D02*
X2073261Y1471684D01*
X2074682Y1473638D02*
X2077239Y1468950D01*
X2086330Y1477153D02*
Y1468950D01*
Y1477153D02*
X2088886D01*
X2089739Y1476763*
X2089739D02*
X2090023Y1476372D01*
X2090307Y1475591*
Y1474419*
X2090023Y1473638*
X2090023D02*
X2089739Y1473247D01*
X2088886Y1472856*
X2086330*
X2097125Y1475200D02*
X2096841Y1475981D01*
X2096273Y1476763*
X2096273D02*
X2095705Y1477153D01*
X2094568*
X2094000Y1476763*
X2094000D02*
X2093432Y1475981D01*
X2093148Y1475200*
X2092864Y1474028*
Y1472075*
X2093148Y1470903*
X2093432Y1470122*
X2094000Y1469341*
X2094568Y1468950*
X2095705*
X2096273Y1469341*
X2096841Y1470122*
X2097125Y1470903*
X2099682Y1477153D02*
Y1468950D01*
Y1477153D02*
X2102239D01*
X2103091Y1476763*
X2103091D02*
X2103375Y1476372D01*
X2103659Y1475591*
Y1474809*
X2103375Y1474028*
X2103091Y1473638*
X2103091D02*
X2102239Y1473247D01*
X2099682D02*
X2102239D01*
X2103091Y1472856*
X2103375Y1472466*
X2103659Y1471684*
Y1470513*
X2103659D02*
X2103375Y1469731D01*
X2103091Y1469341*
X2102239Y1468950*
X2099682*
G54D169*
X1947688Y1756950D02*
Y1541950D01*
X1947688D02*
X2032688D01*
X2032688D02*
Y1626950D01*
X2032688D02*
X2037688Y1631950D01*
X2037688D02*
Y1756950D01*
X2037688D02*
X1947688D01*
G54D275*
X2012288Y1552450D03*
X2026088D03*
X1958788Y1644450D03*
X1972588D03*
G54D276*
X1978988Y1615450D03*
X1985388D03*
X1979488Y1601450D03*
X1985888D03*
X2026388Y1624450D03*
X2019988D03*
X1979488Y1595450D03*
X1985888D03*
X1992988Y1571950D03*
X1999388D03*
X2019988D03*
X2026388D03*
X1958488Y1636450D03*
X1964888D03*
G54D277*
X1985188Y1608450D03*
X1977188D03*
G54D278*
X2022688Y1656950D03*
Y1666950D03*
Y1726950D03*
Y1746950D03*
X1962688D03*
Y1726950D03*
Y1666950D03*
Y1656950D03*
G54D279*
X1965928Y1627550D03*
X1962188D03*
X1958447D03*
Y1618350D03*
X1962188D03*
X1965928D03*
G54D280*
X1982688Y1644450D03*
Y1634450D03*
Y1624450D03*
X2011188D03*
X1982688Y1586950D03*
Y1576950D03*
Y1566950D03*
X2011188D03*
G54D281*
X2024888Y1639450D03*
X2000488D03*
X1970488Y1552450D03*
X1994888D03*
G54D282*
X1964188Y1601650D03*
Y1595250D03*
G54D283*
X1992688Y1612950D03*
G54D284*
Y1602950D03*
Y1592950D03*
Y1582950D03*
X2022688D03*
Y1592950D03*
Y1602950D03*
Y1612950D03*
X0Y0D02*
M02*
