*
*
G04 PADS VX.2.3 Build Number: 10035676 generated Gerber (RS-274-X) file*
G04 PC Version=2.1*
*
%IN "IO-1735-1.pcb"*%
*
%MOIN*%
*
%FSLAX35Y35*%
*
*
*
*
G04 PC Standard Apertures*
*
*
G04 Thermal Relief Aperture macro.*
%AMTER*
1,1,$1,0,0*
1,0,$1-$2,0,0*
21,0,$3,$4,0,0,45*
21,0,$3,$4,0,0,135*
%
*
*
G04 Annular Aperture macro.*
%AMANN*
1,1,$1,0,0*
1,0,$2,0,0*
%
*
*
G04 Odd Aperture macro.*
%AMODD*
1,1,$1,0,0*
1,0,$1-0.005,0,0*
%
*
*
G04 PC Custom Aperture Macros*
*
*
*
*
*
*
G04 PC Aperture Table*
*
%ADD010C,0.001*%
%ADD056C,0.005*%
%ADD058C,0.01*%
%ADD063C,0.008*%
%ADD169C,0.002*%
*
*
*
*
G04 PC Circuitry*
G04 Layer Name IO-1735-1.pcb - circuitry*
%LPD*%
*
*
G04 PC Custom Flashes*
G04 Layer Name IO-1735-1.pcb - flashes*
%LPD*%
*
*
G04 PC Circuitry*
G04 Layer Name IO-1735-1.pcb - circuitry*
%LPD*%
*
G54D10*
G54D56*
G01X1985455Y1736574D02*
G75*
G03X1972368Y1716032I94573J-74689D01*
G01X1972351Y1715991D02*
G03X1964971Y1700414I71037J-43192D01*
G01X1964958Y1700377D02*
G03X1964759Y1699639I4808J-1693D01*
G01Y1699637D02*
G03X1964943Y1697005I3767J-1059D01*
G01X1964942Y1697007D02*
G03X1965354Y1696677I607J338D01*
G01X1965356D02*
G03X1966509Y1696816I403J1504D01*
G01X1966496Y1696810D02*
G03X1973493Y1702346I-8834J18357D01*
G01X1975806Y1704793D02*
G03X1973475Y1702328I69448J-68008D01*
G01X1969374Y1699176D02*
G03X1975835Y1704822I-31480J42542D01*
G01X1967255Y1699109D02*
G03X1969374Y1699176I1020J1282D01*
G01X1966690Y1700345D02*
G03X1967254Y1699110I1513J-55D01*
G01X1969467Y1708538D02*
G03X1966697Y1700377I34709J-16333D01*
G01X1985331Y1736423D02*
G03X1969492Y1708597I117102J-85080D01*
G01X1985402Y1736507D02*
G03X1985274Y1736344I2012J-1712D01*
G01X1988753Y1740970D02*
G03X1985400Y1736503I28735J-25068D01*
G01X1975228Y1746272D02*
X1975202Y1745997D01*
X1975134Y1745734*
X1975015Y1745484*
X1974859Y1745259*
X1974665Y1745066*
X1974440Y1744909*
X1974196Y1744797*
X1973927Y1744722*
X1973659Y1744697*
X1973384Y1744722*
X1973121Y1744797*
X1972871Y1744909*
X1972646Y1745066*
X1972452Y1745259*
X1972296Y1745484*
X1972184Y1745734*
X1972109Y1745997*
X1972090Y1746272*
Y1750910*
X1978640*
Y1746078*
X1978615Y1745778*
X1978540Y1745491*
X1978415Y1745222*
X1978240Y1744978*
X1978034Y1744766*
X1977790Y1744597*
X1977515Y1744472*
X1977228Y1744397*
X1976934Y1744366*
X1976640Y1744397*
X1976353Y1744472*
X1976078Y1744597*
X1975834Y1744766*
X1975628Y1744978*
X1975453Y1745222*
X1975328Y1745491*
X1975253Y1745778*
X1975228Y1746078*
Y1746272*
X1975746Y1748410D02*
X1977859D01*
Y1748191*
X1977821Y1748010*
X1977759Y1747847*
X1977659Y1747691*
X1977540Y1747553*
X1977403Y1747441*
X1977246Y1747353*
X1977071Y1747297*
X1976896Y1747266*
X1976715*
X1976540Y1747297*
X1976371Y1747353*
X1976209Y1747441*
X1976071Y1747553*
X1975953Y1747691*
X1975859Y1747841*
X1975790Y1748010*
X1975746Y1748191*
Y1748410*
X1974684D02*
Y1748028D01*
X1974646Y1747885*
X1974590Y1747747*
X1974509Y1747616*
X1974402Y1747503*
X1974284Y1747410*
X1974152Y1747341*
X1974009Y1747291*
X1973859Y1747266*
X1973709*
X1973559Y1747291*
X1973415Y1747341*
X1973284Y1747410*
X1973165Y1747503*
X1973065Y1747616*
X1972984Y1747741*
X1972921Y1747885*
X1972890Y1748028*
Y1748410*
X1974684*
X1974696Y1741359D02*
Y1740978D01*
X1974659Y1740828*
X1974602Y1740691*
X1974521Y1740566*
X1974415Y1740453*
X1974296Y1740359*
X1974165Y1740284*
X1974021Y1740234*
X1973871Y1740209*
X1973721*
X1973571Y1740234*
X1973427Y1740284*
X1973296Y1740359*
X1973177Y1740453*
X1973077Y1740566*
X1972996Y1740691*
X1972934Y1740828*
X1972902Y1740978*
Y1741359*
X1974696*
X1975465Y1738166D02*
X1975484Y1738109D01*
X1975546Y1738009*
X1975590Y1737972*
X1975640Y1737941*
X1975690Y1737916*
X1975746Y1737897*
X1975809Y1737891*
X1978640*
Y1740391*
X1975746*
Y1741359*
X1978640*
Y1743859*
X1972090*
Y1739266*
X1972146Y1739003*
X1972246Y1738753*
X1972384Y1738528*
X1972559Y1738328*
X1972765Y1738159*
X1973002Y1738028*
X1973252Y1737941*
X1973515Y1737897*
X1973784*
X1974046Y1737941*
X1974296Y1738028*
X1974534Y1738159*
X1974740Y1738328*
X1974915Y1738528*
X1975059Y1738753*
X1975159Y1739003*
X1975215Y1739266*
X1975465Y1738166*
X1973440Y1733422D02*
X1973346Y1733428D01*
X1973259Y1733453*
X1973171Y1733491*
X1973090Y1733547*
X1973027Y1733609*
X1972971Y1733691*
X1972934Y1733778*
X1972909Y1733866*
X1972902Y1733959*
X1972909Y1734053*
X1972934Y1734147*
X1972971Y1734234*
X1973027Y1734309*
X1973090Y1734378*
X1973171Y1734428*
X1973259Y1734472*
X1973346Y1734497*
X1973440Y1734503*
X1977284*
X1977384Y1734497*
X1977471Y1734472*
X1977559Y1734428*
X1977634Y1734378*
X1977703Y1734309*
X1977759Y1734234*
X1977796Y1734147*
X1977821Y1734053*
X1977828Y1733959*
X1977821Y1733866*
X1977796Y1733778*
X1977759Y1733691*
X1977703Y1733609*
X1977634Y1733547*
X1977559Y1733491*
X1977471Y1733453*
X1977384Y1733428*
X1977284Y1733422*
X1973440*
X1973396Y1737128D02*
X1974702Y1737347D01*
X1976028*
X1977334Y1737128*
X1977521Y1737034*
X1977696Y1736909*
X1977846Y1736766*
X1977978Y1736603*
X1978340Y1735759*
X1978565Y1734866*
X1978640Y1733953*
X1978565Y1733034*
X1978340Y1732147*
X1977978Y1731303*
X1977846Y1731134*
X1977696Y1730991*
X1977521Y1730872*
X1977334Y1730778*
X1976028Y1730553*
X1974702*
X1973396Y1730778*
X1973209Y1730872*
X1973034Y1730991*
X1972884Y1731134*
X1972752Y1731303*
X1972384Y1732147*
X1972165Y1733034*
X1972090Y1733953*
X1972165Y1734866*
X1972384Y1735759*
X1972752Y1736603*
X1972884Y1736766*
X1973034Y1736909*
X1973209Y1737034*
X1973396Y1737128*
X1978634Y1726334D02*
X1978534Y1725503D01*
X1978315Y1724703*
X1977978Y1723941*
X1977846Y1723772*
X1977696Y1723628*
X1977521Y1723509*
X1977334Y1723416*
X1976846Y1723303*
X1978634Y1726334*
X1973440Y1726053D02*
X1973346Y1726066D01*
X1973259Y1726091*
X1973171Y1726128*
X1973090Y1726184*
X1973027Y1726247*
X1972971Y1726328*
X1972934Y1726409*
X1972909Y1726503*
X1972902Y1726597*
X1972909Y1726691*
X1972934Y1726784*
X1972971Y1726866*
X1973027Y1726947*
X1973090Y1727009*
X1973171Y1727066*
X1973259Y1727109*
X1973346Y1727128*
X1973440Y1727141*
X1977284*
X1977384Y1727128*
X1977471Y1727109*
X1977559Y1727066*
X1977634Y1727009*
X1977703Y1726947*
X1977759Y1726866*
X1977796Y1726784*
X1977821Y1726691*
X1977828Y1726597*
X1977821Y1726503*
X1977796Y1726409*
X1977759Y1726328*
X1977703Y1726247*
X1977634Y1726184*
X1977559Y1726128*
X1977471Y1726091*
X1977384Y1726066*
X1977284Y1726053*
X1973440*
X1976303Y1723216D02*
X1975328Y1723159D01*
X1974352Y1723228*
X1973396Y1723416*
X1973209Y1723509*
X1973034Y1723628*
X1972884Y1723772*
X1972752Y1723941*
X1972384Y1724778*
X1972165Y1725672*
X1972090Y1726584*
X1972165Y1727503*
X1972384Y1728391*
X1972752Y1729234*
X1972884Y1729403*
X1973034Y1729547*
X1973209Y1729672*
X1973396Y1729766*
X1974702Y1729984*
X1976028*
X1977334Y1729766*
X1977521Y1729672*
X1977696Y1729547*
X1977846Y1729403*
X1977978Y1729234*
X1978296Y1728522*
X1978515Y1727766*
X1978628Y1726984*
X1976303Y1723216*
X1972090Y1718734D02*
Y1716191D01*
X1972540Y1716353*
X1974177Y1719472*
X1972090Y1718734*
X1975215Y1717297D02*
X1978640Y1716234D01*
Y1718734*
X1975828Y1719603*
Y1720166*
X1978640*
Y1722666*
X1976484*
X1973240Y1716597*
X1975215Y1717297*
X1972090Y1722666D02*
Y1720166D01*
X1974559*
X1975978Y1722666*
X1972090*
Y1715534D02*
X1972171Y1715678D01*
X1972090*
Y1715534*
X1972777Y1715678D02*
X1972090Y1714266D01*
Y1713178*
X1974771*
Y1711747*
X1972090*
Y1709247*
X1978640*
Y1711747*
X1975959*
Y1713178*
X1978640*
Y1715678*
X1972777*
X1975653Y1704622D02*
X1974084Y1702984D01*
X1978640Y1702041*
Y1704541*
X1977565Y1704766*
X1977446Y1704603*
X1977296Y1704459*
X1977128Y1704347*
X1976940Y1704266*
X1976740Y1704216*
X1976540Y1704203*
X1976334Y1704222*
X1976140Y1704278*
X1975953Y1704366*
X1975790Y1704484*
X1975646Y1704628*
X1975528Y1704797*
X1975440Y1704984*
X1973465Y1705391*
X1975440Y1705797*
X1975528Y1705978*
X1975646Y1706147*
X1975790Y1706291*
X1975953Y1706409*
X1976140Y1706497*
X1976334Y1706553*
X1976534Y1706578*
X1976740Y1706559*
X1976940Y1706509*
X1977128Y1706428*
X1977296Y1706316*
X1977440Y1706178*
X1977565Y1706016*
X1978640Y1706234*
Y1708734*
X1972090Y1707384*
Y1703391*
X1973984Y1703003*
X1975653Y1704622*
X1973077Y1701841D02*
X1972090Y1700772D01*
Y1699547*
X1976190Y1698697*
X1972090Y1697853*
Y1695353*
X1978640Y1696703*
Y1700697*
X1973077Y1701841*
X1972090Y1701316D02*
X1972765Y1701903D01*
X1972090Y1702041*
Y1701316*
X1977453Y1689984D02*
X1978640D01*
Y1694841*
X1972090*
Y1689984*
X1973277*
Y1692341*
X1974771*
Y1689984*
X1975959*
Y1692341*
X1977453*
Y1689984*
X1972090Y1689472D02*
Y1686972D01*
X1974771Y1685597*
X1972090*
Y1683097*
X1978640*
Y1685597*
X1975959Y1686972*
X1978640*
Y1689472*
X1972090*
X1978515Y1750785D02*
Y1746083D01*
X1978453Y1750785D02*
Y1745651D01*
X1978390Y1750785D02*
Y1745465D01*
X1978328Y1750785D02*
Y1745330D01*
X1978265Y1750785D02*
Y1745227D01*
X1978203Y1750785D02*
Y1745140D01*
X1978140Y1750785D02*
Y1745055D01*
X1978078Y1750785D02*
Y1744990D01*
X1978015Y1750785D02*
Y1744926D01*
X1977953Y1750785D02*
Y1748485D01*
Y1748027D02*
Y1744862D01*
X1977890Y1750785D02*
Y1748522D01*
Y1747840D02*
Y1744818D01*
X1977828Y1750785D02*
Y1748535D01*
Y1747723D02*
Y1744775D01*
X1977765Y1750785D02*
Y1748535D01*
Y1747625D02*
Y1744732D01*
X1977703Y1750785D02*
Y1748535D01*
Y1747550D02*
Y1744695D01*
X1977640Y1750785D02*
Y1748535D01*
Y1747478D02*
Y1744666D01*
X1977578Y1750785D02*
Y1748535D01*
Y1747422D02*
Y1744638D01*
X1977515Y1750785D02*
Y1748535D01*
Y1747371D02*
Y1744609D01*
X1977453Y1750785D02*
Y1748535D01*
Y1747325D02*
Y1744585D01*
X1977390Y1750785D02*
Y1748535D01*
Y1747290D02*
Y1744569D01*
X1977328Y1750785D02*
Y1748535D01*
Y1747255D02*
Y1744552D01*
X1977265Y1750785D02*
Y1748535D01*
Y1747228D02*
Y1744536D01*
X1977203Y1750785D02*
Y1748535D01*
Y1747208D02*
Y1744520D01*
X1977140Y1750785D02*
Y1748535D01*
Y1747188D02*
Y1744513D01*
X1977078Y1750785D02*
Y1748535D01*
Y1747171D02*
Y1744507D01*
X1977015Y1750785D02*
Y1748535D01*
Y1747160D02*
Y1744500D01*
X1976953Y1750785D02*
Y1748535D01*
Y1747149D02*
Y1744493D01*
X1976890Y1750785D02*
Y1748535D01*
Y1747141D02*
Y1744496D01*
X1976828Y1750785D02*
Y1748535D01*
Y1747141D02*
Y1744503D01*
X1976765Y1750785D02*
Y1748535D01*
Y1747141D02*
Y1744509D01*
X1976703Y1750785D02*
Y1748535D01*
Y1747141D02*
Y1744516D01*
X1976640Y1750785D02*
Y1748535D01*
Y1747152D02*
Y1744526D01*
X1976578Y1750785D02*
Y1748535D01*
Y1747163D02*
Y1744542D01*
X1976515Y1750785D02*
Y1748535D01*
Y1747174D02*
Y1744559D01*
X1976453Y1750785D02*
Y1748535D01*
Y1747194D02*
Y1744575D01*
X1976390Y1750785D02*
Y1748535D01*
Y1747215D02*
Y1744592D01*
X1976328Y1750785D02*
Y1748535D01*
Y1747236D02*
Y1744621D01*
X1976265Y1750785D02*
Y1748535D01*
Y1747268D02*
Y1744649D01*
X1976203Y1750785D02*
Y1748535D01*
Y1747302D02*
Y1744677D01*
X1976140Y1750785D02*
Y1748535D01*
Y1747336D02*
Y1744706D01*
X1976078Y1750785D02*
Y1748535D01*
Y1747387D02*
Y1744749D01*
X1976015Y1750785D02*
Y1748535D01*
Y1747438D02*
Y1744792D01*
X1975953Y1750785D02*
Y1748535D01*
Y1747500D02*
Y1744836D01*
X1975890Y1750785D02*
Y1748535D01*
Y1747572D02*
Y1744887D01*
X1975828Y1750785D02*
Y1748535D01*
Y1747655D02*
Y1744952D01*
X1975765Y1750785D02*
Y1748535D01*
Y1747755D02*
Y1745016D01*
X1975703Y1750785D02*
Y1748516D01*
Y1747893D02*
Y1745088D01*
X1975640Y1750785D02*
Y1748455D01*
Y1748098D02*
Y1745175D01*
X1975578Y1750785D02*
Y1745262D01*
X1975515Y1750785D02*
Y1745384D01*
X1975453Y1750785D02*
Y1745518D01*
X1975390Y1750785D02*
Y1745746D01*
X1975328Y1750785D02*
Y1746317D01*
X1975265Y1750785D02*
Y1746380D01*
X1975202Y1750785D02*
Y1746382D01*
X1975140Y1750785D02*
Y1746337D01*
X1975077Y1750785D02*
Y1746013D01*
X1975015Y1750785D02*
Y1745776D01*
X1974952Y1750785D02*
Y1745644D01*
X1974890Y1750785D02*
Y1745524D01*
X1974827Y1750785D02*
Y1745434D01*
X1974765Y1750785D02*
Y1748501D01*
Y1747845D02*
Y1745344D01*
X1974702Y1750785D02*
Y1748527D01*
Y1747692D02*
Y1745280D01*
X1974640Y1750785D02*
Y1748535D01*
Y1747590D02*
Y1745218D01*
X1974577Y1750785D02*
Y1748535D01*
Y1747507D02*
Y1745157D01*
X1974515Y1750785D02*
Y1748535D01*
Y1747440D02*
Y1745114D01*
X1974452Y1750785D02*
Y1748535D01*
Y1747383D02*
Y1745070D01*
X1974390Y1750785D02*
Y1748535D01*
Y1747334D02*
Y1745027D01*
X1974327Y1750785D02*
Y1748535D01*
Y1747291D02*
Y1744995D01*
X1974265Y1750785D02*
Y1748535D01*
Y1747259D02*
Y1744966D01*
X1974202Y1750785D02*
Y1748535D01*
Y1747226D02*
Y1744938D01*
X1974140Y1750785D02*
Y1748535D01*
Y1747204D02*
Y1744911D01*
X1974077Y1750785D02*
Y1748535D01*
Y1747182D02*
Y1744894D01*
X1974015Y1750785D02*
Y1748535D01*
Y1747165D02*
Y1744876D01*
X1973952Y1750785D02*
Y1748535D01*
Y1747155D02*
Y1744859D01*
X1973890Y1750785D02*
Y1748535D01*
Y1747144D02*
Y1744844D01*
X1973827Y1750785D02*
Y1748535D01*
Y1747141D02*
Y1744838D01*
X1973765Y1750785D02*
Y1748535D01*
Y1747141D02*
Y1744832D01*
X1973702Y1750785D02*
Y1748535D01*
Y1747141D02*
Y1744827D01*
X1973640Y1750785D02*
Y1748535D01*
Y1747150D02*
Y1744824D01*
X1973577Y1750785D02*
Y1748535D01*
Y1747161D02*
Y1744830D01*
X1973515Y1750785D02*
Y1748535D01*
Y1747174D02*
Y1744836D01*
X1973452Y1750785D02*
Y1748535D01*
Y1747195D02*
Y1744841D01*
X1973390Y1750785D02*
Y1748535D01*
Y1747217D02*
Y1744850D01*
X1973327Y1750785D02*
Y1748535D01*
Y1747245D02*
Y1744868D01*
X1973265Y1750785D02*
Y1748535D01*
Y1747278D02*
Y1744886D01*
X1973202Y1750785D02*
Y1748535D01*
Y1747314D02*
Y1744904D01*
X1973140Y1750785D02*
Y1748535D01*
Y1747364D02*
Y1744926D01*
X1973077Y1750785D02*
Y1748535D01*
Y1747414D02*
Y1744954D01*
X1973015Y1750785D02*
Y1748535D01*
Y1747484D02*
Y1744982D01*
X1972952Y1750785D02*
Y1748535D01*
Y1747559D02*
Y1745010D01*
X1972890Y1750785D02*
Y1748535D01*
Y1747656D02*
Y1745049D01*
X1972827Y1750785D02*
Y1748509D01*
Y1747787D02*
Y1745092D01*
X1972765Y1750785D02*
Y1748410D01*
Y1748015D02*
Y1745135D01*
X1972702Y1750785D02*
Y1745186D01*
X1972640Y1750785D02*
Y1745249D01*
X1972577Y1750785D02*
Y1745311D01*
X1972515Y1750785D02*
Y1745389D01*
X1972452Y1750785D02*
Y1745479D01*
X1972390Y1750785D02*
Y1745581D01*
X1972327Y1750785D02*
Y1745720D01*
X1972265Y1750785D02*
Y1745905D01*
X1978515Y1750785D02*
X1972215D01*
Y1746276*
X1972233Y1746019*
X1972301Y1745778*
X1972405Y1745546*
X1972549Y1745340*
X1972727Y1745162*
X1972933Y1745019*
X1973164Y1744915*
X1973407Y1744845*
X1973659Y1744823*
X1973905Y1744845*
X1974153Y1744915*
X1974378Y1745018*
X1974585Y1745162*
X1974762Y1745340*
X1974906Y1745547*
X1975016Y1745778*
X1975079Y1746019*
X1975103Y1746283*
X1975172Y1746384*
X1975293Y1746378*
X1975353Y1746272*
Y1746083*
X1975376Y1745799*
X1975446Y1745533*
X1975561Y1745285*
X1975724Y1745059*
X1975915Y1744862*
X1976139Y1744706*
X1976394Y1744590*
X1976663Y1744520*
X1976934Y1744491*
X1977205Y1744520*
X1977473Y1744590*
X1977728Y1744706*
X1977953Y1744862*
X1978144Y1745059*
X1978307Y1745285*
X1978422Y1745533*
X1978491Y1745799*
X1978515Y1746083*
Y1750785*
X1977984Y1748410D02*
Y1748178D01*
X1977981Y1748165*
X1977944Y1747984*
X1977943*
Y1747979*
X1977942Y1747974*
X1977940Y1747969*
X1977938Y1747965*
X1977875Y1747802*
X1977873Y1747796*
X1977871Y1747790*
X1977867Y1747785*
X1977864Y1747780*
X1977764Y1747623*
X1977764*
X1977762Y1747620*
X1977759Y1747616*
X1977756Y1747612*
X1977753Y1747609*
X1977753*
X1977635Y1747472*
X1977635*
X1977631Y1747467*
X1977628Y1747463*
X1977623Y1747460*
X1977619Y1747457*
X1977619*
X1977482Y1747344*
X1977477Y1747341*
X1977473Y1747337*
X1977468Y1747334*
X1977464Y1747332*
X1977307Y1747244*
X1977302Y1747241*
X1977296Y1747238*
X1977290Y1747236*
X1977285Y1747234*
X1977285*
X1977110Y1747178*
X1977106Y1747177*
X1977102Y1747175*
X1977097*
X1977093Y1747174*
X1976918Y1747143*
X1976918*
X1976907Y1747141*
X1976704*
X1976693Y1747143*
X1976693*
X1976518Y1747174*
X1976509Y1747176*
X1976321Y1747238*
X1976317Y1747241*
X1976312Y1747243*
X1976312*
X1976149Y1747331*
X1976149*
X1976144Y1747334*
X1976139Y1747336*
X1976134Y1747340*
X1976130Y1747344*
X1976130*
X1975992Y1747457*
X1975992*
X1975988Y1747460*
X1975984Y1747463*
X1975980Y1747467*
X1975977Y1747472*
X1975977*
X1975858Y1747609*
X1975858*
X1975855Y1747613*
X1975852Y1747616*
X1975846Y1747625*
X1975753Y1747775*
X1975753*
X1975750Y1747779*
X1975747Y1747784*
X1975745Y1747789*
X1975743Y1747794*
X1975743*
X1975674Y1747962*
X1975672Y1747967*
X1975671Y1747971*
X1975670Y1747976*
X1975668Y1747980*
X1975625Y1748161*
X1975625*
X1975623Y1748169*
X1975621Y1748176*
Y1748410*
X1975658Y1748498*
X1975746Y1748535*
X1977859*
X1977947Y1748498*
X1977984Y1748410*
X1974809D02*
Y1748012D01*
X1974805Y1747997*
X1974805*
X1974767Y1747853*
X1974767*
X1974766Y1747849*
X1974765Y1747845*
X1974764Y1747841*
X1974762Y1747837*
X1974762*
X1974706Y1747700*
X1974704Y1747695*
X1974702Y1747690*
X1974699Y1747686*
X1974696Y1747681*
X1974615Y1747550*
X1974612Y1747545*
X1974608Y1747539*
X1974604Y1747535*
X1974600Y1747530*
X1974587Y1747542*
Y1747516*
X1974493Y1747417*
X1974490Y1747414*
X1974487Y1747411*
X1974484Y1747408*
X1974480Y1747405*
X1974361Y1747311*
X1974361*
X1974352Y1747304*
X1974347Y1747301*
X1974342Y1747299*
X1974342*
X1974211Y1747230*
X1974206Y1747228*
X1974202Y1747226*
X1974198Y1747224*
X1974194Y1747223*
X1974050Y1747173*
X1974045Y1747171*
X1974040Y1747169*
X1974035Y1747168*
X1974029Y1747167*
X1973869Y1747141*
X1973698*
X1973538Y1747167*
X1973533Y1747168*
X1973528Y1747169*
X1973523Y1747171*
X1973518Y1747173*
X1973374Y1747223*
X1973370Y1747224*
X1973365Y1747226*
X1973361Y1747228*
X1973357Y1747230*
X1973226Y1747299*
X1973226*
X1973221Y1747301*
X1973215Y1747304*
X1973206Y1747311*
X1973206*
X1973088Y1747405*
X1973088*
X1973083Y1747409*
X1973079Y1747412*
X1973075Y1747416*
X1972972Y1747533*
X1972968Y1747536*
X1972965Y1747540*
X1972963Y1747544*
X1972960Y1747548*
X1972879Y1747673*
X1972879*
X1972876Y1747677*
X1972873Y1747681*
X1972871Y1747686*
X1972869Y1747691*
X1972807Y1747835*
X1972807*
X1972804Y1747840*
X1972802Y1747846*
X1972800Y1747852*
X1972799Y1747858*
X1972799*
X1972765Y1748015*
Y1748410*
X1972802Y1748498*
X1972890Y1748535*
X1974684*
X1974772Y1748498*
X1974809Y1748410*
X1978515Y1743734D02*
Y1741484D01*
Y1740266D02*
Y1738016D01*
X1978453Y1743734D02*
Y1741484D01*
Y1740266D02*
Y1738016D01*
X1978390Y1743734D02*
Y1741484D01*
Y1740266D02*
Y1738016D01*
X1978328Y1743734D02*
Y1741484D01*
Y1740266D02*
Y1738016D01*
X1978265Y1743734D02*
Y1741484D01*
Y1740266D02*
Y1738016D01*
X1978203Y1743734D02*
Y1741484D01*
Y1740266D02*
Y1738016D01*
X1978140Y1743734D02*
Y1741484D01*
Y1740266D02*
Y1738016D01*
X1978078Y1743734D02*
Y1741484D01*
Y1740266D02*
Y1738016D01*
X1978015Y1743734D02*
Y1741484D01*
Y1740266D02*
Y1738016D01*
X1977953Y1743734D02*
Y1741484D01*
Y1740266D02*
Y1738016D01*
X1977890Y1743734D02*
Y1741484D01*
Y1740266D02*
Y1738016D01*
X1977828Y1743734D02*
Y1741484D01*
Y1740266D02*
Y1738016D01*
X1977765Y1743734D02*
Y1741484D01*
Y1740266D02*
Y1738016D01*
X1977703Y1743734D02*
Y1741484D01*
Y1740266D02*
Y1738016D01*
X1977640Y1743734D02*
Y1741484D01*
Y1740266D02*
Y1738016D01*
X1977578Y1743734D02*
Y1741484D01*
Y1740266D02*
Y1738016D01*
X1977515Y1743734D02*
Y1741484D01*
Y1740266D02*
Y1738016D01*
X1977453Y1743734D02*
Y1741484D01*
Y1740266D02*
Y1738016D01*
X1977390Y1743734D02*
Y1741484D01*
Y1740266D02*
Y1738016D01*
X1977328Y1743734D02*
Y1741484D01*
Y1740266D02*
Y1738016D01*
X1977265Y1743734D02*
Y1741484D01*
Y1740266D02*
Y1738016D01*
X1977203Y1743734D02*
Y1741484D01*
Y1740266D02*
Y1738016D01*
X1977140Y1743734D02*
Y1741484D01*
Y1740266D02*
Y1738016D01*
X1977078Y1743734D02*
Y1741484D01*
Y1740266D02*
Y1738016D01*
X1977015Y1743734D02*
Y1741484D01*
Y1740266D02*
Y1738016D01*
X1976953Y1743734D02*
Y1741484D01*
Y1740266D02*
Y1738016D01*
X1976890Y1743734D02*
Y1741484D01*
Y1740266D02*
Y1738016D01*
X1976828Y1743734D02*
Y1741484D01*
Y1740266D02*
Y1738016D01*
X1976765Y1743734D02*
Y1741484D01*
Y1740266D02*
Y1738016D01*
X1976703Y1743734D02*
Y1741484D01*
Y1740266D02*
Y1738016D01*
X1976640Y1743734D02*
Y1741484D01*
Y1740266D02*
Y1738016D01*
X1976578Y1743734D02*
Y1741484D01*
Y1740266D02*
Y1738016D01*
X1976515Y1743734D02*
Y1741484D01*
Y1740266D02*
Y1738016D01*
X1976453Y1743734D02*
Y1741484D01*
Y1740266D02*
Y1738016D01*
X1976390Y1743734D02*
Y1741484D01*
Y1740266D02*
Y1738016D01*
X1976328Y1743734D02*
Y1741484D01*
Y1740266D02*
Y1738016D01*
X1976265Y1743734D02*
Y1741484D01*
Y1740266D02*
Y1738016D01*
X1976203Y1743734D02*
Y1741484D01*
Y1740266D02*
Y1738016D01*
X1976140Y1743734D02*
Y1741484D01*
Y1740266D02*
Y1738016D01*
X1976078Y1743734D02*
Y1741484D01*
Y1740266D02*
Y1738016D01*
X1976015Y1743734D02*
Y1741484D01*
Y1740266D02*
Y1738016D01*
X1975953Y1743734D02*
Y1741484D01*
Y1740266D02*
Y1738016D01*
X1975890Y1743734D02*
Y1741484D01*
Y1740266D02*
Y1738016D01*
X1975828Y1743734D02*
Y1741484D01*
Y1740266D02*
Y1738016D01*
X1975765Y1743734D02*
Y1741484D01*
Y1740266D02*
Y1738023D01*
X1975703Y1743734D02*
Y1741466D01*
Y1740284D02*
Y1738049D01*
X1975640Y1743734D02*
Y1741405D01*
Y1740345D02*
Y1738095D01*
X1975578Y1743734D02*
Y1738235D01*
X1975515Y1743734D02*
Y1738510D01*
X1975453Y1743734D02*
Y1738785D01*
X1975390Y1743734D02*
Y1739060D01*
X1975328Y1743734D02*
Y1739301D01*
X1975265Y1743734D02*
Y1739350D01*
X1975202Y1743734D02*
Y1739381D01*
X1975140Y1743734D02*
Y1739330D01*
X1975077Y1743734D02*
Y1739221D01*
X1975015Y1743734D02*
Y1738980D01*
X1974952Y1743734D02*
Y1738824D01*
X1974890Y1743734D02*
Y1738721D01*
X1974827Y1743734D02*
Y1738623D01*
X1974765Y1743734D02*
Y1741456D01*
Y1740758D02*
Y1738547D01*
X1974702Y1743734D02*
Y1741482D01*
Y1740615D02*
Y1738475D01*
X1974640Y1743734D02*
Y1741484D01*
Y1740519D02*
Y1738408D01*
X1974577Y1743734D02*
Y1741484D01*
Y1740443D02*
Y1738357D01*
X1974515Y1743734D02*
Y1741484D01*
Y1740377D02*
Y1738306D01*
X1974452Y1743734D02*
Y1741484D01*
Y1740324D02*
Y1738257D01*
X1974390Y1743734D02*
Y1741484D01*
Y1740274D02*
Y1738223D01*
X1974327Y1743734D02*
Y1741484D01*
Y1740233D02*
Y1738188D01*
X1974265Y1743734D02*
Y1741484D01*
Y1740198D02*
Y1738154D01*
X1974202Y1743734D02*
Y1741484D01*
Y1740165D02*
Y1738128D01*
X1974140Y1743734D02*
Y1741484D01*
Y1740143D02*
Y1738106D01*
X1974077Y1743734D02*
Y1741484D01*
Y1740122D02*
Y1738084D01*
X1974015Y1743734D02*
Y1741484D01*
Y1740107D02*
Y1738062D01*
X1973952Y1743734D02*
Y1741484D01*
Y1740096D02*
Y1738052D01*
X1973890Y1743734D02*
Y1741484D01*
Y1740086D02*
Y1738041D01*
X1973827Y1743734D02*
Y1741484D01*
Y1740084D02*
Y1738031D01*
X1973765Y1743734D02*
Y1741484D01*
Y1740084D02*
Y1738022D01*
X1973702Y1743734D02*
Y1741484D01*
Y1740086D02*
Y1738022D01*
X1973640Y1743734D02*
Y1741484D01*
Y1740096D02*
Y1738022D01*
X1973577Y1743734D02*
Y1741484D01*
Y1740107D02*
Y1738022D01*
X1973515Y1743734D02*
Y1741484D01*
Y1740122D02*
Y1738024D01*
X1973452Y1743734D02*
Y1741484D01*
Y1740143D02*
Y1738034D01*
X1973390Y1743734D02*
Y1741484D01*
Y1740165D02*
Y1738045D01*
X1973327Y1743734D02*
Y1741484D01*
Y1740198D02*
Y1738055D01*
X1973265Y1743734D02*
Y1741484D01*
Y1740233D02*
Y1738069D01*
X1973202Y1743734D02*
Y1741484D01*
Y1740274D02*
Y1738091D01*
X1973140Y1743734D02*
Y1741484D01*
Y1740324D02*
Y1738113D01*
X1973077Y1743734D02*
Y1741484D01*
Y1740378D02*
Y1738134D01*
X1973015Y1743734D02*
Y1741484D01*
Y1740448D02*
Y1738164D01*
X1972952Y1743734D02*
Y1741484D01*
Y1740529D02*
Y1738199D01*
X1972890Y1743734D02*
Y1741479D01*
Y1740625D02*
Y1738233D01*
X1972827Y1743734D02*
Y1741453D01*
Y1740760D02*
Y1738270D01*
X1972765Y1743734D02*
Y1738321D01*
X1972702Y1743734D02*
Y1738372D01*
X1972640Y1743734D02*
Y1738425D01*
X1972577Y1743734D02*
Y1738497D01*
X1972515Y1743734D02*
Y1738568D01*
X1972452Y1743734D02*
Y1738655D01*
X1972390Y1743734D02*
Y1738758D01*
X1972327Y1743734D02*
Y1738887D01*
X1972265Y1743734D02*
Y1739046D01*
X1978515Y1743734D02*
X1972215D01*
Y1739279*
X1972266Y1739040*
X1972358Y1738809*
X1972485Y1738603*
X1972646Y1738418*
X1972835Y1738263*
X1973054Y1738143*
X1973284Y1738062*
X1973525Y1738022*
X1973773*
X1974015Y1738062*
X1974245Y1738143*
X1974463Y1738263*
X1974653Y1738418*
X1974815Y1738603*
X1974947Y1738811*
X1975039Y1739040*
X1975093Y1739292*
X1975214Y1739391*
X1975337Y1739293*
X1975586Y1738199*
X1975598Y1738163*
X1975642Y1738092*
X1975664Y1738073*
X1975701Y1738050*
X1975738Y1738032*
X1975773Y1738020*
X1975815Y1738016*
X1978515*
Y1740266*
X1975746*
X1975658Y1740302*
X1975621Y1740391*
Y1741359*
X1975658Y1741448*
X1975746Y1741484*
X1978515*
Y1743734*
X1974821Y1741359D02*
Y1740963D01*
X1974780Y1740798*
X1974780*
X1974779Y1740794*
X1974778Y1740789*
X1974776Y1740785*
X1974774Y1740781*
X1974774*
X1974718Y1740643*
X1974718*
X1974716Y1740638*
X1974714Y1740633*
X1974711Y1740628*
X1974707Y1740623*
X1974707*
X1974626Y1740498*
X1974623Y1740493*
X1974620Y1740488*
X1974616Y1740484*
X1974612Y1740480*
X1974506Y1740367*
X1974503Y1740364*
X1974500Y1740361*
X1974496Y1740358*
X1974492Y1740355*
X1974374Y1740261*
X1974374*
X1974370Y1740258*
X1974366Y1740256*
X1974362Y1740253*
X1974358Y1740251*
X1974358*
X1974227Y1740176*
X1974227*
X1974217Y1740170*
X1974212Y1740168*
X1974206Y1740166*
X1974206*
X1974062Y1740116*
X1974057Y1740115*
X1974052Y1740113*
X1974047Y1740112*
X1974042Y1740111*
X1973882Y1740084*
X1973711*
X1973551Y1740111*
X1973545Y1740112*
X1973540Y1740113*
X1973535Y1740115*
X1973530Y1740116*
X1973386Y1740166*
X1973386*
X1973381Y1740168*
X1973375Y1740170*
X1973365Y1740176*
X1973365*
X1973234Y1740251*
X1973234*
X1973230Y1740253*
X1973226Y1740256*
X1973222Y1740258*
X1973219Y1740261*
X1973219*
X1973100Y1740355*
X1973100*
X1973096Y1740359*
X1973091Y1740362*
X1973088Y1740366*
X1972984Y1740483*
X1972981Y1740486*
X1972978Y1740490*
X1972975Y1740494*
X1972973Y1740498*
X1972891Y1740623*
X1972891*
X1972889Y1740627*
X1972886Y1740630*
X1972884Y1740635*
X1972882Y1740639*
X1972882*
X1972820Y1740777*
X1972820*
X1972817Y1740783*
X1972814Y1740789*
X1972813Y1740796*
X1972811Y1740803*
X1972811*
X1972780Y1740953*
X1972780*
X1972777Y1740965*
Y1741359*
X1972814Y1741448*
X1972902Y1741484*
X1974696*
X1974785Y1741448*
X1974821Y1741359*
X1978452Y1734714D02*
Y1733188D01*
X1978390Y1735051D02*
Y1732851D01*
X1978327Y1735299D02*
Y1732605D01*
X1978265Y1735547D02*
Y1732358D01*
X1978202Y1735764D02*
Y1732143D01*
X1978140Y1735909D02*
Y1731997D01*
X1978077Y1736055D02*
Y1731852D01*
X1978015Y1736200D02*
Y1731706D01*
X1977952Y1736346D02*
Y1733970D01*
Y1733949D02*
Y1731561D01*
X1977890Y1736491D02*
Y1734247D01*
Y1733679D02*
Y1731415D01*
X1977827Y1736591D02*
Y1734352D01*
Y1733570D02*
Y1731313D01*
X1977765Y1736668D02*
Y1734424D01*
Y1733497D02*
Y1731233D01*
X1977702Y1736731D02*
Y1734483D01*
Y1733442D02*
Y1731169D01*
X1977640Y1736791D02*
Y1734525D01*
Y1733395D02*
Y1731110D01*
X1977577Y1736841D02*
Y1734559D01*
Y1733363D02*
Y1731061D01*
X1977515Y1736886D02*
Y1734590D01*
Y1733336D02*
Y1731019D01*
X1977452Y1736929D02*
Y1734607D01*
Y1733318D02*
Y1730977D01*
X1977390Y1736961D02*
Y1734622D01*
Y1733303D02*
Y1730946D01*
X1977327Y1736992D02*
Y1734626D01*
Y1733299D02*
Y1730915D01*
X1977265Y1737013D02*
Y1734628D01*
Y1733297D02*
Y1730893D01*
X1977202Y1737024D02*
Y1734628D01*
Y1733297D02*
Y1730882D01*
X1977140Y1737034D02*
Y1734628D01*
Y1733297D02*
Y1730872D01*
X1977077Y1737044D02*
Y1734628D01*
Y1733297D02*
Y1730861D01*
X1977015Y1737055D02*
Y1734628D01*
Y1733297D02*
Y1730850D01*
X1976952Y1737065D02*
Y1734628D01*
Y1733297D02*
Y1730839D01*
X1976890Y1737076D02*
Y1734628D01*
Y1733297D02*
Y1730829D01*
X1976827Y1737086D02*
Y1734628D01*
Y1733297D02*
Y1730818D01*
X1976765Y1737097D02*
Y1734628D01*
Y1733297D02*
Y1730807D01*
X1976702Y1737107D02*
Y1734628D01*
Y1733297D02*
Y1730796D01*
X1976640Y1737118D02*
Y1734628D01*
Y1733297D02*
Y1730786D01*
X1976577Y1737128D02*
Y1734628D01*
Y1733297D02*
Y1730775D01*
X1976515Y1737139D02*
Y1734628D01*
Y1733297D02*
Y1730764D01*
X1976452Y1737149D02*
Y1734628D01*
Y1733297D02*
Y1730753D01*
X1976390Y1737160D02*
Y1734628D01*
Y1733297D02*
Y1730742D01*
X1976327Y1737170D02*
Y1734628D01*
Y1733297D02*
Y1730732D01*
X1976265Y1737181D02*
Y1734628D01*
Y1733297D02*
Y1730721D01*
X1976202Y1737191D02*
Y1734628D01*
Y1733297D02*
Y1730710D01*
X1976140Y1737201D02*
Y1734628D01*
Y1733297D02*
Y1730699D01*
X1976077Y1737212D02*
Y1734628D01*
Y1733297D02*
Y1730689D01*
X1976015Y1737222D02*
Y1734628D01*
Y1733297D02*
Y1730678D01*
X1975952Y1737222D02*
Y1734628D01*
Y1733297D02*
Y1730678D01*
X1975890Y1737222D02*
Y1734628D01*
Y1733297D02*
Y1730678D01*
X1975827Y1737222D02*
Y1734628D01*
Y1733297D02*
Y1730678D01*
X1975765Y1737222D02*
Y1734628D01*
Y1733297D02*
Y1730678D01*
X1975702Y1737222D02*
Y1734628D01*
Y1733297D02*
Y1730678D01*
X1975640Y1737222D02*
Y1734628D01*
Y1733297D02*
Y1730678D01*
X1975577Y1737222D02*
Y1734628D01*
Y1733297D02*
Y1730678D01*
X1975515Y1737222D02*
Y1734628D01*
Y1733297D02*
Y1730678D01*
X1975452Y1737222D02*
Y1734628D01*
Y1733297D02*
Y1730678D01*
X1975390Y1737222D02*
Y1734628D01*
Y1733297D02*
Y1730678D01*
X1975327Y1737222D02*
Y1734628D01*
Y1733297D02*
Y1730678D01*
X1975265Y1737222D02*
Y1734628D01*
Y1733297D02*
Y1730678D01*
X1975202Y1737222D02*
Y1734628D01*
Y1733297D02*
Y1730678D01*
X1975140Y1737222D02*
Y1734628D01*
Y1733297D02*
Y1730678D01*
X1975077Y1737222D02*
Y1734628D01*
Y1733297D02*
Y1730678D01*
X1975015Y1737222D02*
Y1734628D01*
Y1733297D02*
Y1730678D01*
X1974952Y1737222D02*
Y1734628D01*
Y1733297D02*
Y1730678D01*
X1974890Y1737222D02*
Y1734628D01*
Y1733297D02*
Y1730678D01*
X1974827Y1737222D02*
Y1734628D01*
Y1733297D02*
Y1730678D01*
X1974765Y1737222D02*
Y1734628D01*
Y1733297D02*
Y1730678D01*
X1974702Y1737220D02*
Y1734628D01*
Y1733297D02*
Y1730680D01*
X1974640Y1737210D02*
Y1734628D01*
Y1733297D02*
Y1730691D01*
X1974577Y1737199D02*
Y1734628D01*
Y1733297D02*
Y1730702D01*
X1974515Y1737189D02*
Y1734628D01*
Y1733297D02*
Y1730712D01*
X1974452Y1737178D02*
Y1734628D01*
Y1733297D02*
Y1730723D01*
X1974390Y1737168D02*
Y1734628D01*
Y1733297D02*
Y1730734D01*
X1974327Y1737157D02*
Y1734628D01*
Y1733297D02*
Y1730745D01*
X1974265Y1737147D02*
Y1734628D01*
Y1733297D02*
Y1730756D01*
X1974202Y1737136D02*
Y1734628D01*
Y1733297D02*
Y1730766D01*
X1974140Y1737126D02*
Y1734628D01*
Y1733297D02*
Y1730777D01*
X1974077Y1737116D02*
Y1734628D01*
Y1733297D02*
Y1730788D01*
X1974015Y1737105D02*
Y1734628D01*
Y1733297D02*
Y1730799D01*
X1973952Y1737095D02*
Y1734628D01*
Y1733297D02*
Y1730809D01*
X1973890Y1737084D02*
Y1734628D01*
Y1733297D02*
Y1730820D01*
X1973827Y1737074D02*
Y1734628D01*
Y1733297D02*
Y1730831D01*
X1973765Y1737063D02*
Y1734628D01*
Y1733297D02*
Y1730842D01*
X1973702Y1737053D02*
Y1734628D01*
Y1733297D02*
Y1730852D01*
X1973640Y1737042D02*
Y1734628D01*
Y1733297D02*
Y1730863D01*
X1973577Y1737032D02*
Y1734628D01*
Y1733297D02*
Y1730874D01*
X1973515Y1737021D02*
Y1734628D01*
Y1733297D02*
Y1730885D01*
X1973452Y1737011D02*
Y1734628D01*
Y1733297D02*
Y1730895D01*
X1973390Y1736985D02*
Y1734625D01*
Y1733300D02*
Y1730921D01*
X1973327Y1736954D02*
Y1734621D01*
Y1733304D02*
Y1730953D01*
X1973265Y1736921D02*
Y1734604D01*
Y1733322D02*
Y1730985D01*
X1973202Y1736876D02*
Y1734583D01*
Y1733342D02*
Y1731028D01*
X1973140Y1736831D02*
Y1734552D01*
Y1733368D02*
Y1731070D01*
X1973077Y1736778D02*
Y1734517D01*
Y1733404D02*
Y1731122D01*
X1973015Y1736718D02*
Y1734479D01*
Y1733447D02*
Y1731182D01*
X1972952Y1736651D02*
Y1734412D01*
Y1733508D02*
Y1731250D01*
X1972890Y1736574D02*
Y1734334D01*
Y1733589D02*
Y1731331D01*
X1972827Y1736462D02*
Y1734215D01*
Y1733710D02*
Y1731445D01*
X1972765Y1736319D02*
Y1731588D01*
X1972702Y1736176D02*
Y1731731D01*
X1972640Y1736033D02*
Y1731874D01*
X1972577Y1735890D02*
Y1732017D01*
X1972515Y1735747D02*
Y1732160D01*
X1972452Y1735513D02*
Y1732392D01*
X1972390Y1735258D02*
Y1732646D01*
X1972327Y1735002D02*
Y1732899D01*
X1972265Y1734552D02*
Y1733351D01*
X1978515Y1733953D02*
X1978441Y1734845D01*
X1978221Y1735719*
X1977869Y1736538*
X1977754Y1736681*
X1977616Y1736813*
X1977457Y1736927*
X1977295Y1737008*
X1976017Y1737222*
X1974713*
X1973435Y1737008*
X1973273Y1736927*
X1973114Y1736813*
X1972976Y1736681*
X1972860Y1736538*
X1972503Y1735719*
X1972289Y1734846*
X1972215Y1733953*
X1972289Y1733055*
X1972503Y1732187*
X1972861Y1731368*
X1972977Y1731218*
X1973113Y1731088*
X1973272Y1730980*
X1973436Y1730898*
X1974713Y1730678*
X1976017*
X1977294Y1730898*
X1977458Y1730980*
X1977617Y1731088*
X1977753Y1731218*
X1977869Y1731367*
X1978221Y1732187*
X1978441Y1733055*
X1978515Y1733953*
X1977953Y1733959D02*
Y1733955D01*
X1977952Y1733951*
X1977952*
X1977946Y1733857*
X1977946*
Y1733851*
X1977945Y1733844*
X1977943Y1733838*
X1977941Y1733831*
X1977941*
X1977916Y1733744*
X1977916*
X1977915Y1733740*
X1977914Y1733736*
X1977913Y1733733*
X1977911Y1733729*
X1977911*
X1977871Y1733636*
X1977869Y1733630*
X1977865Y1733625*
X1977862Y1733620*
X1977862*
X1977805Y1733538*
X1977801Y1733532*
X1977797Y1733527*
X1977792Y1733522*
X1977787Y1733517*
X1977718Y1733455*
Y1733454*
X1977716Y1733452*
X1977713Y1733451*
X1977711Y1733449*
X1977709Y1733447*
X1977709*
X1977634Y1733391*
X1977634*
X1977628Y1733386*
X1977622Y1733382*
X1977615Y1733379*
X1977608Y1733376*
X1977608*
X1977520Y1733338*
X1977520*
X1977517Y1733337*
X1977513Y1733335*
X1977509Y1733334*
X1977506Y1733333*
X1977506*
X1977418Y1733308*
X1977418*
X1977412Y1733306*
X1977405Y1733304*
X1977398*
X1977392Y1733303*
X1977392*
X1977288Y1733297*
X1973436*
X1973338Y1733304*
X1973338*
X1973331*
X1973325*
X1973318Y1733306*
X1973312Y1733308*
X1973312*
X1973224Y1733333*
X1973224*
X1973221Y1733334*
X1973217Y1733335*
X1973213Y1733337*
X1973210Y1733338*
X1973210*
X1973116Y1733378*
X1973110Y1733381*
X1973105Y1733384*
X1973100Y1733388*
X1973100*
X1973019Y1733444*
X1973014Y1733447*
X1973010Y1733451*
X1972931Y1733529*
X1972928Y1733534*
X1972925Y1733538*
X1972868Y1733620*
X1972868*
X1972865Y1733625*
X1972861Y1733630*
X1972859Y1733636*
X1972819Y1733729*
X1972819*
X1972817Y1733733*
X1972816Y1733736*
X1972815Y1733740*
X1972814Y1733744*
X1972814*
X1972789Y1733831*
X1972789*
X1972787Y1733838*
X1972785Y1733844*
X1972784Y1733851*
Y1733857*
X1972784*
X1972778Y1733951*
X1972778*
X1972777Y1733955*
Y1733959*
Y1733964*
X1972778Y1733968*
X1972778*
X1972784Y1734068*
X1972785Y1734074*
X1972786Y1734080*
X1972788Y1734085*
X1972813Y1734179*
X1972815Y1734188*
X1972817Y1734192*
X1972819Y1734196*
X1972856Y1734284*
X1972856*
X1972859Y1734291*
X1972862Y1734297*
X1972867Y1734303*
X1972871Y1734309*
X1972871*
X1972927Y1734384*
X1972928Y1734385*
X1972929Y1734387*
X1972931Y1734389*
X1972933Y1734391*
X1972935Y1734394*
X1972935*
X1973003Y1734469*
X1973009Y1734475*
X1973024Y1734485*
X1973106Y1734535*
X1973106*
X1973108Y1734536*
X1973110Y1734538*
X1973113Y1734539*
X1973115Y1734540*
X1973115*
X1973203Y1734584*
X1973203*
X1973208Y1734586*
X1973213Y1734589*
X1973219Y1734591*
X1973224Y1734592*
X1973224*
X1973312Y1734617*
X1973312*
X1973318Y1734619*
X1973325Y1734621*
X1973331*
X1973338Y1734622*
X1973338*
X1973436Y1734628*
X1977288*
X1977392Y1734622*
X1977392*
X1977398Y1734621*
X1977405*
X1977412Y1734619*
X1977418Y1734617*
X1977418*
X1977506Y1734592*
X1977506*
X1977511Y1734591*
X1977517Y1734589*
X1977522Y1734586*
X1977527Y1734584*
X1977527*
X1977622Y1734537*
X1977713Y1734475*
X1977797Y1734392*
X1977859Y1734309*
X1977859*
X1977863Y1734303*
X1977868Y1734297*
X1977871Y1734291*
X1977874Y1734284*
X1977874*
X1977911Y1734196*
X1977913Y1734192*
X1977915Y1734188*
X1977917Y1734179*
X1977942Y1734085*
X1977944Y1734080*
X1977945Y1734074*
X1977946Y1734068*
X1977952Y1733968*
X1977952*
X1977953Y1733964*
Y1733959*
X1978435Y1727446D02*
Y1726910D01*
X1978372Y1727809D02*
Y1726809D01*
X1978310Y1728025D02*
Y1726708D01*
X1978247Y1728241D02*
Y1726606D01*
X1978185Y1728457D02*
Y1726505D01*
X1978122Y1728605D02*
Y1726404D01*
X1978060Y1728744D02*
Y1726302D01*
X1977997Y1728884D02*
Y1726201D01*
X1977935Y1729024D02*
Y1726750D01*
Y1726444D02*
Y1726100D01*
X1977872Y1729164D02*
Y1726918D01*
Y1726276D02*
Y1725998D01*
X1977810Y1729246D02*
Y1727012D01*
Y1726182D02*
Y1725897D01*
X1977747Y1729325D02*
Y1727075D01*
Y1726119D02*
Y1725796D01*
X1977685Y1729385D02*
Y1727127D01*
Y1726067D02*
Y1725695D01*
X1977622Y1729445D02*
Y1727174D01*
Y1726020D02*
Y1725593D01*
X1977560Y1729491D02*
Y1727205D01*
Y1725993D02*
Y1725492D01*
X1977497Y1729535D02*
Y1727232D01*
Y1725968D02*
Y1725391D01*
X1977435Y1729575D02*
Y1727245D01*
Y1725950D02*
Y1725289D01*
X1977372Y1729607D02*
Y1727256D01*
Y1725938D02*
Y1725188D01*
X1977310Y1729638D02*
Y1727263D01*
Y1725931D02*
Y1725087D01*
X1977247Y1729653D02*
Y1727266D01*
Y1725928D02*
Y1724985D01*
X1977185Y1729664D02*
Y1727266D01*
Y1725928D02*
Y1724884D01*
X1977122Y1729674D02*
Y1727266D01*
Y1725928D02*
Y1724783D01*
X1977060Y1729685D02*
Y1727266D01*
Y1725928D02*
Y1724681D01*
X1976997Y1729695D02*
Y1727266D01*
Y1725928D02*
Y1724580D01*
X1976935Y1729706D02*
Y1727266D01*
Y1725928D02*
Y1724479D01*
X1976872Y1729716D02*
Y1727266D01*
Y1725928D02*
Y1724377D01*
X1976810Y1729727D02*
Y1727266D01*
Y1725928D02*
Y1724276D01*
X1976747Y1729737D02*
Y1727266D01*
Y1725928D02*
Y1724175D01*
X1976685Y1729748D02*
Y1727266D01*
Y1725928D02*
Y1724074D01*
X1976622Y1729758D02*
Y1727266D01*
Y1725928D02*
Y1723972D01*
X1976560Y1729769D02*
Y1727266D01*
Y1725928D02*
Y1723871D01*
X1976497Y1729779D02*
Y1727266D01*
Y1725928D02*
Y1723770D01*
X1976435Y1729790D02*
Y1727266D01*
Y1725928D02*
Y1723668D01*
X1976372Y1729800D02*
Y1727266D01*
Y1725928D02*
Y1723567D01*
X1976310Y1729810D02*
Y1727266D01*
Y1725928D02*
Y1723466D01*
X1976247Y1729821D02*
Y1727266D01*
Y1725928D02*
Y1723364D01*
X1976185Y1729831D02*
Y1727266D01*
Y1725928D02*
Y1723334D01*
X1976122Y1729842D02*
Y1727266D01*
Y1725928D02*
Y1723331D01*
X1976060Y1729852D02*
Y1727266D01*
Y1725928D02*
Y1723327D01*
X1975997Y1729859D02*
Y1727266D01*
Y1725928D02*
Y1723323D01*
X1975935Y1729859D02*
Y1727266D01*
Y1725928D02*
Y1723320D01*
X1975872Y1729859D02*
Y1727266D01*
Y1725928D02*
Y1723316D01*
X1975810Y1729859D02*
Y1727266D01*
Y1725928D02*
Y1723313D01*
X1975747Y1729859D02*
Y1727266D01*
Y1725928D02*
Y1723309D01*
X1975685Y1729859D02*
Y1727266D01*
Y1725928D02*
Y1723305D01*
X1975622Y1729859D02*
Y1727266D01*
Y1725928D02*
Y1723302D01*
X1975560Y1729859D02*
Y1727266D01*
Y1725928D02*
Y1723298D01*
X1975497Y1729859D02*
Y1727266D01*
Y1725928D02*
Y1723295D01*
X1975435Y1729859D02*
Y1727266D01*
Y1725928D02*
Y1723291D01*
X1975372Y1729859D02*
Y1727266D01*
Y1725928D02*
Y1723287D01*
X1975310Y1729859D02*
Y1727266D01*
Y1725928D02*
Y1723286D01*
X1975247Y1729859D02*
Y1727266D01*
Y1725928D02*
Y1723290D01*
X1975185Y1729859D02*
Y1727266D01*
Y1725928D02*
Y1723295D01*
X1975122Y1729859D02*
Y1727266D01*
Y1725928D02*
Y1723299D01*
X1975060Y1729859D02*
Y1727266D01*
Y1725928D02*
Y1723304D01*
X1974997Y1729859D02*
Y1727266D01*
Y1725928D02*
Y1723308D01*
X1974935Y1729859D02*
Y1727266D01*
Y1725928D02*
Y1723312D01*
X1974872Y1729859D02*
Y1727266D01*
Y1725928D02*
Y1723317D01*
X1974810Y1729859D02*
Y1727266D01*
Y1725928D02*
Y1723321D01*
X1974747Y1729859D02*
Y1727266D01*
Y1725928D02*
Y1723326D01*
X1974685Y1729855D02*
Y1727266D01*
Y1725928D02*
Y1723330D01*
X1974622Y1729844D02*
Y1727266D01*
Y1725928D02*
Y1723335D01*
X1974560Y1729834D02*
Y1727266D01*
Y1725928D02*
Y1723339D01*
X1974497Y1729823D02*
Y1727266D01*
Y1725928D02*
Y1723343D01*
X1974435Y1729813D02*
Y1727266D01*
Y1725928D02*
Y1723348D01*
X1974372Y1729802D02*
Y1727266D01*
Y1725928D02*
Y1723352D01*
X1974310Y1729792D02*
Y1727266D01*
Y1725928D02*
Y1723364D01*
X1974247Y1729782D02*
Y1727266D01*
Y1725928D02*
Y1723376D01*
X1974185Y1729771D02*
Y1727266D01*
Y1725928D02*
Y1723389D01*
X1974122Y1729761D02*
Y1727266D01*
Y1725928D02*
Y1723401D01*
X1974060Y1729750D02*
Y1727266D01*
Y1725928D02*
Y1723413D01*
X1973997Y1729740D02*
Y1727266D01*
Y1725928D02*
Y1723425D01*
X1973935Y1729729D02*
Y1727266D01*
Y1725928D02*
Y1723438D01*
X1973872Y1729719D02*
Y1727266D01*
Y1725928D02*
Y1723450D01*
X1973810Y1729708D02*
Y1727266D01*
Y1725928D02*
Y1723462D01*
X1973747Y1729698D02*
Y1727266D01*
Y1725928D02*
Y1723474D01*
X1973685Y1729687D02*
Y1727266D01*
Y1725928D02*
Y1723487D01*
X1973622Y1729677D02*
Y1727266D01*
Y1725928D02*
Y1723499D01*
X1973560Y1729666D02*
Y1727266D01*
Y1725928D02*
Y1723511D01*
X1973497Y1729656D02*
Y1727266D01*
Y1725928D02*
Y1723523D01*
X1973435Y1729645D02*
Y1727266D01*
Y1725928D02*
Y1723536D01*
X1973372Y1729614D02*
Y1727258D01*
Y1725936D02*
Y1723567D01*
X1973310Y1729583D02*
Y1727248D01*
Y1725946D02*
Y1723599D01*
X1973247Y1729546D02*
Y1727235D01*
Y1725964D02*
Y1723634D01*
X1973185Y1729501D02*
Y1727212D01*
Y1725986D02*
Y1723677D01*
X1973122Y1729457D02*
Y1727181D01*
Y1726013D02*
Y1723719D01*
X1973060Y1729399D02*
Y1727141D01*
Y1726053D02*
Y1723776D01*
X1972997Y1729339D02*
Y1727094D01*
Y1726100D02*
Y1723836D01*
X1972935Y1729265D02*
Y1727031D01*
Y1726163D02*
Y1723910D01*
X1972872Y1729185D02*
Y1726942D01*
Y1726252D02*
Y1723990D01*
X1972810Y1729054D02*
Y1726805D01*
Y1726389D02*
Y1724121D01*
X1972747Y1728911D02*
Y1724263D01*
X1972685Y1728768D02*
Y1724405D01*
X1972622Y1728625D02*
Y1724547D01*
X1972560Y1728481D02*
Y1724689D01*
X1972497Y1728329D02*
Y1724840D01*
X1972435Y1728076D02*
Y1725095D01*
X1972372Y1727822D02*
Y1725351D01*
X1972310Y1727568D02*
Y1725606D01*
X1972247Y1726975D02*
Y1726196D01*
X1978497Y1727012D02*
X1978393Y1727739D01*
X1978179Y1728479*
X1977870Y1729170*
X1977753Y1729319*
X1977616Y1729451*
X1977457Y1729565*
X1977295Y1729646*
X1976017Y1729859*
X1974713*
X1973435Y1729646*
X1973273Y1729565*
X1973114Y1729451*
X1972977Y1729319*
X1972861Y1729170*
X1972503Y1728350*
X1972289Y1727483*
X1972215Y1726585*
X1972289Y1725692*
X1972503Y1724819*
X1972861Y1724005*
X1972977Y1723856*
X1973113Y1723726*
X1973272Y1723618*
X1973437Y1723535*
X1974369Y1723352*
X1975328Y1723285*
X1976230Y1723337*
X1978497Y1727012*
X1977953Y1726597D02*
Y1726593D01*
X1977952Y1726589*
X1977952*
X1977946Y1726489*
X1977945Y1726483*
X1977944Y1726477*
X1977942Y1726471*
X1977917Y1726377*
X1977917*
X1977916Y1726372*
X1977914Y1726367*
X1977912Y1726362*
X1977910Y1726357*
X1977872Y1726276*
X1977870Y1726271*
X1977868Y1726266*
X1977865Y1726262*
X1977862Y1726257*
X1977805Y1726176*
X1977801Y1726170*
X1977797Y1726164*
X1977792Y1726159*
X1977787Y1726154*
X1977718Y1726092*
X1977718*
X1977716Y1726090*
X1977713Y1726088*
X1977711Y1726086*
X1977709Y1726085*
Y1726084*
X1977634Y1726028*
X1977634*
X1977628Y1726024*
X1977622Y1726019*
X1977615Y1726016*
X1977608Y1726013*
X1977608*
X1977520Y1725976*
X1977520*
X1977517Y1725974*
X1977513Y1725973*
X1977509Y1725972*
X1977506Y1725971*
X1977506*
X1977418Y1725946*
X1977413Y1725944*
X1977409Y1725943*
X1977404Y1725942*
X1977399*
X1977292Y1725928*
X1973432*
X1973428Y1725929*
X1973423*
X1973423*
X1973321Y1725943*
X1973224Y1725971*
X1973224*
X1973221Y1725972*
X1973217Y1725973*
X1973213Y1725974*
X1973210Y1725976*
X1973210*
X1973116Y1726016*
X1973110Y1726018*
X1973105Y1726022*
X1973100Y1726025*
X1973100*
X1973019Y1726082*
X1973014Y1726085*
X1973010Y1726088*
X1972931Y1726167*
X1972928Y1726171*
X1972925Y1726176*
X1972868Y1726257*
X1972865Y1726262*
X1972862Y1726266*
X1972860Y1726271*
X1972858Y1726276*
X1972820Y1726357*
X1972818Y1726362*
X1972816Y1726367*
X1972814Y1726372*
X1972813Y1726377*
X1972813*
X1972788Y1726471*
X1972786Y1726477*
X1972785Y1726483*
X1972784Y1726489*
X1972778Y1726589*
X1972778*
X1972777Y1726593*
Y1726597*
Y1726601*
X1972778Y1726605*
X1972778*
X1972784Y1726705*
X1972785Y1726711*
X1972786Y1726717*
X1972788Y1726723*
X1972813Y1726817*
X1972813*
X1972814Y1726822*
X1972816Y1726827*
X1972818Y1726832*
X1972820Y1726837*
X1972858Y1726918*
X1972860Y1726923*
X1972862Y1726928*
X1972865Y1726932*
X1972868Y1726937*
X1972925Y1727018*
X1972928Y1727023*
X1972931Y1727027*
X1973010Y1727106*
X1973014Y1727109*
X1973019Y1727112*
X1973107Y1727174*
X1973210Y1727225*
X1973217Y1727228*
X1973225Y1727230*
X1973233Y1727232*
X1973233*
X1973320Y1727250*
X1973322Y1727251*
X1973325Y1727252*
X1973327*
X1973330*
X1973423Y1727265*
X1973423*
X1973428*
X1973432Y1727266*
X1977292*
X1977399Y1727252*
X1977402*
X1977405*
X1977407Y1727251*
X1977409*
Y1727245*
X1977410Y1727250*
X1977497Y1727232*
X1977497*
X1977505Y1727230*
X1977513Y1727228*
X1977520Y1727225*
X1977625Y1727173*
X1977709Y1727109*
X1977709*
X1977711Y1727108*
X1977713Y1727106*
X1977716Y1727104*
X1977718Y1727102*
X1977718*
X1977787Y1727039*
X1977792Y1727035*
X1977797Y1727030*
X1977801Y1727024*
X1977805Y1727018*
X1977862Y1726937*
X1977865Y1726932*
X1977868Y1726928*
X1977870Y1726923*
X1977872Y1726918*
X1977910Y1726837*
X1977912Y1726832*
X1977914Y1726827*
X1977916Y1726822*
X1977917Y1726817*
X1977917*
X1977942Y1726723*
X1977944Y1726717*
X1977945Y1726711*
X1977946Y1726705*
X1977952Y1726605*
X1977952*
X1977953Y1726601*
Y1726597*
X1978376Y1725651D02*
Y1725400D01*
X1978313Y1725545D02*
Y1725171D01*
X1978251Y1725439D02*
Y1724943D01*
X1978188Y1725333D02*
Y1724726D01*
X1978126Y1725227D02*
Y1724585D01*
X1978063Y1725121D02*
Y1724444D01*
X1978001Y1725015D02*
Y1724302D01*
X1977938Y1724909D02*
Y1724161D01*
X1977876Y1724803D02*
Y1724020D01*
X1977813Y1724697D02*
Y1723933D01*
X1977751Y1724591D02*
Y1723854D01*
X1977688Y1724485D02*
Y1723794D01*
X1977626Y1724379D02*
Y1723734D01*
X1977563Y1724273D02*
Y1723689D01*
X1977501Y1724167D02*
Y1723647D01*
X1977438Y1724061D02*
Y1723608D01*
X1977376Y1723955D02*
Y1723577D01*
X1977313Y1723849D02*
Y1723545D01*
X1977251Y1723743D02*
Y1723525D01*
X1977188Y1723637D02*
Y1723511D01*
X1977126Y1723531D02*
Y1723496D01*
X1978438Y1725757D02*
X1977102Y1723491D01*
X1977291Y1723534*
X1977458Y1723618*
X1977617Y1723726*
X1977753Y1723856*
X1977869Y1724005*
X1978197Y1724745*
X1978411Y1725527*
X1978438Y1725757*
X1975700Y1722541D02*
Y1722431D01*
X1975638Y1722541D02*
Y1722320D01*
X1975575Y1722541D02*
Y1722210D01*
X1975513Y1722541D02*
Y1722100D01*
X1975450Y1722541D02*
Y1721990D01*
X1975388Y1722541D02*
Y1721880D01*
X1975325Y1722541D02*
Y1721770D01*
X1975263Y1722541D02*
Y1721660D01*
X1975200Y1722541D02*
Y1721550D01*
X1975138Y1722541D02*
Y1721439D01*
X1975075Y1722541D02*
Y1721329D01*
X1975013Y1722541D02*
Y1721219D01*
X1974950Y1722541D02*
Y1721109D01*
X1974888Y1722541D02*
Y1720999D01*
X1974825Y1722541D02*
Y1720889D01*
X1974763Y1722541D02*
Y1720779D01*
X1974700Y1722541D02*
Y1720669D01*
X1974638Y1722541D02*
Y1720558D01*
X1974575Y1722541D02*
Y1720448D01*
X1974513Y1722541D02*
Y1720338D01*
X1974450Y1722541D02*
Y1720291D01*
X1974388Y1722541D02*
Y1720291D01*
X1974325Y1722541D02*
Y1720291D01*
X1974263Y1722541D02*
Y1720291D01*
X1974200Y1722541D02*
Y1720291D01*
X1974138Y1722541D02*
Y1720291D01*
X1974075Y1722541D02*
Y1720291D01*
X1974013Y1722541D02*
Y1720291D01*
X1973950Y1722541D02*
Y1720291D01*
X1973888Y1722541D02*
Y1720291D01*
X1973825Y1722541D02*
Y1720291D01*
X1973763Y1722541D02*
Y1720291D01*
X1973700Y1722541D02*
Y1720291D01*
X1973638Y1722541D02*
Y1720291D01*
X1973575Y1722541D02*
Y1720291D01*
X1973513Y1722541D02*
Y1720291D01*
X1973450Y1722541D02*
Y1720291D01*
X1973388Y1722541D02*
Y1720291D01*
X1973325Y1722541D02*
Y1720291D01*
X1973263Y1722541D02*
Y1720291D01*
X1973200Y1722541D02*
Y1720291D01*
X1973138Y1722541D02*
Y1720291D01*
X1973075Y1722541D02*
Y1720291D01*
X1973013Y1722541D02*
Y1720291D01*
X1972950Y1722541D02*
Y1720291D01*
X1972888Y1722541D02*
Y1720291D01*
X1972825Y1722541D02*
Y1720291D01*
X1972763Y1722541D02*
Y1720291D01*
X1972700Y1722541D02*
Y1720291D01*
X1972638Y1722541D02*
Y1720291D01*
X1972575Y1722541D02*
Y1720291D01*
X1972513Y1722541D02*
Y1720291D01*
X1972450Y1722541D02*
Y1720291D01*
X1972388Y1722541D02*
Y1720291D01*
X1972325Y1722541D02*
Y1720291D01*
X1972263Y1722541D02*
Y1720291D01*
X1975763Y1722541D02*
X1972215D01*
Y1720291*
X1974486*
X1975763Y1722541*
X1978515D02*
Y1720291D01*
Y1718642D02*
Y1716404D01*
X1978453Y1722541D02*
Y1720291D01*
Y1718662D02*
Y1716424D01*
X1978390Y1722541D02*
Y1720291D01*
Y1718681D02*
Y1716443D01*
X1978328Y1722541D02*
Y1720291D01*
Y1718700D02*
Y1716462D01*
X1978265Y1722541D02*
Y1720291D01*
Y1718720D02*
Y1716482D01*
X1978203Y1722541D02*
Y1720291D01*
Y1718739D02*
Y1716501D01*
X1978140Y1722541D02*
Y1720291D01*
Y1718758D02*
Y1716520D01*
X1978078Y1722541D02*
Y1720291D01*
Y1718777D02*
Y1716540D01*
X1978015Y1722541D02*
Y1720291D01*
Y1718797D02*
Y1716559D01*
X1977953Y1722541D02*
Y1720291D01*
Y1718816D02*
Y1716579D01*
X1977890Y1722541D02*
Y1720291D01*
Y1718835D02*
Y1716598D01*
X1977828Y1722541D02*
Y1720291D01*
Y1718855D02*
Y1716617D01*
X1977765Y1722541D02*
Y1720291D01*
Y1718874D02*
Y1716637D01*
X1977703Y1722541D02*
Y1720291D01*
Y1718893D02*
Y1716656D01*
X1977640Y1722541D02*
Y1720291D01*
Y1718913D02*
Y1716676D01*
X1977578Y1722541D02*
Y1720291D01*
Y1718932D02*
Y1716695D01*
X1977515Y1722541D02*
Y1720291D01*
Y1718951D02*
Y1716714D01*
X1977453Y1722541D02*
Y1720291D01*
Y1718970D02*
Y1716734D01*
X1977390Y1722541D02*
Y1720291D01*
Y1718990D02*
Y1716753D01*
X1977328Y1722541D02*
Y1720291D01*
Y1719009D02*
Y1716773D01*
X1977265Y1722541D02*
Y1720291D01*
Y1719028D02*
Y1716792D01*
X1977203Y1722541D02*
Y1720291D01*
Y1719048D02*
Y1716811D01*
X1977140Y1722541D02*
Y1720291D01*
Y1719067D02*
Y1716831D01*
X1977078Y1722541D02*
Y1720291D01*
Y1719086D02*
Y1716850D01*
X1977015Y1722541D02*
Y1720291D01*
Y1719106D02*
Y1716869D01*
X1976953Y1722541D02*
Y1720291D01*
Y1719125D02*
Y1716889D01*
X1976890Y1722541D02*
Y1720291D01*
Y1719144D02*
Y1716908D01*
X1976828Y1722541D02*
Y1720291D01*
Y1719164D02*
Y1716928D01*
X1976765Y1722541D02*
Y1720291D01*
Y1719183D02*
Y1716947D01*
X1976703Y1722541D02*
Y1720291D01*
Y1719202D02*
Y1716966D01*
X1976640Y1722541D02*
Y1720291D01*
Y1719221D02*
Y1716986D01*
X1976578Y1722541D02*
Y1720291D01*
Y1719241D02*
Y1717005D01*
X1976515Y1722459D02*
Y1720291D01*
Y1719260D02*
Y1717025D01*
X1976453Y1722342D02*
Y1720291D01*
Y1719279D02*
Y1717044D01*
X1976390Y1722225D02*
Y1720291D01*
Y1719299D02*
Y1717063D01*
X1976328Y1722108D02*
Y1720291D01*
Y1719318D02*
Y1717083D01*
X1976265Y1721991D02*
Y1720291D01*
Y1719337D02*
Y1717102D01*
X1976203Y1721874D02*
Y1720291D01*
Y1719357D02*
Y1717122D01*
X1976140Y1721757D02*
Y1720291D01*
Y1719376D02*
Y1717141D01*
X1976078Y1721641D02*
Y1720291D01*
Y1719395D02*
Y1717160D01*
X1976015Y1721524D02*
Y1720291D01*
Y1719415D02*
Y1717180D01*
X1975953Y1721407D02*
Y1720291D01*
Y1719434D02*
Y1717199D01*
X1975890Y1721290D02*
Y1720291D01*
Y1719453D02*
Y1717218D01*
X1975828Y1721173D02*
Y1720291D01*
Y1719472D02*
Y1717238D01*
X1975765Y1721056D02*
Y1720265D01*
Y1719519D02*
Y1717257D01*
X1975703Y1720939D02*
Y1720166D01*
Y1719603D02*
Y1717277D01*
X1975640Y1720822D02*
Y1717296D01*
X1975578Y1720705D02*
Y1717315D01*
X1975515Y1720588D02*
Y1717335D01*
X1975453Y1720471D02*
Y1717354D01*
X1975390Y1720354D02*
Y1717374D01*
X1975328Y1720237D02*
Y1717393D01*
X1975265Y1720120D02*
Y1717412D01*
X1975202Y1720003D02*
Y1717415D01*
X1975140Y1719887D02*
Y1717403D01*
X1975077Y1719770D02*
Y1717381D01*
X1975015Y1719653D02*
Y1717359D01*
X1974952Y1719536D02*
Y1717337D01*
X1974890Y1719419D02*
Y1717314D01*
X1974827Y1719302D02*
Y1717292D01*
X1974765Y1719185D02*
Y1717270D01*
X1974702Y1719068D02*
Y1717248D01*
X1974640Y1718951D02*
Y1717226D01*
X1974577Y1718834D02*
Y1717204D01*
X1974515Y1718717D02*
Y1717182D01*
X1974452Y1718600D02*
Y1717159D01*
X1974390Y1718483D02*
Y1717137D01*
X1974327Y1718366D02*
Y1717115D01*
X1974265Y1718250D02*
Y1717093D01*
X1974202Y1718133D02*
Y1717071D01*
X1974140Y1718016D02*
Y1717049D01*
X1974077Y1717899D02*
Y1717026D01*
X1974015Y1717782D02*
Y1717004D01*
X1973952Y1717665D02*
Y1716982D01*
X1973890Y1717548D02*
Y1716960D01*
X1973827Y1717431D02*
Y1716938D01*
X1973765Y1717314D02*
Y1716916D01*
X1973702Y1717197D02*
Y1716894D01*
X1973640Y1717080D02*
Y1716871D01*
X1973577Y1716963D02*
Y1716849D01*
X1973515Y1716846D02*
Y1716827D01*
X1978515Y1722541D02*
X1976559D01*
X1973502Y1716823*
X1975173Y1717415*
X1975252Y1717416*
X1978515Y1716404*
Y1718642*
X1975791Y1719484*
X1975703Y1719603*
Y1720166*
X1975739Y1720254*
X1975828Y1720291*
X1978515*
Y1722541*
X1973856Y1719226D02*
Y1719129D01*
X1973794Y1719204D02*
Y1719010D01*
X1973731Y1719182D02*
Y1718891D01*
X1973669Y1719160D02*
Y1718772D01*
X1973606Y1719138D02*
Y1718653D01*
X1973544Y1719116D02*
Y1718534D01*
X1973481Y1719093D02*
Y1718415D01*
X1973419Y1719071D02*
Y1718296D01*
X1973356Y1719049D02*
Y1718177D01*
X1973294Y1719027D02*
Y1718058D01*
X1973231Y1719005D02*
Y1717939D01*
X1973169Y1718983D02*
Y1717820D01*
X1973106Y1718961D02*
Y1717701D01*
X1973044Y1718939D02*
Y1717581D01*
X1972981Y1718917D02*
Y1717462D01*
X1972919Y1718895D02*
Y1717343D01*
X1972856Y1718873D02*
Y1717224D01*
X1972794Y1718851D02*
Y1717105D01*
X1972731Y1718828D02*
Y1716986D01*
X1972669Y1718806D02*
Y1716867D01*
X1972606Y1718784D02*
Y1716748D01*
X1972544Y1718762D02*
Y1716629D01*
X1972481Y1718740D02*
Y1716510D01*
X1972419Y1718718D02*
Y1716442D01*
X1972356Y1718696D02*
Y1716420D01*
X1972294Y1718674D02*
Y1716397D01*
X1972231Y1718652D02*
Y1716375D01*
X1973919Y1719248D02*
X1972215Y1718646D01*
Y1716369*
X1972452Y1716454*
X1973919Y1719248*
X1978515Y1715553D02*
Y1713303D01*
Y1711622D02*
Y1709372D01*
X1978453Y1715553D02*
Y1713303D01*
Y1711622D02*
Y1709372D01*
X1978390Y1715553D02*
Y1713303D01*
Y1711622D02*
Y1709372D01*
X1978328Y1715553D02*
Y1713303D01*
Y1711622D02*
Y1709372D01*
X1978265Y1715553D02*
Y1713303D01*
Y1711622D02*
Y1709372D01*
X1978203Y1715553D02*
Y1713303D01*
Y1711622D02*
Y1709372D01*
X1978140Y1715553D02*
Y1713303D01*
Y1711622D02*
Y1709372D01*
X1978078Y1715553D02*
Y1713303D01*
Y1711622D02*
Y1709372D01*
X1978015Y1715553D02*
Y1713303D01*
Y1711622D02*
Y1709372D01*
X1977953Y1715553D02*
Y1713303D01*
Y1711622D02*
Y1709372D01*
X1977890Y1715553D02*
Y1713303D01*
Y1711622D02*
Y1709372D01*
X1977828Y1715553D02*
Y1713303D01*
Y1711622D02*
Y1709372D01*
X1977765Y1715553D02*
Y1713303D01*
Y1711622D02*
Y1709372D01*
X1977703Y1715553D02*
Y1713303D01*
Y1711622D02*
Y1709372D01*
X1977640Y1715553D02*
Y1713303D01*
Y1711622D02*
Y1709372D01*
X1977578Y1715553D02*
Y1713303D01*
Y1711622D02*
Y1709372D01*
X1977515Y1715553D02*
Y1713303D01*
Y1711622D02*
Y1709372D01*
X1977453Y1715553D02*
Y1713303D01*
Y1711622D02*
Y1709372D01*
X1977390Y1715553D02*
Y1713303D01*
Y1711622D02*
Y1709372D01*
X1977328Y1715553D02*
Y1713303D01*
Y1711622D02*
Y1709372D01*
X1977265Y1715553D02*
Y1713303D01*
Y1711622D02*
Y1709372D01*
X1977203Y1715553D02*
Y1713303D01*
Y1711622D02*
Y1709372D01*
X1977140Y1715553D02*
Y1713303D01*
Y1711622D02*
Y1709372D01*
X1977078Y1715553D02*
Y1713303D01*
Y1711622D02*
Y1709372D01*
X1977015Y1715553D02*
Y1713303D01*
Y1711622D02*
Y1709372D01*
X1976953Y1715553D02*
Y1713303D01*
Y1711622D02*
Y1709372D01*
X1976890Y1715553D02*
Y1713303D01*
Y1711622D02*
Y1709372D01*
X1976828Y1715553D02*
Y1713303D01*
Y1711622D02*
Y1709372D01*
X1976765Y1715553D02*
Y1713303D01*
Y1711622D02*
Y1709372D01*
X1976703Y1715553D02*
Y1713303D01*
Y1711622D02*
Y1709372D01*
X1976640Y1715553D02*
Y1713303D01*
Y1711622D02*
Y1709372D01*
X1976578Y1715553D02*
Y1713303D01*
Y1711622D02*
Y1709372D01*
X1976515Y1715553D02*
Y1713303D01*
Y1711622D02*
Y1709372D01*
X1976453Y1715553D02*
Y1713303D01*
Y1711622D02*
Y1709372D01*
X1976390Y1715553D02*
Y1713303D01*
Y1711622D02*
Y1709372D01*
X1976328Y1715553D02*
Y1713303D01*
Y1711622D02*
Y1709372D01*
X1976265Y1715553D02*
Y1713303D01*
Y1711622D02*
Y1709372D01*
X1976203Y1715553D02*
Y1713303D01*
Y1711622D02*
Y1709372D01*
X1976140Y1715553D02*
Y1713303D01*
Y1711622D02*
Y1709372D01*
X1976078Y1715553D02*
Y1713303D01*
Y1711622D02*
Y1709372D01*
X1976015Y1715553D02*
Y1713303D01*
Y1711622D02*
Y1709372D01*
X1975953Y1715553D02*
Y1713301D01*
Y1711625D02*
Y1709372D01*
X1975890Y1715553D02*
Y1713275D01*
Y1711650D02*
Y1709372D01*
X1975828Y1715553D02*
Y1709372D01*
X1975765Y1715553D02*
Y1709372D01*
X1975703Y1715553D02*
Y1709372D01*
X1975640Y1715553D02*
Y1709372D01*
X1975578Y1715553D02*
Y1709372D01*
X1975515Y1715553D02*
Y1709372D01*
X1975453Y1715553D02*
Y1709372D01*
X1975390Y1715553D02*
Y1709372D01*
X1975328Y1715553D02*
Y1709372D01*
X1975265Y1715553D02*
Y1709372D01*
X1975202Y1715553D02*
Y1709372D01*
X1975140Y1715553D02*
Y1709372D01*
X1975077Y1715553D02*
Y1709372D01*
X1975015Y1715553D02*
Y1709372D01*
X1974952Y1715553D02*
Y1709372D01*
X1974890Y1715553D02*
Y1713193D01*
Y1711732D02*
Y1709372D01*
X1974827Y1715553D02*
Y1713280D01*
Y1711645D02*
Y1709372D01*
X1974765Y1715553D02*
Y1713303D01*
Y1711622D02*
Y1709372D01*
X1974702Y1715553D02*
Y1713303D01*
Y1711622D02*
Y1709372D01*
X1974640Y1715553D02*
Y1713303D01*
Y1711622D02*
Y1709372D01*
X1974577Y1715553D02*
Y1713303D01*
Y1711622D02*
Y1709372D01*
X1974515Y1715553D02*
Y1713303D01*
Y1711622D02*
Y1709372D01*
X1974452Y1715553D02*
Y1713303D01*
Y1711622D02*
Y1709372D01*
X1974390Y1715553D02*
Y1713303D01*
Y1711622D02*
Y1709372D01*
X1974327Y1715553D02*
Y1713303D01*
Y1711622D02*
Y1709372D01*
X1974265Y1715553D02*
Y1713303D01*
Y1711622D02*
Y1709372D01*
X1974202Y1715553D02*
Y1713303D01*
Y1711622D02*
Y1709372D01*
X1974140Y1715553D02*
Y1713303D01*
Y1711622D02*
Y1709372D01*
X1974077Y1715553D02*
Y1713303D01*
Y1711622D02*
Y1709372D01*
X1974015Y1715553D02*
Y1713303D01*
Y1711622D02*
Y1709372D01*
X1973952Y1715553D02*
Y1713303D01*
Y1711622D02*
Y1709372D01*
X1973890Y1715553D02*
Y1713303D01*
Y1711622D02*
Y1709372D01*
X1973827Y1715553D02*
Y1713303D01*
Y1711622D02*
Y1709372D01*
X1973765Y1715553D02*
Y1713303D01*
Y1711622D02*
Y1709372D01*
X1973702Y1715553D02*
Y1713303D01*
Y1711622D02*
Y1709372D01*
X1973640Y1715553D02*
Y1713303D01*
Y1711622D02*
Y1709372D01*
X1973577Y1715553D02*
Y1713303D01*
Y1711622D02*
Y1709372D01*
X1973515Y1715553D02*
Y1713303D01*
Y1711622D02*
Y1709372D01*
X1973452Y1715553D02*
Y1713303D01*
Y1711622D02*
Y1709372D01*
X1973390Y1715553D02*
Y1713303D01*
Y1711622D02*
Y1709372D01*
X1973327Y1715553D02*
Y1713303D01*
Y1711622D02*
Y1709372D01*
X1973265Y1715553D02*
Y1713303D01*
Y1711622D02*
Y1709372D01*
X1973202Y1715553D02*
Y1713303D01*
Y1711622D02*
Y1709372D01*
X1973140Y1715553D02*
Y1713303D01*
Y1711622D02*
Y1709372D01*
X1973077Y1715553D02*
Y1713303D01*
Y1711622D02*
Y1709372D01*
X1973015Y1715553D02*
Y1713303D01*
Y1711622D02*
Y1709372D01*
X1972952Y1715553D02*
Y1713303D01*
Y1711622D02*
Y1709372D01*
X1972890Y1715553D02*
Y1713303D01*
Y1711622D02*
Y1709372D01*
X1972827Y1715495D02*
Y1713303D01*
Y1711622D02*
Y1709372D01*
X1972765Y1715367D02*
Y1713303D01*
Y1711622D02*
Y1709372D01*
X1972702Y1715239D02*
Y1713303D01*
Y1711622D02*
Y1709372D01*
X1972640Y1715110D02*
Y1713303D01*
Y1711622D02*
Y1709372D01*
X1972577Y1714982D02*
Y1713303D01*
Y1711622D02*
Y1709372D01*
X1972515Y1714853D02*
Y1713303D01*
Y1711622D02*
Y1709372D01*
X1972452Y1714725D02*
Y1713303D01*
Y1711622D02*
Y1709372D01*
X1972390Y1714596D02*
Y1713303D01*
Y1711622D02*
Y1709372D01*
X1972327Y1714468D02*
Y1713303D01*
Y1711622D02*
Y1709372D01*
X1972265Y1714340D02*
Y1713303D01*
Y1711622D02*
Y1709372D01*
X1978515Y1715553D02*
X1972856D01*
X1972215Y1714237*
Y1713303*
X1974771*
X1974860Y1713267*
X1974896Y1713178*
Y1711747*
X1974860Y1711659*
X1974771Y1711622*
X1972215*
Y1709372*
X1978515*
Y1711622*
X1975959*
X1975870Y1711659*
X1975834Y1711747*
Y1713178*
X1975870Y1713267*
X1975959Y1713303*
X1978515*
Y1715553*
Y1708581D02*
Y1706337D01*
X1978453Y1708568D02*
Y1706324D01*
X1978390Y1708555D02*
Y1706311D01*
X1978328Y1708542D02*
Y1706298D01*
X1978265Y1708530D02*
Y1706286D01*
X1978203Y1708517D02*
Y1706273D01*
X1978140Y1708504D02*
Y1706260D01*
X1978078Y1708491D02*
Y1706248D01*
X1978015Y1708478D02*
Y1706235D01*
X1977953Y1708465D02*
Y1706222D01*
X1977890Y1708452D02*
Y1706209D01*
X1977828Y1708439D02*
Y1706197D01*
X1977765Y1708427D02*
Y1706184D01*
X1977703Y1708414D02*
Y1706171D01*
X1977640Y1708401D02*
Y1706159D01*
X1977578Y1708388D02*
Y1706205D01*
X1977515Y1708375D02*
Y1706279D01*
X1977453Y1708362D02*
Y1706339D01*
X1977390Y1708349D02*
Y1706399D01*
X1977328Y1708336D02*
Y1706445D01*
X1977265Y1708323D02*
Y1706487D01*
X1977203Y1708311D02*
Y1706528D01*
X1977140Y1708298D02*
Y1706559D01*
X1977078Y1708285D02*
Y1706586D01*
X1977015Y1708272D02*
Y1706613D01*
X1976953Y1708259D02*
Y1706635D01*
X1976890Y1708246D02*
Y1706651D01*
X1976828Y1708233D02*
Y1706666D01*
X1976765Y1708220D02*
Y1706682D01*
X1976703Y1708208D02*
Y1706688D01*
X1976640Y1708195D02*
Y1706694D01*
X1976578Y1708182D02*
Y1706700D01*
X1976515Y1708169D02*
Y1706702D01*
X1976453Y1708156D02*
Y1706694D01*
X1976390Y1708143D02*
Y1706686D01*
X1976328Y1708130D02*
Y1706678D01*
X1976265Y1708117D02*
Y1706663D01*
X1976203Y1708104D02*
Y1706645D01*
X1976140Y1708092D02*
Y1706627D01*
X1976078Y1708079D02*
Y1706606D01*
X1976015Y1708066D02*
Y1706577D01*
X1975953Y1708053D02*
Y1706547D01*
X1975890Y1708040D02*
Y1706518D01*
X1975828Y1708027D02*
Y1706473D01*
X1975765Y1708014D02*
Y1706427D01*
X1975703Y1708001D02*
Y1706380D01*
X1975640Y1707989D02*
Y1706318D01*
X1975578Y1707976D02*
Y1706255D01*
X1975515Y1707963D02*
Y1706178D01*
X1975453Y1707950D02*
Y1706089D01*
Y1704686D02*
Y1704602D01*
X1975390Y1707937D02*
Y1705981D01*
Y1704796D02*
Y1704542D01*
X1975328Y1707924D02*
Y1705901D01*
Y1704880D02*
Y1704481D01*
X1975265Y1707911D02*
Y1705889D01*
Y1704893D02*
Y1704420D01*
X1975202Y1707898D02*
Y1705876D01*
Y1704906D02*
Y1704360D01*
X1975140Y1707885D02*
Y1705863D01*
Y1704919D02*
Y1704299D01*
X1975077Y1707873D02*
Y1705850D01*
Y1704931D02*
Y1704238D01*
X1975015Y1707860D02*
Y1705837D01*
Y1704944D02*
Y1704178D01*
X1974952Y1707847D02*
Y1705824D01*
Y1704957D02*
Y1704117D01*
X1974890Y1707834D02*
Y1705811D01*
Y1704970D02*
Y1704056D01*
X1974827Y1707821D02*
Y1705799D01*
Y1704983D02*
Y1703996D01*
X1974765Y1707808D02*
Y1705786D01*
Y1704996D02*
Y1703935D01*
X1974702Y1707795D02*
Y1705773D01*
Y1705009D02*
Y1703875D01*
X1974640Y1707782D02*
Y1705760D01*
Y1705021D02*
Y1703814D01*
X1974577Y1707770D02*
Y1705747D01*
Y1705034D02*
Y1703753D01*
X1974515Y1707757D02*
Y1705734D01*
Y1705047D02*
Y1703693D01*
X1974452Y1707744D02*
Y1705721D01*
Y1705060D02*
Y1703632D01*
X1974390Y1707731D02*
Y1705709D01*
Y1705073D02*
Y1703571D01*
X1974327Y1707718D02*
Y1705696D01*
Y1705086D02*
Y1703511D01*
X1974265Y1707705D02*
Y1705683D01*
Y1705099D02*
Y1703450D01*
X1974202Y1707692D02*
Y1705670D01*
Y1705111D02*
Y1703390D01*
X1974140Y1707679D02*
Y1705657D01*
Y1705124D02*
Y1703329D01*
X1974077Y1707666D02*
Y1705644D01*
Y1705137D02*
Y1703268D01*
X1974015Y1707654D02*
Y1705631D01*
Y1705150D02*
Y1703208D01*
X1973952Y1707641D02*
Y1705619D01*
Y1705163D02*
Y1703147D01*
X1973890Y1707628D02*
Y1705606D01*
Y1705176D02*
Y1703150D01*
X1973827Y1707615D02*
Y1705593D01*
Y1705189D02*
Y1703163D01*
X1973765Y1707602D02*
Y1705580D01*
Y1705201D02*
Y1703176D01*
X1973702Y1707589D02*
Y1705567D01*
Y1705214D02*
Y1703188D01*
X1973640Y1707576D02*
Y1705554D01*
Y1705227D02*
Y1703201D01*
X1973577Y1707563D02*
Y1705542D01*
Y1705240D02*
Y1703214D01*
X1973515Y1707551D02*
Y1705529D01*
Y1705253D02*
Y1703227D01*
X1973452Y1707538D02*
Y1705516D01*
Y1705266D02*
Y1703240D01*
X1973390Y1707525D02*
Y1705452D01*
Y1705329D02*
Y1703252D01*
X1973327Y1707512D02*
Y1703265D01*
X1973265Y1707499D02*
Y1703278D01*
X1973202Y1707486D02*
Y1703291D01*
X1973140Y1707473D02*
Y1703303D01*
X1973077Y1707460D02*
Y1703316D01*
X1973015Y1707448D02*
Y1703329D01*
X1972952Y1707435D02*
Y1703342D01*
X1972890Y1707422D02*
Y1703355D01*
X1972827Y1707409D02*
Y1703367D01*
X1972765Y1707396D02*
Y1703380D01*
X1972702Y1707383D02*
Y1703393D01*
X1972640Y1707370D02*
Y1703406D01*
X1972577Y1707357D02*
Y1703419D01*
X1972515Y1707344D02*
Y1703431D01*
X1972452Y1707332D02*
Y1703444D01*
X1972390Y1707319D02*
Y1703457D01*
X1972327Y1707306D02*
Y1703470D01*
X1972265Y1707293D02*
Y1703483D01*
X1978515Y1708581D02*
X1972215Y1707283D01*
Y1703493*
X1973944Y1703139*
X1975488Y1704636*
X1975419Y1704734*
X1975353Y1704875*
X1973440Y1705268*
X1973340Y1705391*
X1973440Y1705513*
X1975354Y1705907*
X1975419Y1706042*
X1975550Y1706228*
X1975708Y1706386*
X1975889Y1706518*
X1976096Y1706614*
X1976308Y1706676*
X1976318Y1706677*
X1976532Y1706704*
X1976761Y1706683*
X1976980Y1706628*
X1977187Y1706538*
X1977375Y1706414*
X1977533Y1706262*
X1977617Y1706154*
X1978515Y1706337*
Y1708581*
Y1704439D02*
Y1702194D01*
X1978453Y1704452D02*
Y1702207D01*
X1978390Y1704465D02*
Y1702220D01*
X1978328Y1704478D02*
Y1702233D01*
X1978265Y1704492D02*
Y1702246D01*
X1978203Y1704505D02*
Y1702259D01*
X1978140Y1704518D02*
Y1702272D01*
X1978078Y1704531D02*
Y1702285D01*
X1978015Y1704544D02*
Y1702298D01*
X1977953Y1704557D02*
Y1702311D01*
X1977890Y1704570D02*
Y1702324D01*
X1977828Y1704583D02*
Y1702337D01*
X1977765Y1704596D02*
Y1702350D01*
X1977703Y1704609D02*
Y1702363D01*
X1977640Y1704622D02*
Y1702376D01*
X1977578Y1704571D02*
Y1702388D01*
X1977515Y1704496D02*
Y1702401D01*
X1977453Y1704436D02*
Y1702414D01*
X1977390Y1704376D02*
Y1702427D01*
X1977328Y1704330D02*
Y1702440D01*
X1977265Y1704288D02*
Y1702453D01*
X1977203Y1704247D02*
Y1702466D01*
X1977140Y1704216D02*
Y1702479D01*
X1977078Y1704189D02*
Y1702492D01*
X1977015Y1704162D02*
Y1702505D01*
X1976953Y1704140D02*
Y1702518D01*
X1976890Y1704124D02*
Y1702531D01*
X1976828Y1704109D02*
Y1702544D01*
X1976765Y1704093D02*
Y1702557D01*
X1976703Y1704088D02*
Y1702570D01*
X1976640Y1704084D02*
Y1702583D01*
X1976578Y1704080D02*
Y1702596D01*
X1976515Y1704080D02*
Y1702609D01*
X1976453Y1704086D02*
Y1702621D01*
X1976390Y1704091D02*
Y1702634D01*
X1976328Y1704097D02*
Y1702647D01*
X1976265Y1704112D02*
Y1702660D01*
X1976203Y1704130D02*
Y1702673D01*
X1976140Y1704148D02*
Y1702686D01*
X1976078Y1704169D02*
Y1702699D01*
X1976015Y1704199D02*
Y1702712D01*
X1975953Y1704228D02*
Y1702725D01*
X1975890Y1704257D02*
Y1702738D01*
X1975828Y1704302D02*
Y1702751D01*
X1975765Y1704348D02*
Y1702764D01*
X1975703Y1704395D02*
Y1702777D01*
X1975640Y1704428D02*
Y1702790D01*
X1975578Y1704363D02*
Y1702803D01*
X1975515Y1704298D02*
Y1702816D01*
X1975453Y1704233D02*
Y1702829D01*
X1975390Y1704167D02*
Y1702842D01*
X1975328Y1704102D02*
Y1702855D01*
X1975265Y1704037D02*
Y1702867D01*
X1975202Y1703972D02*
Y1702880D01*
X1975140Y1703906D02*
Y1702893D01*
X1975077Y1703841D02*
Y1702906D01*
X1975015Y1703776D02*
Y1702919D01*
X1974952Y1703711D02*
Y1702932D01*
X1974890Y1703645D02*
Y1702945D01*
X1974827Y1703580D02*
Y1702958D01*
X1974765Y1703515D02*
Y1702971D01*
X1974702Y1703450D02*
Y1702984D01*
X1974640Y1703384D02*
Y1702997D01*
X1974577Y1703319D02*
Y1703010D01*
X1974515Y1703254D02*
Y1703023D01*
X1974452Y1703189D02*
Y1703036D01*
X1974390Y1703123D02*
Y1703049D01*
X1978515Y1704439D02*
X1977618Y1704627D01*
X1977541Y1704521*
X1977375Y1704362*
X1977366Y1704355*
X1977187Y1704237*
X1976980Y1704147*
X1976759Y1704092*
X1976538Y1704078*
X1976310Y1704099*
X1976299Y1704102*
X1976096Y1704161*
X1975889Y1704258*
X1975708Y1704389*
X1975654Y1704443*
X1974330Y1703061*
X1978515Y1702194*
Y1704439*
Y1700595D02*
Y1696805D01*
X1978453Y1700608D02*
Y1696792D01*
X1978390Y1700621D02*
Y1696779D01*
X1978328Y1700634D02*
Y1696766D01*
X1978265Y1700646D02*
Y1696754D01*
X1978203Y1700659D02*
Y1696741D01*
X1978140Y1700672D02*
Y1696728D01*
X1978078Y1700685D02*
Y1696715D01*
X1978015Y1700698D02*
Y1696702D01*
X1977953Y1700711D02*
Y1696689D01*
X1977890Y1700724D02*
Y1696676D01*
X1977828Y1700736D02*
Y1696663D01*
X1977765Y1700749D02*
Y1696651D01*
X1977703Y1700762D02*
Y1696638D01*
X1977640Y1700775D02*
Y1696625D01*
X1977578Y1700788D02*
Y1696612D01*
X1977515Y1700801D02*
Y1696599D01*
X1977453Y1700814D02*
Y1696586D01*
X1977390Y1700826D02*
Y1696573D01*
X1977328Y1700839D02*
Y1696560D01*
X1977265Y1700852D02*
Y1696547D01*
X1977203Y1700865D02*
Y1696535D01*
X1977140Y1700878D02*
Y1696522D01*
X1977078Y1700891D02*
Y1696509D01*
X1977015Y1700904D02*
Y1696496D01*
X1976953Y1700916D02*
Y1696483D01*
X1976890Y1700929D02*
Y1696470D01*
X1976828Y1700942D02*
Y1696457D01*
X1976765Y1700955D02*
Y1696444D01*
X1976703Y1700968D02*
Y1696432D01*
X1976640Y1700981D02*
Y1696419D01*
X1976578Y1700993D02*
Y1696406D01*
X1976515Y1701006D02*
Y1696393D01*
X1976453Y1701019D02*
Y1696380D01*
X1976390Y1701032D02*
Y1696367D01*
X1976328Y1701045D02*
Y1696354D01*
X1976265Y1701058D02*
Y1698758D01*
Y1698636D02*
Y1696341D01*
X1976203Y1701071D02*
Y1698822D01*
Y1698572D02*
Y1696328D01*
X1976140Y1701083D02*
Y1698835D01*
Y1698559D02*
Y1696316D01*
X1976078Y1701096D02*
Y1698848D01*
Y1698546D02*
Y1696303D01*
X1976015Y1701109D02*
Y1698861D01*
Y1698533D02*
Y1696290D01*
X1975953Y1701122D02*
Y1698874D01*
Y1698521D02*
Y1696277D01*
X1975890Y1701135D02*
Y1698887D01*
Y1698508D02*
Y1696264D01*
X1975828Y1701148D02*
Y1698900D01*
Y1698495D02*
Y1696251D01*
X1975765Y1701161D02*
Y1698913D01*
Y1698482D02*
Y1696238D01*
X1975703Y1701173D02*
Y1698926D01*
Y1698469D02*
Y1696225D01*
X1975640Y1701186D02*
Y1698939D01*
Y1698456D02*
Y1696213D01*
X1975578Y1701199D02*
Y1698952D01*
Y1698443D02*
Y1696200D01*
X1975515Y1701212D02*
Y1698965D01*
Y1698430D02*
Y1696187D01*
X1975453Y1701225D02*
Y1698978D01*
Y1698418D02*
Y1696174D01*
X1975390Y1701238D02*
Y1698991D01*
Y1698405D02*
Y1696161D01*
X1975328Y1701250D02*
Y1699003D01*
Y1698392D02*
Y1696148D01*
X1975265Y1701263D02*
Y1699016D01*
Y1698379D02*
Y1696135D01*
X1975202Y1701276D02*
Y1699029D01*
Y1698366D02*
Y1696122D01*
X1975140Y1701289D02*
Y1699042D01*
Y1698353D02*
Y1696110D01*
X1975077Y1701302D02*
Y1699055D01*
Y1698340D02*
Y1696097D01*
X1975015Y1701315D02*
Y1699068D01*
Y1698328D02*
Y1696084D01*
X1974952Y1701328D02*
Y1699081D01*
Y1698315D02*
Y1696071D01*
X1974890Y1701340D02*
Y1699094D01*
Y1698302D02*
Y1696058D01*
X1974827Y1701353D02*
Y1699107D01*
Y1698289D02*
Y1696045D01*
X1974765Y1701366D02*
Y1699120D01*
Y1698276D02*
Y1696032D01*
X1974702Y1701379D02*
Y1699133D01*
Y1698263D02*
Y1696019D01*
X1974640Y1701392D02*
Y1699146D01*
Y1698250D02*
Y1696006D01*
X1974577Y1701405D02*
Y1699159D01*
Y1698238D02*
Y1695994D01*
X1974515Y1701418D02*
Y1699172D01*
Y1698225D02*
Y1695981D01*
X1974452Y1701430D02*
Y1699185D01*
Y1698212D02*
Y1695968D01*
X1974390Y1701443D02*
Y1699198D01*
Y1698199D02*
Y1695955D01*
X1974327Y1701456D02*
Y1699211D01*
Y1698186D02*
Y1695942D01*
X1974265Y1701469D02*
Y1699224D01*
Y1698173D02*
Y1695929D01*
X1974202Y1701482D02*
Y1699237D01*
Y1698160D02*
Y1695916D01*
X1974140Y1701495D02*
Y1699250D01*
Y1698148D02*
Y1695903D01*
X1974077Y1701508D02*
Y1699263D01*
Y1698135D02*
Y1695891D01*
X1974015Y1701520D02*
Y1699276D01*
Y1698122D02*
Y1695878D01*
X1973952Y1701533D02*
Y1699289D01*
Y1698109D02*
Y1695865D01*
X1973890Y1701546D02*
Y1699301D01*
Y1698096D02*
Y1695852D01*
X1973827Y1701559D02*
Y1699314D01*
Y1698083D02*
Y1695839D01*
X1973765Y1701572D02*
Y1699327D01*
Y1698070D02*
Y1695826D01*
X1973702Y1701585D02*
Y1699340D01*
Y1698057D02*
Y1695813D01*
X1973640Y1701597D02*
Y1699353D01*
Y1698045D02*
Y1695800D01*
X1973577Y1701610D02*
Y1699366D01*
Y1698032D02*
Y1695787D01*
X1973515Y1701623D02*
Y1699379D01*
Y1698019D02*
Y1695775D01*
X1973452Y1701636D02*
Y1699392D01*
Y1698006D02*
Y1695762D01*
X1973390Y1701649D02*
Y1699405D01*
Y1697993D02*
Y1695749D01*
X1973327Y1701662D02*
Y1699418D01*
Y1697980D02*
Y1695736D01*
X1973265Y1701675D02*
Y1699431D01*
Y1697967D02*
Y1695723D01*
X1973202Y1701687D02*
Y1699444D01*
Y1697955D02*
Y1695710D01*
X1973140Y1701700D02*
Y1699457D01*
Y1697942D02*
Y1695697D01*
X1973077Y1701657D02*
Y1699470D01*
Y1697929D02*
Y1695684D01*
X1973015Y1701589D02*
Y1699483D01*
Y1697916D02*
Y1695672D01*
X1972952Y1701521D02*
Y1699496D01*
Y1697903D02*
Y1695659D01*
X1972890Y1701454D02*
Y1699509D01*
Y1697890D02*
Y1695646D01*
X1972827Y1701386D02*
Y1699522D01*
Y1697877D02*
Y1695633D01*
X1972765Y1701318D02*
Y1699535D01*
Y1697865D02*
Y1695620D01*
X1972702Y1701251D02*
Y1699548D01*
Y1697852D02*
Y1695607D01*
X1972640Y1701183D02*
Y1699561D01*
Y1697839D02*
Y1695594D01*
X1972577Y1701115D02*
Y1699574D01*
Y1697826D02*
Y1695581D01*
X1972515Y1701048D02*
Y1699587D01*
Y1697813D02*
Y1695568D01*
X1972452Y1700980D02*
Y1699600D01*
Y1697800D02*
Y1695556D01*
X1972390Y1700912D02*
Y1699612D01*
Y1697787D02*
Y1695543D01*
X1972327Y1700845D02*
Y1699625D01*
Y1697775D02*
Y1695530D01*
X1972265Y1700777D02*
Y1699638D01*
Y1697762D02*
Y1695517D01*
X1978515Y1700595D02*
X1973121Y1701704D01*
X1972215Y1700723*
Y1699649*
X1976215Y1698819*
X1976315Y1698697*
X1976215Y1698575*
X1972215Y1697751*
Y1695507*
X1978515Y1696805*
Y1700595*
X1972429Y1701844D02*
Y1701777D01*
X1972367Y1701857D02*
Y1701723D01*
X1972304Y1701870D02*
Y1701668D01*
X1972242Y1701882D02*
Y1701614D01*
X1972492Y1701831D02*
X1972215Y1701888D01*
Y1701590*
X1972492Y1701831*
X1978515Y1694716D02*
Y1690109D01*
X1978453Y1694716D02*
Y1690109D01*
X1978390Y1694716D02*
Y1690109D01*
X1978328Y1694716D02*
Y1690109D01*
X1978265Y1694716D02*
Y1690109D01*
X1978203Y1694716D02*
Y1690109D01*
X1978140Y1694716D02*
Y1690109D01*
X1978078Y1694716D02*
Y1690109D01*
X1978015Y1694716D02*
Y1690109D01*
X1977953Y1694716D02*
Y1690109D01*
X1977890Y1694716D02*
Y1690109D01*
X1977828Y1694716D02*
Y1690109D01*
X1977765Y1694716D02*
Y1690109D01*
X1977703Y1694716D02*
Y1690109D01*
X1977640Y1694716D02*
Y1690109D01*
X1977578Y1694716D02*
Y1690109D01*
X1977515Y1694716D02*
Y1692440D01*
X1977453Y1694716D02*
Y1692466D01*
X1977390Y1694716D02*
Y1692466D01*
X1977328Y1694716D02*
Y1692466D01*
X1977265Y1694716D02*
Y1692466D01*
X1977203Y1694716D02*
Y1692466D01*
X1977140Y1694716D02*
Y1692466D01*
X1977078Y1694716D02*
Y1692466D01*
X1977015Y1694716D02*
Y1692466D01*
X1976953Y1694716D02*
Y1692466D01*
X1976890Y1694716D02*
Y1692466D01*
X1976828Y1694716D02*
Y1692466D01*
X1976765Y1694716D02*
Y1692466D01*
X1976703Y1694716D02*
Y1692466D01*
X1976640Y1694716D02*
Y1692466D01*
X1976578Y1694716D02*
Y1692466D01*
X1976515Y1694716D02*
Y1692466D01*
X1976453Y1694716D02*
Y1692466D01*
X1976390Y1694716D02*
Y1692466D01*
X1976328Y1694716D02*
Y1692466D01*
X1976265Y1694716D02*
Y1692466D01*
X1976203Y1694716D02*
Y1692466D01*
X1976140Y1694716D02*
Y1692466D01*
X1976078Y1694716D02*
Y1692466D01*
X1976015Y1694716D02*
Y1692466D01*
X1975953Y1694716D02*
Y1692463D01*
X1975890Y1694716D02*
Y1692437D01*
X1975828Y1694716D02*
Y1690109D01*
X1975765Y1694716D02*
Y1690109D01*
X1975703Y1694716D02*
Y1690109D01*
X1975640Y1694716D02*
Y1690109D01*
X1975578Y1694716D02*
Y1690109D01*
X1975515Y1694716D02*
Y1690109D01*
X1975453Y1694716D02*
Y1690109D01*
X1975390Y1694716D02*
Y1690109D01*
X1975328Y1694716D02*
Y1690109D01*
X1975265Y1694716D02*
Y1690109D01*
X1975202Y1694716D02*
Y1690109D01*
X1975140Y1694716D02*
Y1690109D01*
X1975077Y1694716D02*
Y1690109D01*
X1975015Y1694716D02*
Y1690109D01*
X1974952Y1694716D02*
Y1690109D01*
X1974890Y1694716D02*
Y1692356D01*
X1974827Y1694716D02*
Y1692442D01*
X1974765Y1694716D02*
Y1692466D01*
X1974702Y1694716D02*
Y1692466D01*
X1974640Y1694716D02*
Y1692466D01*
X1974577Y1694716D02*
Y1692466D01*
X1974515Y1694716D02*
Y1692466D01*
X1974452Y1694716D02*
Y1692466D01*
X1974390Y1694716D02*
Y1692466D01*
X1974327Y1694716D02*
Y1692466D01*
X1974265Y1694716D02*
Y1692466D01*
X1974202Y1694716D02*
Y1692466D01*
X1974140Y1694716D02*
Y1692466D01*
X1974077Y1694716D02*
Y1692466D01*
X1974015Y1694716D02*
Y1692466D01*
X1973952Y1694716D02*
Y1692466D01*
X1973890Y1694716D02*
Y1692466D01*
X1973827Y1694716D02*
Y1692466D01*
X1973765Y1694716D02*
Y1692466D01*
X1973702Y1694716D02*
Y1692466D01*
X1973640Y1694716D02*
Y1692466D01*
X1973577Y1694716D02*
Y1692466D01*
X1973515Y1694716D02*
Y1692466D01*
X1973452Y1694716D02*
Y1692466D01*
X1973390Y1694716D02*
Y1692466D01*
X1973327Y1694716D02*
Y1692466D01*
X1973265Y1694716D02*
Y1692461D01*
X1973202Y1694716D02*
Y1692435D01*
X1973140Y1694716D02*
Y1690109D01*
X1973077Y1694716D02*
Y1690109D01*
X1973015Y1694716D02*
Y1690109D01*
X1972952Y1694716D02*
Y1690109D01*
X1972890Y1694716D02*
Y1690109D01*
X1972827Y1694716D02*
Y1690109D01*
X1972765Y1694716D02*
Y1690109D01*
X1972702Y1694716D02*
Y1690109D01*
X1972640Y1694716D02*
Y1690109D01*
X1972577Y1694716D02*
Y1690109D01*
X1972515Y1694716D02*
Y1690109D01*
X1972452Y1694716D02*
Y1690109D01*
X1972390Y1694716D02*
Y1690109D01*
X1972327Y1694716D02*
Y1690109D01*
X1972265Y1694716D02*
Y1690109D01*
X1978515Y1694716D02*
X1972215D01*
Y1690109*
X1973152*
Y1692341*
X1973189Y1692429*
X1973277Y1692466*
X1974771*
X1974860Y1692429*
X1974896Y1692341*
Y1690109*
X1975834*
Y1692341*
X1975870Y1692429*
X1975959Y1692466*
X1977453*
X1977541Y1692429*
X1977578Y1692341*
Y1690109*
X1978515*
Y1694716*
Y1689347D02*
Y1687097D01*
Y1685521D02*
Y1683222D01*
X1978453Y1689347D02*
Y1687097D01*
Y1685553D02*
Y1683222D01*
X1978390Y1689347D02*
Y1687097D01*
Y1685585D02*
Y1683222D01*
X1978328Y1689347D02*
Y1687097D01*
Y1685617D02*
Y1683222D01*
X1978265Y1689347D02*
Y1687097D01*
Y1685649D02*
Y1683222D01*
X1978203Y1689347D02*
Y1687097D01*
Y1685681D02*
Y1683222D01*
X1978140Y1689347D02*
Y1687097D01*
Y1685713D02*
Y1683222D01*
X1978078Y1689347D02*
Y1687097D01*
Y1685745D02*
Y1683222D01*
X1978015Y1689347D02*
Y1687097D01*
Y1685777D02*
Y1683222D01*
X1977953Y1689347D02*
Y1687097D01*
Y1685809D02*
Y1683222D01*
X1977890Y1689347D02*
Y1687097D01*
Y1685841D02*
Y1683222D01*
X1977828Y1689347D02*
Y1687097D01*
Y1685873D02*
Y1683222D01*
X1977765Y1689347D02*
Y1687097D01*
Y1685905D02*
Y1683222D01*
X1977703Y1689347D02*
Y1687097D01*
Y1685937D02*
Y1683222D01*
X1977640Y1689347D02*
Y1687097D01*
Y1685969D02*
Y1683222D01*
X1977578Y1689347D02*
Y1687097D01*
Y1686001D02*
Y1683222D01*
X1977515Y1689347D02*
Y1687097D01*
Y1686033D02*
Y1683222D01*
X1977453Y1689347D02*
Y1687097D01*
Y1686065D02*
Y1683222D01*
X1977390Y1689347D02*
Y1687097D01*
Y1686098D02*
Y1683222D01*
X1977328Y1689347D02*
Y1687097D01*
Y1686130D02*
Y1683222D01*
X1977265Y1689347D02*
Y1687097D01*
Y1686162D02*
Y1683222D01*
X1977203Y1689347D02*
Y1687097D01*
Y1686194D02*
Y1683222D01*
X1977140Y1689347D02*
Y1687097D01*
Y1686226D02*
Y1683222D01*
X1977078Y1689347D02*
Y1687097D01*
Y1686258D02*
Y1683222D01*
X1977015Y1689347D02*
Y1687097D01*
Y1686290D02*
Y1683222D01*
X1976953Y1689347D02*
Y1687097D01*
Y1686322D02*
Y1683222D01*
X1976890Y1689347D02*
Y1687097D01*
Y1686354D02*
Y1683222D01*
X1976828Y1689347D02*
Y1687097D01*
Y1686386D02*
Y1683222D01*
X1976765Y1689347D02*
Y1687097D01*
Y1686418D02*
Y1683222D01*
X1976703Y1689347D02*
Y1687097D01*
Y1686450D02*
Y1683222D01*
X1976640Y1689347D02*
Y1687097D01*
Y1686482D02*
Y1683222D01*
X1976578Y1689347D02*
Y1687097D01*
Y1686514D02*
Y1683222D01*
X1976515Y1689347D02*
Y1687097D01*
Y1686546D02*
Y1683222D01*
X1976453Y1689347D02*
Y1687097D01*
Y1686578D02*
Y1683222D01*
X1976390Y1689347D02*
Y1687097D01*
Y1686610D02*
Y1683222D01*
X1976328Y1689347D02*
Y1687097D01*
Y1686642D02*
Y1683222D01*
X1976265Y1689347D02*
Y1687097D01*
Y1686674D02*
Y1683222D01*
X1976203Y1689347D02*
Y1687097D01*
Y1686707D02*
Y1683222D01*
X1976140Y1689347D02*
Y1687097D01*
Y1686739D02*
Y1683222D01*
X1976078Y1689347D02*
Y1687097D01*
Y1686771D02*
Y1683222D01*
X1976015Y1689347D02*
Y1687097D01*
Y1686803D02*
Y1683222D01*
X1975953Y1689347D02*
Y1687092D01*
Y1686835D02*
Y1683222D01*
X1975890Y1689347D02*
Y1687043D01*
Y1686886D02*
Y1683222D01*
X1975828Y1689347D02*
Y1683222D01*
X1975765Y1689347D02*
Y1683222D01*
X1975703Y1689347D02*
Y1683222D01*
X1975640Y1689347D02*
Y1683222D01*
X1975578Y1689347D02*
Y1683222D01*
X1975515Y1689347D02*
Y1683222D01*
X1975453Y1689347D02*
Y1683222D01*
X1975390Y1689347D02*
Y1683222D01*
X1975328Y1689347D02*
Y1683222D01*
X1975265Y1689347D02*
Y1683222D01*
X1975202Y1689347D02*
Y1683222D01*
X1975140Y1689347D02*
Y1683222D01*
X1975077Y1689347D02*
Y1683222D01*
X1975015Y1689347D02*
Y1683222D01*
X1974952Y1689347D02*
Y1683222D01*
X1974890Y1689347D02*
Y1685574D01*
Y1685565D02*
Y1683222D01*
X1974827Y1689347D02*
Y1685709D01*
Y1685516D02*
Y1683222D01*
X1974765Y1689347D02*
Y1685741D01*
Y1685472D02*
Y1683222D01*
X1974702Y1689347D02*
Y1685773D01*
Y1685472D02*
Y1683222D01*
X1974640Y1689347D02*
Y1685805D01*
Y1685472D02*
Y1683222D01*
X1974577Y1689347D02*
Y1685837D01*
Y1685472D02*
Y1683222D01*
X1974515Y1689347D02*
Y1685869D01*
Y1685472D02*
Y1683222D01*
X1974452Y1689347D02*
Y1685901D01*
Y1685472D02*
Y1683222D01*
X1974390Y1689347D02*
Y1685933D01*
Y1685472D02*
Y1683222D01*
X1974327Y1689347D02*
Y1685965D01*
Y1685472D02*
Y1683222D01*
X1974265Y1689347D02*
Y1685997D01*
Y1685472D02*
Y1683222D01*
X1974202Y1689347D02*
Y1686029D01*
Y1685472D02*
Y1683222D01*
X1974140Y1689347D02*
Y1686061D01*
Y1685472D02*
Y1683222D01*
X1974077Y1689347D02*
Y1686093D01*
Y1685472D02*
Y1683222D01*
X1974015Y1689347D02*
Y1686125D01*
Y1685472D02*
Y1683222D01*
X1973952Y1689347D02*
Y1686157D01*
Y1685472D02*
Y1683222D01*
X1973890Y1689347D02*
Y1686189D01*
Y1685472D02*
Y1683222D01*
X1973827Y1689347D02*
Y1686221D01*
Y1685472D02*
Y1683222D01*
X1973765Y1689347D02*
Y1686254D01*
Y1685472D02*
Y1683222D01*
X1973702Y1689347D02*
Y1686286D01*
Y1685472D02*
Y1683222D01*
X1973640Y1689347D02*
Y1686318D01*
Y1685472D02*
Y1683222D01*
X1973577Y1689347D02*
Y1686350D01*
Y1685472D02*
Y1683222D01*
X1973515Y1689347D02*
Y1686382D01*
Y1685472D02*
Y1683222D01*
X1973452Y1689347D02*
Y1686414D01*
Y1685472D02*
Y1683222D01*
X1973390Y1689347D02*
Y1686446D01*
Y1685472D02*
Y1683222D01*
X1973327Y1689347D02*
Y1686478D01*
Y1685472D02*
Y1683222D01*
X1973265Y1689347D02*
Y1686510D01*
Y1685472D02*
Y1683222D01*
X1973202Y1689347D02*
Y1686542D01*
Y1685472D02*
Y1683222D01*
X1973140Y1689347D02*
Y1686574D01*
Y1685472D02*
Y1683222D01*
X1973077Y1689347D02*
Y1686606D01*
Y1685472D02*
Y1683222D01*
X1973015Y1689347D02*
Y1686638D01*
Y1685472D02*
Y1683222D01*
X1972952Y1689347D02*
Y1686670D01*
Y1685472D02*
Y1683222D01*
X1972890Y1689347D02*
Y1686702D01*
Y1685472D02*
Y1683222D01*
X1972827Y1689347D02*
Y1686734D01*
Y1685472D02*
Y1683222D01*
X1972765Y1689347D02*
Y1686766D01*
Y1685472D02*
Y1683222D01*
X1972702Y1689347D02*
Y1686798D01*
Y1685472D02*
Y1683222D01*
X1972640Y1689347D02*
Y1686830D01*
Y1685472D02*
Y1683222D01*
X1972577Y1689347D02*
Y1686862D01*
Y1685472D02*
Y1683222D01*
X1972515Y1689347D02*
Y1686895D01*
Y1685472D02*
Y1683222D01*
X1972452Y1689347D02*
Y1686927D01*
Y1685472D02*
Y1683222D01*
X1972390Y1689347D02*
Y1686959D01*
Y1685472D02*
Y1683222D01*
X1972327Y1689347D02*
Y1686991D01*
Y1685472D02*
Y1683222D01*
X1972265Y1689347D02*
Y1687023D01*
Y1685472D02*
Y1683222D01*
X1978515Y1689347D02*
X1972215D01*
Y1687048*
X1974828Y1685708*
X1974893Y1685568*
X1974771Y1685472*
X1972215*
Y1683222*
X1978515*
Y1685521*
X1975902Y1686861*
X1975837Y1687001*
X1975959Y1687097*
X1978515*
Y1689347*
X1972652Y1701884D02*
X1972152Y1701447D01*
Y1701947*
X1972527Y1701884*
X1973527Y1717009D02*
X1973340Y1716697D01*
X1973652Y1716822*
X1972152Y1716509D02*
Y1716259D01*
X1972465Y1716384*
X1973840Y1719259D02*
X1974090Y1719384D01*
X1973902Y1719134*
X1975653Y1722572D02*
X1975840D01*
X1975715Y1722384*
X1977153Y1723697D02*
X1976965Y1723384D01*
X1977215Y1723447*
X1978278Y1725634D02*
X1978528Y1726072D01*
X1978465Y1725572*
X1982065Y1704203D02*
Y1704057D01*
X1982052Y1703868*
Y1703863*
X1982051Y1703858*
X1982006Y1703666*
X1982004Y1703662*
X1981936Y1703487*
X1981934Y1703484*
X1981933Y1703481*
X1981852Y1703324*
X1981849Y1703320*
X1981846Y1703315*
X1981746Y1703184*
X1981743Y1703180*
X1981739Y1703176*
X1981633Y1703076*
X1981628Y1703072*
X1981622Y1703068*
X1981515Y1703006*
X1981511Y1703003*
X1981506Y1703001*
X1981456Y1702982*
X1981448Y1702979*
X1981441*
X1981375Y1702971*
X1981366Y1702973*
X1981266Y1702992*
X1981258Y1702993*
X1981251Y1702997*
X1981145Y1703047*
X1981138Y1703050*
X1981132Y1703055*
X1981032Y1703136*
X1981029Y1703139*
X1981026Y1703142*
X1980932Y1703242*
X1980929Y1703245*
X1980926Y1703249*
X1980845Y1703368*
X1980842Y1703371*
X1980775Y1703506*
X1980736Y1703649*
X1980735Y1703653*
X1980734Y1703657*
X1980716Y1703788*
X1980715Y1703795*
Y1703801*
X1980728Y1703976*
Y1703977*
Y1703979*
X1980753Y1704210*
X1980815Y1704266*
X1982003*
X1982065Y1704203*
X1983403Y1704840D02*
X1983376Y1704792D01*
X1983373Y1704787*
X1983370Y1704783*
X1983320Y1704720*
X1983296Y1704702*
X1983252Y1704683*
X1983248Y1704682*
X1983244Y1704680*
X1983175Y1704662*
X1983171Y1704661*
X1983168Y1704660*
X1983076Y1704647*
X1980997*
X1980991Y1704648*
X1980891Y1704667*
X1980888*
X1980886Y1704668*
X1980807Y1704690*
X1980797Y1704696*
X1980754Y1704727*
X1980745Y1704734*
X1980739Y1704742*
X1980690Y1704812*
X1980688Y1704819*
X1980684Y1704830*
Y1703923*
X1980696Y1703653*
X1980733Y1703390*
X1980763Y1703264*
X1980799Y1703149*
X1980841Y1703040*
X1980889Y1702932*
X1980943Y1702843*
X1981003Y1702753*
X1981061Y1702683*
X1981126Y1702618*
X1981188Y1702568*
X1981247Y1702535*
X1981307Y1702514*
X1981351Y1702505*
X1981432Y1702525*
X1981533Y1702570*
X1981635Y1702650*
X1981736Y1702756*
X1981832Y1702882*
X1981915Y1703018*
X1981974Y1703172*
X1982017Y1703338*
X1982119Y1703368*
X1982938Y1702631*
X1982939Y1702630*
X1983042Y1702527*
X1983137Y1702420*
X1983139Y1702417*
X1983141Y1702415*
X1983222Y1702302*
X1983224Y1702300*
X1983225Y1702297*
X1983294Y1702178*
X1983295Y1702176*
X1983296Y1702174*
X1983353Y1702055*
X1983354Y1702052*
X1983355Y1702050*
X1983399Y1701931*
X1983400Y1701928*
Y1701925*
X1983403Y1701918*
Y1702601*
X1982092Y1703788*
X1982071Y1703836*
X1982077Y1704053*
X1982071Y1704201*
X1982134Y1704266*
X1983088*
X1983092Y1704265*
X1983186Y1704253*
X1983192Y1704252*
X1983281Y1704222*
X1983333Y1704185*
X1983342Y1704179*
X1983348Y1704169*
X1983389Y1704109*
X1983403Y1704078*
Y1704840*
X1980715Y1703793D02*
Y1703517D01*
Y1704776D02*
Y1703799D01*
X1980778Y1703501D02*
Y1703217D01*
Y1704710D02*
Y1704232D01*
X1980840Y1703376D02*
Y1703044D01*
Y1704681D02*
Y1704266D01*
X1980903Y1703283D02*
Y1702910D01*
Y1704665D02*
Y1704266D01*
X1980965Y1703206D02*
Y1702810D01*
Y1704653D02*
Y1704266D01*
X1981028Y1703140D02*
Y1702723D01*
Y1704647D02*
Y1704266D01*
X1981090Y1703089D02*
Y1702654D01*
Y1704647D02*
Y1704266D01*
X1981153Y1703043D02*
Y1702596D01*
Y1704647D02*
Y1704266D01*
X1981215Y1703014D02*
Y1702553D01*
Y1704647D02*
Y1704266D01*
X1981278Y1702990D02*
Y1702524D01*
Y1704647D02*
Y1704266D01*
X1981340Y1702978D02*
Y1702507D01*
Y1704647D02*
Y1704266D01*
X1981403Y1702974D02*
Y1702518D01*
Y1704647D02*
Y1704266D01*
X1981465Y1702986D02*
Y1702540D01*
Y1704647D02*
Y1704266D01*
X1981528Y1703013D02*
Y1702567D01*
Y1704647D02*
Y1704266D01*
X1981590Y1703049D02*
Y1702614D01*
Y1704647D02*
Y1704266D01*
X1981653Y1703095D02*
Y1702668D01*
Y1704647D02*
Y1704266D01*
X1981715Y1703154D02*
Y1702734D01*
Y1704647D02*
Y1704266D01*
X1981778Y1703226D02*
Y1702811D01*
Y1704647D02*
Y1704266D01*
X1981840Y1703308D02*
Y1702895D01*
Y1704647D02*
Y1704266D01*
X1981903Y1703422D02*
Y1702998D01*
Y1704647D02*
Y1704266D01*
X1981965Y1703561D02*
Y1703149D01*
Y1704647D02*
Y1704266D01*
X1982028Y1703758D02*
Y1703341D01*
Y1704647D02*
Y1704241D01*
X1982090Y1703792D02*
Y1703360D01*
Y1704647D02*
Y1704220D01*
X1982153Y1703733D02*
Y1703339D01*
Y1704647D02*
Y1704266D01*
X1982215Y1703677D02*
Y1703282D01*
Y1704647D02*
Y1704266D01*
X1982278Y1703620D02*
Y1703226D01*
Y1704647D02*
Y1704266D01*
X1982340Y1703563D02*
Y1703170D01*
Y1704647D02*
Y1704266D01*
X1982403Y1703507D02*
Y1703113D01*
Y1704647D02*
Y1704266D01*
X1982465Y1703450D02*
Y1703057D01*
Y1704647D02*
Y1704266D01*
X1982528Y1703393D02*
Y1703001D01*
Y1704647D02*
Y1704266D01*
X1982590Y1703337D02*
Y1702944D01*
Y1704647D02*
Y1704266D01*
X1982653Y1703280D02*
Y1702888D01*
Y1704647D02*
Y1704266D01*
X1982715Y1703223D02*
Y1702832D01*
Y1704647D02*
Y1704266D01*
X1982778Y1703167D02*
Y1702776D01*
Y1704647D02*
Y1704266D01*
X1982840Y1703110D02*
Y1702719D01*
Y1704647D02*
Y1704266D01*
X1982903Y1703054D02*
Y1702663D01*
Y1704647D02*
Y1704266D01*
X1982965Y1702997D02*
Y1702604D01*
Y1704647D02*
Y1704266D01*
X1983028Y1702940D02*
Y1702542D01*
Y1704647D02*
Y1704266D01*
X1983090Y1702884D02*
Y1702473D01*
Y1704649D02*
Y1704265D01*
X1983153Y1702827D02*
Y1702398D01*
Y1704658D02*
Y1704257D01*
X1983215Y1702770D02*
Y1702312D01*
Y1704673D02*
Y1704244D01*
X1983278Y1702714D02*
Y1702207D01*
Y1704694D02*
Y1704223D01*
X1983340Y1702657D02*
Y1702082D01*
Y1704745D02*
Y1704180D01*
X1983403Y1702601D02*
Y1701918D01*
Y1704840D02*
Y1704078D01*
Y1685558D02*
X1983385Y1685517D01*
X1983381Y1685507*
X1983374Y1685499*
X1983324Y1685443*
X1983317Y1685435*
X1983265Y1685405*
X1983259Y1685402*
X1983252Y1685400*
X1983189Y1685381*
X1983183Y1685379*
X1983176Y1685378*
X1983088Y1685372*
X1983088*
X1983087*
X1982973Y1685366*
X1982296*
X1982257Y1685380*
X1981069Y1686355*
X1981068*
Y1686356*
X1980924Y1686481*
X1980922Y1686483*
X1980813Y1686598*
X1980810Y1686601*
X1980807Y1686605*
X1980726Y1686724*
X1980723Y1686729*
X1980684Y1686815*
Y1685809*
X1980694Y1685837*
X1980696Y1685845*
X1980769Y1685947*
X1980807Y1685977*
X1980836Y1685990*
X1980883Y1685998*
X1980936Y1685990*
X1980946Y1685989*
X1980955Y1685984*
X1981021Y1685951*
X1981100Y1685899*
X1981102Y1685898*
X1981104Y1685896*
X1981191Y1685827*
X1981192*
X1981192*
X1982111Y1685083*
X1982110Y1684986*
X1981235Y1684286*
X1981234Y1684285*
X1981233Y1684284*
X1981139Y1684215*
X1981137Y1684214*
X1981135Y1684213*
X1981054Y1684163*
X1981049Y1684159*
X1981043Y1684157*
X1980974Y1684132*
X1980971Y1684131*
X1980968Y1684130*
X1980918Y1684118*
X1980890Y1684117*
X1980859Y1684123*
X1980851Y1684125*
X1980843Y1684129*
X1980797Y1684152*
X1980748Y1684200*
X1980714Y1684248*
X1980710Y1684253*
X1980708Y1684259*
X1980684Y1684313*
Y1683531*
X1980721Y1683611*
X1980722Y1683613*
X1980723Y1683615*
X1980779Y1683715*
X1980780Y1683717*
X1980781Y1683718*
X1980850Y1683825*
X1980852Y1683828*
X1980854Y1683830*
X1980935Y1683930*
X1980937Y1683933*
X1981036Y1684031*
X1981038Y1684033*
X1981138Y1684114*
X1981139Y1684115*
X1982220Y1684977*
X1982259Y1684991*
X1982973*
X1983093Y1684984*
X1983096*
X1983098*
X1983192Y1684971*
X1983199*
X1983205Y1684968*
X1983274Y1684943*
X1983280Y1684941*
X1983286Y1684937*
X1983336Y1684906*
X1983355Y1684888*
X1983392Y1684832*
X1983397Y1684825*
X1983399Y1684817*
X1983403Y1684807*
Y1685558*
X1980715Y1684247D02*
Y1683598D01*
Y1686746D02*
Y1685871D01*
X1980778Y1684171D02*
Y1683712D01*
Y1686649D02*
Y1685953D01*
X1980840Y1684130D02*
Y1683809D01*
Y1686570D02*
Y1685991D01*
X1980903Y1684117D02*
Y1683890D01*
Y1686503D02*
Y1685995D01*
X1980965Y1684129D02*
Y1683960D01*
Y1686445D02*
Y1685979D01*
X1981028Y1684152D02*
Y1684023D01*
Y1686391D02*
Y1685947D01*
X1981090Y1684185D02*
Y1684075D01*
Y1686338D02*
Y1685905D01*
X1981153Y1684225D02*
Y1684126D01*
Y1686286D02*
Y1685858D01*
X1981215Y1684271D02*
Y1684176D01*
Y1686235D02*
Y1685808D01*
X1981278Y1684319D02*
Y1684225D01*
Y1686184D02*
Y1685757D01*
X1981340Y1684369D02*
Y1684275D01*
Y1686133D02*
Y1685707D01*
X1981403Y1684419D02*
Y1684325D01*
Y1686081D02*
Y1685656D01*
X1981465Y1684469D02*
Y1684375D01*
Y1686030D02*
Y1685606D01*
X1981528Y1684519D02*
Y1684425D01*
Y1685979D02*
Y1685555D01*
X1981590Y1684569D02*
Y1684475D01*
Y1685927D02*
Y1685504D01*
X1981653Y1684619D02*
Y1684525D01*
Y1685876D02*
Y1685454D01*
X1981715Y1684669D02*
Y1684574D01*
Y1685825D02*
Y1685403D01*
X1981778Y1684719D02*
Y1684624D01*
Y1685773D02*
Y1685353D01*
X1981840Y1684769D02*
Y1684674D01*
Y1685722D02*
Y1685302D01*
X1981903Y1684819D02*
Y1684724D01*
Y1685671D02*
Y1685252D01*
X1981965Y1684869D02*
Y1684774D01*
Y1685619D02*
Y1685201D01*
X1982028Y1684919D02*
Y1684824D01*
Y1685568D02*
Y1685150D01*
X1982090Y1684969D02*
Y1684874D01*
Y1685517D02*
Y1685100D01*
X1982153Y1685465D02*
Y1684923D01*
X1982215Y1685414D02*
Y1684973D01*
X1982278Y1685372D02*
Y1684991D01*
X1982340Y1685366D02*
Y1684991D01*
X1982403Y1685366D02*
Y1684991D01*
X1982465Y1685366D02*
Y1684991D01*
X1982528Y1685366D02*
Y1684991D01*
X1982590Y1685366D02*
Y1684991D01*
X1982653Y1685366D02*
Y1684991D01*
X1982715Y1685366D02*
Y1684991D01*
X1982778Y1685366D02*
Y1684991D01*
X1982840Y1685366D02*
Y1684991D01*
X1982903Y1685366D02*
Y1684991D01*
X1982965Y1685366D02*
Y1684991D01*
X1983028Y1685369D02*
Y1684988D01*
X1983090Y1685372D02*
Y1684985D01*
X1983153Y1685377D02*
Y1684977D01*
X1983215Y1685389D02*
Y1684965D01*
X1983278Y1685413D02*
Y1684942D01*
X1983340Y1685461D02*
Y1684902D01*
X1983403Y1685558D02*
Y1684807D01*
X1982065Y1689578D02*
Y1689426D01*
X1982052Y1689237*
Y1689231*
X1982051Y1689226*
X1982007Y1689045*
X1982006Y1689041*
X1982004Y1689037*
X1981936Y1688862*
X1981934Y1688859*
X1981933Y1688856*
X1981852Y1688699*
X1981849Y1688695*
X1981846Y1688690*
X1981746Y1688559*
X1981743Y1688556*
X1981629Y1688441*
X1981515Y1688374*
X1981511Y1688372*
X1981506Y1688370*
X1981456Y1688351*
X1981448Y1688348*
X1981441Y1688347*
X1981375Y1688340*
X1981366Y1688342*
X1981266Y1688361*
X1981257Y1688362*
X1981248Y1688367*
X1981142Y1688423*
X1981138Y1688425*
X1981034Y1688503*
X1981029Y1688507*
X1981024Y1688512*
X1980931Y1688618*
X1980929Y1688620*
X1980927Y1688623*
X1980846Y1688735*
X1980842Y1688740*
X1980840Y1688745*
X1980777Y1688876*
X1980775Y1688881*
X1980774Y1688886*
X1980736Y1689017*
X1980735Y1689021*
X1980734Y1689026*
X1980716Y1689157*
X1980715Y1689163*
Y1689170*
X1980728Y1689352*
X1980753Y1689585*
X1980815Y1689641*
X1982003*
X1982065Y1689578*
X1983403Y1690213D02*
X1983377Y1690163D01*
X1983373Y1690155*
X1983368Y1690149*
X1983318Y1690093*
X1983311Y1690085*
X1983259Y1690055*
X1983252Y1690051*
X1983244Y1690049*
X1983175Y1690030*
X1983169Y1690029*
X1983163Y1690028*
X1983076Y1690022*
X1983075*
X1983075*
X1982960Y1690016*
X1981120*
X1980999Y1690022*
X1980997*
X1980995*
X1980895Y1690035*
X1980888Y1690036*
X1980881Y1690038*
X1980812Y1690063*
X1980804Y1690066*
X1980797Y1690071*
X1980754Y1690102*
X1980746Y1690108*
X1980741Y1690115*
X1980697Y1690171*
X1980691Y1690179*
X1980688Y1690188*
X1980684Y1690198*
Y1689298*
X1980696Y1689021*
X1980733Y1688759*
X1980763Y1688639*
X1980799Y1688517*
X1980841Y1688409*
X1980889Y1688307*
X1980943Y1688212*
X1981003Y1688128*
X1981062Y1688051*
X1981124Y1687988*
X1981188Y1687942*
X1981249Y1687903*
X1981304Y1687883*
X1981350Y1687879*
X1981432Y1687894*
X1981533Y1687944*
X1981636Y1688019*
X1981736Y1688125*
X1981832Y1688251*
X1981915Y1688393*
X1981974Y1688542*
X1982017Y1688706*
X1982119Y1688737*
X1982938Y1688000*
X1982939Y1687999*
X1982939*
X1983039Y1687905*
X1983042Y1687902*
X1983044Y1687900*
X1983138Y1687787*
X1983139Y1687785*
X1983141Y1687784*
X1983222Y1687671*
X1983224Y1687669*
X1983225Y1687666*
X1983294Y1687547*
X1983295Y1687545*
X1983296Y1687543*
X1983353Y1687424*
X1983354Y1687421*
X1983355Y1687419*
X1983399Y1687300*
X1983400Y1687297*
Y1687295*
X1983403Y1687287*
Y1687975*
X1982092Y1689157*
X1982071Y1689205*
X1982077Y1689422*
X1982071Y1689576*
X1982134Y1689641*
X1982960*
X1983087Y1689634*
X1983089*
X1983092*
X1983186Y1689621*
X1983192*
X1983281Y1689591*
X1983333Y1689554*
X1983342Y1689547*
X1983348Y1689538*
X1983389Y1689477*
X1983403Y1689447*
Y1690213*
X1980715Y1689161D02*
Y1688886D01*
Y1690148D02*
Y1689168D01*
X1980778Y1688876D02*
Y1688589D01*
Y1690085D02*
Y1689607D01*
X1980840Y1688745D02*
Y1688412D01*
Y1690053D02*
Y1689641D01*
X1980903Y1688657D02*
Y1688284D01*
Y1690034D02*
Y1689641D01*
X1980965Y1688579D02*
Y1688181D01*
Y1690026D02*
Y1689641D01*
X1981028Y1688508D02*
Y1688096D01*
Y1690021D02*
Y1689641D01*
X1981090Y1688461D02*
Y1688023D01*
Y1690017D02*
Y1689641D01*
X1981153Y1688417D02*
Y1687968D01*
Y1690016D02*
Y1689641D01*
X1981215Y1688384D02*
Y1687925D01*
Y1690016D02*
Y1689641D01*
X1981278Y1688358D02*
Y1687893D01*
Y1690016D02*
Y1689641D01*
X1981340Y1688347D02*
Y1687880D01*
Y1690016D02*
Y1689641D01*
X1981403Y1688343D02*
Y1687889D01*
Y1690016D02*
Y1689641D01*
X1981465Y1688354D02*
Y1687911D01*
Y1690016D02*
Y1689641D01*
X1981528Y1688381D02*
Y1687942D01*
Y1690016D02*
Y1689641D01*
X1981590Y1688418D02*
Y1687986D01*
Y1690016D02*
Y1689641D01*
X1981653Y1688465D02*
Y1688037D01*
Y1690016D02*
Y1689641D01*
X1981715Y1688527D02*
Y1688103D01*
Y1690016D02*
Y1689641D01*
X1981778Y1688601D02*
Y1688179D01*
Y1690016D02*
Y1689641D01*
X1981840Y1688683D02*
Y1688265D01*
Y1690016D02*
Y1689641D01*
X1981903Y1688797D02*
Y1688372D01*
Y1690016D02*
Y1689641D01*
X1981965Y1688936D02*
Y1688518D01*
Y1690016D02*
Y1689641D01*
X1982028Y1689130D02*
Y1688710D01*
Y1690016D02*
Y1689616D01*
X1982090Y1689161D02*
Y1688728D01*
Y1690016D02*
Y1689595D01*
X1982153Y1689102D02*
Y1688707D01*
Y1690016D02*
Y1689641D01*
X1982215Y1689046D02*
Y1688651D01*
Y1690016D02*
Y1689641D01*
X1982278Y1688990D02*
Y1688595D01*
Y1690016D02*
Y1689641D01*
X1982340Y1688933D02*
Y1688538D01*
Y1690016D02*
Y1689641D01*
X1982403Y1688877D02*
Y1688482D01*
Y1690016D02*
Y1689641D01*
X1982465Y1688821D02*
Y1688426D01*
Y1690016D02*
Y1689641D01*
X1982528Y1688764D02*
Y1688370D01*
Y1690016D02*
Y1689641D01*
X1982590Y1688708D02*
Y1688313D01*
Y1690016D02*
Y1689641D01*
X1982653Y1688651D02*
Y1688257D01*
Y1690016D02*
Y1689641D01*
X1982715Y1688595D02*
Y1688201D01*
Y1690016D02*
Y1689641D01*
X1982778Y1688539D02*
Y1688144D01*
Y1690016D02*
Y1689641D01*
X1982840Y1688482D02*
Y1688088D01*
Y1690016D02*
Y1689641D01*
X1982903Y1688426D02*
Y1688032D01*
Y1690016D02*
Y1689641D01*
X1982965Y1688370D02*
Y1687974D01*
Y1690016D02*
Y1689641D01*
X1983028Y1688313D02*
Y1687916D01*
Y1690019D02*
Y1689637D01*
X1983090Y1688257D02*
Y1687845D01*
Y1690023D02*
Y1689634D01*
X1983153Y1688201D02*
Y1687767D01*
Y1690028D02*
Y1689626D01*
X1983215Y1688144D02*
Y1687681D01*
Y1690041D02*
Y1689613D01*
X1983278Y1688088D02*
Y1687576D01*
Y1690066D02*
Y1689592D01*
X1983340Y1688032D02*
Y1687451D01*
Y1690118D02*
Y1689549D01*
X1983403Y1687975D02*
Y1687287D01*
Y1690213D02*
Y1689447D01*
X1983446Y1692645D02*
Y1692639D01*
X1983433Y1692537*
X1983414Y1692441*
X1983413Y1692438*
X1983412Y1692435*
X1983379Y1692330*
X1983326Y1692223*
X1983269Y1692127*
X1983268Y1692126*
X1983266Y1692124*
X1983196Y1692022*
X1983118Y1691924*
X1983026Y1691832*
X1983025Y1691831*
X1982931Y1691750*
X1982929Y1691748*
X1982928Y1691747*
X1982828Y1691672*
X1982825Y1691670*
X1982822Y1691668*
X1982715Y1691606*
X1982714Y1691605*
X1982712Y1691604*
X1982597Y1691546*
X1982477Y1691496*
X1982473Y1691494*
X1982468Y1691493*
X1982348Y1691461*
X1982221Y1691436*
X1982216Y1691435*
X1982212*
X1982087Y1691428*
X1982084*
X1982082*
X1981900Y1691435*
X1981898*
X1981895*
X1981733Y1691454*
X1981732*
X1981730*
X1981574Y1691479*
X1981571Y1691480*
X1981567*
X1981430Y1691518*
X1981426Y1691519*
X1981422Y1691521*
X1981290Y1691577*
X1981289*
X1981288Y1691578*
X1981169Y1691634*
X1981165Y1691637*
X1981160Y1691640*
X1981054Y1691715*
X1981051Y1691717*
X1981049Y1691719*
X1980949Y1691806*
X1980945Y1691809*
X1980942Y1691813*
X1980879Y1691889*
X1980815Y1691971*
X1980812Y1691976*
X1980765Y1692070*
X1980720Y1692172*
X1980719Y1692175*
X1980718Y1692178*
X1980687Y1692278*
X1980685Y1692282*
Y1692287*
X1980646Y1692517*
Y1692771*
X1980666Y1692889*
X1980685Y1692990*
X1980686Y1692993*
X1980687Y1692997*
X1980718Y1693097*
X1980719Y1693099*
Y1693101*
X1980757Y1693195*
X1980759Y1693199*
X1980761Y1693203*
X1980811Y1693291*
X1980812Y1693293*
X1980814Y1693295*
X1980870Y1693376*
X1980872Y1693380*
X1980875Y1693383*
X1980944Y1693458*
X1980946Y1693461*
X1980949Y1693463*
X1981043Y1693544*
X1981045Y1693546*
X1981048Y1693548*
X1981154Y1693623*
X1981157Y1693625*
X1981160Y1693627*
X1981272Y1693689*
X1981276Y1693691*
X1981279Y1693693*
X1981404Y1693743*
X1981407Y1693744*
X1981410Y1693745*
X1981542Y1693782*
X1981544Y1693783*
X1981545*
X1981689Y1693814*
X1981693Y1693815*
X1981698Y1693816*
X1981854Y1693828*
X1981855*
X1981856*
X1982019Y1693834*
X1982021Y1693835*
X1982024Y1693834*
X1982194Y1693828*
X1982357Y1693816*
X1982361Y1693815*
X1982365Y1693814*
X1982515Y1693783*
X1982518*
X1982521Y1693782*
X1982659Y1693738*
X1982661Y1693737*
X1982662*
X1982794Y1693687*
X1982797Y1693685*
X1982800Y1693684*
X1982919Y1693621*
X1982923Y1693619*
X1982926Y1693617*
X1983032Y1693542*
X1983035Y1693540*
X1983037Y1693538*
X1983137Y1693450*
X1983140Y1693448*
X1983142Y1693445*
X1983211Y1693370*
X1983214Y1693367*
X1983216Y1693364*
X1983273Y1693283*
X1983274Y1693280*
X1983276Y1693278*
X1983326Y1693191*
X1983327Y1693187*
X1983329Y1693184*
X1983366Y1693097*
X1983367Y1693094*
X1983368Y1693091*
X1983400Y1692991*
Y1692989*
X1983401Y1692986*
X1983426Y1692880*
X1983427Y1692877*
Y1692873*
X1983440Y1692767*
Y1692765*
Y1692763*
X1983446Y1692650*
Y1692645*
X1983465Y1692641D02*
X1983459Y1692770D01*
X1983429Y1692913*
X1983387Y1693052*
X1983333Y1693196*
X1983260Y1693336*
X1983181Y1693476*
X1983084Y1693616*
X1982980Y1693744*
X1982870Y1693866*
X1982755Y1693975*
X1982634Y1694072*
X1982514Y1694156*
X1982389Y1694221*
X1982270Y1694269*
X1982148Y1694304*
X1982033Y1694309*
X1981871Y1694303*
X1981724Y1694280*
X1981581Y1694232*
X1981444Y1694173*
X1981318Y1694095*
X1981193Y1694005*
X1981081Y1693893*
X1980978Y1693760*
X1980893Y1693639*
X1980820Y1693506*
X1980754Y1693373*
X1980706Y1693230*
X1980670Y1693083*
X1980639Y1692925*
X1980621Y1692767*
X1980615Y1692599*
X1980627Y1692474*
X1980651Y1692343*
X1980693Y1692206*
X1980753Y1692068*
X1980826Y1691927*
X1980905Y1691787*
X1981003Y1691653*
X1981101Y1691524*
X1981210Y1691403*
X1981325Y1691294*
X1981441Y1691197*
X1981560Y1691113*
X1981686Y1691047*
X1981804Y1690994*
X1981920Y1690965*
X1982028Y1690954*
X1982142Y1690965*
X1982257Y1690994*
X1982381Y1691047*
X1982501Y1691113*
X1982627Y1691197*
X1982748Y1691300*
X1982864Y1691409*
X1982973Y1691531*
X1983077Y1691666*
X1983175Y1691800*
X1983260Y1691945*
X1983327Y1692085*
X1983387Y1692230*
X1983429Y1692375*
X1983459Y1692511*
X1983465Y1692641*
X1980652Y1692480D02*
Y1692338D01*
Y1692993D02*
Y1692808D01*
X1980715Y1692188D02*
Y1692155D01*
Y1693255D02*
Y1693088D01*
X1980777Y1692045D02*
Y1692020D01*
Y1693420D02*
Y1693232D01*
X1980840Y1691940D02*
Y1691902D01*
Y1693541D02*
Y1693333D01*
X1980902Y1691861D02*
Y1691792D01*
Y1693652D02*
Y1693413D01*
X1980965Y1691792D02*
Y1691705D01*
Y1693741D02*
Y1693477D01*
X1981027Y1691737D02*
Y1691621D01*
Y1693824D02*
Y1693531D01*
X1981090Y1691689D02*
Y1691538D01*
Y1693902D02*
Y1693578D01*
X1981152Y1691645D02*
Y1691467D01*
Y1693965D02*
Y1693622D01*
X1981215Y1691613D02*
Y1691398D01*
Y1694021D02*
Y1693657D01*
X1981277Y1691583D02*
Y1691339D01*
Y1694066D02*
Y1693692D01*
X1981340Y1691556D02*
Y1691281D01*
Y1694108D02*
Y1693717D01*
X1981402Y1691529D02*
Y1691229D01*
Y1694147D02*
Y1693742D01*
X1981465Y1691508D02*
Y1691180D01*
Y1694182D02*
Y1693760D01*
X1981527Y1691491D02*
Y1691136D01*
Y1694209D02*
Y1693778D01*
X1981590Y1691476D02*
Y1691097D01*
Y1694235D02*
Y1693793D01*
X1981652Y1691466D02*
Y1691065D01*
Y1694256D02*
Y1693806D01*
X1981715Y1691456D02*
Y1691034D01*
Y1694277D02*
Y1693817D01*
X1981777Y1691449D02*
Y1691006D01*
Y1694288D02*
Y1693822D01*
X1981840Y1691441D02*
Y1690985D01*
Y1694298D02*
Y1693827D01*
X1981902Y1691434D02*
Y1690969D01*
Y1694305D02*
Y1693830D01*
X1981965Y1691432D02*
Y1690960D01*
Y1694307D02*
Y1693832D01*
X1982027Y1691430D02*
Y1690954D01*
Y1694309D02*
Y1693834D01*
X1982090Y1691428D02*
Y1690960D01*
Y1694307D02*
Y1693832D01*
X1982152Y1691432D02*
Y1690968D01*
Y1694303D02*
Y1693830D01*
X1982215Y1691435D02*
Y1690983D01*
Y1694285D02*
Y1693827D01*
X1982277Y1691447D02*
Y1691002D01*
Y1694266D02*
Y1693822D01*
X1982340Y1691459D02*
Y1691029D01*
Y1694241D02*
Y1693817D01*
X1982402Y1691475D02*
Y1691059D01*
Y1694214D02*
Y1693807D01*
X1982465Y1691492D02*
Y1691093D01*
Y1694182D02*
Y1693794D01*
X1982527Y1691517D02*
Y1691130D01*
Y1694146D02*
Y1693780D01*
X1982590Y1691543D02*
Y1691172D01*
Y1694103D02*
Y1693760D01*
X1982652Y1691574D02*
Y1691218D01*
Y1694057D02*
Y1693740D01*
X1982715Y1691605D02*
Y1691271D01*
Y1694007D02*
Y1693717D01*
X1982777Y1691642D02*
Y1691327D01*
Y1693954D02*
Y1693693D01*
X1982840Y1691681D02*
Y1691387D01*
Y1693895D02*
Y1693663D01*
X1982902Y1691728D02*
Y1691452D01*
Y1693830D02*
Y1693630D01*
X1982965Y1691779D02*
Y1691522D01*
Y1693761D02*
Y1693589D01*
X1983027Y1691834D02*
Y1691601D01*
Y1693685D02*
Y1693545D01*
X1983090Y1691896D02*
Y1691683D01*
Y1693607D02*
Y1693492D01*
X1983152Y1691967D02*
Y1691769D01*
Y1693517D02*
Y1693434D01*
X1983215Y1692049D02*
Y1691868D01*
Y1693416D02*
Y1693366D01*
X1983277Y1692142D02*
Y1691982D01*
Y1693303D02*
Y1693275D01*
X1983340Y1692251D02*
Y1692117D01*
Y1693178D02*
Y1693158D01*
X1983402Y1692404D02*
Y1692282D01*
Y1693001D02*
Y1692980D01*
X1983403Y1696580D02*
X1983384Y1696540D01*
X1983380Y1696531*
X1983374Y1696524*
X1983324Y1696468*
X1983317Y1696460*
X1983265Y1696430*
X1983259Y1696427*
X1983252Y1696425*
X1983189Y1696406*
X1983185Y1696405*
X1983180Y1696404*
X1983088Y1696391*
X1980796*
X1980734Y1696453*
Y1696879*
X1980740Y1697093*
Y1697096*
X1980741Y1697100*
X1980753Y1697181*
Y1697183*
X1980754Y1697184*
X1980768Y1697254*
X1980798Y1697321*
X1980838Y1697382*
X1980840Y1697385*
X1980843Y1697389*
X1980893Y1697445*
X1980897Y1697449*
X1980901Y1697452*
X1981031Y1697556*
X1981112Y1697597*
X1981114Y1697598*
X1981116*
X1981151Y1697613*
X1980684Y1697582*
Y1694794*
X1981113Y1694769*
X1981108Y1694771*
X1981053Y1694796*
X1980998Y1694819*
X1980944Y1694873*
X1980899Y1694925*
X1980895Y1694930*
X1980891Y1694936*
X1980853Y1695006*
X1980813Y1695086*
X1980754Y1695264*
X1980741Y1695357*
X1980740Y1695359*
Y1695361*
X1980734Y1695445*
Y1695947*
X1980796Y1696009*
X1983096*
X1983196Y1695990*
X1983198Y1695989*
X1983200*
X1983269Y1695970*
X1983278Y1695967*
X1983286Y1695962*
X1983336Y1695931*
X1983355Y1695913*
X1983392Y1695857*
X1983396Y1695850*
X1983399Y1695843*
X1983403Y1695833*
Y1696580*
X1980715Y1697584D02*
Y1694792D01*
X1980778Y1695193D02*
Y1694788D01*
Y1696409D02*
Y1695991D01*
Y1697588D02*
Y1697276D01*
X1980840Y1695032D02*
Y1694785D01*
Y1696391D02*
Y1696009D01*
Y1697593D02*
Y1697385D01*
X1980903Y1694921D02*
Y1694781D01*
Y1696391D02*
Y1696009D01*
Y1697597D02*
Y1697453D01*
X1980965Y1694852D02*
Y1694778D01*
Y1696391D02*
Y1696009D01*
Y1697601D02*
Y1697503D01*
X1981028Y1694807D02*
Y1694774D01*
Y1696391D02*
Y1696009D01*
Y1697605D02*
Y1697553D01*
X1981090Y1694779D02*
Y1694771D01*
Y1696391D02*
Y1696009D01*
Y1697609D02*
Y1697586D01*
X1981153Y1696391D02*
Y1696009D01*
X1981215Y1696391D02*
Y1696009D01*
X1981278Y1696391D02*
Y1696009D01*
X1981340Y1696391D02*
Y1696009D01*
X1981403Y1696391D02*
Y1696009D01*
X1981465Y1696391D02*
Y1696009D01*
X1981528Y1696391D02*
Y1696009D01*
X1981590Y1696391D02*
Y1696009D01*
X1981653Y1696391D02*
Y1696009D01*
X1981715Y1696391D02*
Y1696009D01*
X1981778Y1696391D02*
Y1696009D01*
X1981840Y1696391D02*
Y1696009D01*
X1981903Y1696391D02*
Y1696009D01*
X1981965Y1696391D02*
Y1696009D01*
X1982028Y1696391D02*
Y1696009D01*
X1982090Y1696391D02*
Y1696009D01*
X1982153Y1696391D02*
Y1696009D01*
X1982215Y1696391D02*
Y1696009D01*
X1982278Y1696391D02*
Y1696009D01*
X1982340Y1696391D02*
Y1696009D01*
X1982403Y1696391D02*
Y1696009D01*
X1982465Y1696391D02*
Y1696009D01*
X1982528Y1696391D02*
Y1696009D01*
X1982590Y1696391D02*
Y1696009D01*
X1982653Y1696391D02*
Y1696009D01*
X1982715Y1696391D02*
Y1696009D01*
X1982778Y1696391D02*
Y1696009D01*
X1982840Y1696391D02*
Y1696009D01*
X1982903Y1696391D02*
Y1696009D01*
X1982965Y1696391D02*
Y1696009D01*
X1983028Y1696391D02*
Y1696009D01*
X1983090Y1696391D02*
Y1696009D01*
X1983153Y1696400D02*
Y1695998D01*
X1983215Y1696414D02*
Y1695985D01*
X1983278Y1696438D02*
Y1695967D01*
X1983340Y1696486D02*
Y1695927D01*
X1983403Y1696580D02*
Y1695833D01*
X1982421Y1700566D02*
Y1699341D01*
X1982330Y1699285*
X1981180Y1699892*
X1981146Y1699947*
X1981179Y1700002*
X1982329Y1700621*
X1982421Y1700566*
X1983403Y1701460D02*
X1983386Y1701418D01*
X1983384Y1701414*
X1983382Y1701410*
X1983357Y1701366*
X1983353Y1701360*
X1983349Y1701355*
X1983286Y1701286*
X1983284Y1701283*
X1983281Y1701281*
X1983190Y1701203*
X1983075Y1701126*
X1983073Y1701125*
X1983071Y1701124*
X1982926Y1701042*
X1982926*
X1980615Y1699809*
Y1699791*
X1982950Y1698571*
X1982951*
X1982952Y1698570*
X1983052Y1698514*
X1983055Y1698512*
X1983058Y1698510*
X1983152Y1698441*
X1983156Y1698438*
X1983236Y1698358*
X1983306Y1698275*
X1983309Y1698272*
X1983311Y1698269*
X1983363Y1698191*
X1983403Y1698112*
Y1699087*
X1983380Y1699025*
X1983377Y1699017*
X1983372Y1699010*
X1983322Y1698941*
X1983317Y1698935*
X1983310Y1698929*
X1983279Y1698904*
X1983255Y1698893*
X1983230Y1698886*
X1983219Y1698884*
X1983208Y1698885*
X1983152Y1698891*
X1983146Y1698892*
X1983141Y1698893*
X1983078Y1698912*
X1983074Y1698913*
X1983070Y1698915*
X1982895Y1698997*
X1982894*
X1982892Y1698998*
X1982486Y1699210*
X1982453Y1699266*
Y1700647*
X1982486Y1700702*
X1982929Y1700940*
X1982931Y1700941*
X1982933*
X1983083Y1701010*
X1983086Y1701011*
X1983089Y1701013*
X1983151Y1701033*
X1983212Y1701042*
X1983249Y1701033*
X1983273Y1701021*
X1983304Y1700996*
X1983313Y1700989*
X1983318Y1700980*
X1983368Y1700899*
X1983371Y1700893*
X1983373Y1700888*
X1983403Y1700812*
Y1701460*
X1980653Y1699829D02*
Y1699772D01*
X1980715Y1699863D02*
Y1699739D01*
X1980778Y1699896D02*
Y1699706D01*
X1980840Y1699929D02*
Y1699674D01*
X1980903Y1699963D02*
Y1699641D01*
X1980965Y1699996D02*
Y1699608D01*
X1981028Y1700029D02*
Y1699576D01*
X1981090Y1700063D02*
Y1699543D01*
X1981153Y1699936D02*
Y1699510D01*
Y1700096D02*
Y1699957D01*
X1981215Y1699873D02*
Y1699478D01*
Y1700129D02*
Y1700021D01*
X1981278Y1699840D02*
Y1699445D01*
Y1700163D02*
Y1700055D01*
X1981340Y1699807D02*
Y1699412D01*
Y1700196D02*
Y1700089D01*
X1981403Y1699774D02*
Y1699380D01*
Y1700229D02*
Y1700122D01*
X1981465Y1699741D02*
Y1699347D01*
Y1700263D02*
Y1700156D01*
X1981528Y1699708D02*
Y1699314D01*
Y1700296D02*
Y1700189D01*
X1981590Y1699675D02*
Y1699282D01*
Y1700329D02*
Y1700223D01*
X1981653Y1699642D02*
Y1699249D01*
Y1700363D02*
Y1700257D01*
X1981715Y1699609D02*
Y1699216D01*
Y1700396D02*
Y1700290D01*
X1981778Y1699577D02*
Y1699184D01*
Y1700429D02*
Y1700324D01*
X1981840Y1699544D02*
Y1699151D01*
Y1700463D02*
Y1700358D01*
X1981903Y1699511D02*
Y1699118D01*
Y1700496D02*
Y1700391D01*
X1981965Y1699478D02*
Y1699086D01*
Y1700529D02*
Y1700425D01*
X1982028Y1699445D02*
Y1699053D01*
Y1700563D02*
Y1700458D01*
X1982090Y1699412D02*
Y1699021D01*
Y1700596D02*
Y1700492D01*
X1982153Y1699379D02*
Y1698988D01*
Y1700629D02*
Y1700526D01*
X1982215Y1699346D02*
Y1698955D01*
Y1700663D02*
Y1700559D01*
X1982278Y1699313D02*
Y1698923D01*
Y1700696D02*
Y1700593D01*
X1982340Y1699292D02*
Y1698890D01*
Y1700729D02*
Y1700614D01*
X1982403Y1699329D02*
Y1698857D01*
Y1700763D02*
Y1700577D01*
X1982465Y1699245D02*
Y1698825D01*
Y1700796D02*
Y1700668D01*
X1982528Y1699189D02*
Y1698792D01*
Y1700829D02*
Y1700725D01*
X1982590Y1699156D02*
Y1698759D01*
Y1700863D02*
Y1700758D01*
X1982653Y1699123D02*
Y1698727D01*
Y1700896D02*
Y1700791D01*
X1982715Y1699091D02*
Y1698694D01*
Y1700929D02*
Y1700825D01*
X1982778Y1699058D02*
Y1698661D01*
Y1700963D02*
Y1700858D01*
X1982840Y1699025D02*
Y1698629D01*
Y1700996D02*
Y1700892D01*
X1982903Y1698993D02*
Y1698596D01*
Y1701029D02*
Y1700925D01*
X1982965Y1698964D02*
Y1698563D01*
Y1701064D02*
Y1700956D01*
X1983028Y1698935D02*
Y1698528D01*
Y1701099D02*
Y1700985D01*
X1983090Y1698909D02*
Y1698487D01*
Y1701136D02*
Y1701013D01*
X1983153Y1698891D02*
Y1698441D01*
Y1701178D02*
Y1701033D01*
X1983215Y1698884D02*
Y1698379D01*
Y1701224D02*
Y1701041D01*
X1983278Y1698904D02*
Y1698309D01*
Y1701278D02*
Y1701017D01*
X1983340Y1698967D02*
Y1698225D01*
Y1701345D02*
Y1700944D01*
X1983403Y1699087D02*
Y1698112D01*
Y1701460D02*
Y1700812D01*
X1983446Y1707269D02*
Y1707264D01*
X1983433Y1707170*
Y1707168*
Y1707167*
X1983414Y1707067*
X1983413Y1707063*
X1983412Y1707058*
X1983379Y1706961*
X1983326Y1706855*
X1983269Y1706754*
X1983268Y1706751*
X1983265Y1706748*
X1983197Y1706654*
X1983196Y1706653*
X1983195Y1706652*
X1983118Y1706555*
X1983026Y1706464*
X1983025Y1706462*
X1982931Y1706381*
X1982929Y1706380*
X1982928Y1706378*
X1982828Y1706303*
X1982826Y1706302*
X1982824Y1706301*
X1982718Y1706232*
X1982715Y1706230*
X1982712Y1706229*
X1982599Y1706172*
X1982596Y1706171*
X1982593Y1706170*
X1982474Y1706126*
X1982473Y1706125*
X1982471*
X1982353Y1706087*
X1982348Y1706086*
X1982343Y1706085*
X1982218Y1706066*
X1982215*
X1982212*
X1982085Y1706059*
X1981899*
X1981730Y1706079*
X1981571Y1706111*
X1981569*
X1981567Y1706112*
X1981430Y1706149*
X1981427Y1706150*
X1981424Y1706151*
X1981293Y1706201*
X1981289Y1706202*
X1981286Y1706204*
X1981167Y1706267*
X1981164Y1706269*
X1981160Y1706271*
X1981054Y1706346*
X1981052Y1706347*
X1981051Y1706348*
X1980951Y1706430*
X1980946Y1706434*
X1980942Y1706438*
X1980879Y1706514*
X1980815Y1706596*
X1980811Y1706602*
X1980808Y1706608*
X1980721Y1706796*
X1980719Y1706800*
X1980718Y1706804*
X1980685Y1706914*
X1980666Y1707024*
X1980666*
Y1707025*
X1980647Y1707143*
X1980646Y1707148*
Y1707396*
X1980666Y1707514*
X1980685Y1707620*
Y1707624*
X1980687Y1707628*
X1980718Y1707728*
X1980719Y1707731*
X1980720Y1707734*
X1980758Y1707822*
X1980759Y1707825*
X1980761Y1707828*
X1980811Y1707916*
X1980812Y1707918*
X1980814Y1707920*
X1980870Y1708001*
X1980872Y1708005*
X1980875Y1708008*
X1980944Y1708083*
X1980946Y1708085*
X1980947Y1708086*
X1981041Y1708174*
X1981044Y1708177*
X1981048Y1708179*
X1981154Y1708254*
X1981158Y1708257*
X1981162Y1708259*
X1981277Y1708317*
X1981406Y1708368*
X1981543Y1708414*
X1981548Y1708415*
X1981692Y1708440*
X1981693*
X1981695*
X1981851Y1708459*
X1981854*
X1981856*
X1982019Y1708466*
X1982021*
X1982024*
X1982192Y1708459*
X1982195*
X1982197*
X1982360Y1708440*
X1982361*
X1982363*
X1982513Y1708415*
X1982517Y1708414*
X1982521Y1708413*
X1982659Y1708369*
X1982661*
X1982662Y1708368*
X1982794Y1708318*
X1982798Y1708316*
X1982803Y1708314*
X1982921Y1708245*
X1982924Y1708243*
X1982926Y1708242*
X1983032Y1708167*
X1983035Y1708165*
X1983037Y1708163*
X1983137Y1708075*
X1983140Y1708073*
X1983142Y1708070*
X1983211Y1707995*
X1983214Y1707992*
X1983216Y1707989*
X1983273Y1707908*
X1983274Y1707906*
Y1707905*
X1983324Y1707824*
X1983327Y1707819*
X1983329Y1707814*
X1983367Y1707719*
X1983400Y1707620*
X1983426Y1707511*
X1983427Y1707508*
Y1707504*
X1983440Y1707398*
Y1707396*
Y1707394*
X1983446Y1707275*
Y1707269*
X1983465Y1707266D02*
X1983459Y1707401D01*
X1983429Y1707538*
X1983387Y1707683*
X1983333Y1707822*
X1983260Y1707968*
X1983181Y1708107*
X1983084Y1708240*
X1982980Y1708369*
X1982870Y1708491*
X1982755Y1708600*
X1982634Y1708697*
X1982513Y1708782*
X1982388Y1708853*
X1982271Y1708900*
X1982148Y1708929*
X1982032Y1708941*
X1981872Y1708935*
X1981724Y1708905*
X1981580Y1708863*
X1981444Y1708804*
X1981319Y1708727*
X1981194Y1708631*
X1981080Y1708518*
X1980978Y1708391*
X1980893Y1708264*
X1980820Y1708137*
X1980754Y1707998*
X1980706Y1707861*
X1980670Y1707709*
X1980639Y1707556*
X1980621Y1707392*
X1980615Y1707230*
X1980627Y1707099*
X1980651Y1706968*
X1980693Y1706831*
X1980753Y1706693*
X1980826Y1706552*
X1980905Y1706419*
X1981003Y1706284*
X1981101Y1706156*
X1981210Y1706034*
X1981325Y1705925*
X1981441Y1705828*
X1981561Y1705744*
X1981686Y1705672*
X1981804Y1705625*
X1981921Y1705590*
X1982028Y1705579*
X1982140Y1705590*
X1982257Y1705625*
X1982381Y1705672*
X1982500Y1705744*
X1982628Y1705829*
X1982748Y1705925*
X1982863Y1706040*
X1982974Y1706163*
X1983078Y1706291*
X1983175Y1706431*
X1983260Y1706570*
X1983326Y1706716*
X1983387Y1706862*
X1983429Y1707000*
X1983459Y1707136*
X1983465Y1707266*
X1980652Y1707109D02*
Y1706963D01*
Y1707622D02*
Y1707433D01*
X1980715Y1706813D02*
Y1706780D01*
Y1707885D02*
Y1707719D01*
X1980777Y1706674D02*
Y1706645D01*
Y1708047D02*
Y1707857D01*
X1980840Y1706565D02*
Y1706529D01*
Y1708171D02*
Y1707958D01*
X1980902Y1706486D02*
Y1706423D01*
Y1708278D02*
Y1708038D01*
X1980965Y1706418D02*
Y1706336D01*
Y1708372D02*
Y1708103D01*
X1981027Y1706367D02*
Y1706252D01*
Y1708452D02*
Y1708161D01*
X1981090Y1706321D02*
Y1706170D01*
Y1708527D02*
Y1708209D01*
X1981152Y1706276D02*
Y1706098D01*
Y1708590D02*
Y1708253D01*
X1981215Y1706242D02*
Y1706030D01*
Y1708647D02*
Y1708286D01*
X1981277Y1706209D02*
Y1705970D01*
Y1708695D02*
Y1708317D01*
X1981340Y1706183D02*
Y1705913D01*
Y1708740D02*
Y1708342D01*
X1981402Y1706159D02*
Y1705860D01*
Y1708778D02*
Y1708367D01*
X1981465Y1706140D02*
Y1705811D01*
Y1708813D02*
Y1708388D01*
X1981527Y1706123D02*
Y1705767D01*
Y1708840D02*
Y1708409D01*
X1981590Y1706107D02*
Y1705727D01*
Y1708866D02*
Y1708422D01*
X1981652Y1706095D02*
Y1705691D01*
Y1708884D02*
Y1708433D01*
X1981715Y1706082D02*
Y1705661D01*
Y1708902D02*
Y1708443D01*
X1981777Y1706074D02*
Y1705636D01*
Y1708916D02*
Y1708450D01*
X1981840Y1706066D02*
Y1705614D01*
Y1708928D02*
Y1708458D01*
X1981902Y1706059D02*
Y1705595D01*
Y1708936D02*
Y1708461D01*
X1981965Y1706059D02*
Y1705585D01*
Y1708938D02*
Y1708464D01*
X1982027Y1706059D02*
Y1705579D01*
Y1708940D02*
Y1708466D01*
X1982090Y1706060D02*
Y1705585D01*
Y1708935D02*
Y1708463D01*
X1982152Y1706063D02*
Y1705593D01*
Y1708928D02*
Y1708461D01*
X1982215Y1706066D02*
Y1705612D01*
Y1708913D02*
Y1708457D01*
X1982277Y1706075D02*
Y1705633D01*
Y1708897D02*
Y1708450D01*
X1982340Y1706085D02*
Y1705656D01*
Y1708872D02*
Y1708443D01*
X1982402Y1706103D02*
Y1705685D01*
Y1708845D02*
Y1708433D01*
X1982465Y1706123D02*
Y1705722D01*
Y1708809D02*
Y1708423D01*
X1982527Y1706146D02*
Y1705762D01*
Y1708771D02*
Y1708411D01*
X1982590Y1706169D02*
Y1705803D01*
Y1708728D02*
Y1708391D01*
X1982652Y1706199D02*
Y1705848D01*
Y1708682D02*
Y1708371D01*
X1982715Y1706230D02*
Y1705898D01*
Y1708632D02*
Y1708348D01*
X1982777Y1706271D02*
Y1705954D01*
Y1708579D02*
Y1708324D01*
X1982840Y1706313D02*
Y1706017D01*
Y1708520D02*
Y1708292D01*
X1982902Y1706359D02*
Y1706083D01*
Y1708455D02*
Y1708256D01*
X1982965Y1706410D02*
Y1706153D01*
Y1708386D02*
Y1708214D01*
X1983027Y1706465D02*
Y1706229D01*
Y1708310D02*
Y1708170D01*
X1983090Y1706527D02*
Y1706309D01*
Y1708232D02*
Y1708117D01*
X1983152Y1706598D02*
Y1706399D01*
Y1708146D02*
Y1708059D01*
X1983215Y1706679D02*
Y1706497D01*
Y1708047D02*
Y1707991D01*
X1983277Y1706768D02*
Y1706609D01*
Y1707932D02*
Y1707900D01*
X1983340Y1706882D02*
Y1706748D01*
Y1707803D02*
Y1707787D01*
X1983402Y1707030D02*
Y1706911D01*
Y1707630D02*
Y1707611D01*
X1981990Y1711171D02*
Y1711168D01*
X1981977Y1710980*
Y1710976*
X1981976Y1710972*
X1981939Y1710791*
X1981938Y1710787*
X1981937Y1710783*
X1981881Y1710615*
X1981879Y1710610*
X1981876Y1710605*
X1981795Y1710455*
X1981793Y1710451*
X1981790Y1710447*
X1981703Y1710329*
X1981699Y1710324*
X1981695Y1710320*
X1981595Y1710226*
X1981590Y1710221*
X1981583Y1710218*
X1981475Y1710157*
X1981466Y1710155*
X1981378Y1710136*
X1981368Y1710134*
X1981357Y1710135*
X1981307Y1710141*
X1981300Y1710142*
X1981293Y1710145*
X1981243Y1710163*
X1981237Y1710166*
X1981232Y1710169*
X1981126Y1710235*
X1981018Y1710343*
X1981015Y1710347*
X1980915Y1710478*
X1980912Y1710482*
X1980910Y1710486*
X1980829Y1710636*
X1980827Y1710640*
X1980825Y1710644*
X1980761Y1710816*
Y1710820*
X1980717Y1711001*
X1980716Y1711004*
Y1711007*
X1980703Y1711094*
Y1711097*
Y1711099*
X1980696Y1711193*
Y1711196*
Y1711200*
X1980709Y1711450*
Y1711452*
Y1711454*
X1980722Y1711566*
Y1711570*
X1980723Y1711574*
X1980748Y1711680*
X1980809Y1711728*
X1981896*
X1981958Y1711673*
X1981983Y1711448*
X1981984Y1711445*
Y1711442*
X1981990Y1711173*
Y1711171*
X1983378Y1711218D02*
Y1711063D01*
X1983365Y1710886*
X1983364Y1710881*
X1983363Y1710876*
X1983319Y1710701*
X1983318Y1710697*
X1983317Y1710693*
X1983255Y1710531*
X1983253Y1710527*
X1983251Y1710523*
X1983170Y1710373*
X1983168Y1710369*
X1983165Y1710366*
X1983069Y1710237*
X1982960Y1710129*
X1982854Y1710063*
X1982846Y1710058*
X1982836Y1710055*
X1982786Y1710043*
X1982783Y1710042*
X1982779Y1710041*
X1982729Y1710035*
X1982719Y1710034*
X1982709Y1710036*
X1982615Y1710054*
X1982605Y1710057*
X1982596Y1710062*
X1982483Y1710128*
X1982361Y1710250*
X1982252Y1710397*
X1982250Y1710401*
X1982154Y1710580*
X1982152Y1710583*
X1982150Y1710587*
X1982075Y1710781*
X1982074Y1710785*
X1982073Y1710790*
X1982029Y1710997*
X1982028Y1711000*
Y1711003*
X1982009Y1711197*
Y1711201*
Y1711205*
X1982015Y1711473*
Y1711475*
Y1711476*
X1982028Y1711670*
X1982090Y1711728*
X1983259*
X1983320Y1711676*
X1983345Y1711526*
X1983346Y1711525*
Y1711523*
X1983365Y1711372*
X1983378Y1711218*
X1983403Y1712309D02*
X1983376Y1712261D01*
X1983373Y1712255*
X1983368Y1712249*
X1983318Y1712193*
X1983311Y1712185*
X1983259Y1712155*
X1983252Y1712151*
X1983244Y1712149*
X1983175Y1712130*
X1983171Y1712129*
X1983168*
X1983080Y1712116*
X1983077*
X1983075*
X1982960Y1712109*
X1981120*
X1980999Y1712116*
X1980997*
X1980994*
X1980900Y1712129*
X1980895Y1712130*
X1980805Y1712159*
X1980754Y1712196*
X1980746Y1712201*
X1980741Y1712209*
X1980697Y1712265*
X1980690Y1712273*
X1980687Y1712283*
X1980684Y1712293*
Y1710949*
X1980696Y1710764*
X1980708Y1710605*
X1980732Y1710474*
X1980774Y1710331*
X1980833Y1710194*
X1980910Y1710065*
X1981005Y1709952*
X1981106Y1709850*
X1981204Y1709776*
X1981297Y1709732*
X1981379Y1709717*
X1981447Y1709726*
X1981528Y1709764*
X1981615Y1709822*
X1981702Y1709898*
X1981785Y1709992*
X1981855Y1710092*
X1981914Y1710204*
X1981957Y1710313*
X1982021Y1710353*
X1982076Y1710302*
X1982107Y1710138*
X1982155Y1709994*
X1982208Y1709870*
X1982266Y1709777*
X1982312Y1709720*
X1982356Y1709675*
X1982408Y1709635*
X1982457Y1709603*
X1982511Y1709581*
X1982567Y1709564*
X1982630Y1709553*
X1982681Y1709548*
X1982731Y1709558*
X1982783Y1709573*
X1982837Y1709605*
X1982900Y1709652*
X1982971Y1709716*
X1983034Y1709786*
X1983155Y1709966*
X1983208Y1710073*
X1983256Y1710188*
X1983299Y1710315*
X1983336Y1710444*
X1983366Y1710577*
X1983384Y1710716*
X1983396Y1710863*
X1983403Y1711011*
Y1712309*
X1980715Y1711011D02*
Y1710568D01*
Y1712242D02*
Y1711507D01*
X1980778Y1710773D02*
Y1710322D01*
Y1712179D02*
Y1711703D01*
X1980840Y1710615D02*
Y1710183D01*
Y1712148D02*
Y1711728D01*
X1980903Y1710500D02*
Y1710077D01*
Y1712129D02*
Y1711728D01*
X1980965Y1710413D02*
Y1709999D01*
Y1712120D02*
Y1711728D01*
X1981028Y1710334D02*
Y1709929D01*
Y1712114D02*
Y1711728D01*
X1981090Y1710271D02*
Y1709867D01*
Y1712111D02*
Y1711728D01*
X1981153Y1710219D02*
Y1709815D01*
Y1712109D02*
Y1711728D01*
X1981215Y1710180D02*
Y1709770D01*
Y1712109D02*
Y1711728D01*
X1981278Y1710151D02*
Y1709741D01*
Y1712109D02*
Y1711728D01*
X1981340Y1710137D02*
Y1709724D01*
Y1712109D02*
Y1711728D01*
X1981403Y1710141D02*
Y1709720D01*
Y1712109D02*
Y1711728D01*
X1981465Y1710155D02*
Y1709735D01*
Y1712109D02*
Y1711728D01*
X1981528Y1710186D02*
Y1709764D01*
Y1712109D02*
Y1711728D01*
X1981590Y1710221D02*
Y1709805D01*
Y1712109D02*
Y1711728D01*
X1981653Y1710280D02*
Y1709855D01*
Y1712109D02*
Y1711728D01*
X1981715Y1710345D02*
Y1709912D01*
Y1712109D02*
Y1711728D01*
X1981778Y1710430D02*
Y1709984D01*
Y1712109D02*
Y1711728D01*
X1981840Y1710538D02*
Y1710070D01*
Y1712109D02*
Y1711728D01*
X1981903Y1710681D02*
Y1710182D01*
Y1712109D02*
Y1711723D01*
X1981965Y1710918D02*
Y1710318D01*
Y1712109D02*
Y1711613D01*
X1982028Y1711006D02*
Y1710347D01*
Y1712109D02*
Y1711668D01*
X1982090Y1710743D02*
Y1710229D01*
Y1712109D02*
Y1711728D01*
X1982153Y1710582D02*
Y1710001D01*
Y1712109D02*
Y1711728D01*
X1982215Y1710465D02*
Y1709859D01*
Y1712109D02*
Y1711728D01*
X1982278Y1710363D02*
Y1709763D01*
Y1712109D02*
Y1711728D01*
X1982340Y1710279D02*
Y1709692D01*
Y1712109D02*
Y1711728D01*
X1982403Y1710209D02*
Y1709639D01*
Y1712109D02*
Y1711728D01*
X1982465Y1710146D02*
Y1709599D01*
Y1712109D02*
Y1711728D01*
X1982528Y1710102D02*
Y1709576D01*
Y1712109D02*
Y1711728D01*
X1982590Y1710065D02*
Y1709560D01*
Y1712109D02*
Y1711728D01*
X1982653Y1710047D02*
Y1709550D01*
Y1712109D02*
Y1711728D01*
X1982715Y1710035D02*
Y1709554D01*
Y1712109D02*
Y1711728D01*
X1982778Y1710041D02*
Y1709572D01*
Y1712109D02*
Y1711728D01*
X1982840Y1710056D02*
Y1709608D01*
Y1712109D02*
Y1711728D01*
X1982903Y1710093D02*
Y1709654D01*
Y1712109D02*
Y1711728D01*
X1982965Y1710134D02*
Y1709711D01*
Y1712110D02*
Y1711728D01*
X1983028Y1710196D02*
Y1709778D01*
Y1712113D02*
Y1711728D01*
X1983090Y1710266D02*
Y1709869D01*
Y1712118D02*
Y1711728D01*
X1983153Y1710349D02*
Y1709963D01*
Y1712127D02*
Y1711728D01*
X1983215Y1710457D02*
Y1710089D01*
Y1712141D02*
Y1711728D01*
X1983278Y1710590D02*
Y1710251D01*
Y1712166D02*
Y1711712D01*
X1983340Y1710783D02*
Y1710463D01*
Y1712218D02*
Y1711558D01*
X1983403Y1712309D02*
Y1711011D01*
X1982421Y1715497D02*
Y1714272D01*
X1982330Y1714217*
X1981180Y1714823*
X1981146Y1714878*
X1981179Y1714933*
X1982329Y1715552*
X1982421Y1715497*
X1983403Y1716391D02*
X1983386Y1716349D01*
X1983384Y1716345*
X1983382Y1716341*
X1983357Y1716297*
X1983353Y1716291*
X1983349Y1716286*
X1983286Y1716217*
X1983284Y1716215*
X1983281Y1716212*
X1983190Y1716135*
X1983075Y1716057*
X1983073Y1716056*
X1983071Y1716055*
X1982926Y1715973*
X1982926*
X1980615Y1714741*
Y1714722*
X1982950Y1713502*
X1982951*
X1982952Y1713501*
X1983052Y1713445*
X1983055Y1713443*
X1983058Y1713441*
X1983152Y1713372*
X1983156Y1713370*
X1983236Y1713289*
X1983306Y1713206*
X1983310Y1713203*
X1983312Y1713199*
X1983362Y1713117*
X1983363Y1713116*
X1983364Y1713114*
X1983403Y1713042*
Y1714018*
X1983380Y1713957*
X1983377Y1713950*
X1983373Y1713944*
X1983323Y1713869*
X1983303Y1713850*
X1983272Y1713831*
X1983264Y1713826*
X1983255Y1713824*
X1983230Y1713818*
X1983219Y1713815*
X1983208Y1713816*
X1983152Y1713822*
X1983146Y1713823*
X1983141Y1713825*
X1983078Y1713843*
X1983074Y1713845*
X1983070Y1713847*
X1982895Y1713928*
X1982894*
X1982892Y1713929*
X1982486Y1714142*
X1982453Y1714197*
Y1715578*
X1982486Y1715633*
X1982929Y1715871*
X1982931Y1715872*
X1982933Y1715873*
X1983083Y1715941*
X1983086Y1715943*
X1983089Y1715944*
X1983151Y1715964*
X1983200Y1715971*
X1983237Y1715965*
X1983264Y1715952*
X1983297Y1715932*
X1983318Y1715911*
X1983368Y1715830*
X1983371Y1715825*
X1983373Y1715819*
X1983403Y1715743*
Y1716391*
X1980653Y1714761D02*
Y1714703D01*
X1980715Y1714794D02*
Y1714670D01*
X1980778Y1714827D02*
Y1714637D01*
X1980840Y1714861D02*
Y1714605D01*
X1980903Y1714894D02*
Y1714572D01*
X1980965Y1714927D02*
Y1714540D01*
X1981028Y1714961D02*
Y1714507D01*
X1981090Y1714994D02*
Y1714474D01*
X1981153Y1714868D02*
Y1714442D01*
Y1715027D02*
Y1714888D01*
X1981215Y1714804D02*
Y1714409D01*
Y1715061D02*
Y1714953D01*
X1981278Y1714771D02*
Y1714376D01*
Y1715094D02*
Y1714986D01*
X1981340Y1714738D02*
Y1714344D01*
Y1715127D02*
Y1715020D01*
X1981403Y1714705D02*
Y1714311D01*
Y1715161D02*
Y1715053D01*
X1981465Y1714673D02*
Y1714278D01*
Y1715194D02*
Y1715087D01*
X1981528Y1714640D02*
Y1714246D01*
Y1715227D02*
Y1715121D01*
X1981590Y1714607D02*
Y1714213D01*
Y1715261D02*
Y1715154D01*
X1981653Y1714574D02*
Y1714180D01*
Y1715294D02*
Y1715188D01*
X1981715Y1714541D02*
Y1714148D01*
Y1715327D02*
Y1715222D01*
X1981778Y1714508D02*
Y1714115D01*
Y1715361D02*
Y1715255D01*
X1981840Y1714475D02*
Y1714082D01*
Y1715394D02*
Y1715289D01*
X1981903Y1714442D02*
Y1714050D01*
Y1715427D02*
Y1715322D01*
X1981965Y1714409D02*
Y1714017D01*
Y1715461D02*
Y1715356D01*
X1982028Y1714376D02*
Y1713984D01*
Y1715494D02*
Y1715390D01*
X1982090Y1714343D02*
Y1713952D01*
Y1715527D02*
Y1715423D01*
X1982153Y1714310D02*
Y1713919D01*
Y1715561D02*
Y1715457D01*
X1982215Y1714277D02*
Y1713886D01*
Y1715594D02*
Y1715491D01*
X1982278Y1714244D02*
Y1713854D01*
Y1715627D02*
Y1715524D01*
X1982340Y1714223D02*
Y1713821D01*
Y1715661D02*
Y1715546D01*
X1982403Y1714261D02*
Y1713789D01*
Y1715694D02*
Y1715508D01*
X1982465Y1714176D02*
Y1713756D01*
Y1715727D02*
Y1715599D01*
X1982528Y1714120D02*
Y1713723D01*
Y1715761D02*
Y1715656D01*
X1982590Y1714087D02*
Y1713691D01*
Y1715794D02*
Y1715689D01*
X1982653Y1714055D02*
Y1713658D01*
Y1715827D02*
Y1715723D01*
X1982715Y1714022D02*
Y1713625D01*
Y1715861D02*
Y1715756D01*
X1982778Y1713989D02*
Y1713593D01*
Y1715894D02*
Y1715790D01*
X1982840Y1713956D02*
Y1713560D01*
Y1715927D02*
Y1715823D01*
X1982903Y1713924D02*
Y1713527D01*
Y1715961D02*
Y1715857D01*
X1982965Y1713895D02*
Y1713494D01*
Y1715995D02*
Y1715887D01*
X1983028Y1713866D02*
Y1713459D01*
Y1716031D02*
Y1715916D01*
X1983090Y1713840D02*
Y1713418D01*
Y1716068D02*
Y1715944D01*
X1983153Y1713822D02*
Y1713372D01*
Y1716109D02*
Y1715965D01*
X1983215Y1713815D02*
Y1713310D01*
Y1716156D02*
Y1715969D01*
X1983278Y1713834D02*
Y1713240D01*
Y1716209D02*
Y1715944D01*
X1983340Y1713894D02*
Y1713153D01*
Y1716277D02*
Y1715876D01*
X1983403Y1714018D02*
Y1713042D01*
Y1716391D02*
Y1715743D01*
Y1719453D02*
X1983376Y1719405D01*
X1983373Y1719398*
X1983368Y1719393*
X1983318Y1719337*
X1983311Y1719329*
X1983259Y1719299*
X1983252Y1719295*
X1983244Y1719293*
X1983175Y1719274*
X1983171Y1719273*
X1983168*
X1983076Y1719259*
X1980996*
X1980895Y1719280*
X1980819Y1719299*
X1980807Y1719302*
X1980797Y1719309*
X1980754Y1719340*
X1980745Y1719346*
X1980739Y1719355*
X1980690Y1719424*
X1980688Y1719432*
X1980684Y1719442*
Y1718542*
X1980706Y1718605*
X1980708Y1718611*
X1980711Y1718616*
X1980761Y1718703*
X1980765Y1718710*
X1980839Y1718784*
X1980845Y1718788*
X1980926Y1718838*
X1980934Y1718843*
X1981044Y1718870*
X1981049Y1718872*
X1981055*
X1981170Y1718878*
X1982961*
X1983114Y1718866*
X1983119Y1718865*
X1983124Y1718864*
X1983181Y1718850*
X1983224Y1718828*
X1983244Y1718813*
X1983281Y1718769*
X1983294Y1718745*
X1983319Y1718658*
X1983320Y1718653*
X1983321Y1718648*
X1983340Y1718498*
Y1718496*
Y1718492*
X1983346Y1718267*
Y1718008*
X1983340Y1717808*
Y1717803*
X1983339Y1717799*
X1983308Y1717618*
X1983307Y1717614*
X1983306Y1717610*
X1983256Y1717442*
X1983255Y1717438*
X1983253Y1717434*
X1983185Y1717278*
X1983182Y1717273*
X1983179Y1717268*
X1983085Y1717131*
X1983084Y1717128*
X1983081Y1717125*
X1982975Y1717000*
X1982972Y1716996*
X1982968Y1716993*
X1982869Y1716910*
X1983403Y1717121*
Y1719453*
X1980715Y1719389D02*
Y1718623D01*
X1980778Y1719323D02*
Y1718723D01*
X1980840Y1719294D02*
Y1718785D01*
X1980903Y1719278D02*
Y1718823D01*
X1980965Y1719266D02*
Y1718850D01*
X1981028Y1719259D02*
Y1718866D01*
X1981090Y1719259D02*
Y1718874D01*
X1981153Y1719259D02*
Y1718877D01*
X1981215Y1719259D02*
Y1718878D01*
X1981278Y1719259D02*
Y1718878D01*
X1981340Y1719259D02*
Y1718878D01*
X1981403Y1719259D02*
Y1718878D01*
X1981465Y1719259D02*
Y1718878D01*
X1981528Y1719259D02*
Y1718878D01*
X1981590Y1719259D02*
Y1718878D01*
X1981653Y1719259D02*
Y1718878D01*
X1981715Y1719259D02*
Y1718878D01*
X1981778Y1719259D02*
Y1718878D01*
X1981840Y1719259D02*
Y1718878D01*
X1981903Y1719259D02*
Y1718878D01*
X1981965Y1719259D02*
Y1718878D01*
X1982028Y1719259D02*
Y1718878D01*
X1982090Y1719259D02*
Y1718878D01*
X1982153Y1719259D02*
Y1718878D01*
X1982215Y1719259D02*
Y1718878D01*
X1982278Y1719259D02*
Y1718878D01*
X1982340Y1719259D02*
Y1718878D01*
X1982403Y1719259D02*
Y1718878D01*
X1982465Y1719259D02*
Y1718878D01*
X1982528Y1719259D02*
Y1718878D01*
X1982590Y1719259D02*
Y1718878D01*
X1982653Y1719259D02*
Y1718878D01*
X1982715Y1719259D02*
Y1718878D01*
X1982778Y1719259D02*
Y1718878D01*
X1982840Y1719259D02*
Y1718878D01*
X1982903Y1716938D02*
Y1716923D01*
Y1719259D02*
Y1718878D01*
X1982965Y1716991D02*
Y1716948D01*
Y1719259D02*
Y1718878D01*
X1983028Y1717062D02*
Y1716973D01*
Y1719259D02*
Y1718873D01*
X1983090Y1717137D02*
Y1716997D01*
Y1719262D02*
Y1718868D01*
X1983153Y1717229D02*
Y1717022D01*
Y1719270D02*
Y1718857D01*
X1983215Y1717347D02*
Y1717047D01*
Y1719285D02*
Y1718832D01*
X1983278Y1717514D02*
Y1717071D01*
Y1719310D02*
Y1718773D01*
X1983340Y1717808D02*
Y1717096D01*
Y1719362D02*
Y1718492D01*
X1983403Y1719453D02*
Y1717121D01*
Y1725422D02*
X1983376Y1725373D01*
X1983373Y1725367*
X1983368Y1725362*
X1983318Y1725305*
X1983311Y1725298*
X1983259Y1725268*
X1983252Y1725264*
X1983244Y1725262*
X1983175Y1725243*
X1983171Y1725242*
X1983168Y1725241*
X1983076Y1725228*
X1980996*
X1980895Y1725249*
X1980819Y1725268*
X1980793Y1725281*
X1980745Y1725322*
X1980741Y1725327*
X1980697Y1725384*
X1980691Y1725391*
X1980688Y1725401*
X1980684Y1725411*
Y1724511*
X1980706Y1724574*
X1980708Y1724579*
X1980711Y1724584*
X1980761Y1724672*
X1980765Y1724679*
X1980839Y1724753*
X1980845Y1724756*
X1980926Y1724806*
X1980934Y1724812*
X1981044Y1724839*
X1981049Y1724840*
X1981055Y1724841*
X1981170Y1724847*
X1982960*
X1983111Y1724841*
X1983121Y1724840*
X1983131Y1724837*
X1983181Y1724818*
X1983184Y1724817*
X1983187Y1724815*
X1983224Y1724797*
X1983244Y1724781*
X1983281Y1724738*
X1983294Y1724714*
X1983319Y1724627*
X1983320Y1724622*
X1983321Y1724617*
X1983340Y1724467*
Y1724464*
Y1724461*
X1983346Y1724235*
Y1723977*
X1983340Y1723776*
Y1723772*
X1983339Y1723768*
X1983308Y1723586*
X1983307Y1723583*
X1983306Y1723579*
X1983256Y1723410*
X1983255Y1723407*
X1983253Y1723403*
X1983185Y1723247*
X1983182Y1723242*
X1983179Y1723237*
X1983085Y1723099*
X1983084Y1723097*
X1983081Y1723094*
X1982975Y1722969*
X1982972Y1722965*
X1982968Y1722962*
X1982869Y1722879*
X1983403Y1723090*
Y1725422*
X1980715Y1725360D02*
Y1724592D01*
X1980778Y1725294D02*
Y1724692D01*
X1980840Y1725262D02*
Y1724754D01*
X1980903Y1725247D02*
Y1724792D01*
X1980965Y1725235D02*
Y1724819D01*
X1981028Y1725228D02*
Y1724835D01*
X1981090Y1725228D02*
Y1724843D01*
X1981153Y1725228D02*
Y1724846D01*
X1981215Y1725228D02*
Y1724847D01*
X1981278Y1725228D02*
Y1724847D01*
X1981340Y1725228D02*
Y1724847D01*
X1981403Y1725228D02*
Y1724847D01*
X1981465Y1725228D02*
Y1724847D01*
X1981528Y1725228D02*
Y1724847D01*
X1981590Y1725228D02*
Y1724847D01*
X1981653Y1725228D02*
Y1724847D01*
X1981715Y1725228D02*
Y1724847D01*
X1981778Y1725228D02*
Y1724847D01*
X1981840Y1725228D02*
Y1724847D01*
X1981903Y1725228D02*
Y1724847D01*
X1981965Y1725228D02*
Y1724847D01*
X1982028Y1725228D02*
Y1724847D01*
X1982090Y1725228D02*
Y1724847D01*
X1982153Y1725228D02*
Y1724847D01*
X1982215Y1725228D02*
Y1724847D01*
X1982278Y1725228D02*
Y1724847D01*
X1982340Y1725228D02*
Y1724847D01*
X1982403Y1725228D02*
Y1724847D01*
X1982465Y1725228D02*
Y1724847D01*
X1982528Y1725228D02*
Y1724847D01*
X1982590Y1725228D02*
Y1724847D01*
X1982653Y1725228D02*
Y1724847D01*
X1982715Y1725228D02*
Y1724847D01*
X1982778Y1725228D02*
Y1724847D01*
X1982840Y1725228D02*
Y1724847D01*
X1982903Y1722907D02*
Y1722892D01*
Y1725228D02*
Y1724847D01*
X1982965Y1722959D02*
Y1722917D01*
Y1725228D02*
Y1724847D01*
X1983028Y1723031D02*
Y1722941D01*
Y1725228D02*
Y1724844D01*
X1983090Y1723106D02*
Y1722966D01*
Y1725230D02*
Y1724842D01*
X1983153Y1723198D02*
Y1722991D01*
Y1725239D02*
Y1724829D01*
X1983215Y1723316D02*
Y1723015D01*
Y1725254D02*
Y1724801D01*
X1983278Y1723482D02*
Y1723040D01*
Y1725279D02*
Y1724742D01*
X1983340Y1723777D02*
Y1723065D01*
Y1725330D02*
Y1724460D01*
X1983403Y1725422D02*
Y1723090D01*
X1982421Y1728628D02*
Y1727403D01*
X1982330Y1727348*
X1981180Y1727954*
X1981146Y1728009*
X1981179Y1728065*
X1982329Y1728683*
X1982421Y1728628*
X1983403Y1729522D02*
X1983386Y1729480D01*
X1983384Y1729476*
X1983382Y1729472*
X1983357Y1729428*
X1983353Y1729423*
X1983349Y1729417*
X1983286Y1729349*
X1983284Y1729346*
X1983281Y1729343*
X1983190Y1729266*
X1983075Y1729189*
X1983073Y1729187*
X1983071Y1729186*
X1982926Y1729105*
Y1729104*
X1980615Y1727872*
Y1727854*
X1982950Y1726634*
X1982951Y1726633*
X1982952*
X1983052Y1726576*
X1983055Y1726575*
X1983058Y1726572*
X1983152Y1726504*
X1983156Y1726501*
X1983235Y1726421*
X1983305Y1726345*
X1983309Y1726341*
X1983312Y1726336*
X1983362Y1726255*
X1983363Y1726252*
X1983365Y1726250*
X1983403Y1726174*
Y1727149*
X1983380Y1727088*
X1983377Y1727080*
X1983372Y1727073*
X1983322Y1727004*
X1983317Y1726997*
X1983310Y1726992*
X1983279Y1726967*
X1983255Y1726955*
X1983230Y1726949*
X1983219Y1726946*
X1983208Y1726947*
X1983152Y1726954*
X1983146*
X1983141Y1726956*
X1983078Y1726975*
X1983074Y1726976*
X1983070Y1726978*
X1982895Y1727059*
X1982894Y1727060*
X1982892*
X1982486Y1727273*
X1982453Y1727328*
Y1728709*
X1982486Y1728765*
X1982929Y1729002*
X1982931Y1729003*
X1982933Y1729004*
X1983083Y1729073*
X1983086Y1729074*
X1983089Y1729075*
X1983151Y1729096*
X1983212Y1729104*
X1983249Y1729095*
X1983273Y1729083*
X1983304Y1729058*
X1983313Y1729052*
X1983318Y1729042*
X1983368Y1728961*
X1983371Y1728956*
X1983373Y1728951*
X1983403Y1728878*
Y1729522*
X1980653Y1727892D02*
Y1727834D01*
X1980715Y1727925D02*
Y1727801D01*
X1980778Y1727959D02*
Y1727769D01*
X1980840Y1727992D02*
Y1727736D01*
X1980903Y1728025D02*
Y1727703D01*
X1980965Y1728059D02*
Y1727671D01*
X1981028Y1728092D02*
Y1727638D01*
X1981090Y1728125D02*
Y1727605D01*
X1981153Y1727999D02*
Y1727573D01*
Y1728159D02*
Y1728020D01*
X1981215Y1727936D02*
Y1727540D01*
Y1728192D02*
Y1728084D01*
X1981278Y1727903D02*
Y1727508D01*
Y1728225D02*
Y1728117D01*
X1981340Y1727870D02*
Y1727475D01*
Y1728259D02*
Y1728151D01*
X1981403Y1727837D02*
Y1727442D01*
Y1728292D02*
Y1728185D01*
X1981465Y1727804D02*
Y1727410D01*
Y1728325D02*
Y1728218D01*
X1981528Y1727771D02*
Y1727377D01*
Y1728359D02*
Y1728252D01*
X1981590Y1727738D02*
Y1727344D01*
Y1728392D02*
Y1728286D01*
X1981653Y1727705D02*
Y1727312D01*
Y1728425D02*
Y1728319D01*
X1981715Y1727672D02*
Y1727279D01*
Y1728459D02*
Y1728353D01*
X1981778Y1727639D02*
Y1727246D01*
Y1728492D02*
Y1728386D01*
X1981840Y1727606D02*
Y1727214D01*
Y1728525D02*
Y1728420D01*
X1981903Y1727573D02*
Y1727181D01*
Y1728559D02*
Y1728454D01*
X1981965Y1727540D02*
Y1727148D01*
Y1728592D02*
Y1728487D01*
X1982028Y1727507D02*
Y1727116D01*
Y1728625D02*
Y1728521D01*
X1982090Y1727474D02*
Y1727083D01*
Y1728659D02*
Y1728555D01*
X1982153Y1727441D02*
Y1727050D01*
Y1728692D02*
Y1728588D01*
X1982215Y1727408D02*
Y1727018D01*
Y1728725D02*
Y1728622D01*
X1982278Y1727375D02*
Y1726985D01*
Y1728759D02*
Y1728656D01*
X1982340Y1727354D02*
Y1726952D01*
Y1728792D02*
Y1728677D01*
X1982403Y1727392D02*
Y1726920D01*
Y1728825D02*
Y1728639D01*
X1982465Y1727308D02*
Y1726887D01*
Y1728859D02*
Y1728730D01*
X1982528Y1727251D02*
Y1726854D01*
Y1728892D02*
Y1728787D01*
X1982590Y1727218D02*
Y1726822D01*
Y1728925D02*
Y1728821D01*
X1982653Y1727186D02*
Y1726789D01*
Y1728959D02*
Y1728854D01*
X1982715Y1727153D02*
Y1726757D01*
Y1728992D02*
Y1728887D01*
X1982778Y1727120D02*
Y1726724D01*
Y1729025D02*
Y1728921D01*
X1982840Y1727088D02*
Y1726691D01*
Y1729059D02*
Y1728954D01*
X1982903Y1727056D02*
Y1726659D01*
Y1729092D02*
Y1728988D01*
X1982965Y1727027D02*
Y1726625D01*
Y1729127D02*
Y1729019D01*
X1983028Y1726998D02*
Y1726590D01*
Y1729162D02*
Y1729047D01*
X1983090Y1726971D02*
Y1726549D01*
Y1729199D02*
Y1729075D01*
X1983153Y1726954D02*
Y1726503D01*
Y1729241D02*
Y1729096D01*
X1983215Y1726947D02*
Y1726442D01*
Y1729287D02*
Y1729104D01*
X1983278Y1726966D02*
Y1726375D01*
Y1729341D02*
Y1729080D01*
X1983340Y1727029D02*
Y1726290D01*
Y1729408D02*
Y1729007D01*
X1983403Y1727149D02*
Y1726174D01*
Y1729522D02*
Y1728878D01*
X1983446Y1730440D02*
X1981177Y1732766D01*
X1981164Y1732834*
X1981221Y1732872*
X1982973*
X1983093Y1732866*
X1983096*
X1983098Y1732865*
X1983192Y1732853*
X1983196Y1732852*
X1983200Y1732851*
X1983269Y1732832*
X1983278Y1732830*
X1983286Y1732825*
X1983336Y1732794*
X1983355Y1732775*
X1983392Y1732719*
X1983397Y1732712*
X1983399Y1732704*
X1983403Y1732695*
Y1733171*
X1983385Y1733129*
X1983381Y1733120*
X1983374Y1733112*
X1983324Y1733055*
X1983317Y1733048*
X1983265Y1733018*
X1983259Y1733014*
X1983252Y1733012*
X1983189Y1732993*
X1983183Y1732991*
X1983176*
X1983088Y1732985*
X1983088*
X1983087*
X1982973Y1732978*
X1980990*
X1980941Y1733002*
X1980847Y1733121*
X1980846Y1733122*
X1980845Y1733124*
X1980763Y1733243*
X1980761Y1733246*
X1980703Y1733363*
X1980701Y1733366*
X1980700Y1733369*
X1980684Y1733414*
Y1732804*
X1982797Y1730647*
X1982810Y1730579*
X1982753Y1730541*
X1980992*
X1980889Y1730554*
X1980882Y1730555*
X1980875Y1730557*
X1980806Y1730582*
X1980798Y1730585*
X1980791Y1730590*
X1980747Y1730621*
X1980738Y1730628*
X1980732Y1730637*
X1980694Y1730694*
X1980690Y1730700*
X1980688Y1730707*
X1980684Y1730717*
Y1730249*
X1980707Y1730297*
X1980770Y1730360*
X1980778Y1730364*
X1980821Y1730389*
X1980828Y1730392*
X1980835Y1730394*
X1980897Y1730413*
X1980902Y1730414*
X1980906Y1730415*
X1980994Y1730428*
X1980996*
X1980999*
X1981113Y1730434*
X1983446*
Y1730440*
X1980696Y1730691D02*
Y1730274D01*
Y1733380D02*
Y1732791D01*
X1980759Y1730613D02*
Y1730348D01*
Y1733251D02*
Y1732727D01*
X1980821Y1730577D02*
Y1730389D01*
Y1733158D02*
Y1732663D01*
X1980884Y1730554D02*
Y1730409D01*
Y1733074D02*
Y1732600D01*
X1980946Y1730547D02*
Y1730421D01*
Y1732999D02*
Y1732536D01*
X1981009Y1730541D02*
Y1730429D01*
Y1732978D02*
Y1732472D01*
X1981071Y1730541D02*
Y1730432D01*
Y1732978D02*
Y1732408D01*
X1981134Y1730541D02*
Y1730434D01*
Y1732978D02*
Y1732345D01*
X1981196Y1730541D02*
Y1730434D01*
Y1732746D02*
Y1732281D01*
Y1732978D02*
Y1732855D01*
X1981259Y1730541D02*
Y1730434D01*
Y1732682D02*
Y1732217D01*
Y1732978D02*
Y1732872D01*
X1981321Y1730541D02*
Y1730434D01*
Y1732618D02*
Y1732153D01*
Y1732978D02*
Y1732872D01*
X1981384Y1730541D02*
Y1730434D01*
Y1732554D02*
Y1732089D01*
Y1732978D02*
Y1732872D01*
X1981446Y1730541D02*
Y1730434D01*
Y1732489D02*
Y1732026D01*
Y1732978D02*
Y1732872D01*
X1981509Y1730541D02*
Y1730434D01*
Y1732425D02*
Y1731962D01*
Y1732978D02*
Y1732872D01*
X1981571Y1730541D02*
Y1730434D01*
Y1732361D02*
Y1731898D01*
Y1732978D02*
Y1732872D01*
X1981634Y1730541D02*
Y1730434D01*
Y1732297D02*
Y1731834D01*
Y1732978D02*
Y1732872D01*
X1981696Y1730541D02*
Y1730434D01*
Y1732233D02*
Y1731770D01*
Y1732978D02*
Y1732872D01*
X1981759Y1730541D02*
Y1730434D01*
Y1732169D02*
Y1731707D01*
Y1732978D02*
Y1732872D01*
X1981821Y1730541D02*
Y1730434D01*
Y1732105D02*
Y1731643D01*
Y1732978D02*
Y1732872D01*
X1981884Y1730541D02*
Y1730434D01*
Y1732041D02*
Y1731579D01*
Y1732978D02*
Y1732872D01*
X1981946Y1730541D02*
Y1730434D01*
Y1731977D02*
Y1731515D01*
Y1732978D02*
Y1732872D01*
X1982009Y1730541D02*
Y1730434D01*
Y1731913D02*
Y1731452D01*
Y1732978D02*
Y1732872D01*
X1982071Y1730541D02*
Y1730434D01*
Y1731849D02*
Y1731388D01*
Y1732978D02*
Y1732872D01*
X1982134Y1730541D02*
Y1730434D01*
Y1731785D02*
Y1731324D01*
Y1732978D02*
Y1732872D01*
X1982196Y1730541D02*
Y1730434D01*
Y1731721D02*
Y1731260D01*
Y1732978D02*
Y1732872D01*
X1982259Y1730541D02*
Y1730434D01*
Y1731657D02*
Y1731196D01*
Y1732978D02*
Y1732872D01*
X1982321Y1730541D02*
Y1730434D01*
Y1731593D02*
Y1731133D01*
Y1732978D02*
Y1732872D01*
X1982384Y1730541D02*
Y1730434D01*
Y1731529D02*
Y1731069D01*
Y1732978D02*
Y1732872D01*
X1982446Y1730541D02*
Y1730434D01*
Y1731465D02*
Y1731005D01*
Y1732978D02*
Y1732872D01*
X1982509Y1730541D02*
Y1730434D01*
Y1731401D02*
Y1730941D01*
Y1732978D02*
Y1732872D01*
X1982571Y1730541D02*
Y1730434D01*
Y1731337D02*
Y1730878D01*
Y1732978D02*
Y1732872D01*
X1982634Y1730541D02*
Y1730434D01*
Y1731273D02*
Y1730814D01*
Y1732978D02*
Y1732872D01*
X1982696Y1730541D02*
Y1730434D01*
Y1731209D02*
Y1730750D01*
Y1732978D02*
Y1732872D01*
X1982759Y1730545D02*
Y1730434D01*
Y1731145D02*
Y1730686D01*
Y1732978D02*
Y1732872D01*
X1982821Y1731081D02*
Y1730434D01*
Y1732978D02*
Y1732872D01*
X1982884Y1731017D02*
Y1730434D01*
Y1732978D02*
Y1732872D01*
X1982946Y1730953D02*
Y1730434D01*
Y1732978D02*
Y1732872D01*
X1983009Y1730889D02*
Y1730434D01*
Y1732980D02*
Y1732870D01*
X1983071Y1730825D02*
Y1730434D01*
Y1732984D02*
Y1732867D01*
X1983134Y1730760D02*
Y1730434D01*
Y1732988D02*
Y1732860D01*
X1983196Y1730696D02*
Y1730434D01*
Y1732996D02*
Y1732852D01*
X1983259Y1730632D02*
Y1730434D01*
Y1733014D02*
Y1732835D01*
X1983321Y1730568D02*
Y1730434D01*
Y1733052D02*
Y1732803D01*
X1983384Y1730504D02*
Y1730434D01*
Y1733126D02*
Y1732732D01*
X1983446Y1730440D02*
Y1730434D01*
Y1735632D02*
Y1735626D01*
X1983433Y1735532*
Y1735531*
Y1735529*
X1983414Y1735429*
X1983413Y1735426*
X1983412Y1735422*
X1983379Y1735317*
X1983326Y1735211*
X1983269Y1735115*
X1983268Y1735113*
X1983266Y1735112*
X1983198Y1735012*
X1983196Y1735009*
X1983194Y1735006*
X1983119Y1734919*
X1983118Y1734918*
X1983117Y1734917*
X1983029Y1734823*
X1983026Y1734820*
X1983023Y1734817*
X1982928Y1734741*
X1982828Y1734666*
X1982826Y1734664*
X1982824Y1734663*
X1982718Y1734595*
X1982715Y1734593*
X1982712Y1734591*
X1982597Y1734534*
X1982477Y1734483*
X1982473Y1734481*
X1982468Y1734480*
X1982348Y1734449*
X1982221Y1734423*
X1982216Y1734422*
X1982212*
X1982087Y1734416*
X1982084*
X1982082*
X1981900Y1734422*
X1981898*
X1981895*
X1981733Y1734441*
X1981732*
X1981730Y1734442*
X1981574Y1734467*
X1981569*
X1981565Y1734469*
X1981427Y1734512*
X1981426Y1734513*
X1981424Y1734514*
X1981293Y1734564*
X1981290*
X1981288Y1734566*
X1981169Y1734622*
X1981165Y1734624*
X1981160Y1734627*
X1981054Y1734702*
X1981051Y1734704*
X1981049Y1734706*
X1980949Y1734794*
X1980945Y1734797*
X1980942Y1734801*
X1980879Y1734877*
X1980815Y1734959*
X1980812Y1734964*
X1980765Y1735058*
X1980720Y1735159*
X1980719Y1735163*
X1980718Y1735166*
X1980687Y1735266*
X1980685Y1735270*
Y1735274*
X1980646Y1735504*
Y1735758*
X1980666Y1735877*
X1980685Y1735977*
X1980686Y1735981*
X1980687Y1735984*
X1980718Y1736084*
X1980719Y1736087*
Y1736089*
X1980757Y1736183*
X1980759Y1736187*
X1980761Y1736191*
X1980811Y1736278*
X1980812Y1736280*
X1980814Y1736283*
X1980870Y1736364*
X1980872Y1736367*
X1980875Y1736370*
X1980944Y1736445*
X1980946Y1736448*
X1980949Y1736450*
X1981043Y1736532*
X1981045Y1736534*
X1981048Y1736536*
X1981154Y1736611*
X1981157Y1736613*
X1981160Y1736614*
X1981272Y1736677*
X1981276Y1736679*
X1981279Y1736680*
X1981404Y1736730*
X1981407Y1736731*
X1981410Y1736732*
X1981542Y1736770*
X1981544*
X1981545Y1736771*
X1981689Y1736802*
X1981693Y1736803*
X1981698*
X1981854Y1736816*
X1981855*
X1981856*
X1982019Y1736822*
X1982021*
X1982024*
X1982194Y1736816*
X1982357Y1736803*
X1982361*
X1982365Y1736802*
X1982515Y1736771*
X1982518Y1736770*
X1982521Y1736769*
X1982659Y1736725*
X1982661*
X1982662Y1736724*
X1982794Y1736674*
X1982797Y1736673*
X1982800Y1736671*
X1982919Y1736609*
X1982923Y1736607*
X1982926Y1736604*
X1983032Y1736529*
X1983035Y1736527*
X1983037Y1736525*
X1983137Y1736438*
X1983140Y1736436*
X1983142Y1736433*
X1983211Y1736358*
X1983214Y1736355*
X1983216Y1736351*
X1983273Y1736270*
X1983274Y1736268*
X1983276Y1736266*
X1983326Y1736178*
X1983327Y1736175*
X1983329Y1736172*
X1983366Y1736084*
X1983367Y1736081*
X1983368Y1736078*
X1983400Y1735976*
X1983426Y1735875*
X1983427Y1735871*
Y1735866*
X1983440Y1735754*
Y1735752*
Y1735750*
X1983446Y1735638*
Y1735632*
X1983465Y1735628D02*
X1983459Y1735764D01*
X1983429Y1735900*
X1983387Y1736039*
X1983333Y1736184*
X1983260Y1736330*
X1983181Y1736469*
X1983084Y1736603*
X1982980Y1736731*
X1982870Y1736853*
X1982755Y1736962*
X1982634Y1737059*
X1982514Y1737143*
X1982389Y1737209*
X1982270Y1737257*
X1982148Y1737291*
X1982033Y1737297*
X1981871Y1737291*
X1981723Y1737267*
X1981581Y1737226*
X1981444Y1737160*
X1981318Y1737089*
X1981194Y1736994*
X1981081Y1736881*
X1980978Y1736747*
X1980893Y1736626*
X1980820Y1736493*
X1980754Y1736361*
X1980706Y1736217*
X1980670Y1736071*
X1980639Y1735913*
X1980621Y1735755*
X1980615Y1735586*
X1980627Y1735462*
X1980651Y1735331*
X1980693Y1735194*
X1980753Y1735055*
X1980826Y1734914*
X1980905Y1734775*
X1981003Y1734641*
X1981100Y1734513*
X1981210Y1734397*
X1981326Y1734281*
X1981441Y1734184*
X1981560Y1734101*
X1981686Y1734034*
X1981804Y1733981*
X1981920Y1733952*
X1982028Y1733941*
X1982142Y1733952*
X1982257Y1733981*
X1982381Y1734034*
X1982500Y1734100*
X1982627Y1734191*
X1982749Y1734288*
X1982864Y1734397*
X1982973Y1734518*
X1983077Y1734653*
X1983175Y1734787*
X1983260Y1734933*
X1983327Y1735072*
X1983387Y1735218*
X1983429Y1735362*
X1983459Y1735499*
X1983465Y1735628*
X1980652Y1735467D02*
Y1735325D01*
Y1735981D02*
Y1735796D01*
X1980715Y1735175D02*
Y1735142D01*
Y1736243D02*
Y1736075D01*
X1980777Y1735032D02*
Y1735008D01*
Y1736407D02*
Y1736220D01*
X1980840Y1734927D02*
Y1734890D01*
Y1736529D02*
Y1736321D01*
X1980902Y1734848D02*
Y1734779D01*
Y1736640D02*
Y1736400D01*
X1980965Y1734780D02*
Y1734692D01*
Y1736729D02*
Y1736464D01*
X1981027Y1734725D02*
Y1734608D01*
Y1736812D02*
Y1736518D01*
X1981090Y1734677D02*
Y1734526D01*
Y1736890D02*
Y1736565D01*
X1981152Y1734633D02*
Y1734457D01*
Y1736952D02*
Y1736609D01*
X1981215Y1734600D02*
Y1734392D01*
Y1737010D02*
Y1736645D01*
X1981277Y1734571D02*
Y1734329D01*
Y1737057D02*
Y1736679D01*
X1981340Y1734546D02*
Y1734269D01*
Y1737101D02*
Y1736704D01*
X1981402Y1734522D02*
Y1734216D01*
Y1737137D02*
Y1736729D01*
X1981465Y1734500D02*
Y1734167D01*
Y1737170D02*
Y1736748D01*
X1981527Y1734481D02*
Y1734123D01*
Y1737200D02*
Y1736766D01*
X1981590Y1734464D02*
Y1734085D01*
Y1737228D02*
Y1736780D01*
X1981652Y1734454D02*
Y1734052D01*
Y1737247D02*
Y1736794D01*
X1981715Y1734444D02*
Y1734021D01*
Y1737265D02*
Y1736804D01*
X1981777Y1734436D02*
Y1733993D01*
Y1737276D02*
Y1736809D01*
X1981840Y1734429D02*
Y1733972D01*
Y1737286D02*
Y1736814D01*
X1981902Y1734422D02*
Y1733957D01*
Y1737292D02*
Y1736817D01*
X1981965Y1734420D02*
Y1733948D01*
Y1737294D02*
Y1736820D01*
X1982027Y1734418D02*
Y1733941D01*
Y1737297D02*
Y1736822D01*
X1982090Y1734416D02*
Y1733947D01*
Y1737294D02*
Y1736819D01*
X1982152Y1734419D02*
Y1733955D01*
Y1737290D02*
Y1736817D01*
X1982215Y1734422D02*
Y1733971D01*
Y1737272D02*
Y1736814D01*
X1982277Y1734434D02*
Y1733990D01*
Y1737253D02*
Y1736809D01*
X1982340Y1734447D02*
Y1734017D01*
Y1737228D02*
Y1736804D01*
X1982402Y1734463D02*
Y1734046D01*
Y1737202D02*
Y1736794D01*
X1982465Y1734479D02*
Y1734080D01*
Y1737169D02*
Y1736781D01*
X1982527Y1734504D02*
Y1734119D01*
Y1737134D02*
Y1736767D01*
X1982590Y1734531D02*
Y1734164D01*
Y1737090D02*
Y1736747D01*
X1982652Y1734561D02*
Y1734211D01*
Y1737045D02*
Y1736727D01*
X1982715Y1734593D02*
Y1734261D01*
Y1736995D02*
Y1736704D01*
X1982777Y1734633D02*
Y1734315D01*
Y1736941D02*
Y1736680D01*
X1982840Y1734675D02*
Y1734374D01*
Y1736882D02*
Y1736650D01*
X1982902Y1734722D02*
Y1734440D01*
Y1736818D02*
Y1736617D01*
X1982965Y1734771D02*
Y1734509D01*
Y1736748D02*
Y1736577D01*
X1983027Y1734821D02*
Y1734588D01*
Y1736673D02*
Y1736533D01*
X1983090Y1734888D02*
Y1734670D01*
Y1736595D02*
Y1736479D01*
X1983152Y1734958D02*
Y1734756D01*
Y1736509D02*
Y1736422D01*
X1983215Y1735037D02*
Y1734856D01*
Y1736410D02*
Y1736353D01*
X1983277Y1735130D02*
Y1734970D01*
Y1736295D02*
Y1736262D01*
X1983340Y1735238D02*
Y1735104D01*
Y1736165D02*
Y1736145D01*
X1983402Y1735391D02*
Y1735270D01*
Y1735989D02*
Y1735967D01*
X1983403Y1738826D02*
X1983383Y1738788D01*
X1983381Y1738782*
X1983377Y1738777*
X1983333Y1738721*
X1983325Y1738711*
X1983315Y1738705*
X1983271Y1738680*
X1983264Y1738676*
X1983256Y1738674*
X1983188Y1738655*
X1983184Y1738654*
X1983180*
X1983086Y1738641*
X1983083*
X1983081*
X1982960Y1738634*
X1981120*
X1980944Y1738641*
X1980939*
X1980934Y1738642*
X1980871Y1738654*
X1980865Y1738656*
X1980859Y1738658*
X1980814Y1738678*
X1980778Y1738696*
X1980741Y1738733*
X1980737Y1738738*
X1980694Y1738807*
X1980689Y1738814*
X1980684Y1738831*
Y1738069*
X1980695Y1738096*
X1980698Y1738104*
X1980703Y1738110*
X1980747Y1738167*
X1980754Y1738175*
X1980763Y1738181*
X1980813Y1738212*
X1980821Y1738217*
X1980830Y1738220*
X1980899Y1738239*
X1980903Y1738240*
X1980907*
X1981000Y1738253*
X1981003*
X1981005*
X1981120Y1738259*
X1982961*
X1983148Y1738247*
X1983215Y1738233*
X1983217*
X1983220Y1738232*
X1983263Y1738220*
X1983275Y1738216*
X1983284Y1738209*
X1983334Y1738172*
X1983350Y1738153*
X1983394Y1738078*
X1983397Y1738073*
X1983403Y1738057*
Y1738826*
X1980715Y1738773D02*
Y1738126D01*
X1980778Y1738696D02*
Y1738190D01*
X1980840Y1738666D02*
Y1738223D01*
X1980903Y1738648D02*
Y1738240D01*
X1980965Y1738640D02*
Y1738248D01*
X1981028Y1738638D02*
Y1738254D01*
X1981090Y1738636D02*
Y1738258D01*
X1981153Y1738634D02*
Y1738259D01*
X1981215Y1738634D02*
Y1738259D01*
X1981278Y1738634D02*
Y1738259D01*
X1981340Y1738634D02*
Y1738259D01*
X1981403Y1738634D02*
Y1738259D01*
X1981465Y1738634D02*
Y1738259D01*
X1981528Y1738634D02*
Y1738259D01*
X1981590Y1738634D02*
Y1738259D01*
X1981653Y1738634D02*
Y1738259D01*
X1981715Y1738634D02*
Y1738259D01*
X1981778Y1738634D02*
Y1738259D01*
X1981840Y1738634D02*
Y1738259D01*
X1981903Y1738634D02*
Y1738259D01*
X1981965Y1738634D02*
Y1738259D01*
X1982028Y1738634D02*
Y1738259D01*
X1982090Y1738634D02*
Y1738259D01*
X1982153Y1738634D02*
Y1738259D01*
X1982215Y1738634D02*
Y1738259D01*
X1982278Y1738634D02*
Y1738259D01*
X1982340Y1738634D02*
Y1738259D01*
X1982403Y1738634D02*
Y1738259D01*
X1982465Y1738634D02*
Y1738259D01*
X1982528Y1738634D02*
Y1738259D01*
X1982590Y1738634D02*
Y1738259D01*
X1982653Y1738634D02*
Y1738259D01*
X1982715Y1738634D02*
Y1738259D01*
X1982778Y1738634D02*
Y1738259D01*
X1982840Y1738634D02*
Y1738259D01*
X1982903Y1738634D02*
Y1738259D01*
X1982965Y1738635D02*
Y1738259D01*
X1983028Y1738638D02*
Y1738255D01*
X1983090Y1738642D02*
Y1738251D01*
X1983153Y1738650D02*
Y1738246D01*
X1983215Y1738663D02*
Y1738233D01*
X1983278Y1738684D02*
Y1738214D01*
X1983340Y1738730D02*
Y1738165D01*
X1983403Y1738826D02*
Y1738057D01*
Y1741358D02*
X1983385Y1741317D01*
X1983381Y1741307*
X1983374Y1741299*
X1983324Y1741243*
X1983317Y1741235*
X1983265Y1741205*
X1983256Y1741200*
X1983246Y1741198*
X1983182Y1741185*
X1983093Y1741173*
X1983090Y1741172*
X1983087*
X1982973Y1741166*
X1980796*
X1980734Y1741228*
Y1741661*
X1980740Y1741874*
Y1741878*
X1980741Y1741881*
X1980753Y1741963*
X1980754Y1741965*
Y1741967*
X1980766Y1742023*
X1980768Y1742029*
X1980770Y1742035*
X1980798Y1742096*
X1980838Y1742157*
X1980840Y1742160*
X1980843Y1742164*
X1980893Y1742220*
X1980897Y1742224*
X1980901Y1742227*
X1981031Y1742331*
X1981112Y1742372*
X1981114Y1742373*
X1981116*
X1981151Y1742388*
X1980684Y1742357*
Y1739574*
X1981137Y1739544*
X1981119Y1739549*
X1981116*
X1981058Y1739569*
X1981052Y1739571*
X1981046Y1739574*
X1981003Y1739599*
X1980998Y1739602*
X1980993Y1739606*
X1980945Y1739647*
X1980941Y1739652*
X1980895Y1739712*
X1980854Y1739779*
X1980813Y1739861*
X1980754Y1740039*
X1980741Y1740132*
X1980740Y1740134*
Y1740136*
X1980734Y1740220*
Y1740728*
X1980796Y1740791*
X1982973*
X1983093Y1740784*
X1983096*
X1983098*
X1983192Y1740771*
X1983199*
X1983205Y1740768*
X1983274Y1740743*
X1983280Y1740741*
X1983286Y1740737*
X1983336Y1740706*
X1983355Y1740688*
X1983392Y1740632*
X1983396Y1740625*
X1983399Y1740618*
X1983403Y1740608*
Y1741358*
X1980715Y1742359D02*
Y1739572D01*
X1980778Y1739968D02*
Y1739568D01*
Y1741184D02*
Y1740772D01*
Y1742363D02*
Y1742051D01*
X1980840Y1739807D02*
Y1739564D01*
Y1741166D02*
Y1740791D01*
Y1742368D02*
Y1742160D01*
X1980903Y1739701D02*
Y1739560D01*
Y1741166D02*
Y1740791D01*
Y1742372D02*
Y1742228D01*
X1980965Y1739630D02*
Y1739556D01*
Y1741166D02*
Y1740791D01*
Y1742376D02*
Y1742278D01*
X1981028Y1739585D02*
Y1739552D01*
Y1741166D02*
Y1740791D01*
Y1742380D02*
Y1742328D01*
X1981090Y1739558D02*
Y1739547D01*
Y1741166D02*
Y1740791D01*
Y1742384D02*
Y1742361D01*
X1981153Y1741166D02*
Y1740791D01*
X1981215Y1741166D02*
Y1740791D01*
X1981278Y1741166D02*
Y1740791D01*
X1981340Y1741166D02*
Y1740791D01*
X1981403Y1741166D02*
Y1740791D01*
X1981465Y1741166D02*
Y1740791D01*
X1981528Y1741166D02*
Y1740791D01*
X1981590Y1741166D02*
Y1740791D01*
X1981653Y1741166D02*
Y1740791D01*
X1981715Y1741166D02*
Y1740791D01*
X1981778Y1741166D02*
Y1740791D01*
X1981840Y1741166D02*
Y1740791D01*
X1981903Y1741166D02*
Y1740791D01*
X1981965Y1741166D02*
Y1740791D01*
X1982028Y1741166D02*
Y1740791D01*
X1982090Y1741166D02*
Y1740791D01*
X1982153Y1741166D02*
Y1740791D01*
X1982215Y1741166D02*
Y1740791D01*
X1982278Y1741166D02*
Y1740791D01*
X1982340Y1741166D02*
Y1740791D01*
X1982403Y1741166D02*
Y1740791D01*
X1982465Y1741166D02*
Y1740791D01*
X1982528Y1741166D02*
Y1740791D01*
X1982590Y1741166D02*
Y1740791D01*
X1982653Y1741166D02*
Y1740791D01*
X1982715Y1741166D02*
Y1740791D01*
X1982778Y1741166D02*
Y1740791D01*
X1982840Y1741166D02*
Y1740791D01*
X1982903Y1741166D02*
Y1740791D01*
X1982965Y1741166D02*
Y1740791D01*
X1983028Y1741169D02*
Y1740788D01*
X1983090Y1741172D02*
Y1740785D01*
X1983153Y1741181D02*
Y1740777D01*
X1983215Y1741192D02*
Y1740765D01*
X1983278Y1741213D02*
Y1740742D01*
X1983340Y1741261D02*
Y1740702D01*
X1983403Y1741358D02*
Y1740608D01*
X1982421Y1745341D02*
Y1744116D01*
X1982330Y1744060*
X1981180Y1744667*
X1981146Y1744722*
X1981179Y1744777*
X1982329Y1745396*
X1982421Y1745341*
X1983403Y1746235D02*
X1983386Y1746193D01*
X1983384Y1746189*
X1983382Y1746185*
X1983357Y1746141*
X1983353Y1746135*
X1983349Y1746130*
X1983286Y1746061*
X1983283Y1746057*
X1983279Y1746054*
X1983191Y1745985*
X1983189Y1745984*
X1983187Y1745982*
X1983075Y1745907*
X1983073Y1745906*
X1983071Y1745905*
X1982927Y1745824*
X1982926*
Y1745823*
X1980615Y1744585*
Y1744572*
X1982950Y1743352*
X1982952Y1743351*
X1982954Y1743350*
X1983054Y1743287*
X1983056Y1743286*
X1983058Y1743285*
X1983152Y1743216*
X1983155Y1743214*
X1983157Y1743212*
X1983232Y1743143*
X1983235Y1743140*
X1983238Y1743137*
X1983306Y1743056*
X1983310Y1743053*
X1983312Y1743049*
X1983362Y1742967*
X1983363Y1742966*
X1983364Y1742964*
X1983403Y1742892*
Y1743865*
X1983380Y1743806*
X1983377Y1743799*
X1983373Y1743794*
X1983323Y1743719*
X1983303Y1743700*
X1983272Y1743681*
X1983264Y1743676*
X1983255Y1743674*
X1983230Y1743668*
X1983219Y1743665*
X1983208Y1743666*
X1983152Y1743672*
X1983146Y1743673*
X1983141Y1743675*
X1983078Y1743693*
X1983075Y1743694*
X1983072Y1743696*
X1982897Y1743771*
X1982894Y1743772*
X1982892Y1743773*
X1982485Y1743992*
X1982453Y1744047*
Y1745422*
X1982485Y1745477*
X1982929Y1745721*
X1982932Y1745722*
X1982935Y1745723*
X1983085Y1745786*
X1983087Y1745787*
X1983089Y1745788*
X1983151Y1745808*
X1983212Y1745817*
X1983249Y1745808*
X1983258Y1745805*
X1983266Y1745801*
X1983297Y1745782*
X1983318Y1745761*
X1983368Y1745680*
X1983371Y1745675*
X1983373Y1745669*
X1983403Y1745593*
Y1746235*
X1980653Y1744605D02*
Y1744553D01*
X1980715Y1744638D02*
Y1744520D01*
X1980778Y1744672D02*
Y1744487D01*
X1980840Y1744705D02*
Y1744455D01*
X1980903Y1744739D02*
Y1744422D01*
X1980965Y1744772D02*
Y1744390D01*
X1981028Y1744806D02*
Y1744357D01*
X1981090Y1744839D02*
Y1744324D01*
X1981153Y1744711D02*
Y1744292D01*
Y1744873D02*
Y1744732D01*
X1981215Y1744648D02*
Y1744259D01*
Y1744906D02*
Y1744796D01*
X1981278Y1744615D02*
Y1744226D01*
Y1744940D02*
Y1744830D01*
X1981340Y1744582D02*
Y1744194D01*
Y1744973D02*
Y1744864D01*
X1981403Y1744549D02*
Y1744161D01*
Y1745007D02*
Y1744897D01*
X1981465Y1744516D02*
Y1744128D01*
Y1745040D02*
Y1744931D01*
X1981528Y1744483D02*
Y1744096D01*
Y1745074D02*
Y1744964D01*
X1981590Y1744450D02*
Y1744063D01*
Y1745107D02*
Y1744998D01*
X1981653Y1744417D02*
Y1744030D01*
Y1745141D02*
Y1745032D01*
X1981715Y1744384D02*
Y1743998D01*
Y1745174D02*
Y1745065D01*
X1981778Y1744352D02*
Y1743965D01*
Y1745208D02*
Y1745099D01*
X1981840Y1744319D02*
Y1743932D01*
Y1745241D02*
Y1745133D01*
X1981903Y1744286D02*
Y1743900D01*
Y1745275D02*
Y1745166D01*
X1981965Y1744253D02*
Y1743867D01*
Y1745308D02*
Y1745200D01*
X1982028Y1744220D02*
Y1743834D01*
Y1745342D02*
Y1745233D01*
X1982090Y1744187D02*
Y1743802D01*
Y1745375D02*
Y1745267D01*
X1982153Y1744154D02*
Y1743769D01*
Y1745409D02*
Y1745301D01*
X1982215Y1744121D02*
Y1743736D01*
Y1745442D02*
Y1745334D01*
X1982278Y1744088D02*
Y1743704D01*
Y1745476D02*
Y1745368D01*
X1982340Y1744067D02*
Y1743671D01*
Y1745509D02*
Y1745389D01*
X1982403Y1744104D02*
Y1743639D01*
Y1745543D02*
Y1745352D01*
X1982465Y1744026D02*
Y1743606D01*
Y1745576D02*
Y1745443D01*
X1982528Y1743969D02*
Y1743573D01*
Y1745610D02*
Y1745500D01*
X1982590Y1743936D02*
Y1743541D01*
Y1745643D02*
Y1745535D01*
X1982653Y1743902D02*
Y1743508D01*
Y1745677D02*
Y1745569D01*
X1982715Y1743868D02*
Y1743475D01*
Y1745710D02*
Y1745603D01*
X1982778Y1743835D02*
Y1743443D01*
Y1745744D02*
Y1745637D01*
X1982840Y1743801D02*
Y1743410D01*
Y1745777D02*
Y1745672D01*
X1982903Y1743768D02*
Y1743377D01*
Y1745811D02*
Y1745706D01*
X1982965Y1743741D02*
Y1743343D01*
Y1745845D02*
Y1745736D01*
X1983028Y1743715D02*
Y1743304D01*
Y1745881D02*
Y1745762D01*
X1983090Y1743690D02*
Y1743262D01*
Y1745918D02*
Y1745788D01*
X1983153Y1743672D02*
Y1743216D01*
Y1745959D02*
Y1745808D01*
X1983215Y1743665D02*
Y1743159D01*
Y1746004D02*
Y1745816D01*
X1983278Y1743684D02*
Y1743090D01*
Y1746053D02*
Y1745794D01*
X1983340Y1743744D02*
Y1743003D01*
Y1746120D02*
Y1745726D01*
X1983403Y1743865D02*
Y1742892D01*
Y1746235D02*
Y1745593D01*
X1983446Y1747153D02*
X1981177Y1749478D01*
X1981164Y1749546*
X1981221Y1749585*
X1983094*
X1983098Y1749584*
X1983192Y1749571*
X1983199*
X1983205Y1749568*
X1983274Y1749543*
X1983280Y1749541*
X1983286Y1749538*
X1983336Y1749506*
X1983355Y1749488*
X1983392Y1749432*
X1983396Y1749425*
X1983399Y1749418*
X1983403Y1749408*
Y1749883*
X1983385Y1749842*
X1983380Y1749830*
X1983316Y1749766*
X1983309Y1749761*
X1983265Y1749736*
X1983259Y1749733*
X1983252Y1749731*
X1983189Y1749712*
X1983185Y1749711*
X1983180Y1749710*
X1983093Y1749698*
X1983090Y1749697*
X1983087*
X1982973Y1749691*
X1980990*
X1980941Y1749715*
X1980847Y1749833*
X1980846Y1749835*
X1980845Y1749837*
X1980763Y1749955*
X1980761Y1749960*
X1980759Y1749964*
X1980702Y1750083*
X1980701Y1750085*
Y1750087*
X1980684Y1750130*
Y1749516*
X1982797Y1747359*
X1982810Y1747292*
X1982753Y1747253*
X1981113*
X1980993Y1747260*
X1980991*
X1980989*
X1980889Y1747272*
X1980882Y1747273*
X1980875Y1747276*
X1980806Y1747301*
X1980798Y1747304*
X1980791Y1747309*
X1980747Y1747340*
X1980738Y1747347*
X1980732Y1747356*
X1980694Y1747412*
X1980690Y1747419*
X1980688Y1747426*
X1980684Y1747436*
Y1746962*
X1980703Y1747000*
X1980707Y1747007*
X1980712Y1747014*
X1980762Y1747070*
X1980769Y1747077*
X1980821Y1747108*
X1980828Y1747111*
X1980835Y1747113*
X1980897Y1747132*
X1980904Y1747134*
X1980911*
X1980998Y1747141*
X1980998*
X1980999*
X1981113Y1747147*
X1983446*
Y1747153*
X1980696Y1747409D02*
Y1746987D01*
Y1750098D02*
Y1749504D01*
X1980759Y1747332D02*
Y1747066D01*
Y1749964D02*
Y1749440D01*
X1980821Y1747295D02*
Y1747107D01*
Y1749871D02*
Y1749376D01*
X1980884Y1747273D02*
Y1747128D01*
Y1749787D02*
Y1749312D01*
X1980946Y1747265D02*
Y1747137D01*
Y1749712D02*
Y1749248D01*
X1981009Y1747259D02*
Y1747141D01*
Y1749691D02*
Y1749185D01*
X1981071Y1747255D02*
Y1747145D01*
Y1749691D02*
Y1749121D01*
X1981134Y1747253D02*
Y1747147D01*
Y1749691D02*
Y1749057D01*
X1981196Y1747253D02*
Y1747147D01*
Y1749458D02*
Y1748993D01*
Y1749691D02*
Y1749568D01*
X1981259Y1747253D02*
Y1747147D01*
Y1749394D02*
Y1748929D01*
Y1749691D02*
Y1749585D01*
X1981321Y1747253D02*
Y1747147D01*
Y1749330D02*
Y1748866D01*
Y1749691D02*
Y1749585D01*
X1981384Y1747253D02*
Y1747147D01*
Y1749266D02*
Y1748802D01*
Y1749691D02*
Y1749585D01*
X1981446Y1747253D02*
Y1747147D01*
Y1749202D02*
Y1748738D01*
Y1749691D02*
Y1749585D01*
X1981509Y1747253D02*
Y1747147D01*
Y1749138D02*
Y1748674D01*
Y1749691D02*
Y1749585D01*
X1981571Y1747253D02*
Y1747147D01*
Y1749074D02*
Y1748611D01*
Y1749691D02*
Y1749585D01*
X1981634Y1747253D02*
Y1747147D01*
Y1749010D02*
Y1748547D01*
Y1749691D02*
Y1749585D01*
X1981696Y1747253D02*
Y1747147D01*
Y1748946D02*
Y1748483D01*
Y1749691D02*
Y1749585D01*
X1981759Y1747253D02*
Y1747147D01*
Y1748882D02*
Y1748419D01*
Y1749691D02*
Y1749585D01*
X1981821Y1747253D02*
Y1747147D01*
Y1748818D02*
Y1748355D01*
Y1749691D02*
Y1749585D01*
X1981884Y1747253D02*
Y1747147D01*
Y1748754D02*
Y1748292D01*
Y1749691D02*
Y1749585D01*
X1981946Y1747253D02*
Y1747147D01*
Y1748690D02*
Y1748228D01*
Y1749691D02*
Y1749585D01*
X1982009Y1747253D02*
Y1747147D01*
Y1748626D02*
Y1748164D01*
Y1749691D02*
Y1749585D01*
X1982071Y1747253D02*
Y1747147D01*
Y1748562D02*
Y1748100D01*
Y1749691D02*
Y1749585D01*
X1982134Y1747253D02*
Y1747147D01*
Y1748498D02*
Y1748037D01*
Y1749691D02*
Y1749585D01*
X1982196Y1747253D02*
Y1747147D01*
Y1748434D02*
Y1747973D01*
Y1749691D02*
Y1749585D01*
X1982259Y1747253D02*
Y1747147D01*
Y1748370D02*
Y1747909D01*
Y1749691D02*
Y1749585D01*
X1982321Y1747253D02*
Y1747147D01*
Y1748305D02*
Y1747845D01*
Y1749691D02*
Y1749585D01*
X1982384Y1747253D02*
Y1747147D01*
Y1748241D02*
Y1747781D01*
Y1749691D02*
Y1749585D01*
X1982446Y1747253D02*
Y1747147D01*
Y1748177D02*
Y1747718D01*
Y1749691D02*
Y1749585D01*
X1982509Y1747253D02*
Y1747147D01*
Y1748113D02*
Y1747654D01*
Y1749691D02*
Y1749585D01*
X1982571Y1747253D02*
Y1747147D01*
Y1748049D02*
Y1747590D01*
Y1749691D02*
Y1749585D01*
X1982634Y1747253D02*
Y1747147D01*
Y1747985D02*
Y1747526D01*
Y1749691D02*
Y1749585D01*
X1982696Y1747253D02*
Y1747147D01*
Y1747921D02*
Y1747462D01*
Y1749691D02*
Y1749585D01*
X1982759Y1747257D02*
Y1747147D01*
Y1747857D02*
Y1747399D01*
Y1749691D02*
Y1749585D01*
X1982821Y1747793D02*
Y1747147D01*
Y1749691D02*
Y1749585D01*
X1982884Y1747729D02*
Y1747147D01*
Y1749691D02*
Y1749585D01*
X1982946Y1747665D02*
Y1747147D01*
Y1749691D02*
Y1749585D01*
X1983009Y1747601D02*
Y1747147D01*
Y1749693D02*
Y1749585D01*
X1983071Y1747537D02*
Y1747147D01*
Y1749696D02*
Y1749585D01*
X1983134Y1747473D02*
Y1747147D01*
Y1749704D02*
Y1749579D01*
X1983196Y1747409D02*
Y1747147D01*
Y1749714D02*
Y1749571D01*
X1983259Y1747345D02*
Y1747147D01*
Y1749733D02*
Y1749549D01*
X1983321Y1747281D02*
Y1747147D01*
Y1749771D02*
Y1749515D01*
X1983384Y1747217D02*
Y1747147D01*
Y1749838D02*
Y1749444D01*
X1983446Y1747153D02*
Y1747147D01*
X1976997Y1705391D02*
G03X1976997I-438J0D01*
G54D58*
G01X1899676Y1489153D02*
Y1480950D01*
Y1489153D02*
X1902233D01*
X1903085Y1488763*
X1903085D02*
X1903369Y1488372D01*
X1903653Y1487591*
Y1486809*
X1903369Y1486028*
X1903085Y1485638*
X1903085D02*
X1902233Y1485247D01*
X1899676D02*
X1902233D01*
X1903085Y1484856*
X1903369Y1484466*
X1903653Y1483684*
Y1482513*
X1903653D02*
X1903369Y1481731D01*
X1903085Y1481341*
X1902233Y1480950*
X1899676*
X1906210Y1489153D02*
Y1480950D01*
Y1489153D02*
X1908767D01*
X1909619Y1488763*
X1909619D02*
X1909903Y1488372D01*
X1910188Y1487591*
Y1486809*
X1909903Y1486028*
X1909619Y1485638*
X1909619D02*
X1908767Y1485247D01*
X1906210*
X1908199D02*
X1910188Y1480950D01*
X1914449Y1489153D02*
X1913881Y1488763D01*
X1913881D02*
X1913313Y1487981D01*
X1913028Y1487200*
X1912744Y1486028*
Y1484075*
X1913028Y1482903*
X1913313Y1482122*
X1913881Y1481341*
X1914449Y1480950*
X1915585*
X1916153Y1481341*
X1916722Y1482122*
X1917006Y1482903*
X1917290Y1484075*
Y1486028*
X1917006Y1487200*
X1916722Y1487981*
X1916153Y1488763*
X1916153D02*
X1915585Y1489153D01*
X1914449*
X1921551D02*
X1920983Y1488763D01*
X1920983D02*
X1920415Y1487981D01*
X1920131Y1487200*
X1919847Y1486028*
Y1484075*
X1920131Y1482903*
X1920415Y1482122*
X1920983Y1481341*
X1921551Y1480950*
X1922688*
X1923256Y1481341*
X1923824Y1482122*
X1924108Y1482903*
X1924392Y1484075*
Y1486028*
X1924108Y1487200*
X1923824Y1487981*
X1923256Y1488763*
X1923256D02*
X1922688Y1489153D01*
X1921551*
X1926949D02*
Y1480950D01*
X1930926Y1489153D02*
X1926949Y1483684D01*
X1928369Y1485638D02*
X1930926Y1480950D01*
X1933483Y1489153D02*
Y1480950D01*
X1937460Y1489153D02*
Y1480950D01*
X1933483Y1485247D02*
X1937460D01*
X1942290Y1489153D02*
X1940017Y1480950D01*
X1942290Y1489153D02*
X1944563Y1480950D01*
X1940869Y1483684D02*
X1943710D01*
X1947119Y1489153D02*
X1949392Y1480950D01*
X1951665Y1489153D02*
X1949392Y1480950D01*
X1954222Y1489153D02*
Y1480950D01*
Y1489153D02*
X1957915D01*
X1954222Y1485247D02*
X1956494D01*
X1954222Y1480950D02*
X1957915D01*
X1960472Y1489153D02*
Y1480950D01*
Y1489153D02*
X1964449Y1480950D01*
Y1489153D02*
Y1480950D01*
X1973540Y1489153D02*
Y1480950D01*
Y1489153D02*
X1977517Y1480950D01*
Y1489153D02*
Y1480950D01*
X1982347Y1489153D02*
X1980074Y1480950D01*
X1982347Y1489153D02*
X1984619Y1480950D01*
X1980926Y1483684D02*
X1983767D01*
X1989165Y1489153D02*
Y1480950D01*
X1987176Y1489153D02*
X1991153D01*
X1993710D02*
Y1480950D01*
X1997972Y1489153D02*
X1997403Y1488763D01*
X1997403D02*
X1996835Y1487981D01*
X1996551Y1487200*
X1996267Y1486028*
Y1484075*
X1996551Y1482903*
X1996835Y1482122*
X1997403Y1481341*
X1997972Y1480950*
X1999108*
X1999676Y1481341*
X2000244Y1482122*
X2000528Y1482903*
X2000813Y1484075*
Y1486028*
X2000528Y1487200*
X2000244Y1487981*
X1999676Y1488763*
X1999676D02*
X1999108Y1489153D01*
X1997972*
X2003369D02*
Y1480950D01*
Y1489153D02*
X2007347Y1480950D01*
Y1489153D02*
Y1480950D01*
X2012176Y1489153D02*
X2009903Y1480950D01*
X2012176Y1489153D02*
X2014449Y1480950D01*
X2010756Y1483684D02*
X2013597D01*
X2017006Y1489153D02*
Y1480950D01*
X2020415*
X2029506Y1489153D02*
Y1480950D01*
X2032915*
X2037744Y1489153D02*
X2035472Y1480950D01*
X2037744Y1489153D02*
X2040017Y1480950D01*
X2036324Y1483684D02*
X2039165D01*
X2042574Y1489153D02*
Y1480950D01*
Y1489153D02*
X2045131D01*
X2045983Y1488763*
X2045983D02*
X2046267Y1488372D01*
X2046551Y1487591*
Y1486809*
X2046267Y1486028*
X2045983Y1485638*
X2045983D02*
X2045131Y1485247D01*
X2042574D02*
X2045131D01*
X2045983Y1484856*
X2046267Y1484466*
X2046551Y1483684*
Y1482513*
X2046551D02*
X2046267Y1481731D01*
X2045983Y1481341*
X2045131Y1480950*
X2042574*
X2050813Y1489153D02*
X2050244Y1488763D01*
X2050244D02*
X2049676Y1487981D01*
X2049392Y1487200*
X2049108Y1486028*
Y1484075*
X2049392Y1482903*
X2049676Y1482122*
X2050244Y1481341*
X2050813Y1480950*
X2051949*
X2052517Y1481341*
X2053085Y1482122*
X2053369Y1482903*
X2053653Y1484075*
Y1486028*
X2053369Y1487200*
X2053085Y1487981*
X2052517Y1488763*
X2052517D02*
X2051949Y1489153D01*
X2050813*
X2056210D02*
Y1480950D01*
Y1489153D02*
X2058767D01*
X2059619Y1488763*
X2059619D02*
X2059903Y1488372D01*
X2060188Y1487591*
Y1486809*
X2059903Y1486028*
X2059619Y1485638*
X2059619D02*
X2058767Y1485247D01*
X2056210*
X2058199D02*
X2060188Y1480950D01*
X2065017Y1489153D02*
X2062744Y1480950D01*
X2065017Y1489153D02*
X2067290Y1480950D01*
X2063597Y1483684D02*
X2066438D01*
X2071835Y1489153D02*
Y1480950D01*
X2069847Y1489153D02*
X2073824D01*
X2078085D02*
X2077517Y1488763D01*
X2077517D02*
X2076949Y1487981D01*
X2076665Y1487200*
X2076381Y1486028*
Y1484075*
X2076665Y1482903*
X2076949Y1482122*
X2077517Y1481341*
X2078085Y1480950*
X2079222*
X2079790Y1481341*
X2080358Y1482122*
X2080642Y1482903*
X2080926Y1484075*
Y1486028*
X2080642Y1487200*
X2080358Y1487981*
X2079790Y1488763*
X2079790D02*
X2079222Y1489153D01*
X2078085*
X2083483D02*
Y1480950D01*
Y1489153D02*
X2086040D01*
X2086892Y1488763*
X2086892D02*
X2087176Y1488372D01*
X2087460Y1487591*
Y1486809*
X2087176Y1486028*
X2086892Y1485638*
X2086892D02*
X2086040Y1485247D01*
X2083483*
X2085472D02*
X2087460Y1480950D01*
X2090017Y1489153D02*
X2092290Y1485247D01*
Y1480950*
X2094563Y1489153D02*
X2092290Y1485247D01*
X2013665Y1465653D02*
Y1457450D01*
X2017926Y1465653D02*
X2017358Y1465263D01*
X2017358D02*
X2016790Y1464481D01*
X2016506Y1463700*
X2016222Y1462528*
Y1460575*
X2016506Y1459403*
X2016790Y1458622*
X2017358Y1457841*
X2017926Y1457450*
X2019063*
X2019063D02*
X2019631Y1457841D01*
X2020199Y1458622*
X2020483Y1459403*
X2020767Y1460575*
Y1462528*
X2020483Y1463700*
X2020199Y1464481*
X2019631Y1465263*
X2019631D02*
X2019063Y1465653D01*
X2019063D02*
X2017926D01*
X2023324Y1460966D02*
X2028438D01*
X2030994Y1464091D02*
X2031563Y1464481D01*
X2031563D02*
X2032415Y1465653D01*
Y1457450*
X2038949Y1465653D02*
X2036108Y1457450D01*
X2034972Y1465653D02*
X2038949D01*
X2042074D02*
X2045199D01*
X2043494Y1462528*
X2044347*
X2044915Y1462138*
X2044915D02*
X2045199Y1461747D01*
X2045483Y1460575*
Y1459794*
X2045199Y1458622*
X2044631Y1457841*
X2043778Y1457450*
X2042926*
X2042074Y1457841*
X2041790Y1458231*
X2041506Y1459013*
X2051733Y1465653D02*
X2048892D01*
X2048608Y1462138*
X2048608D02*
X2048892Y1462528D01*
X2049744Y1462919*
X2050597*
X2051449Y1462528*
X2052017Y1461747*
X2052301Y1460575*
X2052017Y1459794*
X2051733Y1458622*
X2051165Y1457841*
X2050313Y1457450*
X2050313D02*
X2049460D01*
X2048608Y1457841*
X2048324Y1458231*
X2048040Y1459013*
X2054858Y1460966D02*
X2059972D01*
X2062528Y1464091D02*
X2063097Y1464481D01*
X2063949Y1465653*
Y1457450*
X2073040Y1465653D02*
Y1457450D01*
Y1465653D02*
X2075597D01*
X2076449Y1465263*
X2076449D02*
X2076733Y1464872D01*
X2077017Y1464091*
Y1463309*
X2076733Y1462528*
X2076449Y1462138*
X2076449D02*
X2075597Y1461747D01*
X2073040*
X2075028D02*
X2077017Y1457450D01*
X2079574Y1465653D02*
Y1457450D01*
Y1465653D02*
X2083267D01*
X2079574Y1461747D02*
X2081847D01*
X2079574Y1457450D02*
X2083267D01*
X2085824Y1465653D02*
X2088097Y1457450D01*
X2090369Y1465653D02*
X2088097Y1457450D01*
X2099460Y1460966D02*
X2104574D01*
X1900250Y1465153D02*
X1897977Y1456950D01*
X1900250Y1465153D02*
X1902523Y1456950D01*
X1898830Y1459684D02*
X1901670D01*
X1905080Y1465153D02*
Y1456950D01*
X1909057Y1465153D02*
X1905080Y1459684D01*
X1906500Y1461638D02*
X1909057Y1456950D01*
X1916727Y1466716D02*
X1911614Y1454216D01*
X1919284Y1465153D02*
X1920705Y1456950D01*
X1922125Y1465153D02*
X1920705Y1456950D01*
X1922125Y1465153D02*
X1923545Y1456950D01*
X1924966Y1465153D02*
X1923545Y1456950D01*
X1928659Y1465153D02*
X1928943Y1464763D01*
X1928943D02*
X1929227Y1465153D01*
X1928943Y1465544*
X1928659Y1465153*
X1928943Y1462419D02*
Y1455778D01*
X1928659Y1454606*
X1928091Y1454216*
X1927523*
X1934057Y1465153D02*
X1931784Y1456950D01*
X1934057Y1465153D02*
X1936330Y1456950D01*
X1932636Y1459684D02*
X1935477D01*
X1953659Y1465153D02*
X1952807Y1464763D01*
X1952807D02*
X1952239Y1463591D01*
X1951955Y1461638*
X1951955D02*
Y1460466D01*
X1952239Y1458513*
X1952239D02*
X1952807Y1457341D01*
X1953659Y1456950*
X1954227*
X1955080Y1457341*
X1955648Y1458513*
X1955648D02*
X1955932Y1460466D01*
Y1461638*
X1955932D02*
X1955648Y1463591D01*
X1955080Y1464763*
X1955080D02*
X1954227Y1465153D01*
X1953659*
X1962182Y1462419D02*
X1961898Y1461247D01*
X1961330Y1460466*
X1960477Y1460075*
X1960193*
X1959341Y1460466*
X1958773Y1461247*
X1958489Y1462419*
Y1462809*
X1958773Y1463981*
X1959341Y1464763*
X1959341D02*
X1960193Y1465153D01*
X1960477*
X1961330Y1464763*
X1961330D02*
X1961898Y1463981D01*
X1962182Y1462419*
Y1460466*
X1961898Y1458513*
X1961898D02*
X1961330Y1457341D01*
X1960477Y1456950*
X1959909*
X1959057Y1457341*
X1958773Y1458122*
X1964739Y1460466D02*
X1969852D01*
X1972409Y1463591D02*
X1972977Y1463981D01*
X1973830Y1465153*
Y1456950*
X1980080Y1462419D02*
X1979795Y1461247D01*
X1979227Y1460466*
X1978375Y1460075*
X1978091*
X1977239Y1460466*
X1976670Y1461247*
X1976386Y1462419*
Y1462809*
X1976670Y1463981*
X1977239Y1464763*
X1977239D02*
X1978091Y1465153D01*
X1978375*
X1979227Y1464763*
X1979227D02*
X1979795Y1463981D01*
X1980080Y1462419*
Y1460466*
X1979795Y1458513*
X1979795D02*
X1979227Y1457341D01*
X1978375Y1456950*
X1977807*
X1976955Y1457341*
X1976670Y1458122*
X1982636Y1460466D02*
X1987750D01*
X1990307Y1463591D02*
X1990875Y1463981D01*
X1991727Y1465153*
Y1456950*
X1995705Y1465153D02*
X1994852Y1464763D01*
X1994852D02*
X1994568Y1463981D01*
Y1463200*
X1994852Y1462419*
X1995420Y1462028*
X1996557Y1461638*
X1996557D02*
X1997409Y1461247D01*
X1997977Y1460466*
X1998261Y1459684*
Y1458513*
X1998261D02*
X1997977Y1457731D01*
X1997693Y1457341*
X1996841Y1456950*
X1995705*
X1994852Y1457341*
X1994568Y1457731*
X1994284Y1458513*
X1994284D02*
Y1459684D01*
X1994568Y1460466*
X1995136Y1461247*
X1995989Y1461638*
X1995989D02*
X1997125Y1462028D01*
X1997693Y1462419*
X1997977Y1463200*
Y1463981*
X1997693Y1464763*
X1997693D02*
X1996841Y1465153D01*
X1995705*
X1941795Y1450481D02*
X1941227Y1451263D01*
X1941227D02*
X1940375Y1451653D01*
X1939239*
X1938386Y1451263*
X1938386D02*
X1937818Y1450481D01*
Y1449700*
X1938102Y1448919*
X1938386Y1448528*
X1938955Y1448138*
X1938955D02*
X1940659Y1447356D01*
X1941227Y1446966*
X1941511Y1446575*
X1941795Y1445794*
Y1444622*
X1941227Y1443841*
X1940375Y1443450*
X1939239*
X1938386Y1443841*
X1937818Y1444622*
X1944352Y1451653D02*
Y1443450D01*
X1946909Y1451653D02*
Y1443450D01*
X1950318*
X1952875Y1451653D02*
Y1443450D01*
X1956852Y1451653D02*
X1952875Y1446184D01*
X1954295Y1448138D02*
X1956852Y1443450D01*
X1963386Y1450481D02*
X1962818Y1451263D01*
X1962818D02*
X1961966Y1451653D01*
X1960830*
X1959977Y1451263*
X1959977D02*
X1959409Y1450481D01*
Y1449700*
X1959693Y1448919*
X1959977Y1448528*
X1960545Y1448138*
X1960545D02*
X1962250Y1447356D01*
X1962818Y1446966*
X1963102Y1446575*
X1963386Y1445794*
Y1444622*
X1962818Y1443841*
X1961966Y1443450*
X1960830*
X1959977Y1443841*
X1959409Y1444622*
X1970205Y1449700D02*
X1969920Y1450481D01*
X1969352Y1451263*
X1969352D02*
X1968784Y1451653D01*
X1967648*
X1967080Y1451263*
X1967080D02*
X1966511Y1450481D01*
X1966227Y1449700*
X1965943Y1448528*
Y1446575*
X1966227Y1445403*
X1966511Y1444622*
X1967080Y1443841*
X1967648Y1443450*
X1968784*
X1969352Y1443841*
X1969920Y1444622*
X1970205Y1445403*
X1972761Y1451653D02*
Y1443450D01*
Y1451653D02*
X1975318D01*
X1976170Y1451263*
X1976170D02*
X1976455Y1450872D01*
X1976739Y1450091*
Y1449309*
X1976455Y1448528*
X1976170Y1448138*
X1976170D02*
X1975318Y1447747D01*
X1972761*
X1974750D02*
X1976739Y1443450D01*
X1979295Y1451653D02*
Y1443450D01*
Y1451653D02*
X1982989D01*
X1979295Y1447747D02*
X1981568D01*
X1979295Y1443450D02*
X1982989D01*
X1985545Y1451653D02*
Y1443450D01*
Y1451653D02*
X1989239D01*
X1985545Y1447747D02*
X1987818D01*
X1985545Y1443450D02*
X1989239D01*
X1991795Y1451653D02*
Y1443450D01*
Y1451653D02*
X1995773Y1443450D01*
Y1451653D02*
Y1443450D01*
X2004864Y1446966D02*
X2009977D01*
X2019068Y1451653D02*
Y1443450D01*
Y1451653D02*
X2021625D01*
X2022477Y1451263*
X2022477D02*
X2022761Y1450872D01*
X2023045Y1450091*
Y1449309*
X2022761Y1448528*
X2022477Y1448138*
X2022477D02*
X2021625Y1447747D01*
X2019068D02*
X2021625D01*
X2022477Y1447356*
X2022761Y1446966*
X2023045Y1446184*
Y1445013*
X2023045D02*
X2022761Y1444231D01*
X2022477Y1443841*
X2021625Y1443450*
X2019068*
X2027307Y1451653D02*
X2026739Y1451263D01*
X2026739D02*
X2026170Y1450481D01*
X2025886Y1449700*
X2025602Y1448528*
Y1446575*
X2025886Y1445403*
X2026170Y1444622*
X2026739Y1443841*
X2027307Y1443450*
X2028443*
X2029011Y1443841*
X2029580Y1444622*
X2029864Y1445403*
X2030148Y1446575*
Y1448528*
X2029864Y1449700*
X2029580Y1450481*
X2029011Y1451263*
X2029011D02*
X2028443Y1451653D01*
X2027307*
X2034693D02*
Y1443450D01*
X2032705Y1451653D02*
X2036682D01*
X2041227D02*
Y1443450D01*
X2039239Y1451653D02*
X2043216D01*
X2047477D02*
X2046909Y1451263D01*
X2046909D02*
X2046341Y1450481D01*
X2046057Y1449700*
X2045773Y1448528*
Y1446575*
X2046057Y1445403*
X2046341Y1444622*
X2046909Y1443841*
X2047477Y1443450*
X2048614*
X2049182Y1443841*
X2049750Y1444622*
X2050034Y1445403*
X2050318Y1446575*
Y1448528*
X2050034Y1449700*
X2049750Y1450481*
X2049182Y1451263*
X2049182D02*
X2048614Y1451653D01*
X2047477*
X2052875D02*
Y1443450D01*
Y1451653D02*
X2055148Y1443450D01*
X2057420Y1451653D02*
X2055148Y1443450D01*
X2057420Y1451653D02*
Y1443450D01*
X1892580Y1477153D02*
Y1468950D01*
Y1477153D02*
X1894568D01*
X1895420Y1476763*
X1895420D02*
X1895989Y1475981D01*
X1896273Y1475200*
X1896557Y1474028*
Y1472075*
X1896273Y1470903*
X1895989Y1470122*
X1895420Y1469341*
X1894568Y1468950*
X1892580*
X1899114Y1477153D02*
Y1468950D01*
Y1477153D02*
X1902807D01*
X1899114Y1473247D02*
X1901386D01*
X1899114Y1468950D02*
X1902807D01*
X1907352Y1477153D02*
Y1468950D01*
X1905364Y1477153D02*
X1909341D01*
X1911898D02*
Y1468950D01*
Y1477153D02*
X1915591D01*
X1911898Y1473247D02*
X1914170D01*
X1911898Y1468950D02*
X1915591D01*
X1922409Y1475200D02*
X1922125Y1475981D01*
X1921557Y1476763*
X1921557D02*
X1920989Y1477153D01*
X1919852*
X1919284Y1476763*
X1919284D02*
X1918716Y1475981D01*
X1918432Y1475200*
X1918148Y1474028*
Y1472075*
X1918432Y1470903*
X1918716Y1470122*
X1919284Y1469341*
X1919852Y1468950*
X1920989*
X1921557Y1469341*
X1922125Y1470122*
X1922409Y1470903*
X1926955Y1477153D02*
Y1468950D01*
X1924966Y1477153D02*
X1928943D01*
X1933205D02*
X1932636Y1476763D01*
X1932636D02*
X1932068Y1475981D01*
X1931784Y1475200*
X1931500Y1474028*
Y1472075*
X1931784Y1470903*
X1932068Y1470122*
X1932636Y1469341*
X1933205Y1468950*
X1934341*
X1934909Y1469341*
X1935477Y1470122*
X1935761Y1470903*
X1936045Y1472075*
Y1474028*
X1935761Y1475200*
X1935477Y1475981*
X1934909Y1476763*
X1934909D02*
X1934341Y1477153D01*
X1933205*
X1938602D02*
Y1468950D01*
Y1477153D02*
X1941159D01*
X1942011Y1476763*
X1942011D02*
X1942295Y1476372D01*
X1942580Y1475591*
Y1474809*
X1942295Y1474028*
X1942011Y1473638*
X1942011D02*
X1941159Y1473247D01*
X1938602*
X1940591D02*
X1942580Y1468950D01*
X1951670Y1477153D02*
Y1468950D01*
Y1477153D02*
X1954227D01*
X1955080Y1476763*
X1955080D02*
X1955364Y1476372D01*
X1955648Y1475591*
Y1474809*
X1955364Y1474028*
X1955080Y1473638*
X1955080D02*
X1954227Y1473247D01*
X1951670D02*
X1954227D01*
X1955080Y1472856*
X1955364Y1472466*
X1955648Y1471684*
Y1470513*
X1955648D02*
X1955364Y1469731D01*
X1955080Y1469341*
X1954227Y1468950*
X1951670*
X1958205Y1477153D02*
Y1468950D01*
X1963034Y1477153D02*
X1960761Y1468950D01*
X1963034Y1477153D02*
X1965307Y1468950D01*
X1961614Y1471684D02*
X1964455D01*
X1971841Y1475981D02*
X1971273Y1476763D01*
X1971273D02*
X1970420Y1477153D01*
X1969284*
X1968432Y1476763*
X1968432D02*
X1967864Y1475981D01*
Y1475200*
X1968148Y1474419*
X1968432Y1474028*
X1969000Y1473638*
X1969000D02*
X1970705Y1472856D01*
X1971273Y1472466*
X1971557Y1472075*
X1971841Y1471294*
Y1470122*
X1971273Y1469341*
X1970420Y1468950*
X1969284*
X1968432Y1469341*
X1967864Y1470122*
X1980932Y1477153D02*
Y1468950D01*
Y1477153D02*
X1982920D01*
X1983773Y1476763*
X1983773D02*
X1984341Y1475981D01*
X1984625Y1475200*
X1984909Y1474028*
Y1472075*
X1984625Y1470903*
X1984341Y1470122*
X1983773Y1469341*
X1982920Y1468950*
X1980932*
X1987466Y1477153D02*
Y1468950D01*
Y1477153D02*
X1990023D01*
X1990875Y1476763*
X1990875D02*
X1991159Y1476372D01*
X1991443Y1475591*
Y1474809*
X1991159Y1474028*
X1990875Y1473638*
X1990875D02*
X1990023Y1473247D01*
X1987466*
X1989455D02*
X1991443Y1468950D01*
X1994000Y1477153D02*
Y1468950D01*
X1996557Y1477153D02*
X1998830Y1468950D01*
X2001102Y1477153D02*
X1998830Y1468950D01*
X2003659Y1477153D02*
Y1468950D01*
Y1477153D02*
X2007352D01*
X2003659Y1473247D02*
X2005932D01*
X2003659Y1468950D02*
X2007352D01*
X2009909Y1477153D02*
Y1468950D01*
Y1477153D02*
X2012466D01*
X2013318Y1476763*
X2013318D02*
X2013602Y1476372D01*
X2013886Y1475591*
Y1474809*
X2013602Y1474028*
X2013318Y1473638*
X2013318D02*
X2012466Y1473247D01*
X2009909*
X2011898D02*
X2013886Y1468950D01*
X2022977Y1477153D02*
Y1468950D01*
Y1477153D02*
X2025534D01*
X2026386Y1476763*
X2026386D02*
X2026670Y1476372D01*
X2026955Y1475591*
Y1474419*
X2026670Y1473638*
X2026670D02*
X2026386Y1473247D01*
X2025534Y1472856*
X2022977*
X2029511Y1477153D02*
Y1468950D01*
X2036330Y1475200D02*
X2036045Y1475981D01*
X2035477Y1476763*
X2035477D02*
X2034909Y1477153D01*
X2033773*
X2033205Y1476763*
X2033205D02*
X2032636Y1475981D01*
X2032352Y1475200*
X2032068Y1474028*
Y1472075*
X2032352Y1470903*
X2032636Y1470122*
X2033205Y1469341*
X2033773Y1468950*
X2034909*
X2035477Y1469341*
X2036045Y1470122*
X2036330Y1470903*
Y1472075*
X2034909D02*
X2036330D01*
X2043148Y1475200D02*
X2042864Y1475981D01*
X2042295Y1476763*
X2042295D02*
X2041727Y1477153D01*
X2040591*
X2040023Y1476763*
X2040023D02*
X2039455Y1475981D01*
X2039170Y1475200*
X2038886Y1474028*
Y1472075*
X2039170Y1470903*
X2039455Y1470122*
X2040023Y1469341*
X2040591Y1468950*
X2041727*
X2042295Y1469341*
X2042864Y1470122*
X2043148Y1470903*
Y1472075*
X2041727D02*
X2043148D01*
X2045705Y1477153D02*
X2047977Y1473247D01*
Y1468950*
X2050250Y1477153D02*
X2047977Y1473247D01*
X2052807Y1477153D02*
Y1468950D01*
Y1477153D02*
X2055364D01*
X2056216Y1476763*
X2056216D02*
X2056500Y1476372D01*
X2056784Y1475591*
Y1474809*
X2056500Y1474028*
X2056216Y1473638*
X2056216D02*
X2055364Y1473247D01*
X2052807D02*
X2055364D01*
X2056216Y1472856*
X2056500Y1472466*
X2056784Y1471684*
Y1470513*
X2056784D02*
X2056500Y1469731D01*
X2056216Y1469341*
X2055364Y1468950*
X2052807*
X2061614Y1477153D02*
X2059341Y1468950D01*
X2061614Y1477153D02*
X2063886Y1468950D01*
X2060193Y1471684D02*
X2063034D01*
X2070705Y1475200D02*
X2070420Y1475981D01*
X2069852Y1476763*
X2069852D02*
X2069284Y1477153D01*
X2068148*
X2067580Y1476763*
X2067580D02*
X2067011Y1475981D01*
X2066727Y1475200*
X2066443Y1474028*
Y1472075*
X2066727Y1470903*
X2067011Y1470122*
X2067580Y1469341*
X2068148Y1468950*
X2069284*
X2069852Y1469341*
X2070420Y1470122*
X2070705Y1470903*
X2073261Y1477153D02*
Y1468950D01*
X2077239Y1477153D02*
X2073261Y1471684D01*
X2074682Y1473638D02*
X2077239Y1468950D01*
X2086330Y1477153D02*
Y1468950D01*
Y1477153D02*
X2088886D01*
X2089739Y1476763*
X2089739D02*
X2090023Y1476372D01*
X2090307Y1475591*
Y1474419*
X2090023Y1473638*
X2090023D02*
X2089739Y1473247D01*
X2088886Y1472856*
X2086330*
X2097125Y1475200D02*
X2096841Y1475981D01*
X2096273Y1476763*
X2096273D02*
X2095705Y1477153D01*
X2094568*
X2094000Y1476763*
X2094000D02*
X2093432Y1475981D01*
X2093148Y1475200*
X2092864Y1474028*
Y1472075*
X2093148Y1470903*
X2093432Y1470122*
X2094000Y1469341*
X2094568Y1468950*
X2095705*
X2096273Y1469341*
X2096841Y1470122*
X2097125Y1470903*
X2099682Y1477153D02*
Y1468950D01*
Y1477153D02*
X2102239D01*
X2103091Y1476763*
X2103091D02*
X2103375Y1476372D01*
X2103659Y1475591*
Y1474809*
X2103375Y1474028*
X2103091Y1473638*
X2103091D02*
X2102239Y1473247D01*
X2099682D02*
X2102239D01*
X2103091Y1472856*
X2103375Y1472466*
X2103659Y1471684*
Y1470513*
X2103659D02*
X2103375Y1469731D01*
X2103091Y1469341*
X2102239Y1468950*
X2099682*
X2006887Y1744185D02*
X2011387D01*
X1999387D02*
X1991387D01*
X2013887Y1751185D02*
Y1726185D01*
X1988887*
Y1751185*
X2013887*
X2010387Y1735685D02*
G03X2010387I-7000J0D01*
G01X1991387Y1739685D02*
X1995387D01*
X2011387Y1747185D02*
X1991387D01*
Y1739685*
X2011387D02*
G03X1995387I-8000J-3902D01*
G01X2011387Y1747185D02*
Y1739685D01*
X1991387Y1746685D02*
X2011387D01*
Y1746185*
X1991387*
Y1745685*
X2011387*
Y1745185*
X1991387*
Y1744685*
X2011387*
Y1745185*
X1991387*
Y1743685*
X1998887*
X1997887Y1743185*
X1991387*
Y1742685*
X1997387*
X1996887Y1742185*
X1991387*
Y1741685*
X1996387*
X1995887Y1741185*
X1991387*
Y1740685*
X1995887*
X1995387Y1740185*
X1991387*
X2007987Y1743685D02*
X2011387D01*
Y1743185*
X2008887*
X2009887Y1742685*
X2011387*
Y1742185*
X2009887*
X2010887Y1741685*
X2011387*
Y1741185*
X2010887*
X2009887Y1735685D02*
G03X2009887I-6500J0D01*
G01X2009387D02*
G03X2009387I-6000J0D01*
G01X2008887D02*
G03X2008887I-5500J0D01*
G01X2008387D02*
G03X2008387I-5000J0D01*
G01X2007887D02*
G03X2007887I-4500J0D01*
G01X2007387D02*
G03X2007387I-4000J0D01*
G01X2006887D02*
G03X2006887I-3500J0D01*
G01X2006387D02*
G03X2006387I-3000J0D01*
G01X2005887D02*
G03X2005887I-2500J0D01*
G01X2005387D02*
G03X2005387I-2000J0D01*
G01X2004887D02*
G03X2004887I-1500J0D01*
G01X2004387D02*
G03X2004387I-1000J0D01*
G01X2003887D02*
G03X2003887I-500J0D01*
G01X1991387Y1747185D02*
Y1748185D01*
X2011387*
Y1747185*
X1991387Y1747685D02*
X2011387D01*
G54D63*
X1986563Y1721950D02*
X1991813D01*
X1986563D02*
Y1720677D01*
X1986563D02*
X1986813Y1720132D01*
X1986813D02*
X1987313Y1719768D01*
X1987313D02*
X1987813Y1719586D01*
X1987813D02*
X1988563Y1719405D01*
X1988563D02*
X1989813D01*
X1989813D02*
X1990563Y1719586D01*
X1990563D02*
X1991063Y1719768D01*
X1991063D02*
X1991563Y1720132D01*
X1991563D02*
X1991813Y1720677D01*
X1991813D02*
Y1721950D01*
X1986563Y1717768D02*
X1991813D01*
X1986563D02*
Y1715405D01*
X1989063Y1717768D02*
Y1716314D01*
X1991813Y1717768D02*
Y1715405D01*
X1986563Y1712495D02*
X1991813D01*
X1986563Y1713768D02*
Y1711223D01*
Y1709586D02*
X1991813D01*
X1986563D02*
Y1707223D01*
X1989063Y1709586D02*
Y1708132D01*
X1991813Y1709586D02*
Y1707223D01*
X1987813Y1702859D02*
X1987313Y1703041D01*
X1987313D02*
X1986813Y1703405D01*
X1986813D02*
X1986563Y1703768D01*
X1986563D02*
Y1704495D01*
X1986563D02*
X1986813Y1704859D01*
X1986813D02*
X1987313Y1705223D01*
X1987313D02*
X1987813Y1705405D01*
X1987813D02*
X1988563Y1705586D01*
X1988563D02*
X1989813D01*
X1989813D02*
X1990563Y1705405D01*
X1990563D02*
X1991063Y1705223D01*
X1991063D02*
X1991563Y1704859D01*
X1991563D02*
X1991813Y1704495D01*
X1991813D02*
Y1703768D01*
X1991813D02*
X1991563Y1703405D01*
X1991563D02*
X1991063Y1703041D01*
X1991063D02*
X1990563Y1702859D01*
X1986563Y1699950D02*
X1991813D01*
X1986563Y1701223D02*
Y1698677D01*
Y1695950D02*
X1986813Y1696314D01*
X1986813D02*
X1987313Y1696677D01*
X1987313D02*
X1987813Y1696859D01*
X1987813D02*
X1988563Y1697041D01*
X1988563D02*
X1989813D01*
X1989813D02*
X1990563Y1696859D01*
X1990563D02*
X1991063Y1696677D01*
X1991063D02*
X1991563Y1696314D01*
X1991563D02*
X1991813Y1695950D01*
X1991813D02*
Y1695223D01*
X1991813D02*
X1991563Y1694859D01*
X1991563D02*
X1991063Y1694495D01*
X1991063D02*
X1990563Y1694314D01*
X1990563D02*
X1989813Y1694132D01*
X1989813D02*
X1988563D01*
X1988563D02*
X1987813Y1694314D01*
X1987813D02*
X1987313Y1694495D01*
X1987313D02*
X1986813Y1694859D01*
X1986813D02*
X1986563Y1695223D01*
X1986563D02*
Y1695950D01*
Y1692495D02*
X1991813D01*
X1986563D02*
Y1690859D01*
X1986563D02*
X1986813Y1690314D01*
X1986813D02*
X1987063Y1690132D01*
X1987063D02*
X1987563Y1689950D01*
X1987563D02*
X1988063D01*
X1988063D02*
X1988563Y1690132D01*
X1988563D02*
X1988813Y1690314D01*
X1988813D02*
X1989063Y1690859D01*
X1989063D02*
Y1692495D01*
Y1691223D02*
X1991813Y1689950D01*
X1986563Y1684132D02*
X1991813D01*
X1986563D02*
Y1682495D01*
X1986563D02*
X1986813Y1681950D01*
X1986813D02*
X1987063Y1681768D01*
X1987063D02*
X1987563Y1681586D01*
X1987563D02*
X1988063D01*
X1988063D02*
X1988563Y1681768D01*
X1988563D02*
X1988813Y1681950D01*
X1988813D02*
X1989063Y1682495D01*
Y1684132D02*
Y1682495D01*
X1989063D02*
X1989313Y1681950D01*
X1989313D02*
X1989563Y1681768D01*
X1989563D02*
X1990063Y1681586D01*
X1990063D02*
X1990813D01*
X1990813D02*
X1991313Y1681768D01*
X1991313D02*
X1991563Y1681950D01*
X1991563D02*
X1991813Y1682495D01*
X1991813D02*
Y1684132D01*
X1986563Y1679950D02*
X1991813D01*
X1986563Y1676859D02*
X1991813Y1678314D01*
X1986563Y1676859D02*
X1991813Y1675405D01*
X1990063Y1677768D02*
Y1675950D01*
X1987313Y1671223D02*
X1986813Y1671586D01*
X1986813D02*
X1986563Y1672132D01*
X1986563D02*
Y1672859D01*
X1986563D02*
X1986813Y1673405D01*
X1986813D02*
X1987313Y1673768D01*
X1987313D02*
X1987813D01*
X1987813D02*
X1988313Y1673586D01*
X1988313D02*
X1988563Y1673405D01*
X1988563D02*
X1988813Y1673041D01*
X1988813D02*
X1989313Y1671950D01*
X1989313D02*
X1989563Y1671586D01*
X1989563D02*
X1989813Y1671405D01*
X1989813D02*
X1990313Y1671223D01*
X1990313D02*
X1991063D01*
X1991063D02*
X1991563Y1671586D01*
X1991563D02*
X1991813Y1672132D01*
X1991813D02*
Y1672859D01*
X1991813D02*
X1991563Y1673405D01*
X1991563D02*
X1991063Y1673768D01*
X1995063Y1721950D02*
X2000313D01*
X1995063D02*
Y1720677D01*
X1995063D02*
X1995313Y1720132D01*
X1995313D02*
X1995813Y1719768D01*
X1995813D02*
X1996313Y1719586D01*
X1996313D02*
X1997063Y1719405D01*
X1997063D02*
X1998313D01*
X1998313D02*
X1999063Y1719586D01*
X1999063D02*
X1999563Y1719768D01*
X1999563D02*
X2000063Y1720132D01*
X2000063D02*
X2000313Y1720677D01*
X2000313D02*
Y1721950D01*
X1995063Y1717768D02*
X2000313D01*
X1995063D02*
Y1716132D01*
X1995063D02*
X1995313Y1715586D01*
X1995313D02*
X1995563Y1715405D01*
X1995563D02*
X1996063Y1715223D01*
X1996063D02*
X1996563D01*
X1996563D02*
X1997063Y1715405D01*
X1997063D02*
X1997313Y1715586D01*
X1997313D02*
X1997563Y1716132D01*
X1997563D02*
Y1717768D01*
Y1716495D02*
X2000313Y1715223D01*
X1995063Y1713586D02*
X2000313D01*
X1995063Y1711950D02*
X2000313Y1710495D01*
X1995063Y1709041D02*
X2000313Y1710495D01*
X1995063Y1707405D02*
X2000313D01*
X1995063D02*
Y1705041D01*
X1997563Y1707405D02*
Y1705950D01*
X2000313Y1707405D02*
Y1705041D01*
X1995063Y1703405D02*
X2000313D01*
X1995063D02*
Y1701768D01*
X1995063D02*
X1995313Y1701223D01*
X1995313D02*
X1995563Y1701041D01*
X1995563D02*
X1996063Y1700859D01*
X1996063D02*
X1996563D01*
X1996563D02*
X1997063Y1701041D01*
X1997063D02*
X1997313Y1701223D01*
X1997313D02*
X1997563Y1701768D01*
X1997563D02*
Y1703405D01*
Y1702132D02*
X2000313Y1700859D01*
X1995063Y1695041D02*
X2000313D01*
X1995063D02*
Y1693405D01*
X1995063D02*
X1995313Y1692859D01*
X1995313D02*
X1995563Y1692677D01*
X1995563D02*
X1996063Y1692495D01*
X1996063D02*
X1996813D01*
X1996813D02*
X1997313Y1692677D01*
X1997313D02*
X1997563Y1692859D01*
X1997563D02*
X1997813Y1693405D01*
X1997813D02*
Y1695041D01*
X1995063Y1690859D02*
X2000313D01*
X1996313Y1686495D02*
X1995813Y1686677D01*
X1995813D02*
X1995313Y1687041D01*
X1995313D02*
X1995063Y1687405D01*
X1995063D02*
Y1688132D01*
X1995063D02*
X1995313Y1688495D01*
X1995313D02*
X1995813Y1688859D01*
X1995813D02*
X1996313Y1689041D01*
X1996313D02*
X1997063Y1689223D01*
X1997063D02*
X1998313D01*
X1998313D02*
X1999063Y1689041D01*
X1999063D02*
X1999563Y1688859D01*
X1999563D02*
X2000063Y1688495D01*
X2000063D02*
X2000313Y1688132D01*
X2000313D02*
Y1687405D01*
X2000313D02*
X2000063Y1687041D01*
X2000063D02*
X1999563Y1686677D01*
X1999563D02*
X1999063Y1686495D01*
X1999063D02*
X1998313D01*
Y1687405D02*
Y1686495D01*
X1996313Y1682132D02*
X1995813Y1682314D01*
X1995813D02*
X1995313Y1682677D01*
X1995313D02*
X1995063Y1683041D01*
X1995063D02*
Y1683768D01*
X1995063D02*
X1995313Y1684132D01*
X1995313D02*
X1995813Y1684495D01*
X1995813D02*
X1996313Y1684677D01*
X1996313D02*
X1997063Y1684859D01*
X1997063D02*
X1998313D01*
X1998313D02*
X1999063Y1684677D01*
X1999063D02*
X1999563Y1684495D01*
X1999563D02*
X2000063Y1684132D01*
X2000063D02*
X2000313Y1683768D01*
X2000313D02*
Y1683041D01*
X2000313D02*
X2000063Y1682677D01*
X2000063D02*
X1999563Y1682314D01*
X1999563D02*
X1999063Y1682132D01*
X1999063D02*
X1998313D01*
Y1683041D02*
Y1682132D01*
X1995063Y1680495D02*
X1997563Y1679041D01*
X1997563D02*
X2000313D01*
X1995063Y1677586D02*
X1997563Y1679041D01*
X1995063Y1675950D02*
X2000313D01*
X1995063D02*
Y1674314D01*
X1995063D02*
X1995313Y1673768D01*
X1995313D02*
X1995563Y1673586D01*
X1995563D02*
X1996063Y1673405D01*
X1996063D02*
X1996563D01*
X1996563D02*
X1997063Y1673586D01*
X1997063D02*
X1997313Y1673768D01*
X1997313D02*
X1997563Y1674314D01*
Y1675950D02*
Y1674314D01*
X1997563D02*
X1997813Y1673768D01*
X1997813D02*
X1998063Y1673586D01*
X1998063D02*
X1998563Y1673405D01*
X1998563D02*
X1999313D01*
X1999313D02*
X1999813Y1673586D01*
X1999813D02*
X2000063Y1673768D01*
X2000063D02*
X2000313Y1674314D01*
X2000313D02*
Y1675950D01*
X1995063Y1670314D02*
X2000313Y1671768D01*
X1995063Y1670314D02*
X2000313Y1668859D01*
X1998563Y1671223D02*
Y1669405D01*
X1996313Y1664495D02*
X1995813Y1664677D01*
X1995813D02*
X1995313Y1665041D01*
X1995313D02*
X1995063Y1665405D01*
X1995063D02*
Y1666132D01*
X1995063D02*
X1995313Y1666495D01*
X1995313D02*
X1995813Y1666859D01*
X1995813D02*
X1996313Y1667041D01*
X1996313D02*
X1997063Y1667223D01*
X1997063D02*
X1998313D01*
X1998313D02*
X1999063Y1667041D01*
X1999063D02*
X1999563Y1666859D01*
X1999563D02*
X2000063Y1666495D01*
X2000063D02*
X2000313Y1666132D01*
X2000313D02*
Y1665405D01*
X2000313D02*
X2000063Y1665041D01*
X2000063D02*
X1999563Y1664677D01*
X1999563D02*
X1999063Y1664495D01*
X1995063Y1662859D02*
X2000313D01*
X1995063Y1660314D02*
X1998563Y1662859D01*
X1997313Y1661950D02*
X2000313Y1660314D01*
X2003563Y1721950D02*
X2008813D01*
X2003563Y1719223D02*
X2003813Y1719586D01*
X2003813D02*
X2004313Y1719950D01*
X2004313D02*
X2004813Y1720132D01*
X2004813D02*
X2005563Y1720314D01*
X2005563D02*
X2006813D01*
X2006813D02*
X2007563Y1720132D01*
X2007563D02*
X2008063Y1719950D01*
X2008063D02*
X2008563Y1719586D01*
X2008563D02*
X2008813Y1719223D01*
X2008813D02*
Y1718495D01*
X2008813D02*
X2008563Y1718132D01*
X2008563D02*
X2008063Y1717768D01*
X2008063D02*
X2007563Y1717586D01*
X2007563D02*
X2006813Y1717405D01*
X2006813D02*
X2005563D01*
X2005563D02*
X2004813Y1717586D01*
X2004813D02*
X2004313Y1717768D01*
X2004313D02*
X2003813Y1718132D01*
X2003813D02*
X2003563Y1718495D01*
X2003563D02*
Y1719223D01*
X2006563Y1715768D02*
Y1712495D01*
X2004563Y1710859D02*
X2004313Y1710495D01*
X2004313D02*
X2003563Y1709950D01*
X2003563D02*
X2008813D01*
X2003563Y1705768D02*
X2008813Y1707586D01*
X2003563Y1708314D02*
Y1705768D01*
Y1703768D02*
Y1701768D01*
X2003563D02*
X2005563Y1702859D01*
X2005563D02*
Y1702314D01*
X2005563D02*
X2005813Y1701950D01*
X2005813D02*
X2006063Y1701768D01*
X2006063D02*
X2006813Y1701586D01*
X2006813D02*
X2007313D01*
X2007313D02*
X2008063Y1701768D01*
X2008063D02*
X2008563Y1702132D01*
X2008563D02*
X2008813Y1702677D01*
X2008813D02*
Y1703223D01*
X2008813D02*
X2008563Y1703768D01*
X2008563D02*
X2008313Y1703950D01*
X2008313D02*
X2007813Y1704132D01*
X2003563Y1697586D02*
Y1699405D01*
X2003563D02*
X2005813Y1699586D01*
X2005813D02*
X2005563Y1699405D01*
X2005563D02*
X2005313Y1698859D01*
X2005313D02*
Y1698314D01*
X2005313D02*
X2005563Y1697768D01*
X2005563D02*
X2006063Y1697405D01*
X2006063D02*
X2006813Y1697223D01*
X2006813D02*
X2007313Y1697405D01*
X2007313D02*
X2008063Y1697586D01*
X2008063D02*
X2008563Y1697950D01*
X2008563D02*
X2008813Y1698495D01*
X2008813D02*
Y1699041D01*
X2008813D02*
X2008563Y1699586D01*
X2008563D02*
X2008313Y1699768D01*
X2008313D02*
X2007813Y1699950D01*
X2006563Y1695586D02*
Y1692314D01*
X2004563Y1690677D02*
X2004313Y1690314D01*
X2004313D02*
X2003563Y1689768D01*
X2003563D02*
X2008813D01*
X2003563Y1683950D02*
X2008813D01*
X2003563D02*
Y1682314D01*
X2003563D02*
X2003813Y1681768D01*
X2003813D02*
X2004063Y1681586D01*
X2004063D02*
X2004563Y1681405D01*
X2004563D02*
X2005063D01*
X2005063D02*
X2005563Y1681586D01*
X2005563D02*
X2005813Y1681768D01*
X2005813D02*
X2006063Y1682314D01*
X2006063D02*
Y1683950D01*
Y1682677D02*
X2008813Y1681405D01*
X2003563Y1679768D02*
X2008813D01*
X2003563D02*
Y1677405D01*
X2006063Y1679768D02*
Y1678314D01*
X2008813Y1679768D02*
Y1677405D01*
X2003563Y1675768D02*
X2008813Y1674314D01*
X2003563Y1672859D02*
X2008813Y1674314D01*
X2006563Y1667041D02*
Y1663768D01*
X2012563Y1720495D02*
X2017813Y1721950D01*
X2012563Y1720495D02*
X2017813Y1719041D01*
X2016063Y1721405D02*
Y1719586D01*
X2012563Y1717405D02*
X2017813D01*
X2012563Y1714859D02*
X2016063Y1717405D01*
X2014813Y1716495D02*
X2017813Y1714859D01*
X2011563Y1709950D02*
X2019563Y1713223D01*
X2012563Y1708314D02*
X2017813Y1707405D01*
X2012563Y1706495D02*
X2017813Y1707405D01*
X2012563Y1706495D02*
X2017813Y1705586D01*
X2012563Y1704677D02*
X2017813Y1705586D01*
X2012563Y1702314D02*
X2012813Y1702132D01*
X2012813D02*
X2012563Y1701950D01*
X2012563D02*
X2012313Y1702132D01*
X2012313D02*
X2012563Y1702314D01*
X2014313Y1702132D02*
X2018563D01*
X2018563D02*
X2019313Y1702314D01*
X2019313D02*
X2019563Y1702677D01*
X2019563D02*
Y1703041D01*
X2012563Y1698859D02*
X2017813Y1700314D01*
X2012563Y1698859D02*
X2017813Y1697405D01*
X2016063Y1699768D02*
Y1697950D01*
X2012563Y1690495D02*
X2012813Y1691041D01*
X2012813D02*
X2013563Y1691405D01*
X2013563D02*
X2014813Y1691586D01*
X2014813D02*
X2015563D01*
X2015563D02*
X2016813Y1691405D01*
X2016813D02*
X2017563Y1691041D01*
X2017563D02*
X2017813Y1690495D01*
X2017813D02*
Y1690132D01*
X2017813D02*
X2017563Y1689586D01*
X2017563D02*
X2016813Y1689223D01*
X2016813D02*
X2015563Y1689041D01*
X2015563D02*
X2014813D01*
X2014813D02*
X2013563Y1689223D01*
X2013563D02*
X2012813Y1689586D01*
X2012813D02*
X2012563Y1690132D01*
X2012563D02*
Y1690495D01*
X2014313Y1685041D02*
X2015063Y1685223D01*
X2015063D02*
X2015563Y1685586D01*
X2015563D02*
X2015813Y1686132D01*
X2015813D02*
Y1686314D01*
X2015813D02*
X2015563Y1686859D01*
X2015563D02*
X2015063Y1687223D01*
X2015063D02*
X2014313Y1687405D01*
X2014313D02*
X2014063D01*
X2014063D02*
X2013313Y1687223D01*
X2013313D02*
X2012813Y1686859D01*
X2012813D02*
X2012563Y1686314D01*
X2012563D02*
Y1686132D01*
X2012563D02*
X2012813Y1685586D01*
X2012813D02*
X2013313Y1685223D01*
X2013313D02*
X2014313Y1685041D01*
X2014313D02*
X2015563D01*
X2015563D02*
X2016813Y1685223D01*
X2016813D02*
X2017563Y1685586D01*
X2017563D02*
X2017813Y1686132D01*
X2017813D02*
Y1686495D01*
X2017813D02*
X2017563Y1687041D01*
X2017563D02*
X2017063Y1687223D01*
X2015563Y1683405D02*
Y1680132D01*
X2013563Y1678495D02*
X2013313Y1678132D01*
X2013313D02*
X2012563Y1677586D01*
X2012563D02*
X2017813D01*
X2014313Y1673586D02*
X2015063Y1673768D01*
X2015063D02*
X2015563Y1674132D01*
X2015563D02*
X2015813Y1674677D01*
X2015813D02*
Y1674859D01*
X2015813D02*
X2015563Y1675405D01*
X2015563D02*
X2015063Y1675768D01*
X2015063D02*
X2014313Y1675950D01*
X2014313D02*
X2014063D01*
X2014063D02*
X2013313Y1675768D01*
X2013313D02*
X2012813Y1675405D01*
X2012813D02*
X2012563Y1674859D01*
X2012563D02*
Y1674677D01*
X2012563D02*
X2012813Y1674132D01*
X2012813D02*
X2013313Y1673768D01*
X2013313D02*
X2014313Y1673586D01*
X2014313D02*
X2015563D01*
X2015563D02*
X2016813Y1673768D01*
X2016813D02*
X2017563Y1674132D01*
X2017563D02*
X2017813Y1674677D01*
X2017813D02*
Y1675041D01*
X2017813D02*
X2017563Y1675586D01*
X2017563D02*
X2017063Y1675768D01*
X2015563Y1671950D02*
Y1668677D01*
X2013563Y1667041D02*
X2013313Y1666677D01*
X2013313D02*
X2012563Y1666132D01*
X2012563D02*
X2017813D01*
X2012563Y1663586D02*
X2012813Y1664132D01*
X2012813D02*
X2013313Y1664314D01*
X2013313D02*
X2013813D01*
X2013813D02*
X2014313Y1664132D01*
X2014313D02*
X2014563Y1663768D01*
X2014563D02*
X2014813Y1663041D01*
X2014813D02*
X2015063Y1662495D01*
X2015063D02*
X2015563Y1662132D01*
X2015563D02*
X2016063Y1661950D01*
X2016063D02*
X2016813D01*
X2016813D02*
X2017313Y1662132D01*
X2017313D02*
X2017563Y1662314D01*
X2017563D02*
X2017813Y1662859D01*
X2017813D02*
Y1663586D01*
X2017813D02*
X2017563Y1664132D01*
X2017563D02*
X2017313Y1664314D01*
X2017313D02*
X2016813Y1664495D01*
X2016813D02*
X2016063D01*
X2016063D02*
X2015563Y1664314D01*
X2015563D02*
X2015063Y1663950D01*
X2015063D02*
X2014813Y1663405D01*
X2014813D02*
X2014563Y1662677D01*
X2014563D02*
X2014313Y1662314D01*
X2014313D02*
X2013813Y1662132D01*
X2013813D02*
X2013313D01*
X2013313D02*
X2012813Y1662314D01*
X2012813D02*
X2012563Y1662859D01*
X2012563D02*
Y1663586D01*
G54D169*
X1947688Y1756950D02*
Y1541950D01*
X1947688D02*
X2032688D01*
X2032688D02*
Y1626950D01*
X2032688D02*
X2037688Y1631950D01*
X2037688D02*
Y1756950D01*
X2037688D02*
X1947688D01*
G74*
X0Y0D02*
M02*
