*
*
G04 PADS VX.2.3 Build Number: 10035676 generated Gerber (RS-274-X) file*
G04 PC Version=2.1*
*
%IN "IO-1735-1.pcb"*%
*
%MOIN*%
*
%FSLAX35Y35*%
*
*
*
*
G04 PC Standard Apertures*
*
*
G04 Thermal Relief Aperture macro.*
%AMTER*
1,1,$1,0,0*
1,0,$1-$2,0,0*
21,0,$3,$4,0,0,45*
21,0,$3,$4,0,0,135*
%
*
*
G04 Annular Aperture macro.*
%AMANN*
1,1,$1,0,0*
1,0,$2,0,0*
%
*
*
G04 Odd Aperture macro.*
%AMODD*
1,1,$1,0,0*
1,0,$1-0.005,0,0*
%
*
*
G04 PC Custom Aperture Macros*
*
*
*
*
*
*
G04 PC Aperture Table*
*
%ADD010C,0.001*%
%ADD027C,0.06*%
%ADD028C,0.075*%
%ADD053C,0.05*%
%ADD055R,0.06X0.06*%
%ADD056C,0.005*%
%ADD058C,0.01*%
%ADD060C,0.02*%
%ADD065C,0.04*%
%ADD094C,0.08*%
%ADD169C,0.002*%
*
*
*
*
G04 PC Circuitry*
G04 Layer Name IO-1735-1.pcb - circuitry*
%LPD*%
*
*
G04 PC Custom Flashes*
G04 Layer Name IO-1735-1.pcb - flashes*
%LPD*%
*
*
G04 PC Circuitry*
G04 Layer Name IO-1735-1.pcb - circuitry*
%LPD*%
*
G54D10*
G54D27*
G01X1992688Y1602950D03*
Y1592950D03*
Y1582950D03*
X2022688D03*
Y1592950D03*
Y1602950D03*
Y1612950D03*
X1982688Y1586950D02*
X1978688Y1590950D01*
X1978688D02*
Y1613450D01*
X1978688D02*
X1972188Y1619950D01*
X1972188D02*
Y1639450D01*
X1972188D02*
X1977188Y1644450D01*
X1977188D02*
X1982688D01*
G54D28*
X1982688D03*
Y1634450D03*
Y1624450D03*
X2011188D03*
X1982688Y1586950D03*
Y1576950D03*
Y1566950D03*
X2011188D03*
G54D53*
X1982688Y1634450D02*
X1990188D01*
X1990188D02*
Y1726950D01*
X1990188D02*
X1962688D01*
G54D55*
X1992688Y1612950D03*
G54D56*
X2027138Y1582950D02*
G75*
G03X2027138I-4451J0D01*
G01Y1592950D02*
G03X2027138I-4451J0D01*
G01Y1602950D02*
G03X2027138I-4451J0D01*
G01Y1612950D02*
G03X2027138I-4451J0D01*
G01X2027938Y1726950D02*
G03X2027938I-5251J0D01*
G01X2016388Y1624450D02*
G03X2016388I-5201J0D01*
G01Y1566950D02*
G03X2016388I-5201J0D01*
G01X1967938Y1726950D02*
G03X1967938I-5251J0D01*
G01X1968138Y1746950D02*
G03X1968138I-5451J0D01*
G01X2035438Y1752336D02*
G03X2035430Y1752354I-25J0D01*
G01X2033091Y1754693*
G03X2033074Y1754700I-17J-18*
G01X1952301*
G03X1952284Y1754693I0J-25*
G01X1949945Y1752354*
G03X1949938Y1752336I18J-18*
G01X1949938D02*
Y1546564D01*
X1949938D02*
G03X1949945Y1546546I25J-0D01*
G01X1952284Y1544207*
G03X1952301Y1544200I17J18*
G01X2028074*
G03X2028091Y1544207I-0J25*
G01X2030430Y1546546*
G03X2030437Y1546564I-17J18*
G01X2030438D02*
Y1628054D01*
X2030438D02*
X2035430Y1633046D01*
G03X2035437Y1633064I-17J18*
G01X2035438D02*
Y1752336D01*
X1983737Y1592850D02*
G03X1983836Y1592161I2451J0D01*
G01X1983737Y1592850D02*
Y1619101D01*
G03X1983732Y1619116I-25J-0*
G01X1983579Y1619314*
G03X1983555Y1619323I-20J-16*
G01X1981568Y1629528D02*
G03X1983555Y1619323I1120J-5078D01*
G01X1981568Y1629528D02*
G03X1981588Y1629553I-5J25D01*
G01X1981588D02*
G03X1981568Y1629577I-25J-0D01*
G01Y1639323D02*
G03Y1629577I1120J-4873D01*
G01Y1639323D02*
G03X1981588Y1639347I-5J24D01*
G01X1981588D02*
G03X1981568Y1639372I-25J0D01*
G01X1980003Y1639996D02*
G03X1981568Y1639372I2685J4454D01*
G01X1980003Y1639996D02*
G03X1979990Y1640000I-13J-21D01*
G01X1979041*
G03X1979023Y1639993I0J-25*
G01X1976645Y1637614*
G03X1976638Y1637596I18J-18*
G01Y1621804*
G03X1976645Y1621786I25J-0*
G01X1981834Y1616597*
X1983138Y1613450D02*
G03X1981834Y1616597I-4451J0D01*
G01X1983138Y1613450D02*
Y1592804D01*
G03X1983145Y1592786I25J-0*
G01X1983795Y1592136*
G03X1983836Y1592161I17J18*
G01X2027138Y1582950D02*
G03X2027138I-4451J0D01*
G01Y1592950D02*
G03X2027138I-4451J0D01*
G01Y1602950D02*
G03X2027138I-4451J0D01*
G01Y1612950D02*
G03X2027138I-4451J0D01*
G01X2024361Y1661974D02*
G03Y1661926I8J-24D01*
G01X2027938Y1656950D02*
G03X2024361Y1661926I-5251J0D01*
G01X2017437Y1656950D02*
G03X2027938I5251J0D01*
G01X2021014Y1661926D02*
G03X2017437Y1656950I1674J-4976D01*
G01X2021014Y1661926D02*
G03Y1661974I-8J24D01*
G01X2017437Y1666950D02*
G03X2021014Y1661974I5251J0D01*
G01X2024361D02*
G03X2017437Y1666950I-1673J4976D01*
G01X2027938Y1726950D02*
G03X2027938I-5251J0D01*
G01X2018476Y1743491D02*
G03X2018457Y1743500I-19J-16D01*
G01X2011627*
G03X2011609Y1743493I-0J-25*
G01X2006645Y1738528*
G03X2006638Y1738511I18J-17*
G01Y1633450*
X2006146Y1631675D02*
G03X2006638Y1633450I-2959J1775D01*
G01X2006146Y1631675D02*
X2003641Y1627500D01*
G03X2003638Y1627487I22J-13*
G01Y1621913*
G03X2003641Y1621900I25J-0*
G01X2006146Y1617725*
X2006638Y1615950D02*
G03X2006146Y1617725I-3451J-0D01*
G01X2006638Y1615950D02*
Y1575950D01*
X2006146Y1574175D02*
G03X2006638Y1575950I-2959J1775D01*
G01X2006146Y1574175D02*
X2003641Y1570000D01*
G03X2003638Y1569987I22J-13*
G01Y1563913*
G03X2003641Y1563900I25J-0*
G01X2006146Y1559725*
X2006638Y1557950D02*
G03X2006146Y1559725I-3451J-0D01*
G01X2006638Y1557950D02*
Y1552450D01*
X1999737D02*
G03X2006638I3451J0D01*
G01X1999737D02*
Y1556987D01*
G03X1999734Y1557000I-25J0*
G01X1997229Y1561175*
X1996737Y1562950D02*
G03X1997229Y1561175I3451J0D01*
G01X1996737Y1562950D02*
Y1570950D01*
X1997229Y1572725D02*
G03X1996737Y1570950I2959J-1775D01*
G01X1997229Y1572725D02*
X1999734Y1576900D01*
G03X1999737Y1576913I-22J13*
G01Y1579475*
G03X1999712Y1579500I-25J-0*
G01X1995507*
G03X1995491Y1579494I0J-25*
G01X1991171Y1578766D02*
G03X1995491Y1579494I1517J4184D01*
G01X1991171Y1578766D02*
G03X1991138Y1578743I-8J-23D01*
G01Y1572950*
X1990420Y1571218D02*
G03X1991138Y1572950I-1732J1732D01*
G01X1990420Y1571218D02*
X1987674Y1568471D01*
G03X1987668Y1568447I17J-17*
G01X1987888Y1566950D02*
G03X1987668Y1568447I-5201J0D01*
G01X1981568Y1572028D02*
G03X1987888Y1566950I1120J-5078D01*
G01X1981568Y1572028D02*
G03X1981588Y1572053I-5J25D01*
G01X1981588D02*
G03X1981568Y1572077I-25J-0D01*
G01Y1581823D02*
G03Y1572077I1120J-4873D01*
G01Y1581823D02*
G03X1981588Y1581847I-5J24D01*
G01X1981588D02*
G03X1981568Y1581872I-25J0D01*
G01X1977640Y1585699D02*
G03X1981568Y1581872I5048J1251D01*
G01X1977640Y1585699D02*
G03X1977634Y1585711I-24J-6D01*
G01X1975541Y1587803*
X1974237Y1590950D02*
G03X1975541Y1587803I4451J0D01*
G01X1974237Y1590950D02*
Y1611596D01*
G03X1974230Y1611614I-25J0*
G01X1969041Y1616803*
X1967737Y1619950D02*
G03X1969041Y1616803I4451J0D01*
G01X1967737Y1619950D02*
Y1639450D01*
X1969041Y1642597D02*
G03X1967737Y1639450I3147J-3147D01*
G01X1969041Y1642597D02*
X1974041Y1647597D01*
X1977188Y1648900D02*
G03X1974041Y1647597I-0J-4450D01*
G01X1977188Y1648900D02*
X1979990D01*
G03X1980003Y1648904I0J25*
G01X1983807Y1639372D02*
G03X1980003Y1648904I-1119J5078D01*
G01X1983807Y1639372D02*
G03X1983787Y1639347I5J-25D01*
G01X1983787D02*
G03X1983807Y1639323I25J0D01*
G01Y1629577D02*
G03Y1639323I-1119J4873D01*
G01Y1629577D02*
G03X1983787Y1629553I5J-24D01*
G01X1983787D02*
G03X1983807Y1629528I25J-0D01*
G01X1987443Y1622347D02*
G03X1983807Y1629528I-4755J2103D01*
G01X1987443Y1622347D02*
G03X1987441Y1622337I23J-10D01*
G01X1987441*
G03X1987447Y1622322I25J0*
G01X1988121Y1621454*
X1988638Y1619950D02*
G03X1988121Y1621454I-2450J0D01*
G01X1988638Y1619950D02*
Y1617011D01*
G03X1988680Y1616993I25J-0*
G01X1989688Y1617400D02*
G03X1988680Y1616993I-0J-1450D01*
G01X1989688Y1617400D02*
X1995688D01*
X1997138Y1615950D02*
G03X1995688Y1617400I-1450J0D01*
G01X1997138Y1615950D02*
Y1609950D01*
X1995688Y1608500D02*
G03X1997138Y1609950I-0J1450D01*
G01X1995688Y1608500D02*
X1989688D01*
X1988680Y1608907D02*
G03X1989688Y1608500I1008J1043D01*
G01X1988680Y1608907D02*
G03X1988638Y1608889I-17J-18D01*
G01Y1604906*
G03X1988685Y1604895I25J-0*
G01Y1601005D02*
G03Y1604895I4003J1945D01*
G01Y1601005D02*
G03X1988638Y1600994I-22J-11D01*
G01Y1594906*
G03X1988685Y1594895I25J-0*
G01X1991469Y1588670D02*
G03X1988685Y1594895I1219J4280D01*
G01X1991469Y1588670D02*
G03X1991438Y1588646I-6J-24D01*
G01Y1587254*
G03X1991469Y1587230I25J0*
G01X1995491Y1586406D02*
G03X1991469Y1587230I-2803J-3456D01*
G01X1995491Y1586406D02*
G03X1995507Y1586400I16J19D01*
G01X1999712*
G03X1999737Y1586425I0J25*
G01Y1614987*
G03X1999734Y1615000I-25J0*
G01X1997229Y1619175*
X1996737Y1620950D02*
G03X1997229Y1619175I3451J0D01*
G01X1996737Y1620950D02*
Y1628450D01*
X1997229Y1630225D02*
G03X1996737Y1628450I2959J-1775D01*
G01X1997229Y1630225D02*
X1999734Y1634400D01*
G03X1999737Y1634413I-22J13*
G01Y1739950*
X2000748Y1742390D02*
G03X1999737Y1739950I2440J-2440D01*
G01X2000748Y1742390D02*
X2007748Y1749390D01*
X2010188Y1750400D02*
G03X2007748Y1749390I-0J-3450D01*
G01X2010188Y1750400D02*
X2018457D01*
G03X2018476Y1750409I-0J25*
G01Y1743491D02*
G03Y1750409I4212J3459D01*
G01X2016388Y1624450D02*
G03X2016388I-5201J0D01*
G01Y1566950D02*
G03X2016388I-5201J0D01*
G01X1964908Y1661973D02*
G03Y1661927I10J-23D01*
G01X1960467D02*
G03X1964908I2221J-4977D01*
G01X1960467D02*
G03Y1661973I-10J23D01*
G01X1964908D02*
G03X1960467I-2220J4977D01*
G01X1967938Y1726950D02*
G03X1967938I-5251J0D01*
G01X1968138Y1746950D02*
G03X1968138I-5451J0D01*
G01X2024475Y1752099D02*
X2035438D01*
X2025449Y1751649D02*
X2035438D01*
X2026101Y1751199D02*
X2035438D01*
X2026596Y1750749D02*
X2035438D01*
X2026987Y1750299D02*
X2035438D01*
X2027303Y1749849D02*
X2035438D01*
X2027556Y1749399D02*
X2035438D01*
X2027758Y1748949D02*
X2035438D01*
X2027913Y1748499D02*
X2035438D01*
X2028026Y1748049D02*
X2035438D01*
X2028099Y1747599D02*
X2035438D01*
X2028134Y1747149D02*
X2035438D01*
X2028132Y1746699D02*
X2035438D01*
X2028092Y1746249D02*
X2035438D01*
X2028015Y1745799D02*
X2035438D01*
X2027897Y1745349D02*
X2035438D01*
X2027737Y1744899D02*
X2035438D01*
X2027530Y1744449D02*
X2035438D01*
X2027269Y1743999D02*
X2035438D01*
X2026946Y1743549D02*
X2035438D01*
X2026544Y1743099D02*
X2035438D01*
X2026034Y1742649D02*
X2035438D01*
X2025357Y1742199D02*
X2035438D01*
X2024315Y1741749D02*
X2035438D01*
X2009415Y1741299D02*
X2035438D01*
X2008965Y1740849D02*
X2035438D01*
X2008515Y1740399D02*
X2035438D01*
X2008065Y1739949D02*
X2035438D01*
X2007615Y1739499D02*
X2035438D01*
X2007165Y1739049D02*
X2035438D01*
X2006715Y1738599D02*
X2035438D01*
X2006638Y1738149D02*
X2035438D01*
X2006638Y1737699D02*
X2035438D01*
X2006638Y1737249D02*
X2035438D01*
X2006638Y1736799D02*
X2035438D01*
X2006638Y1736349D02*
X2035438D01*
X2006638Y1735899D02*
X2035438D01*
X2006638Y1735449D02*
X2035438D01*
X2006638Y1734999D02*
X2035438D01*
X2006638Y1734549D02*
X2035438D01*
X2006638Y1734099D02*
X2035438D01*
X2006638Y1733649D02*
X2035438D01*
X2006638Y1733199D02*
X2035438D01*
X2006638Y1732749D02*
X2035438D01*
X2006638Y1732299D02*
X2035438D01*
X2024576Y1731849D02*
X2035438D01*
X2025475Y1731399D02*
X2035438D01*
X2026089Y1730949D02*
X2035438D01*
X2026557Y1730499D02*
X2035438D01*
X2026926Y1730049D02*
X2035438D01*
X2027220Y1729599D02*
X2035438D01*
X2027455Y1729149D02*
X2035438D01*
X2027638Y1728699D02*
X2035438D01*
X2027774Y1728249D02*
X2035438D01*
X2027868Y1727799D02*
X2035438D01*
X2027922Y1727349D02*
X2035438D01*
X2027937Y1726899D02*
X2035438D01*
X2027914Y1726449D02*
X2035438D01*
X2027851Y1725999D02*
X2035438D01*
X2027747Y1725549D02*
X2035438D01*
X2027600Y1725099D02*
X2035438D01*
X2027406Y1724649D02*
X2035438D01*
X2027159Y1724199D02*
X2035438D01*
X2026849Y1723749D02*
X2035438D01*
X2026460Y1723299D02*
X2035438D01*
X2025965Y1722849D02*
X2035438D01*
X2025304Y1722399D02*
X2035438D01*
X2024284Y1721949D02*
X2035438D01*
X2006638Y1721499D02*
X2035438D01*
X2006638Y1721049D02*
X2035438D01*
X2006638Y1720599D02*
X2035438D01*
X2006638Y1720149D02*
X2035438D01*
X2006638Y1719699D02*
X2035438D01*
X2006638Y1719249D02*
X2035438D01*
X2006638Y1718799D02*
X2035438D01*
X2006638Y1718349D02*
X2035438D01*
X2006638Y1717899D02*
X2035438D01*
X2006638Y1717449D02*
X2035438D01*
X2006638Y1716999D02*
X2035438D01*
X2006638Y1716549D02*
X2035438D01*
X2006638Y1716099D02*
X2035438D01*
X2006638Y1715649D02*
X2035438D01*
X2006638Y1715199D02*
X2035438D01*
X2006638Y1714749D02*
X2035438D01*
X2006638Y1714299D02*
X2035438D01*
X2006638Y1713849D02*
X2035438D01*
X2006638Y1713399D02*
X2035438D01*
X2006638Y1712949D02*
X2035438D01*
X2006638Y1712499D02*
X2035438D01*
X2006638Y1712049D02*
X2035438D01*
X2006638Y1711599D02*
X2035438D01*
X2006638Y1711149D02*
X2035438D01*
X2006638Y1710699D02*
X2035438D01*
X2006638Y1710249D02*
X2035438D01*
X2006638Y1709799D02*
X2035438D01*
X2006638Y1709349D02*
X2035438D01*
X2006638Y1708899D02*
X2035438D01*
X2006638Y1708449D02*
X2035438D01*
X2006638Y1707999D02*
X2035438D01*
X2006638Y1707549D02*
X2035438D01*
X2006638Y1707099D02*
X2035438D01*
X2006638Y1706649D02*
X2035438D01*
X2006638Y1706199D02*
X2035438D01*
X2006638Y1705749D02*
X2035438D01*
X2006638Y1705299D02*
X2035438D01*
X2006638Y1704849D02*
X2035438D01*
X2006638Y1704399D02*
X2035438D01*
X2006638Y1703949D02*
X2035438D01*
X2006638Y1703499D02*
X2035438D01*
X2006638Y1703049D02*
X2035438D01*
X2006638Y1702599D02*
X2035438D01*
X2006638Y1702149D02*
X2035438D01*
X2006638Y1701699D02*
X2035438D01*
X2006638Y1701249D02*
X2035438D01*
X2006638Y1700799D02*
X2035438D01*
X2006638Y1700349D02*
X2035438D01*
X2006638Y1699899D02*
X2035438D01*
X2006638Y1699449D02*
X2035438D01*
X2006638Y1698999D02*
X2035438D01*
X2006638Y1698549D02*
X2035438D01*
X2006638Y1698099D02*
X2035438D01*
X2006638Y1697649D02*
X2035438D01*
X2006638Y1697199D02*
X2035438D01*
X2006638Y1696749D02*
X2035438D01*
X2006638Y1696299D02*
X2035438D01*
X2006638Y1695849D02*
X2035438D01*
X2006638Y1695399D02*
X2035438D01*
X2006638Y1694949D02*
X2035438D01*
X2006638Y1694499D02*
X2035438D01*
X2006638Y1694049D02*
X2035438D01*
X2006638Y1693599D02*
X2035438D01*
X2006638Y1693149D02*
X2035438D01*
X2006638Y1692699D02*
X2035438D01*
X2006638Y1692249D02*
X2035438D01*
X2006638Y1691799D02*
X2035438D01*
X2006638Y1691349D02*
X2035438D01*
X2006638Y1690899D02*
X2035438D01*
X2006638Y1690449D02*
X2035438D01*
X2006638Y1689999D02*
X2035438D01*
X2006638Y1689549D02*
X2035438D01*
X2006638Y1689099D02*
X2035438D01*
X2006638Y1688649D02*
X2035438D01*
X2006638Y1688199D02*
X2035438D01*
X2006638Y1687749D02*
X2035438D01*
X2006638Y1687299D02*
X2035438D01*
X2006638Y1686849D02*
X2035438D01*
X2006638Y1686399D02*
X2035438D01*
X2006638Y1685949D02*
X2035438D01*
X2006638Y1685499D02*
X2035438D01*
X2006638Y1685049D02*
X2035438D01*
X2006638Y1684599D02*
X2035438D01*
X2006638Y1684149D02*
X2035438D01*
X2006638Y1683699D02*
X2035438D01*
X2006638Y1683249D02*
X2035438D01*
X2006638Y1682799D02*
X2035438D01*
X2006638Y1682349D02*
X2035438D01*
X2006638Y1681899D02*
X2035438D01*
X2006638Y1681449D02*
X2035438D01*
X2006638Y1680999D02*
X2035438D01*
X2006638Y1680549D02*
X2035438D01*
X2006638Y1680099D02*
X2035438D01*
X2006638Y1679649D02*
X2035438D01*
X2006638Y1679199D02*
X2035438D01*
X2006638Y1678749D02*
X2035438D01*
X2006638Y1678299D02*
X2035438D01*
X2006638Y1677849D02*
X2035438D01*
X2006638Y1677399D02*
X2035438D01*
X2006638Y1676949D02*
X2035438D01*
X2006638Y1676499D02*
X2035438D01*
X2006638Y1676049D02*
X2035438D01*
X2006638Y1675599D02*
X2035438D01*
X2006638Y1675149D02*
X2035438D01*
X2006638Y1674699D02*
X2035438D01*
X2006638Y1674249D02*
X2035438D01*
X2006638Y1673799D02*
X2035438D01*
X2006638Y1673349D02*
X2035438D01*
X2006638Y1672899D02*
X2035438D01*
X2006638Y1672449D02*
X2035438D01*
X2024127Y1671999D02*
X2035438D01*
X2025220Y1671549D02*
X2035438D01*
X2025905Y1671099D02*
X2035438D01*
X2026413Y1670649D02*
X2035438D01*
X2026812Y1670199D02*
X2035438D01*
X2027129Y1669749D02*
X2035438D01*
X2027383Y1669299D02*
X2035438D01*
X2027582Y1668849D02*
X2035438D01*
X2027734Y1668399D02*
X2035438D01*
X2027842Y1667949D02*
X2035438D01*
X2027909Y1667499D02*
X2035438D01*
X2027937Y1667049D02*
X2035438D01*
X2027926Y1666599D02*
X2035438D01*
X2027876Y1666149D02*
X2035438D01*
X2027786Y1665699D02*
X2035438D01*
X2027654Y1665249D02*
X2035438D01*
X2027477Y1664799D02*
X2035438D01*
X2027248Y1664349D02*
X2035438D01*
X2026960Y1663899D02*
X2035438D01*
X2026599Y1663449D02*
X2035438D01*
X2026144Y1662999D02*
X2035438D01*
X2025550Y1662549D02*
X2035438D01*
X2024694Y1662099D02*
X2035438D01*
X2025030Y1661649D02*
X2035438D01*
X2025772Y1661199D02*
X2035438D01*
X2026311Y1660749D02*
X2035438D01*
X2026731Y1660299D02*
X2035438D01*
X2027065Y1659849D02*
X2035438D01*
X2027331Y1659399D02*
X2035438D01*
X2027542Y1658949D02*
X2035438D01*
X2027704Y1658499D02*
X2035438D01*
X2027821Y1658049D02*
X2035438D01*
X2027897Y1657599D02*
X2035438D01*
X2027934Y1657149D02*
X2035438D01*
X2027932Y1656699D02*
X2035438D01*
X2027890Y1656249D02*
X2035438D01*
X2027810Y1655799D02*
X2035438D01*
X2027687Y1655349D02*
X2035438D01*
X2027520Y1654899D02*
X2035438D01*
X2027303Y1654449D02*
X2035438D01*
X2027029Y1653999D02*
X2035438D01*
X2026687Y1653549D02*
X2035438D01*
X2026255Y1653099D02*
X2035438D01*
X2025698Y1652649D02*
X2035438D01*
X2024921Y1652199D02*
X2035438D01*
X2023401Y1651749D02*
X2035438D01*
X2006638Y1651299D02*
X2035438D01*
X2006638Y1650849D02*
X2035438D01*
X2006638Y1650399D02*
X2035438D01*
X2006638Y1649949D02*
X2035438D01*
X2006638Y1649499D02*
X2035438D01*
X2006638Y1649049D02*
X2035438D01*
X2006638Y1648599D02*
X2035438D01*
X2006638Y1648149D02*
X2035438D01*
X2006638Y1647699D02*
X2035438D01*
X2006638Y1647249D02*
X2035438D01*
X2006638Y1646799D02*
X2035438D01*
X2006638Y1646349D02*
X2035438D01*
X2006638Y1645899D02*
X2035438D01*
X2006638Y1645449D02*
X2035438D01*
X2006638Y1644999D02*
X2035438D01*
X2006638Y1644549D02*
X2035438D01*
X2006638Y1644099D02*
X2035438D01*
X2006638Y1643649D02*
X2035438D01*
X2006638Y1643199D02*
X2035438D01*
X2006638Y1642749D02*
X2035438D01*
X2006638Y1642299D02*
X2035438D01*
X2006638Y1641849D02*
X2035438D01*
X2006638Y1641399D02*
X2035438D01*
X2006638Y1640949D02*
X2035438D01*
X2006638Y1640499D02*
X2035438D01*
X2006638Y1640049D02*
X2035438D01*
X2006638Y1639599D02*
X2035438D01*
X2006638Y1639149D02*
X2035438D01*
X2006638Y1638699D02*
X2035438D01*
X2006638Y1638249D02*
X2035438D01*
X2006638Y1637799D02*
X2035438D01*
X2006638Y1637349D02*
X2035438D01*
X2006638Y1636899D02*
X2035438D01*
X2006638Y1636449D02*
X2035438D01*
X2006638Y1635999D02*
X2035438D01*
X2006638Y1635549D02*
X2035438D01*
X2006638Y1635099D02*
X2035438D01*
X2006638Y1634649D02*
X2035438D01*
X2006638Y1634199D02*
X2035438D01*
X2006638Y1633749D02*
X2035438D01*
X2006634Y1633299D02*
X2035438D01*
X1950140Y1752549D02*
X2035235D01*
X2006585Y1632849D02*
X2035233D01*
X1950590Y1752999D02*
X2034785D01*
X2006473Y1632399D02*
X2034783D01*
X1951040Y1753449D02*
X2034335D01*
X2006294Y1631949D02*
X2034333D01*
X1951490Y1753899D02*
X2033885D01*
X2006040Y1631499D02*
X2033883D01*
X1951940Y1754349D02*
X2033435D01*
X2005770Y1631049D02*
X2033433D01*
X2005500Y1630599D02*
X2032983D01*
X2005230Y1630149D02*
X2032533D01*
X2004960Y1629699D02*
X2032083D01*
X2013191Y1629249D02*
X2031633D01*
X2014039Y1628799D02*
X2031183D01*
X2014628Y1628349D02*
X2030733D01*
X2015079Y1627899D02*
X2030438D01*
X2015436Y1627449D02*
X2030438D01*
X2015720Y1626999D02*
X2030438D01*
X2015945Y1626549D02*
X2030438D01*
X2016119Y1626099D02*
X2030438D01*
X2016247Y1625649D02*
X2030438D01*
X2016333Y1625199D02*
X2030438D01*
X2016379Y1624749D02*
X2030438D01*
X2016385Y1624299D02*
X2030438D01*
X2016353Y1623849D02*
X2030438D01*
X2016280Y1623399D02*
X2030438D01*
X2016166Y1622949D02*
X2030438D01*
X2016008Y1622499D02*
X2030438D01*
X2015800Y1622049D02*
X2030438D01*
X2015536Y1621599D02*
X2030438D01*
X2015205Y1621149D02*
X2030438D01*
X2014789Y1620699D02*
X2030438D01*
X2014252Y1620249D02*
X2030438D01*
X2013512Y1619799D02*
X2030438D01*
X2012196Y1619349D02*
X2030438D01*
X2005442Y1618899D02*
X2030438D01*
X2005712Y1618449D02*
X2030438D01*
X2005982Y1617999D02*
X2030438D01*
X2006245Y1617549D02*
X2030438D01*
X2024297Y1617099D02*
X2030438D01*
X2025162Y1616649D02*
X2030438D01*
X2025729Y1616199D02*
X2030438D01*
X2026147Y1615749D02*
X2030438D01*
X2026467Y1615299D02*
X2030438D01*
X2026712Y1614849D02*
X2030438D01*
X2026895Y1614399D02*
X2030438D01*
X2027024Y1613949D02*
X2030438D01*
X2027104Y1613499D02*
X2030438D01*
X2027136Y1613049D02*
X2030438D01*
X2027124Y1612599D02*
X2030438D01*
X2027065Y1612149D02*
X2030438D01*
X2026958Y1611699D02*
X2030438D01*
X2026799Y1611249D02*
X2030438D01*
X2026583Y1610799D02*
X2030438D01*
X2026298Y1610349D02*
X2030438D01*
X2025927Y1609899D02*
X2030438D01*
X2025434Y1609449D02*
X2030438D01*
X2024734Y1608999D02*
X2030438D01*
X2023344Y1608549D02*
X2030438D01*
X2006638Y1608099D02*
X2030438D01*
X2006638Y1607649D02*
X2030438D01*
X2024011Y1607199D02*
X2030438D01*
X2025005Y1606749D02*
X2030438D01*
X2025618Y1606299D02*
X2030438D01*
X2026064Y1605849D02*
X2030438D01*
X2026403Y1605399D02*
X2030438D01*
X2026663Y1604949D02*
X2030438D01*
X2026859Y1604499D02*
X2030438D01*
X2027000Y1604049D02*
X2030438D01*
X2027090Y1603599D02*
X2030438D01*
X2027133Y1603149D02*
X2030438D01*
X2027130Y1602699D02*
X2030438D01*
X2027082Y1602249D02*
X2030438D01*
X2026986Y1601799D02*
X2030438D01*
X2026839Y1601349D02*
X2030438D01*
X2026637Y1600899D02*
X2030438D01*
X2026368Y1600449D02*
X2030438D01*
X2026018Y1599999D02*
X2030438D01*
X2025557Y1599549D02*
X2030438D01*
X2024917Y1599099D02*
X2030438D01*
X2023828Y1598649D02*
X2030438D01*
X2006638Y1598199D02*
X2030438D01*
X2006638Y1597749D02*
X2030438D01*
X2023632Y1597299D02*
X2030438D01*
X2024833Y1596849D02*
X2030438D01*
X2025500Y1596399D02*
X2030438D01*
X2025975Y1595949D02*
X2030438D01*
X2026335Y1595499D02*
X2030438D01*
X2026612Y1595049D02*
X2030438D01*
X2026821Y1594599D02*
X2030438D01*
X2026973Y1594149D02*
X2030438D01*
X2027074Y1593699D02*
X2030438D01*
X2027127Y1593249D02*
X2030438D01*
X2027135Y1592799D02*
X2030438D01*
X2027097Y1592349D02*
X2030438D01*
X2027012Y1591899D02*
X2030438D01*
X2026877Y1591449D02*
X2030438D01*
X2026687Y1590999D02*
X2030438D01*
X2026434Y1590549D02*
X2030438D01*
X2026104Y1590099D02*
X2030438D01*
X2025671Y1589649D02*
X2030438D01*
X2025081Y1589199D02*
X2030438D01*
X2024154Y1588749D02*
X2030438D01*
X2006638Y1588299D02*
X2030438D01*
X2006638Y1587849D02*
X2030438D01*
X2022796Y1587399D02*
X2030438D01*
X2024640Y1586949D02*
X2030438D01*
X2025373Y1586499D02*
X2030438D01*
X2025881Y1586049D02*
X2030438D01*
X2026263Y1585599D02*
X2030438D01*
X2026556Y1585149D02*
X2030438D01*
X2026780Y1584699D02*
X2030438D01*
X2026944Y1584249D02*
X2030438D01*
X2027056Y1583799D02*
X2030438D01*
X2027120Y1583349D02*
X2030438D01*
X2027137Y1582899D02*
X2030438D01*
X2027109Y1582449D02*
X2030438D01*
X2027035Y1581999D02*
X2030438D01*
X2026911Y1581549D02*
X2030438D01*
X2026734Y1581099D02*
X2030438D01*
X2026496Y1580649D02*
X2030438D01*
X2026185Y1580199D02*
X2030438D01*
X2025779Y1579749D02*
X2030438D01*
X2025231Y1579299D02*
X2030438D01*
X2024414Y1578849D02*
X2030438D01*
X2006638Y1578399D02*
X2030438D01*
X2006638Y1577949D02*
X2030438D01*
X2006638Y1577499D02*
X2030438D01*
X2006638Y1577049D02*
X2030438D01*
X2006638Y1576599D02*
X2030438D01*
X2006638Y1576149D02*
X2030438D01*
X2006628Y1575699D02*
X2030438D01*
X2006565Y1575249D02*
X2030438D01*
X2006440Y1574799D02*
X2030438D01*
X2006243Y1574349D02*
X2030438D01*
X2005980Y1573899D02*
X2030438D01*
X2005710Y1573449D02*
X2030438D01*
X2005440Y1572999D02*
X2030438D01*
X2005170Y1572549D02*
X2030438D01*
X2011916Y1572099D02*
X2030438D01*
X2013415Y1571649D02*
X2030438D01*
X2014186Y1571199D02*
X2030438D01*
X2014739Y1570749D02*
X2030438D01*
X2015166Y1570299D02*
X2030438D01*
X2015505Y1569849D02*
X2030438D01*
X2015775Y1569399D02*
X2030438D01*
X2015988Y1568949D02*
X2030438D01*
X2016152Y1568499D02*
X2030438D01*
X2016270Y1568049D02*
X2030438D01*
X2016347Y1567599D02*
X2030438D01*
X2016384Y1567149D02*
X2030438D01*
X2016381Y1566699D02*
X2030438D01*
X2016340Y1566249D02*
X2030438D01*
X2016258Y1565799D02*
X2030438D01*
X2016135Y1565349D02*
X2030438D01*
X2015966Y1564899D02*
X2030438D01*
X2015746Y1564449D02*
X2030438D01*
X2015469Y1563999D02*
X2030438D01*
X2015121Y1563549D02*
X2030438D01*
X2014681Y1563099D02*
X2030438D01*
X2014110Y1562649D02*
X2030438D01*
X2013301Y1562199D02*
X2030438D01*
X2004932Y1561749D02*
X2030438D01*
X2005202Y1561299D02*
X2030438D01*
X2005472Y1560849D02*
X2030438D01*
X2005742Y1560399D02*
X2030438D01*
X2006012Y1559949D02*
X2030438D01*
X2006270Y1559499D02*
X2030438D01*
X2006458Y1559049D02*
X2030438D01*
X2006576Y1558599D02*
X2030438D01*
X2006632Y1558149D02*
X2030438D01*
X2006638Y1557699D02*
X2030438D01*
X2006638Y1557249D02*
X2030438D01*
X2006638Y1556799D02*
X2030438D01*
X2006638Y1556349D02*
X2030438D01*
X2006638Y1555899D02*
X2030438D01*
X2006638Y1555449D02*
X2030438D01*
X2006638Y1554999D02*
X2030438D01*
X2006638Y1554549D02*
X2030438D01*
X2006638Y1554099D02*
X2030438D01*
X2006638Y1553649D02*
X2030438D01*
X2006638Y1553199D02*
X2030438D01*
X2006638Y1552749D02*
X2030438D01*
X2006634Y1552299D02*
X2030438D01*
X2006585Y1551849D02*
X2030438D01*
X2006473Y1551399D02*
X2030438D01*
X2006294Y1550949D02*
X2030438D01*
X2006033Y1550499D02*
X2030438D01*
X2005665Y1550049D02*
X2030438D01*
X2005130Y1549599D02*
X2030438D01*
X2004189Y1549149D02*
X2030438D01*
X1949938Y1548699D02*
X2030438D01*
X1949938Y1548249D02*
X2030438D01*
X1949938Y1547799D02*
X2030438D01*
X1949938Y1547349D02*
X2030438D01*
X1949938Y1546899D02*
X2030438D01*
X1950042Y1546449D02*
X2030333D01*
X1950492Y1545999D02*
X2029883D01*
X1950942Y1545549D02*
X2029433D01*
X1951392Y1545099D02*
X2028983D01*
X1951842Y1544649D02*
X2028533D01*
X2006638Y1587399D02*
X2022579D01*
X2006638Y1608549D02*
X2022031D01*
X2006638Y1651749D02*
X2021974D01*
X2006638Y1597299D02*
X2021743D01*
X2006638Y1598649D02*
X2021547D01*
X2006638Y1607199D02*
X2021364D01*
X2006638Y1671999D02*
X2021248D01*
X2006638Y1588749D02*
X2021221D01*
X2006638Y1721949D02*
X2021091D01*
X2006441Y1617099D02*
X2021078D01*
X2009865Y1741749D02*
X2021060D01*
X2006638Y1578849D02*
X2020961D01*
X1964475Y1752099D02*
X2020900D01*
X2006638Y1731849D02*
X2020799D01*
X2006638Y1586949D02*
X2020735D01*
X2006638Y1662099D02*
X2020681D01*
X2006638Y1608999D02*
X2020641D01*
X2006638Y1596849D02*
X2020542D01*
X2006638Y1599099D02*
X2020458D01*
X2006638Y1652199D02*
X2020454D01*
X2006638Y1606749D02*
X2020370D01*
X2006638Y1661649D02*
X2020345D01*
X2006638Y1589199D02*
X2020294D01*
X2006566Y1616649D02*
X2020213D01*
X2006638Y1671549D02*
X2020155D01*
X2006638Y1579299D02*
X2020144D01*
X2006638Y1722399D02*
X2020071D01*
X2010315Y1742199D02*
X2020018D01*
X2006638Y1586499D02*
X2020002D01*
X2006638Y1609449D02*
X2019941D01*
X1965449Y1751649D02*
X2019926D01*
X2006638Y1731399D02*
X2019900D01*
X2006638Y1596399D02*
X2019875D01*
X2006638Y1662549D02*
X2019825D01*
X2006638Y1599549D02*
X2019818D01*
X2006638Y1606299D02*
X2019757D01*
X2006638Y1589649D02*
X2019704D01*
X2006638Y1652649D02*
X2019677D01*
X2006629Y1616199D02*
X2019646D01*
X2006638Y1661199D02*
X2019603D01*
X2006638Y1579749D02*
X2019597D01*
X2006638Y1586049D02*
X2019494D01*
X2006638Y1671099D02*
X2019470D01*
X2006638Y1609899D02*
X2019448D01*
X2006638Y1722849D02*
X2019410D01*
X2006638Y1595949D02*
X2019400D01*
X2006638Y1599999D02*
X2019357D01*
X2010765Y1742649D02*
X2019341D01*
X2006638Y1605849D02*
X2019311D01*
X2006638Y1730949D02*
X2019286D01*
X1966101Y1751199D02*
X2019274D01*
X2006638Y1590099D02*
X2019271D01*
X2006638Y1662999D02*
X2019231D01*
X2006638Y1615749D02*
X2019228D01*
X2006638Y1580199D02*
X2019190D01*
X2006638Y1653099D02*
X2019120D01*
X2006638Y1585599D02*
X2019112D01*
X2006638Y1610349D02*
X2019077D01*
X2006638Y1660749D02*
X2019064D01*
X2006638Y1595499D02*
X2019040D01*
X2006638Y1600449D02*
X2019007D01*
X2006638Y1605399D02*
X2018972D01*
X2006638Y1670649D02*
X2018962D01*
X2006638Y1590549D02*
X2018941D01*
X2006638Y1723299D02*
X2018915D01*
X2006638Y1615299D02*
X2018908D01*
X2006638Y1580649D02*
X2018879D01*
X2011215Y1743099D02*
X2018831D01*
X2006638Y1585149D02*
X2018819D01*
X2006638Y1730499D02*
X2018818D01*
X2006638Y1610799D02*
X2018792D01*
X1966596Y1750749D02*
X2018779D01*
X2006638Y1663449D02*
X2018776D01*
X2006638Y1595049D02*
X2018763D01*
X2006638Y1600899D02*
X2018738D01*
X2006638Y1604949D02*
X2018712D01*
X2006638Y1653549D02*
X2018688D01*
X2006638Y1590999D02*
X2018688D01*
X2006638Y1614849D02*
X2018663D01*
X2006638Y1660299D02*
X2018644D01*
X2006638Y1581099D02*
X2018641D01*
X2006638Y1584699D02*
X2018595D01*
X2006638Y1611249D02*
X2018576D01*
X2006638Y1670199D02*
X2018563D01*
X2006638Y1594599D02*
X2018554D01*
X2006638Y1601349D02*
X2018536D01*
X2006638Y1723749D02*
X2018526D01*
X2006638Y1604499D02*
X2018516D01*
X2006638Y1591449D02*
X2018498D01*
X2006638Y1614399D02*
X2018480D01*
X2006638Y1581549D02*
X2018464D01*
X2006638Y1730049D02*
X2018449D01*
X2006638Y1584249D02*
X2018431D01*
X2006638Y1611699D02*
X2018417D01*
X2006638Y1663899D02*
X2018415D01*
X2006638Y1594149D02*
X2018402D01*
X2006638Y1601799D02*
X2018389D01*
X2006638Y1604049D02*
X2018375D01*
X2006638Y1591899D02*
X2018363D01*
X2006638Y1613949D02*
X2018351D01*
X2006638Y1653999D02*
X2018346D01*
X2006638Y1581999D02*
X2018340D01*
X2006638Y1583799D02*
X2018319D01*
X2006638Y1659849D02*
X2018310D01*
X2006638Y1612149D02*
X2018310D01*
X2006638Y1593699D02*
X2018301D01*
X2006638Y1602249D02*
X2018293D01*
X2006638Y1603599D02*
X2018285D01*
X2006638Y1592349D02*
X2018278D01*
X2006638Y1613499D02*
X2018271D01*
X2006638Y1582449D02*
X2018266D01*
X2006638Y1583349D02*
X2018255D01*
X2006638Y1612599D02*
X2018251D01*
X2006638Y1593249D02*
X2018248D01*
X2006638Y1669749D02*
X2018246D01*
X2006638Y1602699D02*
X2018245D01*
X2006638Y1603149D02*
X2018242D01*
X2006638Y1592799D02*
X2018240D01*
X2006638Y1613049D02*
X2018239D01*
X2006638Y1582899D02*
X2018238D01*
X2006638Y1724199D02*
X2018216D01*
X2006638Y1729599D02*
X2018155D01*
X2006638Y1664349D02*
X2018127D01*
X2006638Y1654449D02*
X2018072D01*
X2006638Y1659399D02*
X2018044D01*
X2006638Y1669299D02*
X2017992D01*
X2006638Y1724649D02*
X2017969D01*
X2006638Y1729149D02*
X2017920D01*
X2006638Y1664799D02*
X2017898D01*
X2006638Y1654899D02*
X2017855D01*
X2006638Y1658949D02*
X2017833D01*
X2006638Y1668849D02*
X2017793D01*
X2006638Y1725099D02*
X2017775D01*
X2006638Y1728699D02*
X2017737D01*
X2006638Y1665249D02*
X2017721D01*
X2006638Y1655349D02*
X2017688D01*
X2006638Y1658499D02*
X2017671D01*
X2006638Y1668399D02*
X2017641D01*
X2006638Y1725549D02*
X2017628D01*
X2006638Y1728249D02*
X2017601D01*
X2006638Y1665699D02*
X2017589D01*
X2006638Y1655799D02*
X2017565D01*
X2006638Y1658049D02*
X2017554D01*
X2006638Y1667949D02*
X2017533D01*
X2006638Y1725999D02*
X2017524D01*
X2006638Y1727799D02*
X2017507D01*
X2006638Y1666149D02*
X2017499D01*
X2006638Y1656249D02*
X2017485D01*
X2006638Y1657599D02*
X2017478D01*
X2006638Y1667499D02*
X2017466D01*
X2006638Y1726449D02*
X2017461D01*
X2006638Y1727349D02*
X2017453D01*
X2006638Y1666599D02*
X2017449D01*
X2006638Y1656699D02*
X2017443D01*
X2006638Y1657149D02*
X2017441D01*
X2006638Y1667049D02*
X2017438D01*
X2006638Y1726899D02*
X2017438D01*
X2004900Y1572099D02*
X2010459D01*
X2005172Y1619349D02*
X2010179D01*
X1966987Y1750299D02*
X2009357D01*
X2004690Y1629249D02*
X2009184D01*
X2004662Y1562199D02*
X2009074D01*
X2004630Y1571649D02*
X2008960D01*
X2004902Y1619799D02*
X2008863D01*
X2004420Y1628799D02*
X2008336D01*
X1967303Y1749849D02*
X2008317D01*
X2004392Y1562649D02*
X2008265D01*
X2004360Y1571199D02*
X2008189D01*
X2004632Y1620249D02*
X2008123D01*
X1967556Y1749399D02*
X2007757D01*
X2004150Y1628349D02*
X2007747D01*
X2004122Y1563099D02*
X2007694D01*
X2004090Y1570749D02*
X2007636D01*
X2004362Y1620699D02*
X2007586D01*
X1967758Y1748949D02*
X2007307D01*
X2003880Y1627899D02*
X2007296D01*
X2003852Y1563549D02*
X2007254D01*
X2003820Y1570299D02*
X2007209D01*
X2004092Y1621149D02*
X2007170D01*
X2003638Y1627449D02*
X2006939D01*
X2003638Y1563999D02*
X2006906D01*
X2003638Y1569849D02*
X2006870D01*
X1967913Y1748499D02*
X2006857D01*
X2003822Y1621599D02*
X2006839D01*
X2003638Y1626999D02*
X2006655D01*
X2003638Y1564449D02*
X2006629D01*
X2003638Y1569399D02*
X2006600D01*
X2003638Y1622049D02*
X2006575D01*
X2003638Y1626549D02*
X2006430D01*
X2003638Y1564899D02*
X2006409D01*
X1968026Y1748049D02*
X2006407D01*
X2003638Y1568949D02*
X2006387D01*
X2003638Y1622499D02*
X2006367D01*
X2003638Y1626099D02*
X2006256D01*
X2003638Y1565349D02*
X2006240D01*
X2003638Y1568499D02*
X2006223D01*
X2003638Y1622949D02*
X2006209D01*
X2003638Y1625649D02*
X2006128D01*
X2003638Y1565799D02*
X2006117D01*
X2003638Y1568049D02*
X2006105D01*
X2003638Y1623399D02*
X2006095D01*
X2003638Y1625199D02*
X2006042D01*
X2003638Y1566249D02*
X2006035D01*
X2003638Y1567599D02*
X2006028D01*
X2003638Y1623849D02*
X2006022D01*
X2003638Y1624749D02*
X2005996D01*
X2003638Y1566699D02*
X2005994D01*
X2003638Y1567149D02*
X2005991D01*
X2003638Y1624299D02*
X2005990D01*
X1968099Y1747599D02*
X2005957D01*
X1968134Y1747149D02*
X2005507D01*
X1968132Y1746699D02*
X2005057D01*
X1968092Y1746249D02*
X2004607D01*
X1968015Y1745799D02*
X2004157D01*
X1967897Y1745349D02*
X2003707D01*
X1967737Y1744899D02*
X2003257D01*
X1967530Y1744449D02*
X2002807D01*
X1967269Y1743999D02*
X2002357D01*
X1949938Y1549149D02*
X2002186D01*
X1966946Y1743549D02*
X2001907D01*
X1966544Y1743099D02*
X2001457D01*
X1949938Y1549599D02*
X2001245D01*
X1966034Y1742649D02*
X2001007D01*
X1949938Y1550049D02*
X2000710D01*
X1965357Y1742199D02*
X2000571D01*
X1949938Y1550499D02*
X2000342D01*
X1964315Y1741749D02*
X2000243D01*
X1949938Y1550949D02*
X2000081D01*
X1949938Y1741299D02*
X2000012D01*
X1949938Y1551399D02*
X1999902D01*
X1949938Y1740849D02*
X1999857D01*
X1949938Y1551849D02*
X1999790D01*
X1949938Y1740399D02*
X1999767D01*
X1949938Y1552299D02*
X1999741D01*
X1949938Y1739949D02*
X1999737D01*
X1949938Y1739499D02*
X1999737D01*
X1949938Y1739049D02*
X1999737D01*
X1949938Y1738599D02*
X1999737D01*
X1949938Y1738149D02*
X1999737D01*
X1949938Y1737699D02*
X1999737D01*
X1949938Y1737249D02*
X1999737D01*
X1949938Y1736799D02*
X1999737D01*
X1949938Y1736349D02*
X1999737D01*
X1949938Y1735899D02*
X1999737D01*
X1949938Y1735449D02*
X1999737D01*
X1949938Y1734999D02*
X1999737D01*
X1949938Y1734549D02*
X1999737D01*
X1949938Y1734099D02*
X1999737D01*
X1949938Y1733649D02*
X1999737D01*
X1949938Y1733199D02*
X1999737D01*
X1949938Y1732749D02*
X1999737D01*
X1949938Y1732299D02*
X1999737D01*
X1964576Y1731849D02*
X1999737D01*
X1965475Y1731399D02*
X1999737D01*
X1966089Y1730949D02*
X1999737D01*
X1966557Y1730499D02*
X1999737D01*
X1966926Y1730049D02*
X1999737D01*
X1967220Y1729599D02*
X1999737D01*
X1967455Y1729149D02*
X1999737D01*
X1967638Y1728699D02*
X1999737D01*
X1967774Y1728249D02*
X1999737D01*
X1967868Y1727799D02*
X1999737D01*
X1967922Y1727349D02*
X1999737D01*
X1967937Y1726899D02*
X1999737D01*
X1967914Y1726449D02*
X1999737D01*
X1967851Y1725999D02*
X1999737D01*
X1967747Y1725549D02*
X1999737D01*
X1967600Y1725099D02*
X1999737D01*
X1967406Y1724649D02*
X1999737D01*
X1967159Y1724199D02*
X1999737D01*
X1966849Y1723749D02*
X1999737D01*
X1966460Y1723299D02*
X1999737D01*
X1965965Y1722849D02*
X1999737D01*
X1965304Y1722399D02*
X1999737D01*
X1964284Y1721949D02*
X1999737D01*
X1949938Y1721499D02*
X1999737D01*
X1949938Y1721049D02*
X1999737D01*
X1949938Y1720599D02*
X1999737D01*
X1949938Y1720149D02*
X1999737D01*
X1949938Y1719699D02*
X1999737D01*
X1949938Y1719249D02*
X1999737D01*
X1949938Y1718799D02*
X1999737D01*
X1949938Y1718349D02*
X1999737D01*
X1949938Y1717899D02*
X1999737D01*
X1949938Y1717449D02*
X1999737D01*
X1949938Y1716999D02*
X1999737D01*
X1949938Y1716549D02*
X1999737D01*
X1949938Y1716099D02*
X1999737D01*
X1949938Y1715649D02*
X1999737D01*
X1949938Y1715199D02*
X1999737D01*
X1949938Y1714749D02*
X1999737D01*
X1949938Y1714299D02*
X1999737D01*
X1949938Y1713849D02*
X1999737D01*
X1949938Y1713399D02*
X1999737D01*
X1949938Y1712949D02*
X1999737D01*
X1949938Y1712499D02*
X1999737D01*
X1949938Y1712049D02*
X1999737D01*
X1949938Y1711599D02*
X1999737D01*
X1949938Y1711149D02*
X1999737D01*
X1949938Y1710699D02*
X1999737D01*
X1949938Y1710249D02*
X1999737D01*
X1949938Y1709799D02*
X1999737D01*
X1949938Y1709349D02*
X1999737D01*
X1949938Y1708899D02*
X1999737D01*
X1949938Y1708449D02*
X1999737D01*
X1949938Y1707999D02*
X1999737D01*
X1949938Y1707549D02*
X1999737D01*
X1949938Y1707099D02*
X1999737D01*
X1949938Y1706649D02*
X1999737D01*
X1949938Y1706199D02*
X1999737D01*
X1949938Y1705749D02*
X1999737D01*
X1949938Y1705299D02*
X1999737D01*
X1949938Y1704849D02*
X1999737D01*
X1949938Y1704399D02*
X1999737D01*
X1949938Y1703949D02*
X1999737D01*
X1949938Y1703499D02*
X1999737D01*
X1949938Y1703049D02*
X1999737D01*
X1949938Y1702599D02*
X1999737D01*
X1949938Y1702149D02*
X1999737D01*
X1949938Y1701699D02*
X1999737D01*
X1949938Y1701249D02*
X1999737D01*
X1949938Y1700799D02*
X1999737D01*
X1949938Y1700349D02*
X1999737D01*
X1949938Y1699899D02*
X1999737D01*
X1949938Y1699449D02*
X1999737D01*
X1949938Y1698999D02*
X1999737D01*
X1949938Y1698549D02*
X1999737D01*
X1949938Y1698099D02*
X1999737D01*
X1949938Y1697649D02*
X1999737D01*
X1949938Y1697199D02*
X1999737D01*
X1949938Y1696749D02*
X1999737D01*
X1949938Y1696299D02*
X1999737D01*
X1949938Y1695849D02*
X1999737D01*
X1949938Y1695399D02*
X1999737D01*
X1949938Y1694949D02*
X1999737D01*
X1949938Y1694499D02*
X1999737D01*
X1949938Y1694049D02*
X1999737D01*
X1949938Y1693599D02*
X1999737D01*
X1949938Y1693149D02*
X1999737D01*
X1949938Y1692699D02*
X1999737D01*
X1949938Y1692249D02*
X1999737D01*
X1949938Y1691799D02*
X1999737D01*
X1949938Y1691349D02*
X1999737D01*
X1949938Y1690899D02*
X1999737D01*
X1949938Y1690449D02*
X1999737D01*
X1949938Y1689999D02*
X1999737D01*
X1949938Y1689549D02*
X1999737D01*
X1949938Y1689099D02*
X1999737D01*
X1949938Y1688649D02*
X1999737D01*
X1949938Y1688199D02*
X1999737D01*
X1949938Y1687749D02*
X1999737D01*
X1949938Y1687299D02*
X1999737D01*
X1949938Y1686849D02*
X1999737D01*
X1949938Y1686399D02*
X1999737D01*
X1949938Y1685949D02*
X1999737D01*
X1949938Y1685499D02*
X1999737D01*
X1949938Y1685049D02*
X1999737D01*
X1949938Y1684599D02*
X1999737D01*
X1949938Y1684149D02*
X1999737D01*
X1949938Y1683699D02*
X1999737D01*
X1949938Y1683249D02*
X1999737D01*
X1949938Y1682799D02*
X1999737D01*
X1949938Y1682349D02*
X1999737D01*
X1949938Y1681899D02*
X1999737D01*
X1949938Y1681449D02*
X1999737D01*
X1949938Y1680999D02*
X1999737D01*
X1949938Y1680549D02*
X1999737D01*
X1949938Y1680099D02*
X1999737D01*
X1949938Y1679649D02*
X1999737D01*
X1949938Y1679199D02*
X1999737D01*
X1949938Y1678749D02*
X1999737D01*
X1949938Y1678299D02*
X1999737D01*
X1949938Y1677849D02*
X1999737D01*
X1949938Y1677399D02*
X1999737D01*
X1949938Y1676949D02*
X1999737D01*
X1949938Y1676499D02*
X1999737D01*
X1949938Y1676049D02*
X1999737D01*
X1949938Y1675599D02*
X1999737D01*
X1949938Y1675149D02*
X1999737D01*
X1949938Y1674699D02*
X1999737D01*
X1949938Y1674249D02*
X1999737D01*
X1949938Y1673799D02*
X1999737D01*
X1949938Y1673349D02*
X1999737D01*
X1949938Y1672899D02*
X1999737D01*
X1949938Y1672449D02*
X1999737D01*
X1964740Y1671999D02*
X1999737D01*
X1965612Y1671549D02*
X1999737D01*
X1966222Y1671099D02*
X1999737D01*
X1966690Y1670649D02*
X1999737D01*
X1967063Y1670199D02*
X1999737D01*
X1967364Y1669749D02*
X1999737D01*
X1967605Y1669299D02*
X1999737D01*
X1967796Y1668849D02*
X1999737D01*
X1967941Y1668399D02*
X1999737D01*
X1968045Y1667949D02*
X1999737D01*
X1968110Y1667499D02*
X1999737D01*
X1968137Y1667049D02*
X1999737D01*
X1968126Y1666599D02*
X1999737D01*
X1968078Y1666149D02*
X1999737D01*
X1967992Y1665699D02*
X1999737D01*
X1967865Y1665249D02*
X1999737D01*
X1967695Y1664799D02*
X1999737D01*
X1967477Y1664349D02*
X1999737D01*
X1967203Y1663899D02*
X1999737D01*
X1966864Y1663449D02*
X1999737D01*
X1966441Y1662999D02*
X1999737D01*
X1965902Y1662549D02*
X1999737D01*
X1965171Y1662099D02*
X1999737D01*
X1965449Y1661649D02*
X1999737D01*
X1966101Y1661199D02*
X1999737D01*
X1966596Y1660749D02*
X1999737D01*
X1966987Y1660299D02*
X1999737D01*
X1967303Y1659849D02*
X1999737D01*
X1967556Y1659399D02*
X1999737D01*
X1967758Y1658949D02*
X1999737D01*
X1967913Y1658499D02*
X1999737D01*
X1968026Y1658049D02*
X1999737D01*
X1968099Y1657599D02*
X1999737D01*
X1968134Y1657149D02*
X1999737D01*
X1968132Y1656699D02*
X1999737D01*
X1968092Y1656249D02*
X1999737D01*
X1968015Y1655799D02*
X1999737D01*
X1967897Y1655349D02*
X1999737D01*
X1967737Y1654899D02*
X1999737D01*
X1967530Y1654449D02*
X1999737D01*
X1967269Y1653999D02*
X1999737D01*
X1966946Y1653549D02*
X1999737D01*
X1966544Y1653099D02*
X1999737D01*
X1966034Y1652649D02*
X1999737D01*
X1965357Y1652199D02*
X1999737D01*
X1964315Y1651749D02*
X1999737D01*
X1949938Y1651299D02*
X1999737D01*
X1949938Y1650849D02*
X1999737D01*
X1949938Y1650399D02*
X1999737D01*
X1949938Y1649949D02*
X1999737D01*
X1983933Y1649499D02*
X1999737D01*
X1985115Y1649049D02*
X1999737D01*
X1985823Y1648599D02*
X1999737D01*
X1986343Y1648149D02*
X1999737D01*
X1986748Y1647699D02*
X1999737D01*
X1987070Y1647249D02*
X1999737D01*
X1987327Y1646799D02*
X1999737D01*
X1987528Y1646349D02*
X1999737D01*
X1987682Y1645899D02*
X1999737D01*
X1987791Y1645449D02*
X1999737D01*
X1987858Y1644999D02*
X1999737D01*
X1987887Y1644549D02*
X1999737D01*
X1987876Y1644099D02*
X1999737D01*
X1987825Y1643649D02*
X1999737D01*
X1987735Y1643199D02*
X1999737D01*
X1987601Y1642749D02*
X1999737D01*
X1987422Y1642299D02*
X1999737D01*
X1987190Y1641849D02*
X1999737D01*
X1986898Y1641399D02*
X1999737D01*
X1986532Y1640949D02*
X1999737D01*
X1986068Y1640499D02*
X1999737D01*
X1985457Y1640049D02*
X1999737D01*
X1984560Y1639599D02*
X1999737D01*
X1984397Y1639149D02*
X1999737D01*
X1985324Y1638699D02*
X1999737D01*
X1985939Y1638249D02*
X1999737D01*
X1986401Y1637799D02*
X1999737D01*
X1986762Y1637349D02*
X1999737D01*
X1987047Y1636899D02*
X1999737D01*
X1987271Y1636449D02*
X1999737D01*
X1987442Y1635999D02*
X1999737D01*
X1987565Y1635549D02*
X1999737D01*
X1987645Y1635099D02*
X1999737D01*
X1987684Y1634649D02*
X1999737D01*
X1997138Y1614849D02*
X1999737D01*
X1997138Y1614399D02*
X1999737D01*
X1997138Y1613949D02*
X1999737D01*
X1997138Y1613499D02*
X1999737D01*
X1997138Y1613049D02*
X1999737D01*
X1997138Y1612599D02*
X1999737D01*
X1997138Y1612149D02*
X1999737D01*
X1997138Y1611699D02*
X1999737D01*
X1997138Y1611249D02*
X1999737D01*
X1997138Y1610799D02*
X1999737D01*
X1997138Y1610349D02*
X1999737D01*
X1997137Y1609899D02*
X1999737D01*
X1997048Y1609449D02*
X1999737D01*
X1996782Y1608999D02*
X1999737D01*
X1996060Y1608549D02*
X1999737D01*
X1988638Y1608099D02*
X1999737D01*
X1988638Y1607649D02*
X1999737D01*
X1994011Y1607199D02*
X1999737D01*
X1995005Y1606749D02*
X1999737D01*
X1995618Y1606299D02*
X1999737D01*
X1996064Y1605849D02*
X1999737D01*
X1996403Y1605399D02*
X1999737D01*
X1996663Y1604949D02*
X1999737D01*
X1996859Y1604499D02*
X1999737D01*
X1997000Y1604049D02*
X1999737D01*
X1997090Y1603599D02*
X1999737D01*
X1997133Y1603149D02*
X1999737D01*
X1997130Y1602699D02*
X1999737D01*
X1997082Y1602249D02*
X1999737D01*
X1996986Y1601799D02*
X1999737D01*
X1996839Y1601349D02*
X1999737D01*
X1996637Y1600899D02*
X1999737D01*
X1996368Y1600449D02*
X1999737D01*
X1996018Y1599999D02*
X1999737D01*
X1995557Y1599549D02*
X1999737D01*
X1994917Y1599099D02*
X1999737D01*
X1993828Y1598649D02*
X1999737D01*
X1988638Y1598199D02*
X1999737D01*
X1988638Y1597749D02*
X1999737D01*
X1993632Y1597299D02*
X1999737D01*
X1994833Y1596849D02*
X1999737D01*
X1995500Y1596399D02*
X1999737D01*
X1995975Y1595949D02*
X1999737D01*
X1996335Y1595499D02*
X1999737D01*
X1996612Y1595049D02*
X1999737D01*
X1996821Y1594599D02*
X1999737D01*
X1996973Y1594149D02*
X1999737D01*
X1997074Y1593699D02*
X1999737D01*
X1997127Y1593249D02*
X1999737D01*
X1997135Y1592799D02*
X1999737D01*
X1997097Y1592349D02*
X1999737D01*
X1997012Y1591899D02*
X1999737D01*
X1996877Y1591449D02*
X1999737D01*
X1996687Y1590999D02*
X1999737D01*
X1996434Y1590549D02*
X1999737D01*
X1996104Y1590099D02*
X1999737D01*
X1995671Y1589649D02*
X1999737D01*
X1995081Y1589199D02*
X1999737D01*
X1994154Y1588749D02*
X1999737D01*
X1991438Y1588299D02*
X1999737D01*
X1991438Y1587849D02*
X1999737D01*
X1992796Y1587399D02*
X1999737D01*
X1994640Y1586949D02*
X1999737D01*
X1995373Y1586499D02*
X1999737D01*
X1995231Y1579299D02*
X1999737D01*
X1994414Y1578849D02*
X1999737D01*
X1991138Y1578399D02*
X1999737D01*
X1991138Y1577949D02*
X1999737D01*
X1991138Y1577499D02*
X1999737D01*
X1991138Y1577049D02*
X1999737D01*
X1949938Y1556799D02*
X1999737D01*
X1949938Y1556349D02*
X1999737D01*
X1949938Y1555899D02*
X1999737D01*
X1949938Y1555449D02*
X1999737D01*
X1949938Y1554999D02*
X1999737D01*
X1949938Y1554549D02*
X1999737D01*
X1949938Y1554099D02*
X1999737D01*
X1949938Y1553649D02*
X1999737D01*
X1949938Y1553199D02*
X1999737D01*
X1949938Y1552749D02*
X1999737D01*
X1987681Y1634199D02*
X1999613D01*
X1949938Y1557249D02*
X1999585D01*
X1997138Y1615299D02*
X1999555D01*
X1991138Y1576599D02*
X1999553D01*
X1987638Y1633749D02*
X1999343D01*
X1949938Y1557699D02*
X1999315D01*
X1997138Y1615749D02*
X1999285D01*
X1991138Y1576149D02*
X1999283D01*
X1987553Y1633299D02*
X1999073D01*
X1949938Y1558149D02*
X1999045D01*
X1997116Y1616199D02*
X1999015D01*
X1991138Y1575699D02*
X1999013D01*
X1987424Y1632849D02*
X1998803D01*
X1949938Y1558599D02*
X1998775D01*
X1996958Y1616649D02*
X1998745D01*
X1991138Y1575249D02*
X1998743D01*
X1987247Y1632399D02*
X1998533D01*
X1949938Y1559049D02*
X1998505D01*
X1996572Y1617099D02*
X1998475D01*
X1991138Y1574799D02*
X1998473D01*
X1987017Y1631949D02*
X1998263D01*
X1949938Y1559499D02*
X1998235D01*
X1988638Y1617549D02*
X1998205D01*
X1991138Y1574349D02*
X1998203D01*
X1986724Y1631499D02*
X1997993D01*
X1949938Y1559949D02*
X1997965D01*
X1988638Y1617999D02*
X1997935D01*
X1991138Y1573899D02*
X1997933D01*
X1986352Y1631049D02*
X1997723D01*
X1949938Y1560399D02*
X1997695D01*
X1988638Y1618449D02*
X1997665D01*
X1991138Y1573449D02*
X1997663D01*
X1985876Y1630599D02*
X1997453D01*
X1949938Y1560849D02*
X1997425D01*
X1988638Y1618899D02*
X1997395D01*
X1991138Y1572999D02*
X1997393D01*
X1985237Y1630149D02*
X1997185D01*
X1949938Y1561299D02*
X1997158D01*
X1988638Y1619349D02*
X1997132D01*
X1991104Y1572549D02*
X1997130D01*
X1984245Y1629699D02*
X1996971D01*
X1949938Y1561749D02*
X1996953D01*
X1988638Y1619799D02*
X1996935D01*
X1990985Y1572099D02*
X1996934D01*
X1984691Y1629249D02*
X1996831D01*
X1984801Y1562199D02*
X1996820D01*
X1988619Y1620249D02*
X1996810D01*
X1990763Y1571649D02*
X1996809D01*
X1985539Y1628799D02*
X1996755D01*
X1985610Y1562649D02*
X1996751D01*
X1988520Y1620699D02*
X1996747D01*
X1990401Y1571199D02*
X1996746D01*
X1986128Y1628349D02*
X1996737D01*
X1986579Y1627899D02*
X1996737D01*
X1986936Y1627449D02*
X1996737D01*
X1987220Y1626999D02*
X1996737D01*
X1987445Y1626549D02*
X1996737D01*
X1987619Y1626099D02*
X1996737D01*
X1987747Y1625649D02*
X1996737D01*
X1987833Y1625199D02*
X1996737D01*
X1987879Y1624749D02*
X1996737D01*
X1987885Y1624299D02*
X1996737D01*
X1987853Y1623849D02*
X1996737D01*
X1987780Y1623399D02*
X1996737D01*
X1987666Y1622949D02*
X1996737D01*
X1987508Y1622499D02*
X1996737D01*
X1987659Y1622049D02*
X1996737D01*
X1988009Y1621599D02*
X1996737D01*
X1988324Y1621149D02*
X1996737D01*
X1989951Y1570749D02*
X1996737D01*
X1989501Y1570299D02*
X1996737D01*
X1989051Y1569849D02*
X1996737D01*
X1988601Y1569399D02*
X1996737D01*
X1988151Y1568949D02*
X1996737D01*
X1987701Y1568499D02*
X1996737D01*
X1987770Y1568049D02*
X1996737D01*
X1987847Y1567599D02*
X1996737D01*
X1987884Y1567149D02*
X1996737D01*
X1987881Y1566699D02*
X1996737D01*
X1987840Y1566249D02*
X1996737D01*
X1987758Y1565799D02*
X1996737D01*
X1987635Y1565349D02*
X1996737D01*
X1987466Y1564899D02*
X1996737D01*
X1987246Y1564449D02*
X1996737D01*
X1986969Y1563999D02*
X1996737D01*
X1986621Y1563549D02*
X1996737D01*
X1986181Y1563099D02*
X1996737D01*
X1991438Y1587399D02*
X1992579D01*
X1988638Y1597299D02*
X1991743D01*
X1988638Y1598649D02*
X1991547D01*
X1988638Y1607199D02*
X1991364D01*
X1988638Y1596849D02*
X1990542D01*
X1988638Y1599099D02*
X1990458D01*
X1988638Y1606749D02*
X1990370D01*
X1988638Y1596399D02*
X1989875D01*
X1988638Y1599549D02*
X1989818D01*
X1988638Y1606299D02*
X1989757D01*
X1988638Y1595949D02*
X1989400D01*
X1988638Y1599999D02*
X1989357D01*
X1988638Y1608549D02*
X1989315D01*
X1988638Y1605849D02*
X1989311D01*
X1988638Y1595499D02*
X1989040D01*
X1988638Y1600449D02*
X1989007D01*
X1988638Y1605399D02*
X1988972D01*
X1988638Y1617099D02*
X1988803D01*
X1988638Y1595049D02*
X1988763D01*
X1988638Y1600899D02*
X1988738D01*
X1988638Y1604949D02*
X1988712D01*
X1949938Y1572099D02*
X1981477D01*
X1949938Y1649499D02*
X1981442D01*
X1949938Y1581999D02*
X1981099D01*
X1949938Y1581549D02*
X1980725D01*
X1949938Y1562199D02*
X1980574D01*
X1949938Y1571649D02*
X1980460D01*
X1949938Y1572549D02*
X1980315D01*
X1949938Y1649049D02*
X1980260D01*
X1949938Y1582449D02*
X1980084D01*
X1949938Y1581099D02*
X1979897D01*
X1949938Y1562649D02*
X1979765D01*
X1949938Y1571199D02*
X1979689D01*
X1949938Y1572999D02*
X1979624D01*
X1949938Y1582899D02*
X1979428D01*
X1949938Y1580649D02*
X1979323D01*
X1949938Y1563099D02*
X1979194D01*
X1949938Y1570749D02*
X1979136D01*
X1949938Y1573449D02*
X1979118D01*
X1949938Y1583349D02*
X1978936D01*
X1949938Y1580199D02*
X1978887D01*
X1949938Y1563549D02*
X1978754D01*
X1949938Y1573899D02*
X1978726D01*
X1949938Y1570299D02*
X1978709D01*
X1949938Y1583799D02*
X1978551D01*
X1949938Y1579749D02*
X1978544D01*
X1949938Y1574349D02*
X1978417D01*
X1949938Y1563999D02*
X1978406D01*
X1949938Y1569849D02*
X1978370D01*
X1949938Y1579299D02*
X1978273D01*
X1949938Y1584249D02*
X1978244D01*
X1949938Y1574799D02*
X1978174D01*
X1949938Y1564449D02*
X1978129D01*
X1949938Y1569399D02*
X1978100D01*
X1949938Y1578849D02*
X1978062D01*
X1949938Y1584699D02*
X1978000D01*
X1949938Y1575249D02*
X1977986D01*
X1949938Y1564899D02*
X1977909D01*
X1949938Y1578399D02*
X1977902D01*
X1949938Y1568949D02*
X1977887D01*
X1949938Y1575699D02*
X1977847D01*
X1949938Y1585149D02*
X1977809D01*
X1949938Y1577949D02*
X1977788D01*
X1949938Y1576149D02*
X1977752D01*
X1949938Y1565349D02*
X1977740D01*
X1949938Y1568499D02*
X1977723D01*
X1949938Y1577499D02*
X1977718D01*
X1949938Y1576599D02*
X1977700D01*
X1949938Y1577049D02*
X1977688D01*
X1949938Y1585599D02*
X1977666D01*
X1949938Y1565799D02*
X1977617D01*
X1949938Y1568049D02*
X1977605D01*
X1949938Y1566249D02*
X1977535D01*
X1949938Y1567599D02*
X1977528D01*
X1949938Y1566699D02*
X1977494D01*
X1949938Y1567149D02*
X1977491D01*
X1949938Y1586049D02*
X1977296D01*
X1949938Y1586499D02*
X1976846D01*
X1949938Y1586949D02*
X1976396D01*
X1949938Y1587399D02*
X1975946D01*
X1949938Y1648599D02*
X1975578D01*
X1949938Y1587849D02*
X1975496D01*
X1949938Y1588299D02*
X1975114D01*
X1949938Y1588749D02*
X1974820D01*
X1949938Y1648149D02*
X1974713D01*
X1949938Y1589199D02*
X1974597D01*
X1949938Y1589649D02*
X1974432D01*
X1949938Y1590099D02*
X1974320D01*
X1949938Y1590549D02*
X1974256D01*
X1949938Y1611249D02*
X1974237D01*
X1949938Y1610799D02*
X1974237D01*
X1949938Y1610349D02*
X1974237D01*
X1949938Y1609899D02*
X1974237D01*
X1949938Y1609449D02*
X1974237D01*
X1949938Y1608999D02*
X1974237D01*
X1949938Y1608549D02*
X1974237D01*
X1949938Y1608099D02*
X1974237D01*
X1949938Y1607649D02*
X1974237D01*
X1949938Y1607199D02*
X1974237D01*
X1949938Y1606749D02*
X1974237D01*
X1949938Y1606299D02*
X1974237D01*
X1949938Y1605849D02*
X1974237D01*
X1949938Y1605399D02*
X1974237D01*
X1949938Y1604949D02*
X1974237D01*
X1949938Y1604499D02*
X1974237D01*
X1949938Y1604049D02*
X1974237D01*
X1949938Y1603599D02*
X1974237D01*
X1949938Y1603149D02*
X1974237D01*
X1949938Y1602699D02*
X1974237D01*
X1949938Y1602249D02*
X1974237D01*
X1949938Y1601799D02*
X1974237D01*
X1949938Y1601349D02*
X1974237D01*
X1949938Y1600899D02*
X1974237D01*
X1949938Y1600449D02*
X1974237D01*
X1949938Y1599999D02*
X1974237D01*
X1949938Y1599549D02*
X1974237D01*
X1949938Y1599099D02*
X1974237D01*
X1949938Y1598649D02*
X1974237D01*
X1949938Y1598199D02*
X1974237D01*
X1949938Y1597749D02*
X1974237D01*
X1949938Y1597299D02*
X1974237D01*
X1949938Y1596849D02*
X1974237D01*
X1949938Y1596399D02*
X1974237D01*
X1949938Y1595949D02*
X1974237D01*
X1949938Y1595499D02*
X1974237D01*
X1949938Y1595049D02*
X1974237D01*
X1949938Y1594599D02*
X1974237D01*
X1949938Y1594149D02*
X1974237D01*
X1949938Y1593699D02*
X1974237D01*
X1949938Y1593249D02*
X1974237D01*
X1949938Y1592799D02*
X1974237D01*
X1949938Y1592349D02*
X1974237D01*
X1949938Y1591899D02*
X1974237D01*
X1949938Y1591449D02*
X1974237D01*
X1949938Y1590999D02*
X1974237D01*
X1949938Y1647699D02*
X1974146D01*
X1949938Y1611699D02*
X1974146D01*
X1949938Y1612149D02*
X1973696D01*
X1949938Y1647249D02*
X1973693D01*
X1949938Y1612599D02*
X1973246D01*
X1949938Y1646799D02*
X1973243D01*
X1949938Y1613049D02*
X1972796D01*
X1949938Y1646349D02*
X1972793D01*
X1949938Y1613499D02*
X1972346D01*
X1949938Y1645899D02*
X1972343D01*
X1949938Y1613949D02*
X1971896D01*
X1949938Y1645449D02*
X1971893D01*
X1949938Y1614399D02*
X1971446D01*
X1949938Y1644999D02*
X1971443D01*
X1949938Y1614849D02*
X1970996D01*
X1949938Y1644549D02*
X1970993D01*
X1949938Y1615299D02*
X1970546D01*
X1949938Y1644099D02*
X1970543D01*
X1949938Y1615749D02*
X1970096D01*
X1949938Y1643649D02*
X1970093D01*
X1949938Y1616199D02*
X1969646D01*
X1949938Y1643199D02*
X1969643D01*
X1949938Y1616649D02*
X1969196D01*
X1949938Y1642749D02*
X1969193D01*
X1949938Y1617099D02*
X1968771D01*
X1949938Y1642299D02*
X1968769D01*
X1949938Y1617549D02*
X1968441D01*
X1949938Y1641849D02*
X1968439D01*
X1949938Y1617999D02*
X1968188D01*
X1949938Y1641399D02*
X1968187D01*
X1949938Y1618449D02*
X1967998D01*
X1949938Y1640949D02*
X1967997D01*
X1949938Y1618899D02*
X1967863D01*
X1949938Y1640499D02*
X1967863D01*
X1949938Y1619349D02*
X1967778D01*
X1949938Y1640049D02*
X1967778D01*
X1949938Y1619799D02*
X1967740D01*
X1949938Y1639599D02*
X1967740D01*
X1949938Y1639149D02*
X1967737D01*
X1949938Y1638699D02*
X1967737D01*
X1949938Y1638249D02*
X1967737D01*
X1949938Y1637799D02*
X1967737D01*
X1949938Y1637349D02*
X1967737D01*
X1949938Y1636899D02*
X1967737D01*
X1949938Y1636449D02*
X1967737D01*
X1949938Y1635999D02*
X1967737D01*
X1949938Y1635549D02*
X1967737D01*
X1949938Y1635099D02*
X1967737D01*
X1949938Y1634649D02*
X1967737D01*
X1949938Y1634199D02*
X1967737D01*
X1949938Y1633749D02*
X1967737D01*
X1949938Y1633299D02*
X1967737D01*
X1949938Y1632849D02*
X1967737D01*
X1949938Y1632399D02*
X1967737D01*
X1949938Y1631949D02*
X1967737D01*
X1949938Y1631499D02*
X1967737D01*
X1949938Y1631049D02*
X1967737D01*
X1949938Y1630599D02*
X1967737D01*
X1949938Y1630149D02*
X1967737D01*
X1949938Y1629699D02*
X1967737D01*
X1949938Y1629249D02*
X1967737D01*
X1949938Y1628799D02*
X1967737D01*
X1949938Y1628349D02*
X1967737D01*
X1949938Y1627899D02*
X1967737D01*
X1949938Y1627449D02*
X1967737D01*
X1949938Y1626999D02*
X1967737D01*
X1949938Y1626549D02*
X1967737D01*
X1949938Y1626099D02*
X1967737D01*
X1949938Y1625649D02*
X1967737D01*
X1949938Y1625199D02*
X1967737D01*
X1949938Y1624749D02*
X1967737D01*
X1949938Y1624299D02*
X1967737D01*
X1949938Y1623849D02*
X1967737D01*
X1949938Y1623399D02*
X1967737D01*
X1949938Y1622949D02*
X1967737D01*
X1949938Y1622499D02*
X1967737D01*
X1949938Y1622049D02*
X1967737D01*
X1949938Y1621599D02*
X1967737D01*
X1949938Y1621149D02*
X1967737D01*
X1949938Y1620699D02*
X1967737D01*
X1949938Y1620249D02*
X1967737D01*
X1949938Y1721949D02*
X1961091D01*
X1949938Y1651749D02*
X1961060D01*
X1949938Y1741749D02*
X1961060D01*
X1949938Y1752099D02*
X1960900D01*
X1949938Y1731849D02*
X1960799D01*
X1949938Y1671999D02*
X1960635D01*
X1949938Y1662099D02*
X1960204D01*
X1949938Y1722399D02*
X1960071D01*
X1949938Y1652199D02*
X1960018D01*
X1949938Y1742199D02*
X1960018D01*
X1949938Y1661649D02*
X1959926D01*
X1949938Y1751649D02*
X1959926D01*
X1949938Y1731399D02*
X1959900D01*
X1949938Y1671549D02*
X1959763D01*
X1949938Y1662549D02*
X1959473D01*
X1949938Y1722849D02*
X1959410D01*
X1949938Y1652649D02*
X1959341D01*
X1949938Y1742649D02*
X1959341D01*
X1949938Y1730949D02*
X1959286D01*
X1949938Y1661199D02*
X1959274D01*
X1949938Y1751199D02*
X1959274D01*
X1949938Y1671099D02*
X1959153D01*
X1949938Y1662999D02*
X1958934D01*
X1949938Y1723299D02*
X1958915D01*
X1949938Y1653099D02*
X1958831D01*
X1949938Y1743099D02*
X1958831D01*
X1949938Y1730499D02*
X1958818D01*
X1949938Y1660749D02*
X1958779D01*
X1949938Y1750749D02*
X1958779D01*
X1949938Y1670649D02*
X1958685D01*
X1949938Y1723749D02*
X1958526D01*
X1949938Y1663449D02*
X1958511D01*
X1949938Y1730049D02*
X1958449D01*
X1949938Y1653549D02*
X1958429D01*
X1949938Y1743549D02*
X1958429D01*
X1949938Y1660299D02*
X1958388D01*
X1949938Y1750299D02*
X1958388D01*
X1949938Y1670199D02*
X1958312D01*
X1949938Y1724199D02*
X1958216D01*
X1949938Y1663899D02*
X1958172D01*
X1949938Y1729599D02*
X1958155D01*
X1949938Y1653999D02*
X1958106D01*
X1949938Y1743999D02*
X1958106D01*
X1949938Y1659849D02*
X1958072D01*
X1949938Y1749849D02*
X1958072D01*
X1949938Y1669749D02*
X1958011D01*
X1949938Y1724649D02*
X1957969D01*
X1949938Y1729149D02*
X1957920D01*
X1949938Y1664349D02*
X1957898D01*
X1949938Y1654449D02*
X1957845D01*
X1949938Y1744449D02*
X1957845D01*
X1949938Y1659399D02*
X1957819D01*
X1949938Y1749399D02*
X1957819D01*
X1949938Y1725099D02*
X1957775D01*
X1949938Y1669299D02*
X1957770D01*
X1949938Y1728699D02*
X1957737D01*
X1949938Y1664799D02*
X1957680D01*
X1949938Y1654899D02*
X1957638D01*
X1949938Y1744899D02*
X1957638D01*
X1949938Y1725549D02*
X1957628D01*
X1949938Y1658949D02*
X1957617D01*
X1949938Y1748949D02*
X1957617D01*
X1949938Y1728249D02*
X1957601D01*
X1949938Y1668849D02*
X1957579D01*
X1949938Y1725999D02*
X1957524D01*
X1949938Y1665249D02*
X1957510D01*
X1949938Y1727799D02*
X1957507D01*
X1949938Y1655349D02*
X1957478D01*
X1949938Y1745349D02*
X1957478D01*
X1949938Y1658499D02*
X1957462D01*
X1949938Y1748499D02*
X1957462D01*
X1949938Y1726449D02*
X1957461D01*
X1949938Y1727349D02*
X1957453D01*
X1949938Y1726899D02*
X1957438D01*
X1949938Y1668399D02*
X1957434D01*
X1949938Y1665699D02*
X1957383D01*
X1949938Y1655799D02*
X1957360D01*
X1949938Y1745799D02*
X1957360D01*
X1949938Y1658049D02*
X1957349D01*
X1949938Y1748049D02*
X1957349D01*
X1949938Y1667949D02*
X1957330D01*
X1949938Y1666149D02*
X1957297D01*
X1949938Y1656249D02*
X1957283D01*
X1949938Y1746249D02*
X1957283D01*
X1949938Y1657599D02*
X1957276D01*
X1949938Y1747599D02*
X1957276D01*
X1949938Y1667499D02*
X1957265D01*
X1949938Y1666599D02*
X1957249D01*
X1949938Y1656699D02*
X1957243D01*
X1949938Y1746699D02*
X1957243D01*
X1949938Y1657149D02*
X1957241D01*
X1949938Y1747149D02*
X1957241D01*
X1949938Y1667049D02*
X1957238D01*
X1983582Y1592349D02*
X1983789D01*
X1983138Y1592799D02*
X1983738D01*
X1979532Y1618899D02*
X1983737D01*
X1979982Y1618449D02*
X1983737D01*
X1980432Y1617999D02*
X1983737D01*
X1980882Y1617549D02*
X1983737D01*
X1981332Y1617099D02*
X1983737D01*
X1981782Y1616649D02*
X1983737D01*
X1982187Y1616199D02*
X1983737D01*
X1982498Y1615749D02*
X1983737D01*
X1982735Y1615299D02*
X1983737D01*
X1982912Y1614849D02*
X1983737D01*
X1983035Y1614399D02*
X1983737D01*
X1983109Y1613949D02*
X1983737D01*
X1983137Y1613499D02*
X1983737D01*
X1983138Y1613049D02*
X1983737D01*
X1983138Y1612599D02*
X1983737D01*
X1983138Y1612149D02*
X1983737D01*
X1983138Y1611699D02*
X1983737D01*
X1983138Y1611249D02*
X1983737D01*
X1983138Y1610799D02*
X1983737D01*
X1983138Y1610349D02*
X1983737D01*
X1983138Y1609899D02*
X1983737D01*
X1983138Y1609449D02*
X1983737D01*
X1983138Y1608999D02*
X1983737D01*
X1983138Y1608549D02*
X1983737D01*
X1983138Y1608099D02*
X1983737D01*
X1983138Y1607649D02*
X1983737D01*
X1983138Y1607199D02*
X1983737D01*
X1983138Y1606749D02*
X1983737D01*
X1983138Y1606299D02*
X1983737D01*
X1983138Y1605849D02*
X1983737D01*
X1983138Y1605399D02*
X1983737D01*
X1983138Y1604949D02*
X1983737D01*
X1983138Y1604499D02*
X1983737D01*
X1983138Y1604049D02*
X1983737D01*
X1983138Y1603599D02*
X1983737D01*
X1983138Y1603149D02*
X1983737D01*
X1983138Y1602699D02*
X1983737D01*
X1983138Y1602249D02*
X1983737D01*
X1983138Y1601799D02*
X1983737D01*
X1983138Y1601349D02*
X1983737D01*
X1983138Y1600899D02*
X1983737D01*
X1983138Y1600449D02*
X1983737D01*
X1983138Y1599999D02*
X1983737D01*
X1983138Y1599549D02*
X1983737D01*
X1983138Y1599099D02*
X1983737D01*
X1983138Y1598649D02*
X1983737D01*
X1983138Y1598199D02*
X1983737D01*
X1983138Y1597749D02*
X1983737D01*
X1983138Y1597299D02*
X1983737D01*
X1983138Y1596849D02*
X1983737D01*
X1983138Y1596399D02*
X1983737D01*
X1983138Y1595949D02*
X1983737D01*
X1983138Y1595499D02*
X1983737D01*
X1983138Y1595049D02*
X1983737D01*
X1983138Y1594599D02*
X1983737D01*
X1983138Y1594149D02*
X1983737D01*
X1983138Y1593699D02*
X1983737D01*
X1983138Y1593249D02*
X1983737D01*
X1979082Y1619349D02*
X1981679D01*
X1976638Y1629699D02*
X1981130D01*
X1978179Y1639149D02*
X1980978D01*
X1978629Y1639599D02*
X1980815D01*
X1976638Y1629249D02*
X1980684D01*
X1978632Y1619799D02*
X1980363D01*
X1976638Y1630149D02*
X1980138D01*
X1977729Y1638699D02*
X1980051D01*
X1976638Y1628799D02*
X1979836D01*
X1978182Y1620249D02*
X1979623D01*
X1976638Y1630599D02*
X1979499D01*
X1977279Y1638249D02*
X1979436D01*
X1976638Y1628349D02*
X1979247D01*
X1977732Y1620699D02*
X1979086D01*
X1976638Y1631049D02*
X1979023D01*
X1976829Y1637799D02*
X1978974D01*
X1976638Y1627899D02*
X1978796D01*
X1977282Y1621149D02*
X1978670D01*
X1976638Y1631499D02*
X1978651D01*
X1976638Y1637349D02*
X1978613D01*
X1976638Y1627449D02*
X1978439D01*
X1976638Y1631949D02*
X1978358D01*
X1976832Y1621599D02*
X1978339D01*
X1976638Y1636899D02*
X1978328D01*
X1976638Y1626999D02*
X1978155D01*
X1976638Y1632399D02*
X1978128D01*
X1976638Y1636449D02*
X1978104D01*
X1976638Y1622049D02*
X1978075D01*
X1976638Y1632849D02*
X1977951D01*
X1976638Y1635999D02*
X1977933D01*
X1976638Y1626549D02*
X1977930D01*
X1976638Y1622499D02*
X1977867D01*
X1976638Y1633299D02*
X1977822D01*
X1976638Y1635549D02*
X1977810D01*
X1976638Y1626099D02*
X1977756D01*
X1976638Y1633749D02*
X1977737D01*
X1976638Y1635099D02*
X1977730D01*
X1976638Y1622949D02*
X1977709D01*
X1976638Y1634199D02*
X1977694D01*
X1976638Y1634649D02*
X1977691D01*
X1976638Y1625649D02*
X1977628D01*
X1976638Y1623399D02*
X1977595D01*
X1976638Y1625199D02*
X1977542D01*
X1976638Y1623849D02*
X1977522D01*
X1976638Y1624749D02*
X1977496D01*
X1976638Y1624299D02*
X1977490D01*
G54D58*
X1899676Y1489153D02*
Y1480950D01*
Y1489153D02*
X1902233D01*
X1903085Y1488763*
X1903085D02*
X1903369Y1488372D01*
X1903653Y1487591*
Y1486809*
X1903369Y1486028*
X1903085Y1485638*
X1903085D02*
X1902233Y1485247D01*
X1899676D02*
X1902233D01*
X1903085Y1484856*
X1903369Y1484466*
X1903653Y1483684*
Y1482513*
X1903653D02*
X1903369Y1481731D01*
X1903085Y1481341*
X1902233Y1480950*
X1899676*
X1906210Y1489153D02*
Y1480950D01*
Y1489153D02*
X1908767D01*
X1909619Y1488763*
X1909619D02*
X1909903Y1488372D01*
X1910188Y1487591*
Y1486809*
X1909903Y1486028*
X1909619Y1485638*
X1909619D02*
X1908767Y1485247D01*
X1906210*
X1908199D02*
X1910188Y1480950D01*
X1914449Y1489153D02*
X1913881Y1488763D01*
X1913881D02*
X1913313Y1487981D01*
X1913028Y1487200*
X1912744Y1486028*
Y1484075*
X1913028Y1482903*
X1913313Y1482122*
X1913881Y1481341*
X1914449Y1480950*
X1915585*
X1916153Y1481341*
X1916722Y1482122*
X1917006Y1482903*
X1917290Y1484075*
Y1486028*
X1917006Y1487200*
X1916722Y1487981*
X1916153Y1488763*
X1916153D02*
X1915585Y1489153D01*
X1914449*
X1921551D02*
X1920983Y1488763D01*
X1920983D02*
X1920415Y1487981D01*
X1920131Y1487200*
X1919847Y1486028*
Y1484075*
X1920131Y1482903*
X1920415Y1482122*
X1920983Y1481341*
X1921551Y1480950*
X1922688*
X1923256Y1481341*
X1923824Y1482122*
X1924108Y1482903*
X1924392Y1484075*
Y1486028*
X1924108Y1487200*
X1923824Y1487981*
X1923256Y1488763*
X1923256D02*
X1922688Y1489153D01*
X1921551*
X1926949D02*
Y1480950D01*
X1930926Y1489153D02*
X1926949Y1483684D01*
X1928369Y1485638D02*
X1930926Y1480950D01*
X1933483Y1489153D02*
Y1480950D01*
X1937460Y1489153D02*
Y1480950D01*
X1933483Y1485247D02*
X1937460D01*
X1942290Y1489153D02*
X1940017Y1480950D01*
X1942290Y1489153D02*
X1944563Y1480950D01*
X1940869Y1483684D02*
X1943710D01*
X1947119Y1489153D02*
X1949392Y1480950D01*
X1951665Y1489153D02*
X1949392Y1480950D01*
X1954222Y1489153D02*
Y1480950D01*
Y1489153D02*
X1957915D01*
X1954222Y1485247D02*
X1956494D01*
X1954222Y1480950D02*
X1957915D01*
X1960472Y1489153D02*
Y1480950D01*
Y1489153D02*
X1964449Y1480950D01*
Y1489153D02*
Y1480950D01*
X1973540Y1489153D02*
Y1480950D01*
Y1489153D02*
X1977517Y1480950D01*
Y1489153D02*
Y1480950D01*
X1982347Y1489153D02*
X1980074Y1480950D01*
X1982347Y1489153D02*
X1984619Y1480950D01*
X1980926Y1483684D02*
X1983767D01*
X1989165Y1489153D02*
Y1480950D01*
X1987176Y1489153D02*
X1991153D01*
X1993710D02*
Y1480950D01*
X1997972Y1489153D02*
X1997403Y1488763D01*
X1997403D02*
X1996835Y1487981D01*
X1996551Y1487200*
X1996267Y1486028*
Y1484075*
X1996551Y1482903*
X1996835Y1482122*
X1997403Y1481341*
X1997972Y1480950*
X1999108*
X1999676Y1481341*
X2000244Y1482122*
X2000528Y1482903*
X2000813Y1484075*
Y1486028*
X2000528Y1487200*
X2000244Y1487981*
X1999676Y1488763*
X1999676D02*
X1999108Y1489153D01*
X1997972*
X2003369D02*
Y1480950D01*
Y1489153D02*
X2007347Y1480950D01*
Y1489153D02*
Y1480950D01*
X2012176Y1489153D02*
X2009903Y1480950D01*
X2012176Y1489153D02*
X2014449Y1480950D01*
X2010756Y1483684D02*
X2013597D01*
X2017006Y1489153D02*
Y1480950D01*
X2020415*
X2029506Y1489153D02*
Y1480950D01*
X2032915*
X2037744Y1489153D02*
X2035472Y1480950D01*
X2037744Y1489153D02*
X2040017Y1480950D01*
X2036324Y1483684D02*
X2039165D01*
X2042574Y1489153D02*
Y1480950D01*
Y1489153D02*
X2045131D01*
X2045983Y1488763*
X2045983D02*
X2046267Y1488372D01*
X2046551Y1487591*
Y1486809*
X2046267Y1486028*
X2045983Y1485638*
X2045983D02*
X2045131Y1485247D01*
X2042574D02*
X2045131D01*
X2045983Y1484856*
X2046267Y1484466*
X2046551Y1483684*
Y1482513*
X2046551D02*
X2046267Y1481731D01*
X2045983Y1481341*
X2045131Y1480950*
X2042574*
X2050813Y1489153D02*
X2050244Y1488763D01*
X2050244D02*
X2049676Y1487981D01*
X2049392Y1487200*
X2049108Y1486028*
Y1484075*
X2049392Y1482903*
X2049676Y1482122*
X2050244Y1481341*
X2050813Y1480950*
X2051949*
X2052517Y1481341*
X2053085Y1482122*
X2053369Y1482903*
X2053653Y1484075*
Y1486028*
X2053369Y1487200*
X2053085Y1487981*
X2052517Y1488763*
X2052517D02*
X2051949Y1489153D01*
X2050813*
X2056210D02*
Y1480950D01*
Y1489153D02*
X2058767D01*
X2059619Y1488763*
X2059619D02*
X2059903Y1488372D01*
X2060188Y1487591*
Y1486809*
X2059903Y1486028*
X2059619Y1485638*
X2059619D02*
X2058767Y1485247D01*
X2056210*
X2058199D02*
X2060188Y1480950D01*
X2065017Y1489153D02*
X2062744Y1480950D01*
X2065017Y1489153D02*
X2067290Y1480950D01*
X2063597Y1483684D02*
X2066438D01*
X2071835Y1489153D02*
Y1480950D01*
X2069847Y1489153D02*
X2073824D01*
X2078085D02*
X2077517Y1488763D01*
X2077517D02*
X2076949Y1487981D01*
X2076665Y1487200*
X2076381Y1486028*
Y1484075*
X2076665Y1482903*
X2076949Y1482122*
X2077517Y1481341*
X2078085Y1480950*
X2079222*
X2079790Y1481341*
X2080358Y1482122*
X2080642Y1482903*
X2080926Y1484075*
Y1486028*
X2080642Y1487200*
X2080358Y1487981*
X2079790Y1488763*
X2079790D02*
X2079222Y1489153D01*
X2078085*
X2083483D02*
Y1480950D01*
Y1489153D02*
X2086040D01*
X2086892Y1488763*
X2086892D02*
X2087176Y1488372D01*
X2087460Y1487591*
Y1486809*
X2087176Y1486028*
X2086892Y1485638*
X2086892D02*
X2086040Y1485247D01*
X2083483*
X2085472D02*
X2087460Y1480950D01*
X2090017Y1489153D02*
X2092290Y1485247D01*
Y1480950*
X2094563Y1489153D02*
X2092290Y1485247D01*
X2013665Y1465653D02*
Y1457450D01*
X2017926Y1465653D02*
X2017358Y1465263D01*
X2017358D02*
X2016790Y1464481D01*
X2016506Y1463700*
X2016222Y1462528*
Y1460575*
X2016506Y1459403*
X2016790Y1458622*
X2017358Y1457841*
X2017926Y1457450*
X2019063*
X2019063D02*
X2019631Y1457841D01*
X2020199Y1458622*
X2020483Y1459403*
X2020767Y1460575*
Y1462528*
X2020483Y1463700*
X2020199Y1464481*
X2019631Y1465263*
X2019631D02*
X2019063Y1465653D01*
X2019063D02*
X2017926D01*
X2023324Y1460966D02*
X2028438D01*
X2030994Y1464091D02*
X2031563Y1464481D01*
X2031563D02*
X2032415Y1465653D01*
Y1457450*
X2038949Y1465653D02*
X2036108Y1457450D01*
X2034972Y1465653D02*
X2038949D01*
X2042074D02*
X2045199D01*
X2043494Y1462528*
X2044347*
X2044915Y1462138*
X2044915D02*
X2045199Y1461747D01*
X2045483Y1460575*
Y1459794*
X2045199Y1458622*
X2044631Y1457841*
X2043778Y1457450*
X2042926*
X2042074Y1457841*
X2041790Y1458231*
X2041506Y1459013*
X2051733Y1465653D02*
X2048892D01*
X2048608Y1462138*
X2048608D02*
X2048892Y1462528D01*
X2049744Y1462919*
X2050597*
X2051449Y1462528*
X2052017Y1461747*
X2052301Y1460575*
X2052017Y1459794*
X2051733Y1458622*
X2051165Y1457841*
X2050313Y1457450*
X2050313D02*
X2049460D01*
X2048608Y1457841*
X2048324Y1458231*
X2048040Y1459013*
X2054858Y1460966D02*
X2059972D01*
X2062528Y1464091D02*
X2063097Y1464481D01*
X2063949Y1465653*
Y1457450*
X2073040Y1465653D02*
Y1457450D01*
Y1465653D02*
X2075597D01*
X2076449Y1465263*
X2076449D02*
X2076733Y1464872D01*
X2077017Y1464091*
Y1463309*
X2076733Y1462528*
X2076449Y1462138*
X2076449D02*
X2075597Y1461747D01*
X2073040*
X2075028D02*
X2077017Y1457450D01*
X2079574Y1465653D02*
Y1457450D01*
Y1465653D02*
X2083267D01*
X2079574Y1461747D02*
X2081847D01*
X2079574Y1457450D02*
X2083267D01*
X2085824Y1465653D02*
X2088097Y1457450D01*
X2090369Y1465653D02*
X2088097Y1457450D01*
X2099460Y1460966D02*
X2104574D01*
X1900250Y1465153D02*
X1897977Y1456950D01*
X1900250Y1465153D02*
X1902523Y1456950D01*
X1898830Y1459684D02*
X1901670D01*
X1905080Y1465153D02*
Y1456950D01*
X1909057Y1465153D02*
X1905080Y1459684D01*
X1906500Y1461638D02*
X1909057Y1456950D01*
X1916727Y1466716D02*
X1911614Y1454216D01*
X1919284Y1465153D02*
X1920705Y1456950D01*
X1922125Y1465153D02*
X1920705Y1456950D01*
X1922125Y1465153D02*
X1923545Y1456950D01*
X1924966Y1465153D02*
X1923545Y1456950D01*
X1928659Y1465153D02*
X1928943Y1464763D01*
X1928943D02*
X1929227Y1465153D01*
X1928943Y1465544*
X1928659Y1465153*
X1928943Y1462419D02*
Y1455778D01*
X1928659Y1454606*
X1928091Y1454216*
X1927523*
X1934057Y1465153D02*
X1931784Y1456950D01*
X1934057Y1465153D02*
X1936330Y1456950D01*
X1932636Y1459684D02*
X1935477D01*
X1953659Y1465153D02*
X1952807Y1464763D01*
X1952807D02*
X1952239Y1463591D01*
X1951955Y1461638*
X1951955D02*
Y1460466D01*
X1952239Y1458513*
X1952239D02*
X1952807Y1457341D01*
X1953659Y1456950*
X1954227*
X1955080Y1457341*
X1955648Y1458513*
X1955648D02*
X1955932Y1460466D01*
Y1461638*
X1955932D02*
X1955648Y1463591D01*
X1955080Y1464763*
X1955080D02*
X1954227Y1465153D01*
X1953659*
X1962182Y1462419D02*
X1961898Y1461247D01*
X1961330Y1460466*
X1960477Y1460075*
X1960193*
X1959341Y1460466*
X1958773Y1461247*
X1958489Y1462419*
Y1462809*
X1958773Y1463981*
X1959341Y1464763*
X1959341D02*
X1960193Y1465153D01*
X1960477*
X1961330Y1464763*
X1961330D02*
X1961898Y1463981D01*
X1962182Y1462419*
Y1460466*
X1961898Y1458513*
X1961898D02*
X1961330Y1457341D01*
X1960477Y1456950*
X1959909*
X1959057Y1457341*
X1958773Y1458122*
X1964739Y1460466D02*
X1969852D01*
X1972409Y1463591D02*
X1972977Y1463981D01*
X1973830Y1465153*
Y1456950*
X1980080Y1462419D02*
X1979795Y1461247D01*
X1979227Y1460466*
X1978375Y1460075*
X1978091*
X1977239Y1460466*
X1976670Y1461247*
X1976386Y1462419*
Y1462809*
X1976670Y1463981*
X1977239Y1464763*
X1977239D02*
X1978091Y1465153D01*
X1978375*
X1979227Y1464763*
X1979227D02*
X1979795Y1463981D01*
X1980080Y1462419*
Y1460466*
X1979795Y1458513*
X1979795D02*
X1979227Y1457341D01*
X1978375Y1456950*
X1977807*
X1976955Y1457341*
X1976670Y1458122*
X1982636Y1460466D02*
X1987750D01*
X1990307Y1463591D02*
X1990875Y1463981D01*
X1991727Y1465153*
Y1456950*
X1995705Y1465153D02*
X1994852Y1464763D01*
X1994852D02*
X1994568Y1463981D01*
Y1463200*
X1994852Y1462419*
X1995420Y1462028*
X1996557Y1461638*
X1996557D02*
X1997409Y1461247D01*
X1997977Y1460466*
X1998261Y1459684*
Y1458513*
X1998261D02*
X1997977Y1457731D01*
X1997693Y1457341*
X1996841Y1456950*
X1995705*
X1994852Y1457341*
X1994568Y1457731*
X1994284Y1458513*
X1994284D02*
Y1459684D01*
X1994568Y1460466*
X1995136Y1461247*
X1995989Y1461638*
X1995989D02*
X1997125Y1462028D01*
X1997693Y1462419*
X1997977Y1463200*
Y1463981*
X1997693Y1464763*
X1997693D02*
X1996841Y1465153D01*
X1995705*
X1890233Y1451653D02*
Y1443450D01*
X1893642*
X1898472Y1451653D02*
X1896199Y1443450D01*
X1898472Y1451653D02*
X1900744Y1443450D01*
X1897051Y1446184D02*
X1899892D01*
X1903301Y1451653D02*
X1905574Y1447747D01*
Y1443450*
X1907847Y1451653D02*
X1905574Y1447747D01*
X1910403Y1451653D02*
Y1443450D01*
Y1451653D02*
X1914097D01*
X1910403Y1447747D02*
X1912676D01*
X1910403Y1443450D02*
X1914097D01*
X1916653Y1451653D02*
Y1443450D01*
Y1451653D02*
X1919210D01*
X1920063Y1451263*
X1920063D02*
X1920347Y1450872D01*
X1920631Y1450091*
Y1449309*
X1920347Y1448528*
X1920063Y1448138*
X1920063D02*
X1919210Y1447747D01*
X1916653*
X1918642D02*
X1920631Y1443450D01*
X1930006Y1449700D02*
Y1450091D01*
X1930290Y1450872*
X1930574Y1451263*
X1930574D02*
X1931142Y1451653D01*
X1932278*
X1932847Y1451263*
X1932847D02*
X1933131Y1450872D01*
X1933415Y1450091*
Y1449309*
X1933131Y1448528*
X1932563Y1447356*
X1932563D02*
X1929722Y1443450D01*
X1933699*
X1942790Y1446966D02*
X1947903D01*
X1956994Y1451653D02*
Y1443450D01*
Y1451653D02*
X1959551D01*
X1960403Y1451263*
X1960403D02*
X1960688Y1450872D01*
X1960688D02*
X1960972Y1450091D01*
Y1449309*
X1960688Y1448528*
X1960688D02*
X1960403Y1448138D01*
X1960403D02*
X1959551Y1447747D01*
X1956994D02*
X1959551D01*
X1960403Y1447356*
X1960688Y1446966*
X1960688D02*
X1960972Y1446184D01*
Y1445013*
X1960972D02*
X1960688Y1444231D01*
X1960688D02*
X1960403Y1443841D01*
X1959551Y1443450*
X1956994*
X1965233Y1451653D02*
X1964665Y1451263D01*
X1964665D02*
X1964097Y1450481D01*
X1963813Y1449700*
X1963813D02*
X1963528Y1448528D01*
Y1446575*
X1963813Y1445403*
X1963813D02*
X1964097Y1444622D01*
X1964665Y1443841*
X1965233Y1443450*
X1966369*
X1966938Y1443841*
X1966938D02*
X1967506Y1444622D01*
X1967790Y1445403*
X1968074Y1446575*
Y1448528*
X1967790Y1449700*
X1967506Y1450481*
X1966938Y1451263*
X1966938D02*
X1966369Y1451653D01*
X1965233*
X1972619D02*
Y1443450D01*
X1970631Y1451653D02*
X1974608D01*
X1979153D02*
Y1443450D01*
X1977165Y1451653D02*
X1981142D01*
X1985403D02*
X1984835Y1451263D01*
X1984835D02*
X1984267Y1450481D01*
X1983983Y1449700*
X1983699Y1448528*
Y1446575*
X1983983Y1445403*
X1984267Y1444622*
X1984835Y1443841*
X1985403Y1443450*
X1986540*
X1987108Y1443841*
X1987676Y1444622*
X1987960Y1445403*
X1988244Y1446575*
Y1448528*
X1987960Y1449700*
X1987676Y1450481*
X1987108Y1451263*
X1987108D02*
X1986540Y1451653D01*
X1985403*
X1990801D02*
Y1443450D01*
Y1451653D02*
X1993074Y1443450D01*
X1995347Y1451653D02*
X1993074Y1443450D01*
X1995347Y1451653D02*
Y1443450D01*
X2004438Y1446966D02*
X2009551D01*
X2022619Y1450481D02*
X2022051Y1451263D01*
X2022051D02*
X2021199Y1451653D01*
X2020063*
X2020063D02*
X2019210Y1451263D01*
X2019210D02*
X2018642Y1450481D01*
Y1449700*
X2018926Y1448919*
X2019210Y1448528*
X2019778Y1448138*
X2019778D02*
X2021483Y1447356D01*
X2022051Y1446966*
X2022335Y1446575*
X2022619Y1445794*
Y1444622*
X2022051Y1443841*
X2021199Y1443450*
X2020063*
X2020063D02*
X2019210Y1443841D01*
X2018642Y1444622*
X2025176Y1451653D02*
Y1443450D01*
Y1451653D02*
X2028869D01*
X2025176Y1447747D02*
X2027449D01*
X2025176Y1443450D02*
X2028869D01*
X2035688Y1449700D02*
X2035403Y1450481D01*
X2034835Y1451263*
X2034835D02*
X2034267Y1451653D01*
X2033131*
X2032563Y1451263*
X2032563D02*
X2031994Y1450481D01*
X2031710Y1449700*
X2031426Y1448528*
Y1446575*
X2031710Y1445403*
X2031994Y1444622*
X2032563Y1443841*
X2032563D02*
X2033131Y1443450D01*
X2034267*
X2034835Y1443841*
X2035403Y1444622*
X2035688Y1445403*
X2039949Y1451653D02*
X2039381Y1451263D01*
X2039381D02*
X2038813Y1450481D01*
X2038813D02*
X2038528Y1449700D01*
X2038244Y1448528*
Y1446575*
X2038528Y1445403*
X2038813Y1444622*
X2038813D02*
X2039381Y1443841D01*
X2039949Y1443450*
X2041085*
X2041653Y1443841*
X2042222Y1444622*
X2042506Y1445403*
X2042790Y1446575*
Y1448528*
X2042506Y1449700*
X2042222Y1450481*
X2041653Y1451263*
X2041653D02*
X2041085Y1451653D01*
X2039949*
X2045347D02*
Y1443450D01*
Y1451653D02*
X2049324Y1443450D01*
Y1451653D02*
Y1443450D01*
X2051881Y1451653D02*
Y1443450D01*
Y1451653D02*
X2053869D01*
X2054722Y1451263*
X2054722D02*
X2055290Y1450481D01*
X2055574Y1449700*
X2055858Y1448528*
Y1446575*
X2055574Y1445403*
X2055290Y1444622*
X2054722Y1443841*
X2053869Y1443450*
X2051881*
X2060688Y1451653D02*
X2058415Y1443450D01*
X2060688Y1451653D02*
X2062960Y1443450D01*
X2059267Y1446184D02*
X2062108D01*
X2065517Y1451653D02*
Y1443450D01*
Y1451653D02*
X2068074D01*
X2068926Y1451263*
X2068926D02*
X2069210Y1450872D01*
X2069494Y1450091*
Y1449309*
X2069210Y1448528*
X2068926Y1448138*
X2068926D02*
X2068074Y1447747D01*
X2065517*
X2067506D02*
X2069494Y1443450D01*
X2072051Y1451653D02*
X2074324Y1447747D01*
Y1443450*
X2076597Y1451653D02*
X2074324Y1447747D01*
X2089665Y1450481D02*
X2089097Y1451263D01*
X2089097D02*
X2088244Y1451653D01*
X2087108*
X2086256Y1451263*
X2086256D02*
X2085688Y1450481D01*
X2085688D02*
Y1449700D01*
X2085688D02*
X2085972Y1448919D01*
X2086256Y1448528*
X2086824Y1448138*
X2086824D02*
X2088528Y1447356D01*
X2089097Y1446966*
X2089381Y1446575*
X2089665Y1445794*
Y1444622*
X2089097Y1443841*
X2088244Y1443450*
X2087108*
X2086256Y1443841*
X2085688Y1444622*
X2092222Y1451653D02*
Y1443450D01*
X2094778Y1451653D02*
Y1443450D01*
Y1451653D02*
X2096767D01*
X2097619Y1451263*
X2097619D02*
X2098188Y1450481D01*
X2098188D02*
X2098472Y1449700D01*
X2098756Y1448528*
Y1446575*
X2098472Y1445403*
X2098188Y1444622*
X2098188D02*
X2097619Y1443841D01*
X2096767Y1443450*
X2094778*
X2101313Y1451653D02*
Y1443450D01*
Y1451653D02*
X2105006D01*
X2101313Y1447747D02*
X2103585D01*
X2101313Y1443450D02*
X2105006D01*
X1892580Y1477153D02*
Y1468950D01*
Y1477153D02*
X1894568D01*
X1895420Y1476763*
X1895420D02*
X1895989Y1475981D01*
X1896273Y1475200*
X1896557Y1474028*
Y1472075*
X1896273Y1470903*
X1895989Y1470122*
X1895420Y1469341*
X1894568Y1468950*
X1892580*
X1899114Y1477153D02*
Y1468950D01*
Y1477153D02*
X1902807D01*
X1899114Y1473247D02*
X1901386D01*
X1899114Y1468950D02*
X1902807D01*
X1907352Y1477153D02*
Y1468950D01*
X1905364Y1477153D02*
X1909341D01*
X1911898D02*
Y1468950D01*
Y1477153D02*
X1915591D01*
X1911898Y1473247D02*
X1914170D01*
X1911898Y1468950D02*
X1915591D01*
X1922409Y1475200D02*
X1922125Y1475981D01*
X1921557Y1476763*
X1921557D02*
X1920989Y1477153D01*
X1919852*
X1919284Y1476763*
X1919284D02*
X1918716Y1475981D01*
X1918432Y1475200*
X1918148Y1474028*
Y1472075*
X1918432Y1470903*
X1918716Y1470122*
X1919284Y1469341*
X1919852Y1468950*
X1920989*
X1921557Y1469341*
X1922125Y1470122*
X1922409Y1470903*
X1926955Y1477153D02*
Y1468950D01*
X1924966Y1477153D02*
X1928943D01*
X1933205D02*
X1932636Y1476763D01*
X1932636D02*
X1932068Y1475981D01*
X1931784Y1475200*
X1931500Y1474028*
Y1472075*
X1931784Y1470903*
X1932068Y1470122*
X1932636Y1469341*
X1933205Y1468950*
X1934341*
X1934909Y1469341*
X1935477Y1470122*
X1935761Y1470903*
X1936045Y1472075*
Y1474028*
X1935761Y1475200*
X1935477Y1475981*
X1934909Y1476763*
X1934909D02*
X1934341Y1477153D01*
X1933205*
X1938602D02*
Y1468950D01*
Y1477153D02*
X1941159D01*
X1942011Y1476763*
X1942011D02*
X1942295Y1476372D01*
X1942580Y1475591*
Y1474809*
X1942295Y1474028*
X1942011Y1473638*
X1942011D02*
X1941159Y1473247D01*
X1938602*
X1940591D02*
X1942580Y1468950D01*
X1951670Y1477153D02*
Y1468950D01*
Y1477153D02*
X1954227D01*
X1955080Y1476763*
X1955080D02*
X1955364Y1476372D01*
X1955648Y1475591*
Y1474809*
X1955364Y1474028*
X1955080Y1473638*
X1955080D02*
X1954227Y1473247D01*
X1951670D02*
X1954227D01*
X1955080Y1472856*
X1955364Y1472466*
X1955648Y1471684*
Y1470513*
X1955648D02*
X1955364Y1469731D01*
X1955080Y1469341*
X1954227Y1468950*
X1951670*
X1958205Y1477153D02*
Y1468950D01*
X1963034Y1477153D02*
X1960761Y1468950D01*
X1963034Y1477153D02*
X1965307Y1468950D01*
X1961614Y1471684D02*
X1964455D01*
X1971841Y1475981D02*
X1971273Y1476763D01*
X1971273D02*
X1970420Y1477153D01*
X1969284*
X1968432Y1476763*
X1968432D02*
X1967864Y1475981D01*
Y1475200*
X1968148Y1474419*
X1968432Y1474028*
X1969000Y1473638*
X1969000D02*
X1970705Y1472856D01*
X1971273Y1472466*
X1971557Y1472075*
X1971841Y1471294*
Y1470122*
X1971273Y1469341*
X1970420Y1468950*
X1969284*
X1968432Y1469341*
X1967864Y1470122*
X1980932Y1477153D02*
Y1468950D01*
Y1477153D02*
X1982920D01*
X1983773Y1476763*
X1983773D02*
X1984341Y1475981D01*
X1984625Y1475200*
X1984909Y1474028*
Y1472075*
X1984625Y1470903*
X1984341Y1470122*
X1983773Y1469341*
X1982920Y1468950*
X1980932*
X1987466Y1477153D02*
Y1468950D01*
Y1477153D02*
X1990023D01*
X1990875Y1476763*
X1990875D02*
X1991159Y1476372D01*
X1991443Y1475591*
Y1474809*
X1991159Y1474028*
X1990875Y1473638*
X1990875D02*
X1990023Y1473247D01*
X1987466*
X1989455D02*
X1991443Y1468950D01*
X1994000Y1477153D02*
Y1468950D01*
X1996557Y1477153D02*
X1998830Y1468950D01*
X2001102Y1477153D02*
X1998830Y1468950D01*
X2003659Y1477153D02*
Y1468950D01*
Y1477153D02*
X2007352D01*
X2003659Y1473247D02*
X2005932D01*
X2003659Y1468950D02*
X2007352D01*
X2009909Y1477153D02*
Y1468950D01*
Y1477153D02*
X2012466D01*
X2013318Y1476763*
X2013318D02*
X2013602Y1476372D01*
X2013886Y1475591*
Y1474809*
X2013602Y1474028*
X2013318Y1473638*
X2013318D02*
X2012466Y1473247D01*
X2009909*
X2011898D02*
X2013886Y1468950D01*
X2022977Y1477153D02*
Y1468950D01*
Y1477153D02*
X2025534D01*
X2026386Y1476763*
X2026386D02*
X2026670Y1476372D01*
X2026955Y1475591*
Y1474419*
X2026670Y1473638*
X2026670D02*
X2026386Y1473247D01*
X2025534Y1472856*
X2022977*
X2029511Y1477153D02*
Y1468950D01*
X2036330Y1475200D02*
X2036045Y1475981D01*
X2035477Y1476763*
X2035477D02*
X2034909Y1477153D01*
X2033773*
X2033205Y1476763*
X2033205D02*
X2032636Y1475981D01*
X2032352Y1475200*
X2032068Y1474028*
Y1472075*
X2032352Y1470903*
X2032636Y1470122*
X2033205Y1469341*
X2033773Y1468950*
X2034909*
X2035477Y1469341*
X2036045Y1470122*
X2036330Y1470903*
Y1472075*
X2034909D02*
X2036330D01*
X2043148Y1475200D02*
X2042864Y1475981D01*
X2042295Y1476763*
X2042295D02*
X2041727Y1477153D01*
X2040591*
X2040023Y1476763*
X2040023D02*
X2039455Y1475981D01*
X2039170Y1475200*
X2038886Y1474028*
Y1472075*
X2039170Y1470903*
X2039455Y1470122*
X2040023Y1469341*
X2040591Y1468950*
X2041727*
X2042295Y1469341*
X2042864Y1470122*
X2043148Y1470903*
Y1472075*
X2041727D02*
X2043148D01*
X2045705Y1477153D02*
X2047977Y1473247D01*
Y1468950*
X2050250Y1477153D02*
X2047977Y1473247D01*
X2052807Y1477153D02*
Y1468950D01*
Y1477153D02*
X2055364D01*
X2056216Y1476763*
X2056216D02*
X2056500Y1476372D01*
X2056784Y1475591*
Y1474809*
X2056500Y1474028*
X2056216Y1473638*
X2056216D02*
X2055364Y1473247D01*
X2052807D02*
X2055364D01*
X2056216Y1472856*
X2056500Y1472466*
X2056784Y1471684*
Y1470513*
X2056784D02*
X2056500Y1469731D01*
X2056216Y1469341*
X2055364Y1468950*
X2052807*
X2061614Y1477153D02*
X2059341Y1468950D01*
X2061614Y1477153D02*
X2063886Y1468950D01*
X2060193Y1471684D02*
X2063034D01*
X2070705Y1475200D02*
X2070420Y1475981D01*
X2069852Y1476763*
X2069852D02*
X2069284Y1477153D01*
X2068148*
X2067580Y1476763*
X2067580D02*
X2067011Y1475981D01*
X2066727Y1475200*
X2066443Y1474028*
Y1472075*
X2066727Y1470903*
X2067011Y1470122*
X2067580Y1469341*
X2068148Y1468950*
X2069284*
X2069852Y1469341*
X2070420Y1470122*
X2070705Y1470903*
X2073261Y1477153D02*
Y1468950D01*
X2077239Y1477153D02*
X2073261Y1471684D01*
X2074682Y1473638D02*
X2077239Y1468950D01*
X2086330Y1477153D02*
Y1468950D01*
Y1477153D02*
X2088886D01*
X2089739Y1476763*
X2089739D02*
X2090023Y1476372D01*
X2090307Y1475591*
Y1474419*
X2090023Y1473638*
X2090023D02*
X2089739Y1473247D01*
X2088886Y1472856*
X2086330*
X2097125Y1475200D02*
X2096841Y1475981D01*
X2096273Y1476763*
X2096273D02*
X2095705Y1477153D01*
X2094568*
X2094000Y1476763*
X2094000D02*
X2093432Y1475981D01*
X2093148Y1475200*
X2092864Y1474028*
Y1472075*
X2093148Y1470903*
X2093432Y1470122*
X2094000Y1469341*
X2094568Y1468950*
X2095705*
X2096273Y1469341*
X2096841Y1470122*
X2097125Y1470903*
X2099682Y1477153D02*
Y1468950D01*
Y1477153D02*
X2102239D01*
X2103091Y1476763*
X2103091D02*
X2103375Y1476372D01*
X2103659Y1475591*
Y1474809*
X2103375Y1474028*
X2103091Y1473638*
X2103091D02*
X2102239Y1473247D01*
X2099682D02*
X2102239D01*
X2103091Y1472856*
X2103375Y1472466*
X2103659Y1471684*
Y1470513*
X2103659D02*
X2103375Y1469731D01*
X2103091Y1469341*
X2102239Y1468950*
X2099682*
G54D60*
X1962688Y1552450D02*
Y1576950D01*
X1962688D02*
X1971188D01*
X1964188Y1586950D02*
X1971188D01*
X1982688Y1566950D02*
X1988688Y1572950D01*
X1988688D02*
Y1579250D01*
X1988688D02*
X1987188Y1581250D01*
X1987188D02*
Y1582950D01*
X1987188D02*
X1988988Y1586950D01*
X1988988D02*
Y1588650D01*
X1988988D02*
X1986188Y1592850D01*
X1986188D02*
Y1619950D01*
X1986188D02*
X1982688Y1624450D01*
X1971188Y1595450D02*
Y1608450D01*
X1982688Y1576950D02*
X1971188D01*
X1971188D02*
Y1586950D01*
X1971188D02*
Y1595450D01*
Y1608450D02*
X1962188D01*
X1962188D02*
Y1639950D01*
X1962188D02*
X1972688Y1650450D01*
X1986223Y1637986D02*
X1985339Y1637102D01*
X1986223Y1630914D02*
X1985339Y1631798D01*
X1979152Y1637986D02*
X1980036Y1637102D01*
X1979152Y1630914D02*
X1980036Y1631798D01*
X1958975Y1730662D02*
X1959859Y1729778D01*
X1958975Y1723238D02*
X1959859Y1724122D01*
X1966400Y1723238D02*
X1965516Y1724122D01*
X1966400Y1730662D02*
X1965516Y1729778D01*
X1979152Y1580486D02*
X1980036Y1579602D01*
X1979152Y1573414D02*
X1980036Y1574298D01*
X2018975Y1670662D02*
X2019859Y1669778D01*
X2018975Y1663238D02*
X2019859Y1664122D01*
X2026400Y1663238D02*
X2025516Y1664122D01*
X2026400Y1670662D02*
X2025516Y1669778D01*
X2018975Y1730662D02*
X2019859Y1729778D01*
X2018975Y1723238D02*
X2019859Y1724122D01*
X2026400Y1723238D02*
X2025516Y1724122D01*
X2026400Y1730662D02*
X2025516Y1729778D01*
X2018975Y1660662D02*
X2019859Y1659778D01*
X2018975Y1653238D02*
X2019859Y1654122D01*
X2026400Y1653238D02*
X2025516Y1654122D01*
X2026400Y1660662D02*
X2025516Y1659778D01*
G54D65*
X2003188Y1552450D02*
Y1557950D01*
X2003188D02*
X2000188Y1562950D01*
X2000188D02*
Y1570950D01*
X2000188D02*
X2003188Y1575950D01*
X2003188D02*
Y1582950D01*
X2003188D02*
Y1615950D01*
X2003188D02*
X2000188Y1620950D01*
X2000188D02*
Y1628450D01*
X2000188D02*
X2003188Y1633450D01*
X2003188D02*
Y1739950D01*
X2003188D02*
X2010188Y1746950D01*
X2010188D02*
X2022688D01*
X2003188Y1582950D02*
X1992688D01*
X2022688Y1726950D02*
Y1666950D01*
X2022688D02*
Y1656950D01*
X1962688Y1552450D03*
X2003188D03*
X1964188Y1586950D03*
X1971188Y1595450D03*
Y1608450D03*
X1972688Y1650450D03*
G54D94*
X2022688Y1656950D03*
Y1666950D03*
Y1726950D03*
Y1746950D03*
X1962688D03*
Y1726950D03*
Y1666950D03*
Y1656950D03*
G54D169*
X1947688Y1756950D02*
Y1541950D01*
X1947688D02*
X2032688D01*
X2032688D02*
Y1626950D01*
X2032688D02*
X2037688Y1631950D01*
X2037688D02*
Y1756950D01*
X2037688D02*
X1947688D01*
G74*
X0Y0D02*
M02*
