M48
;FILE_FORMAT=2:4
INCH,LZ
FMAT,2
ICI,OFF
;TYPE=PLATED
T1C.018
T2C.032
T3C.037
T4C.039
%
M72
G90
G93X0Y0
T1C.018F095S3
X008Y00855
X01205Y00855
X00815Y012
X00885Y01285
X00885Y01415
X009Y01835
T2C.032F197S55
X008Y019
X008Y02
X008Y026
X008Y028
X014Y028
X014Y026
X014Y02
X014Y019
T3C.037F197S55
X011Y0116
X011Y0126
X011Y0136
X011Y0146
X014Y0146
X014Y0136
X014Y0126
X014Y0116
T4C.039F197S55
X01Y01
X01285Y01
X01Y011
X01Y012
X01Y01575
X01285Y01575
X01Y01675
X01Y01775
M30
