*
*
G04 PADS VX.2.3 Build Number: 10035676 generated Gerber (RS-274-X) file*
G04 PC Version=2.1*
*
%IN "IO-1735-1.pcb"*%
*
%MOIN*%
*
%FSLAX35Y35*%
*
*
*
*
G04 PC Standard Apertures*
*
*
G04 Thermal Relief Aperture macro.*
%AMTER*
1,1,$1,0,0*
1,0,$1-$2,0,0*
21,0,$3,$4,0,0,45*
21,0,$3,$4,0,0,135*
%
*
*
G04 Annular Aperture macro.*
%AMANN*
1,1,$1,0,0*
1,0,$2,0,0*
%
*
*
G04 Odd Aperture macro.*
%AMODD*
1,1,$1,0,0*
1,0,$1-0.005,0,0*
%
*
*
G04 PC Custom Aperture Macros*
*
*
*
*
*
*
G04 PC Aperture Table*
*
%ADD010C,0.001*%
%ADD058C,0.01*%
%ADD062C,0.006*%
%ADD063C,0.008*%
%ADD169C,0.002*%
*
*
*
*
G04 PC Circuitry*
G04 Layer Name IO-1735-1.pcb - circuitry*
%LPD*%
*
*
G04 PC Custom Flashes*
G04 Layer Name IO-1735-1.pcb - flashes*
%LPD*%
*
*
G04 PC Circuitry*
G04 Layer Name IO-1735-1.pcb - circuitry*
%LPD*%
*
G54D10*
G54D58*
G01X2029688Y1548950D02*
Y1555950D01*
X2029688D02*
X2008688D01*
X2008688D02*
Y1548950D01*
X2008688D02*
X2029688D01*
X1987688Y1613450D02*
Y1617450D01*
X1987688D02*
X1976688D01*
X1976688D02*
Y1613450D01*
X1976688D02*
X1987688D01*
X1988188Y1599450D02*
Y1603450D01*
X1988188D02*
X1977188D01*
X1977188D02*
Y1599450D01*
X1977188D02*
X1988188D01*
X2017688Y1626450D02*
Y1622450D01*
X2017688D02*
X2028688D01*
X2028688D02*
Y1626450D01*
X2028688D02*
X2017688D01*
X1974188Y1611450D02*
Y1605450D01*
X1974188D02*
X1988188D01*
X1988188D02*
Y1611450D01*
X1988188D02*
X1974188D01*
X1988188Y1593450D02*
Y1597450D01*
X1988188D02*
X1977188D01*
X1977188D02*
Y1593450D01*
X1977188D02*
X1988188D01*
X2001688Y1569950D02*
Y1573950D01*
X2001688D02*
X1990688D01*
X1990688D02*
Y1569950D01*
X1990688D02*
X2001688D01*
X2032688Y1656950D02*
Y1746950D01*
X2032688D02*
G75*
G03X2027688Y1751950I-5000J0D01*
G01X2027688D02*
X1957688D01*
X1957688D02*
G03X1952688Y1746950I-0J-5000D01*
G01X1952688D02*
Y1656950D01*
X1952688D02*
G03X1957688Y1651950I5000J0D01*
G01X1957688D02*
X2027688D01*
X2027688D02*
G03X2032688Y1656950I-0J5000D01*
G01X2030102D02*
G03X2030102I-1414J0D01*
G01X1967888Y1626150D02*
X1956488D01*
X1956488D02*
Y1619750D01*
X1956488D02*
X1967888D01*
X1967888D02*
Y1626150D01*
X1967688Y1623950D02*
X1964188D01*
X1964188D02*
Y1625950D01*
X2028688Y1569950D02*
Y1573950D01*
X2028688D02*
X2017688D01*
X2017688D02*
Y1569950D01*
X2017688D02*
X2028688D01*
X2020188Y1648200D02*
X2030188D01*
X2030188D02*
X2032688Y1645700D01*
X2032688D02*
Y1633200D01*
X2032688D02*
X2030188Y1630700D01*
X2030188D02*
X2020188D01*
X2005188Y1648200D02*
X1992688D01*
X1992688D02*
Y1630700D01*
X1992688D02*
X2005188D01*
X1975188Y1543700D02*
X1965188D01*
X1965188D02*
X1962688Y1546200D01*
X1962688D02*
Y1558700D01*
X1962688D02*
X1965188Y1561200D01*
X1965188D02*
X1975188D01*
X1990188Y1543700D02*
X2002688D01*
X2002688D02*
Y1561200D01*
X2002688D02*
X1990188D01*
X1962188Y1592950D02*
X1966188D01*
X1966188D02*
Y1603950D01*
X1966188D02*
X1962188D01*
X1962188D02*
Y1592950D01*
X1967188Y1634450D02*
Y1638450D01*
X1967188D02*
X1956188D01*
X1956188D02*
Y1634450D01*
X1956188D02*
X1967188D01*
X1976188Y1640950D02*
Y1647950D01*
X1976188D02*
X1955188D01*
X1955188D02*
Y1640950D01*
X1955188D02*
X1976188D01*
X1987188Y1700013D02*
Y1695325D01*
X1987415Y1694388*
X1987415D02*
X1987869Y1693763D01*
X1987869D02*
X1988551Y1693450D01*
X1989006*
X1989688Y1693763*
X1989688D02*
X1990142Y1694388D01*
X1990142D02*
X1990369Y1695325D01*
Y1700013*
X1992642Y1698450D02*
Y1698763D01*
X1992642D02*
X1992869Y1699388D01*
X1992869D02*
X1993097Y1699700D01*
X1993551Y1700013*
X1993551D02*
X1994460D01*
X1994460D02*
X1994915Y1699700D01*
X1995142Y1699388*
X1995142D02*
X1995369Y1698763D01*
X1995369D02*
Y1698138D01*
X1995369D02*
X1995142Y1697513D01*
X1995142D02*
X1994688Y1696575D01*
X1992415Y1693450*
X1995597*
X1899676Y1489153D02*
Y1480950D01*
Y1489153D02*
X1902233D01*
X1903085Y1488763*
X1903085D02*
X1903369Y1488372D01*
X1903653Y1487591*
Y1486809*
X1903369Y1486028*
X1903085Y1485638*
X1903085D02*
X1902233Y1485247D01*
X1899676D02*
X1902233D01*
X1903085Y1484856*
X1903369Y1484466*
X1903653Y1483684*
Y1482513*
X1903653D02*
X1903369Y1481731D01*
X1903085Y1481341*
X1902233Y1480950*
X1899676*
X1906210Y1489153D02*
Y1480950D01*
Y1489153D02*
X1908767D01*
X1909619Y1488763*
X1909619D02*
X1909903Y1488372D01*
X1910188Y1487591*
Y1486809*
X1909903Y1486028*
X1909619Y1485638*
X1909619D02*
X1908767Y1485247D01*
X1906210*
X1908199D02*
X1910188Y1480950D01*
X1914449Y1489153D02*
X1913881Y1488763D01*
X1913881D02*
X1913313Y1487981D01*
X1913028Y1487200*
X1912744Y1486028*
Y1484075*
X1913028Y1482903*
X1913313Y1482122*
X1913881Y1481341*
X1914449Y1480950*
X1915585*
X1916153Y1481341*
X1916722Y1482122*
X1917006Y1482903*
X1917290Y1484075*
Y1486028*
X1917006Y1487200*
X1916722Y1487981*
X1916153Y1488763*
X1916153D02*
X1915585Y1489153D01*
X1914449*
X1921551D02*
X1920983Y1488763D01*
X1920983D02*
X1920415Y1487981D01*
X1920131Y1487200*
X1919847Y1486028*
Y1484075*
X1920131Y1482903*
X1920415Y1482122*
X1920983Y1481341*
X1921551Y1480950*
X1922688*
X1923256Y1481341*
X1923824Y1482122*
X1924108Y1482903*
X1924392Y1484075*
Y1486028*
X1924108Y1487200*
X1923824Y1487981*
X1923256Y1488763*
X1923256D02*
X1922688Y1489153D01*
X1921551*
X1926949D02*
Y1480950D01*
X1930926Y1489153D02*
X1926949Y1483684D01*
X1928369Y1485638D02*
X1930926Y1480950D01*
X1933483Y1489153D02*
Y1480950D01*
X1937460Y1489153D02*
Y1480950D01*
X1933483Y1485247D02*
X1937460D01*
X1942290Y1489153D02*
X1940017Y1480950D01*
X1942290Y1489153D02*
X1944563Y1480950D01*
X1940869Y1483684D02*
X1943710D01*
X1947119Y1489153D02*
X1949392Y1480950D01*
X1951665Y1489153D02*
X1949392Y1480950D01*
X1954222Y1489153D02*
Y1480950D01*
Y1489153D02*
X1957915D01*
X1954222Y1485247D02*
X1956494D01*
X1954222Y1480950D02*
X1957915D01*
X1960472Y1489153D02*
Y1480950D01*
Y1489153D02*
X1964449Y1480950D01*
Y1489153D02*
Y1480950D01*
X1973540Y1489153D02*
Y1480950D01*
Y1489153D02*
X1977517Y1480950D01*
Y1489153D02*
Y1480950D01*
X1982347Y1489153D02*
X1980074Y1480950D01*
X1982347Y1489153D02*
X1984619Y1480950D01*
X1980926Y1483684D02*
X1983767D01*
X1989165Y1489153D02*
Y1480950D01*
X1987176Y1489153D02*
X1991153D01*
X1993710D02*
Y1480950D01*
X1997972Y1489153D02*
X1997403Y1488763D01*
X1997403D02*
X1996835Y1487981D01*
X1996551Y1487200*
X1996267Y1486028*
Y1484075*
X1996551Y1482903*
X1996835Y1482122*
X1997403Y1481341*
X1997972Y1480950*
X1999108*
X1999676Y1481341*
X2000244Y1482122*
X2000528Y1482903*
X2000813Y1484075*
Y1486028*
X2000528Y1487200*
X2000244Y1487981*
X1999676Y1488763*
X1999676D02*
X1999108Y1489153D01*
X1997972*
X2003369D02*
Y1480950D01*
Y1489153D02*
X2007347Y1480950D01*
Y1489153D02*
Y1480950D01*
X2012176Y1489153D02*
X2009903Y1480950D01*
X2012176Y1489153D02*
X2014449Y1480950D01*
X2010756Y1483684D02*
X2013597D01*
X2017006Y1489153D02*
Y1480950D01*
X2020415*
X2029506Y1489153D02*
Y1480950D01*
X2032915*
X2037744Y1489153D02*
X2035472Y1480950D01*
X2037744Y1489153D02*
X2040017Y1480950D01*
X2036324Y1483684D02*
X2039165D01*
X2042574Y1489153D02*
Y1480950D01*
Y1489153D02*
X2045131D01*
X2045983Y1488763*
X2045983D02*
X2046267Y1488372D01*
X2046551Y1487591*
Y1486809*
X2046267Y1486028*
X2045983Y1485638*
X2045983D02*
X2045131Y1485247D01*
X2042574D02*
X2045131D01*
X2045983Y1484856*
X2046267Y1484466*
X2046551Y1483684*
Y1482513*
X2046551D02*
X2046267Y1481731D01*
X2045983Y1481341*
X2045131Y1480950*
X2042574*
X2050813Y1489153D02*
X2050244Y1488763D01*
X2050244D02*
X2049676Y1487981D01*
X2049392Y1487200*
X2049108Y1486028*
Y1484075*
X2049392Y1482903*
X2049676Y1482122*
X2050244Y1481341*
X2050813Y1480950*
X2051949*
X2052517Y1481341*
X2053085Y1482122*
X2053369Y1482903*
X2053653Y1484075*
Y1486028*
X2053369Y1487200*
X2053085Y1487981*
X2052517Y1488763*
X2052517D02*
X2051949Y1489153D01*
X2050813*
X2056210D02*
Y1480950D01*
Y1489153D02*
X2058767D01*
X2059619Y1488763*
X2059619D02*
X2059903Y1488372D01*
X2060188Y1487591*
Y1486809*
X2059903Y1486028*
X2059619Y1485638*
X2059619D02*
X2058767Y1485247D01*
X2056210*
X2058199D02*
X2060188Y1480950D01*
X2065017Y1489153D02*
X2062744Y1480950D01*
X2065017Y1489153D02*
X2067290Y1480950D01*
X2063597Y1483684D02*
X2066438D01*
X2071835Y1489153D02*
Y1480950D01*
X2069847Y1489153D02*
X2073824D01*
X2078085D02*
X2077517Y1488763D01*
X2077517D02*
X2076949Y1487981D01*
X2076665Y1487200*
X2076381Y1486028*
Y1484075*
X2076665Y1482903*
X2076949Y1482122*
X2077517Y1481341*
X2078085Y1480950*
X2079222*
X2079790Y1481341*
X2080358Y1482122*
X2080642Y1482903*
X2080926Y1484075*
Y1486028*
X2080642Y1487200*
X2080358Y1487981*
X2079790Y1488763*
X2079790D02*
X2079222Y1489153D01*
X2078085*
X2083483D02*
Y1480950D01*
Y1489153D02*
X2086040D01*
X2086892Y1488763*
X2086892D02*
X2087176Y1488372D01*
X2087460Y1487591*
Y1486809*
X2087176Y1486028*
X2086892Y1485638*
X2086892D02*
X2086040Y1485247D01*
X2083483*
X2085472D02*
X2087460Y1480950D01*
X2090017Y1489153D02*
X2092290Y1485247D01*
Y1480950*
X2094563Y1489153D02*
X2092290Y1485247D01*
X2013665Y1465653D02*
Y1457450D01*
X2017926Y1465653D02*
X2017358Y1465263D01*
X2017358D02*
X2016790Y1464481D01*
X2016506Y1463700*
X2016222Y1462528*
Y1460575*
X2016506Y1459403*
X2016790Y1458622*
X2017358Y1457841*
X2017926Y1457450*
X2019063*
X2019063D02*
X2019631Y1457841D01*
X2020199Y1458622*
X2020483Y1459403*
X2020767Y1460575*
Y1462528*
X2020483Y1463700*
X2020199Y1464481*
X2019631Y1465263*
X2019631D02*
X2019063Y1465653D01*
X2019063D02*
X2017926D01*
X2023324Y1460966D02*
X2028438D01*
X2030994Y1464091D02*
X2031563Y1464481D01*
X2031563D02*
X2032415Y1465653D01*
Y1457450*
X2038949Y1465653D02*
X2036108Y1457450D01*
X2034972Y1465653D02*
X2038949D01*
X2042074D02*
X2045199D01*
X2043494Y1462528*
X2044347*
X2044915Y1462138*
X2044915D02*
X2045199Y1461747D01*
X2045483Y1460575*
Y1459794*
X2045199Y1458622*
X2044631Y1457841*
X2043778Y1457450*
X2042926*
X2042074Y1457841*
X2041790Y1458231*
X2041506Y1459013*
X2051733Y1465653D02*
X2048892D01*
X2048608Y1462138*
X2048608D02*
X2048892Y1462528D01*
X2049744Y1462919*
X2050597*
X2051449Y1462528*
X2052017Y1461747*
X2052301Y1460575*
X2052017Y1459794*
X2051733Y1458622*
X2051165Y1457841*
X2050313Y1457450*
X2050313D02*
X2049460D01*
X2048608Y1457841*
X2048324Y1458231*
X2048040Y1459013*
X2054858Y1460966D02*
X2059972D01*
X2062528Y1464091D02*
X2063097Y1464481D01*
X2063949Y1465653*
Y1457450*
X2073040Y1465653D02*
Y1457450D01*
Y1465653D02*
X2075597D01*
X2076449Y1465263*
X2076449D02*
X2076733Y1464872D01*
X2077017Y1464091*
Y1463309*
X2076733Y1462528*
X2076449Y1462138*
X2076449D02*
X2075597Y1461747D01*
X2073040*
X2075028D02*
X2077017Y1457450D01*
X2079574Y1465653D02*
Y1457450D01*
Y1465653D02*
X2083267D01*
X2079574Y1461747D02*
X2081847D01*
X2079574Y1457450D02*
X2083267D01*
X2085824Y1465653D02*
X2088097Y1457450D01*
X2090369Y1465653D02*
X2088097Y1457450D01*
X2099460Y1460966D02*
X2104574D01*
X1900250Y1465153D02*
X1897977Y1456950D01*
X1900250Y1465153D02*
X1902523Y1456950D01*
X1898830Y1459684D02*
X1901670D01*
X1905080Y1465153D02*
Y1456950D01*
X1909057Y1465153D02*
X1905080Y1459684D01*
X1906500Y1461638D02*
X1909057Y1456950D01*
X1916727Y1466716D02*
X1911614Y1454216D01*
X1919284Y1465153D02*
X1920705Y1456950D01*
X1922125Y1465153D02*
X1920705Y1456950D01*
X1922125Y1465153D02*
X1923545Y1456950D01*
X1924966Y1465153D02*
X1923545Y1456950D01*
X1928659Y1465153D02*
X1928943Y1464763D01*
X1928943D02*
X1929227Y1465153D01*
X1928943Y1465544*
X1928659Y1465153*
X1928943Y1462419D02*
Y1455778D01*
X1928659Y1454606*
X1928091Y1454216*
X1927523*
X1934057Y1465153D02*
X1931784Y1456950D01*
X1934057Y1465153D02*
X1936330Y1456950D01*
X1932636Y1459684D02*
X1935477D01*
X1953659Y1465153D02*
X1952807Y1464763D01*
X1952807D02*
X1952239Y1463591D01*
X1951955Y1461638*
X1951955D02*
Y1460466D01*
X1952239Y1458513*
X1952239D02*
X1952807Y1457341D01*
X1953659Y1456950*
X1954227*
X1955080Y1457341*
X1955648Y1458513*
X1955648D02*
X1955932Y1460466D01*
Y1461638*
X1955932D02*
X1955648Y1463591D01*
X1955080Y1464763*
X1955080D02*
X1954227Y1465153D01*
X1953659*
X1962182Y1462419D02*
X1961898Y1461247D01*
X1961330Y1460466*
X1960477Y1460075*
X1960193*
X1959341Y1460466*
X1958773Y1461247*
X1958489Y1462419*
Y1462809*
X1958773Y1463981*
X1959341Y1464763*
X1959341D02*
X1960193Y1465153D01*
X1960477*
X1961330Y1464763*
X1961330D02*
X1961898Y1463981D01*
X1962182Y1462419*
Y1460466*
X1961898Y1458513*
X1961898D02*
X1961330Y1457341D01*
X1960477Y1456950*
X1959909*
X1959057Y1457341*
X1958773Y1458122*
X1964739Y1460466D02*
X1969852D01*
X1972409Y1463591D02*
X1972977Y1463981D01*
X1973830Y1465153*
Y1456950*
X1980080Y1462419D02*
X1979795Y1461247D01*
X1979227Y1460466*
X1978375Y1460075*
X1978091*
X1977239Y1460466*
X1976670Y1461247*
X1976386Y1462419*
Y1462809*
X1976670Y1463981*
X1977239Y1464763*
X1977239D02*
X1978091Y1465153D01*
X1978375*
X1979227Y1464763*
X1979227D02*
X1979795Y1463981D01*
X1980080Y1462419*
Y1460466*
X1979795Y1458513*
X1979795D02*
X1979227Y1457341D01*
X1978375Y1456950*
X1977807*
X1976955Y1457341*
X1976670Y1458122*
X1982636Y1460466D02*
X1987750D01*
X1990307Y1463591D02*
X1990875Y1463981D01*
X1991727Y1465153*
Y1456950*
X1995705Y1465153D02*
X1994852Y1464763D01*
X1994852D02*
X1994568Y1463981D01*
Y1463200*
X1994852Y1462419*
X1995420Y1462028*
X1996557Y1461638*
X1996557D02*
X1997409Y1461247D01*
X1997977Y1460466*
X1998261Y1459684*
Y1458513*
X1998261D02*
X1997977Y1457731D01*
X1997693Y1457341*
X1996841Y1456950*
X1995705*
X1994852Y1457341*
X1994568Y1457731*
X1994284Y1458513*
X1994284D02*
Y1459684D01*
X1994568Y1460466*
X1995136Y1461247*
X1995989Y1461638*
X1995989D02*
X1997125Y1462028D01*
X1997693Y1462419*
X1997977Y1463200*
Y1463981*
X1997693Y1464763*
X1997693D02*
X1996841Y1465153D01*
X1995705*
X1952165Y1450481D02*
X1951597Y1451263D01*
X1951597D02*
X1950744Y1451653D01*
X1949608*
X1948756Y1451263*
X1948756D02*
X1948188Y1450481D01*
X1948188D02*
Y1449700D01*
X1948188D02*
X1948472Y1448919D01*
X1948756Y1448528*
X1949324Y1448138*
X1949324D02*
X1951028Y1447356D01*
X1951597Y1446966*
X1951881Y1446575*
X1952165Y1445794*
Y1444622*
X1951597Y1443841*
X1950744Y1443450*
X1949608*
X1948756Y1443841*
X1948188Y1444622*
X1954722Y1451653D02*
Y1443450D01*
X1957278Y1451653D02*
Y1443450D01*
X1960688*
X1963244Y1451653D02*
Y1443450D01*
X1967222Y1451653D02*
X1963244Y1446184D01*
X1964665Y1448138D02*
X1967222Y1443450D01*
X1973756Y1450481D02*
X1973188Y1451263D01*
X1973188D02*
X1972335Y1451653D01*
X1971199*
X1970347Y1451263*
X1970347D02*
X1969778Y1450481D01*
Y1449700*
X1970063Y1448919*
X1970063D02*
X1970347Y1448528D01*
X1970915Y1448138*
X1970915D02*
X1972619Y1447356D01*
X1973188Y1446966*
X1973188D02*
X1973472Y1446575D01*
X1973756Y1445794*
Y1444622*
X1973188Y1443841*
X1973188D02*
X1972335Y1443450D01*
X1971199*
X1970347Y1443841*
X1969778Y1444622*
X1980574Y1449700D02*
X1980290Y1450481D01*
X1979722Y1451263*
X1979722D02*
X1979153Y1451653D01*
X1978017*
X1977449Y1451263*
X1977449D02*
X1976881Y1450481D01*
X1976597Y1449700*
X1976313Y1448528*
X1976313D02*
Y1446575D01*
X1976313D02*
X1976597Y1445403D01*
X1976881Y1444622*
X1977449Y1443841*
X1978017Y1443450*
X1979153*
X1979722Y1443841*
X1980290Y1444622*
X1980574Y1445403*
X1983131Y1451653D02*
Y1443450D01*
Y1451653D02*
X1985688D01*
X1985688D02*
X1986540Y1451263D01*
X1986540D02*
X1986824Y1450872D01*
X1987108Y1450091*
Y1449309*
X1986824Y1448528*
X1986540Y1448138*
X1986540D02*
X1985688Y1447747D01*
X1985688D02*
X1983131D01*
X1985119D02*
X1987108Y1443450D01*
X1989665Y1451653D02*
Y1443450D01*
Y1451653D02*
X1993358D01*
X1989665Y1447747D02*
X1991938D01*
X1989665Y1443450D02*
X1993358D01*
X1995915Y1451653D02*
Y1443450D01*
Y1451653D02*
X1999608D01*
X1995915Y1447747D02*
X1998188D01*
X1995915Y1443450D02*
X1999608D01*
X2002165Y1451653D02*
Y1443450D01*
Y1451653D02*
X2006142Y1443450D01*
Y1451653D02*
Y1443450D01*
X2015233Y1446966D02*
X2020347D01*
X2031426Y1451653D02*
Y1443450D01*
X2029438Y1451653D02*
X2033415D01*
X2037676D02*
X2037108Y1451263D01*
X2037108D02*
X2036540Y1450481D01*
X2036256Y1449700*
X2035972Y1448528*
Y1446575*
X2036256Y1445403*
X2036540Y1444622*
X2037108Y1443841*
X2037676Y1443450*
X2038813*
X2038813D02*
X2039381Y1443841D01*
X2039949Y1444622*
X2040233Y1445403*
X2040517Y1446575*
Y1448528*
X2040233Y1449700*
X2039949Y1450481*
X2039381Y1451263*
X2039381D02*
X2038813Y1451653D01*
X2038813D02*
X2037676D01*
X2043074D02*
Y1443450D01*
Y1451653D02*
X2045631D01*
X2046483Y1451263*
X2046483D02*
X2046767Y1450872D01*
X2047051Y1450091*
Y1448919*
X2046767Y1448138*
X2046767D02*
X2046483Y1447747D01*
X2045631Y1447356*
X2043074*
X1892580Y1477153D02*
Y1468950D01*
Y1477153D02*
X1894568D01*
X1895420Y1476763*
X1895420D02*
X1895989Y1475981D01*
X1896273Y1475200*
X1896557Y1474028*
Y1472075*
X1896273Y1470903*
X1895989Y1470122*
X1895420Y1469341*
X1894568Y1468950*
X1892580*
X1899114Y1477153D02*
Y1468950D01*
Y1477153D02*
X1902807D01*
X1899114Y1473247D02*
X1901386D01*
X1899114Y1468950D02*
X1902807D01*
X1907352Y1477153D02*
Y1468950D01*
X1905364Y1477153D02*
X1909341D01*
X1911898D02*
Y1468950D01*
Y1477153D02*
X1915591D01*
X1911898Y1473247D02*
X1914170D01*
X1911898Y1468950D02*
X1915591D01*
X1922409Y1475200D02*
X1922125Y1475981D01*
X1921557Y1476763*
X1921557D02*
X1920989Y1477153D01*
X1919852*
X1919284Y1476763*
X1919284D02*
X1918716Y1475981D01*
X1918432Y1475200*
X1918148Y1474028*
Y1472075*
X1918432Y1470903*
X1918716Y1470122*
X1919284Y1469341*
X1919852Y1468950*
X1920989*
X1921557Y1469341*
X1922125Y1470122*
X1922409Y1470903*
X1926955Y1477153D02*
Y1468950D01*
X1924966Y1477153D02*
X1928943D01*
X1933205D02*
X1932636Y1476763D01*
X1932636D02*
X1932068Y1475981D01*
X1931784Y1475200*
X1931500Y1474028*
Y1472075*
X1931784Y1470903*
X1932068Y1470122*
X1932636Y1469341*
X1933205Y1468950*
X1934341*
X1934909Y1469341*
X1935477Y1470122*
X1935761Y1470903*
X1936045Y1472075*
Y1474028*
X1935761Y1475200*
X1935477Y1475981*
X1934909Y1476763*
X1934909D02*
X1934341Y1477153D01*
X1933205*
X1938602D02*
Y1468950D01*
Y1477153D02*
X1941159D01*
X1942011Y1476763*
X1942011D02*
X1942295Y1476372D01*
X1942580Y1475591*
Y1474809*
X1942295Y1474028*
X1942011Y1473638*
X1942011D02*
X1941159Y1473247D01*
X1938602*
X1940591D02*
X1942580Y1468950D01*
X1951670Y1477153D02*
Y1468950D01*
Y1477153D02*
X1954227D01*
X1955080Y1476763*
X1955080D02*
X1955364Y1476372D01*
X1955648Y1475591*
Y1474809*
X1955364Y1474028*
X1955080Y1473638*
X1955080D02*
X1954227Y1473247D01*
X1951670D02*
X1954227D01*
X1955080Y1472856*
X1955364Y1472466*
X1955648Y1471684*
Y1470513*
X1955648D02*
X1955364Y1469731D01*
X1955080Y1469341*
X1954227Y1468950*
X1951670*
X1958205Y1477153D02*
Y1468950D01*
X1963034Y1477153D02*
X1960761Y1468950D01*
X1963034Y1477153D02*
X1965307Y1468950D01*
X1961614Y1471684D02*
X1964455D01*
X1971841Y1475981D02*
X1971273Y1476763D01*
X1971273D02*
X1970420Y1477153D01*
X1969284*
X1968432Y1476763*
X1968432D02*
X1967864Y1475981D01*
Y1475200*
X1968148Y1474419*
X1968432Y1474028*
X1969000Y1473638*
X1969000D02*
X1970705Y1472856D01*
X1971273Y1472466*
X1971557Y1472075*
X1971841Y1471294*
Y1470122*
X1971273Y1469341*
X1970420Y1468950*
X1969284*
X1968432Y1469341*
X1967864Y1470122*
X1980932Y1477153D02*
Y1468950D01*
Y1477153D02*
X1982920D01*
X1983773Y1476763*
X1983773D02*
X1984341Y1475981D01*
X1984625Y1475200*
X1984909Y1474028*
Y1472075*
X1984625Y1470903*
X1984341Y1470122*
X1983773Y1469341*
X1982920Y1468950*
X1980932*
X1987466Y1477153D02*
Y1468950D01*
Y1477153D02*
X1990023D01*
X1990875Y1476763*
X1990875D02*
X1991159Y1476372D01*
X1991443Y1475591*
Y1474809*
X1991159Y1474028*
X1990875Y1473638*
X1990875D02*
X1990023Y1473247D01*
X1987466*
X1989455D02*
X1991443Y1468950D01*
X1994000Y1477153D02*
Y1468950D01*
X1996557Y1477153D02*
X1998830Y1468950D01*
X2001102Y1477153D02*
X1998830Y1468950D01*
X2003659Y1477153D02*
Y1468950D01*
Y1477153D02*
X2007352D01*
X2003659Y1473247D02*
X2005932D01*
X2003659Y1468950D02*
X2007352D01*
X2009909Y1477153D02*
Y1468950D01*
Y1477153D02*
X2012466D01*
X2013318Y1476763*
X2013318D02*
X2013602Y1476372D01*
X2013886Y1475591*
Y1474809*
X2013602Y1474028*
X2013318Y1473638*
X2013318D02*
X2012466Y1473247D01*
X2009909*
X2011898D02*
X2013886Y1468950D01*
X2022977Y1477153D02*
Y1468950D01*
Y1477153D02*
X2025534D01*
X2026386Y1476763*
X2026386D02*
X2026670Y1476372D01*
X2026955Y1475591*
Y1474419*
X2026670Y1473638*
X2026670D02*
X2026386Y1473247D01*
X2025534Y1472856*
X2022977*
X2029511Y1477153D02*
Y1468950D01*
X2036330Y1475200D02*
X2036045Y1475981D01*
X2035477Y1476763*
X2035477D02*
X2034909Y1477153D01*
X2033773*
X2033205Y1476763*
X2033205D02*
X2032636Y1475981D01*
X2032352Y1475200*
X2032068Y1474028*
Y1472075*
X2032352Y1470903*
X2032636Y1470122*
X2033205Y1469341*
X2033773Y1468950*
X2034909*
X2035477Y1469341*
X2036045Y1470122*
X2036330Y1470903*
Y1472075*
X2034909D02*
X2036330D01*
X2043148Y1475200D02*
X2042864Y1475981D01*
X2042295Y1476763*
X2042295D02*
X2041727Y1477153D01*
X2040591*
X2040023Y1476763*
X2040023D02*
X2039455Y1475981D01*
X2039170Y1475200*
X2038886Y1474028*
Y1472075*
X2039170Y1470903*
X2039455Y1470122*
X2040023Y1469341*
X2040591Y1468950*
X2041727*
X2042295Y1469341*
X2042864Y1470122*
X2043148Y1470903*
Y1472075*
X2041727D02*
X2043148D01*
X2045705Y1477153D02*
X2047977Y1473247D01*
Y1468950*
X2050250Y1477153D02*
X2047977Y1473247D01*
X2052807Y1477153D02*
Y1468950D01*
Y1477153D02*
X2055364D01*
X2056216Y1476763*
X2056216D02*
X2056500Y1476372D01*
X2056784Y1475591*
Y1474809*
X2056500Y1474028*
X2056216Y1473638*
X2056216D02*
X2055364Y1473247D01*
X2052807D02*
X2055364D01*
X2056216Y1472856*
X2056500Y1472466*
X2056784Y1471684*
Y1470513*
X2056784D02*
X2056500Y1469731D01*
X2056216Y1469341*
X2055364Y1468950*
X2052807*
X2061614Y1477153D02*
X2059341Y1468950D01*
X2061614Y1477153D02*
X2063886Y1468950D01*
X2060193Y1471684D02*
X2063034D01*
X2070705Y1475200D02*
X2070420Y1475981D01*
X2069852Y1476763*
X2069852D02*
X2069284Y1477153D01*
X2068148*
X2067580Y1476763*
X2067580D02*
X2067011Y1475981D01*
X2066727Y1475200*
X2066443Y1474028*
Y1472075*
X2066727Y1470903*
X2067011Y1470122*
X2067580Y1469341*
X2068148Y1468950*
X2069284*
X2069852Y1469341*
X2070420Y1470122*
X2070705Y1470903*
X2073261Y1477153D02*
Y1468950D01*
X2077239Y1477153D02*
X2073261Y1471684D01*
X2074682Y1473638D02*
X2077239Y1468950D01*
X2086330Y1477153D02*
Y1468950D01*
Y1477153D02*
X2088886D01*
X2089739Y1476763*
X2089739D02*
X2090023Y1476372D01*
X2090307Y1475591*
Y1474419*
X2090023Y1473638*
X2090023D02*
X2089739Y1473247D01*
X2088886Y1472856*
X2086330*
X2097125Y1475200D02*
X2096841Y1475981D01*
X2096273Y1476763*
X2096273D02*
X2095705Y1477153D01*
X2094568*
X2094000Y1476763*
X2094000D02*
X2093432Y1475981D01*
X2093148Y1475200*
X2092864Y1474028*
Y1472075*
X2093148Y1470903*
X2093432Y1470122*
X2094000Y1469341*
X2094568Y1468950*
X2095705*
X2096273Y1469341*
X2096841Y1470122*
X2097125Y1470903*
X2099682Y1477153D02*
Y1468950D01*
Y1477153D02*
X2102239D01*
X2103091Y1476763*
X2103091D02*
X2103375Y1476372D01*
X2103659Y1475591*
Y1474809*
X2103375Y1474028*
X2103091Y1473638*
X2103091D02*
X2102239Y1473247D01*
X2099682D02*
X2102239D01*
X2103091Y1472856*
X2103375Y1472466*
X2103659Y1471684*
Y1470513*
X2103659D02*
X2103375Y1469731D01*
X2103091Y1469341*
X2102239Y1468950*
X2099682*
G54D62*
X2018069Y1560906D02*
X2017933Y1561281D01*
X2017660Y1561656*
X2017388Y1561844*
X2017388D02*
X2016842D01*
X2016569Y1561656*
X2016297Y1561281*
X2016160Y1560906*
X2016024Y1560344*
Y1559406*
X2016160Y1558844*
X2016297Y1558469*
X2016569Y1558094*
X2016842Y1557906*
X2017388*
X2017388D02*
X2017660Y1558094D01*
X2017933Y1558469*
X2018069Y1558844*
X2019433Y1560906D02*
Y1561094D01*
X2019569Y1561469*
X2019706Y1561656*
X2019978Y1561844*
X2020524*
X2020797Y1561656*
X2020933Y1561469*
X2021069Y1561094*
Y1560719*
X2020933Y1560344*
X2020660Y1559781*
X2019297Y1557906*
X2021206*
X1970206Y1617844D02*
Y1613906D01*
Y1617844D02*
X1971433D01*
X1971842Y1617656*
X1971978Y1617469*
X1972115Y1617094*
Y1616719*
X1971978Y1616344*
X1971842Y1616156*
X1971433Y1615969*
X1970206*
X1971160D02*
X1972115Y1613906D01*
X1973342Y1617094D02*
X1973615Y1617281D01*
X1974024Y1617844*
Y1613906*
X1970092Y1603844D02*
Y1599906D01*
Y1603844D02*
X1971319D01*
X1971728Y1603656*
X1971865Y1603469*
X1972001Y1603094*
Y1602719*
X1971865Y1602344*
X1971728Y1602156*
X1971319Y1601969*
X1970092*
X1971047D02*
X1972001Y1599906D01*
X1973365Y1602906D02*
Y1603094D01*
X1973501Y1603469*
X1973638Y1603656*
X1973638D02*
X1973910Y1603844D01*
X1974456*
X1974728Y1603656*
X1974865Y1603469*
X1975001Y1603094*
Y1602719*
X1974865Y1602344*
X1974592Y1601781*
X1973228Y1599906*
X1975138*
X2022501Y1619306D02*
X2022365Y1619681D01*
X2022092Y1620056*
X2021819Y1620244*
X2021274*
X2021001Y1620056*
X2020728Y1619681*
X2020592Y1619306*
X2020456Y1618744*
Y1617806*
X2020592Y1617244*
X2020728Y1616869*
X2021001Y1616494*
X2021274Y1616306*
X2021819*
X2022092Y1616494*
X2022365Y1616869*
X2022501Y1617244*
X2025092Y1620244D02*
X2023728Y1617619D01*
X2025774*
X2025092Y1620244D02*
Y1616306D01*
X1969183Y1609306D02*
X1969047Y1609681D01*
X1968774Y1610056*
X1968501Y1610244*
X1967956*
X1967683Y1610056*
X1967410Y1609681*
X1967274Y1609306*
X1967138Y1608744*
X1967138D02*
Y1607806D01*
X1967138D02*
X1967274Y1607244D01*
X1967410Y1606869*
X1967683Y1606494*
X1967956Y1606306*
X1968501*
X1968774Y1606494*
X1969047Y1606869*
X1969183Y1607244*
X1970410Y1609494D02*
X1970683Y1609681D01*
X1971092Y1610244*
Y1606306*
X1970092Y1597344D02*
Y1593406D01*
Y1597344D02*
X1971319D01*
X1971728Y1597156*
X1971865Y1596969*
X1972001Y1596594*
Y1596219*
X1971865Y1595844*
X1971728Y1595656*
X1971319Y1595469*
X1970092*
X1971047D02*
X1972001Y1593406D01*
X1973501Y1597344D02*
X1975001D01*
X1974183Y1595844*
X1974592*
X1974865Y1595656*
X1975001Y1595469*
X1975138Y1594906*
X1975138D02*
Y1594531D01*
X1975138D02*
X1975001Y1593969D01*
X1974728Y1593594*
X1974319Y1593406*
X1973910*
X1973501Y1593594*
X1973365Y1593781*
X1973228Y1594156*
X1995638Y1566406D02*
X1995501Y1566781D01*
X1995228Y1567156*
X1994956Y1567344*
X1994410*
X1994138Y1567156*
X1994138D02*
X1993865Y1566781D01*
X1993728Y1566406*
X1993592Y1565844*
Y1564906*
X1993728Y1564344*
X1993865Y1563969*
X1994138Y1563594*
X1994138D02*
X1994410Y1563406D01*
X1994956*
X1995228Y1563594*
X1995501Y1563969*
X1995638Y1564344*
X1998501Y1566781D02*
X1998365Y1567156D01*
X1997956Y1567344*
X1997683*
X1997274Y1567156*
X1997001Y1566594*
X1996865Y1565656*
Y1564719*
X1997001Y1563969*
X1997274Y1563594*
X1997683Y1563406*
X1997819*
X1998228Y1563594*
X1998501Y1563969*
X1998638Y1564531*
X1998638D02*
Y1564719D01*
X1998638D02*
X1998501Y1565281D01*
X1998228Y1565656*
X1997819Y1565844*
X1997683*
X1997274Y1565656*
X1997001Y1565281*
X1996865Y1564719*
X1980074Y1657544D02*
Y1653606D01*
Y1657544D02*
X1981847D01*
X1980074Y1655669D02*
X1981165D01*
X1980074Y1653606D02*
X1981847D01*
X1983074Y1656794D02*
X1983347Y1656981D01*
X1983756Y1657544*
Y1653606*
X1970960Y1636544D02*
Y1632606D01*
Y1636544D02*
X1972733D01*
X1970960Y1634669D02*
X1972051D01*
X1970960Y1632606D02*
X1972733D01*
X1974097Y1635606D02*
Y1635794D01*
X1974233Y1636169*
X1974369Y1636356*
X1974642Y1636544*
X1975188*
X1975188D02*
X1975460Y1636356D01*
X1975597Y1636169*
X1975733Y1635794*
Y1635419*
X1975597Y1635044*
X1975324Y1634481*
X1973960Y1632606*
X1975869*
X1970960Y1627044D02*
Y1623106D01*
Y1627044D02*
X1972733D01*
X1970960Y1625169D02*
X1972051D01*
X1970960Y1623106D02*
X1972733D01*
X1974233Y1627044D02*
X1975733D01*
X1974915Y1625544*
X1975324*
X1975597Y1625356*
X1975733Y1625169*
X1975869Y1624606*
Y1624231*
X1975733Y1623669*
X1975460Y1623294*
X1975051Y1623106*
X1974642*
X1974233Y1623294*
X1974097Y1623481*
X1973960Y1623856*
X1999392Y1626544D02*
Y1622606D01*
Y1626544D02*
X2001165D01*
X1999392Y1624669D02*
X2000483D01*
X1999392Y1622606D02*
X2001165D01*
X2003756Y1626544D02*
X2002392Y1623919D01*
X2004438*
X2003756Y1626544D02*
Y1622606D01*
X1970892Y1589044D02*
Y1585106D01*
Y1589044D02*
X1972665D01*
X1970892Y1587169D02*
X1971983D01*
X1970892Y1585106D02*
X1972665D01*
X1975665Y1589044D02*
X1974301D01*
X1974165Y1587356*
X1974301Y1587544*
X1974710Y1587731*
X1975119*
X1975528Y1587544*
X1975801Y1587169*
X1975938Y1586606*
X1975938D02*
X1975801Y1586231D01*
X1975665Y1585669*
X1975392Y1585294*
X1974983Y1585106*
X1974574*
X1974165Y1585294*
X1974028Y1585481*
X1973892Y1585856*
X1971028Y1579044D02*
Y1575106D01*
Y1579044D02*
X1972801D01*
X1971028Y1577169D02*
X1972119D01*
X1971028Y1575106D02*
X1972801D01*
X1975665Y1578481D02*
X1975528Y1578856D01*
X1975119Y1579044*
X1974847*
X1974438Y1578856*
X1974165Y1578294*
X1974028Y1577356*
Y1576419*
X1974165Y1575669*
X1974438Y1575294*
X1974847Y1575106*
X1974983*
X1975392Y1575294*
X1975665Y1575669*
X1975801Y1576231*
Y1576419*
X1975665Y1576981*
X1975392Y1577356*
X1974983Y1577544*
X1974847*
X1974438Y1577356*
X1974165Y1576981*
X1974028Y1576419*
X1970960Y1569044D02*
Y1565106D01*
Y1569044D02*
X1972733D01*
X1970960Y1567169D02*
X1972051D01*
X1970960Y1565106D02*
X1972733D01*
X1975869Y1569044D02*
X1974506Y1565106D01*
X1973960Y1569044D02*
X1975869D01*
X2003960Y1576044D02*
Y1572106D01*
Y1576044D02*
X2005733D01*
X2003960Y1574169D02*
X2005051D01*
X2003960Y1572106D02*
X2005733D01*
X2007642Y1576044D02*
X2007233Y1575856D01*
X2007097Y1575481*
Y1575106*
X2007233Y1574731*
X2007506Y1574544*
X2008051Y1574356*
X2008460Y1574169*
X2008733Y1573794*
X2008869Y1573419*
Y1572856*
X2008733Y1572481*
X2008597Y1572294*
X2008188Y1572106*
X2008188D02*
X2007642D01*
X2007233Y1572294*
X2007097Y1572481*
X2006960Y1572856*
Y1573419*
X2007097Y1573794*
X2007369Y1574169*
X2007778Y1574356*
X2008324Y1574544*
X2008597Y1574731*
X2008733Y1575106*
Y1575481*
X2008597Y1575856*
X2008188Y1576044*
X2008188D02*
X2007642D01*
X2024024Y1568844D02*
Y1564906D01*
Y1568844D02*
X2025251D01*
X2025660Y1568656*
X2025797Y1568469*
X2025933Y1568094*
Y1567719*
X2025797Y1567344*
X2025660Y1567156*
X2025251Y1566969*
X2024024*
X2024978D02*
X2025933Y1564906D01*
X2028524Y1568844D02*
X2027160Y1566219D01*
X2029206*
X2028524Y1568844D02*
Y1564906D01*
X2012569Y1640306D02*
X2012433Y1640681D01*
X2012160Y1641056*
X2011887Y1641244*
X2011887D02*
X2011342D01*
X2011069Y1641056*
X2010797Y1640681*
X2010660Y1640306*
X2010524Y1639744*
Y1638806*
X2010660Y1638244*
X2010797Y1637869*
X2011069Y1637494*
X2011342Y1637306*
X2011887*
X2011887D02*
X2012160Y1637494D01*
X2012433Y1637869*
X2012569Y1638244*
X2014069Y1641244D02*
X2015569D01*
X2014751Y1639744*
X2015160*
X2015433Y1639556*
X2015569Y1639369*
X2015706Y1638806*
Y1638431*
X2015569Y1637869*
X2015297Y1637494*
X2014887Y1637306*
X2014887D02*
X2014478D01*
X2014069Y1637494*
X2013933Y1637681*
X2013797Y1638056*
X1957001Y1553906D02*
X1956865Y1554281D01*
X1956592Y1554656*
X1956319Y1554844*
X1955774*
X1955501Y1554656*
X1955228Y1554281*
X1955092Y1553906*
X1954956Y1553344*
Y1552406*
X1955092Y1551844*
X1955228Y1551469*
X1955501Y1551094*
X1955774Y1550906*
X1956319*
X1956592Y1551094*
X1956865Y1551469*
X1957001Y1551844*
X1960001Y1554844D02*
X1958638D01*
X1958501Y1553156*
X1958638Y1553344*
X1959047Y1553531*
X1959456*
X1959865Y1553344*
X1960138Y1552969*
X1960274Y1552406*
X1960138Y1552031*
X1960001Y1551469*
X1959728Y1551094*
X1959319Y1550906*
X1958910*
X1958501Y1551094*
X1958365Y1551281*
X1958228Y1551656*
X1957831Y1597832D02*
X1957456Y1597695D01*
X1957081Y1597423*
X1956894Y1597150*
Y1596605*
X1957081Y1596332*
X1957456Y1596059*
X1957831Y1595923*
X1958394Y1595786*
X1959331*
X1959894Y1595923*
X1960269Y1596059*
X1960644Y1596332*
X1960831Y1596605*
Y1597150*
X1960644Y1597423*
X1960269Y1597695*
X1959894Y1597832*
X1956894Y1600968D02*
X1960831Y1599605D01*
X1956894Y1599059D02*
Y1600968D01*
X1950569Y1637906D02*
X1950433Y1638281D01*
X1950160Y1638656*
X1949888Y1638844*
X1949888D02*
X1949342D01*
X1949069Y1638656*
X1948797Y1638281*
X1948660Y1637906*
X1948524Y1637344*
Y1636406*
X1948660Y1635844*
X1948797Y1635469*
X1949069Y1635094*
X1949342Y1634906*
X1949888*
X1949888D02*
X1950160Y1635094D01*
X1950433Y1635469*
X1950569Y1635844*
X1952478Y1638844D02*
X1952069Y1638656D01*
X1951933Y1638281*
Y1637906*
X1952069Y1637531*
X1952342Y1637344*
X1952888Y1637156*
X1952888D02*
X1953297Y1636969D01*
X1953569Y1636594*
X1953706Y1636219*
Y1635656*
X1953569Y1635281*
X1953433Y1635094*
X1953024Y1634906*
X1952478*
X1952069Y1635094*
X1951933Y1635281*
X1951797Y1635656*
Y1636219*
X1951933Y1636594*
X1952206Y1636969*
X1952615Y1637156*
X1953160Y1637344*
X1953433Y1637531*
X1953569Y1637906*
Y1638281*
X1953433Y1638656*
X1953024Y1638844*
X1952478*
X1950638Y1647906D02*
X1950501Y1648281D01*
X1950228Y1648656*
X1949956Y1648844*
X1949410*
X1949138Y1648656*
X1949138D02*
X1948865Y1648281D01*
X1948728Y1647906*
X1948592Y1647344*
Y1646406*
X1948728Y1645844*
X1948865Y1645469*
X1949138Y1645094*
X1949138D02*
X1949410Y1644906D01*
X1949956*
X1950228Y1645094*
X1950501Y1645469*
X1950638Y1645844*
X1953638Y1647531D02*
X1953501Y1646969D01*
X1953228Y1646594*
X1952819Y1646406*
X1952683*
X1952274Y1646594*
X1952001Y1646969*
X1951865Y1647531*
Y1647719*
X1952001Y1648281*
X1952274Y1648656*
X1952683Y1648844*
X1952819*
X1953228Y1648656*
X1953501Y1648281*
X1953638Y1647531*
X1953638D02*
Y1646594D01*
X1953638D02*
X1953501Y1645656D01*
X1953228Y1645094*
X1952819Y1644906*
X1952547*
X1952138Y1645094*
X1952138D02*
X1952001Y1645469D01*
G54D63*
X1987638Y1644450D02*
G03X1987638I-4950J0D01*
G01Y1634450D02*
G03X1987638I-4950J0D01*
G01Y1624450D02*
G03X1987638I-4950J0D01*
G01X2016138D02*
G03X2016138I-4950J0D01*
G01X1987638Y1586950D02*
G03X1987638I-4950J0D01*
G01Y1576950D02*
G03X1987638I-4950J0D01*
G01Y1566950D02*
G03X1987638I-4950J0D01*
G01X2016138D02*
G03X2016138I-4950J0D01*
G01X1997688Y1617950D02*
Y1577950D01*
X1997688D02*
X2017688D01*
X2017688D02*
Y1617950D01*
X2017688D02*
X2012688D01*
X2002688D02*
G03X2012688I5000J0D01*
G01X2002688D02*
X1997688D01*
X1952160Y1614575D02*
Y1610825D01*
X1952342Y1610075*
X1952706Y1609575*
X1953251Y1609325*
X1953615*
X1954160Y1609575*
X1954524Y1610075*
X1954706Y1610825*
Y1614575*
X1956706D02*
X1958706D01*
X1957615Y1612575*
X1958160*
X1958524Y1612325*
X1958706Y1612075*
X1958888Y1611325*
Y1610825*
X1958706Y1610075*
X1958342Y1609575*
X1957797Y1609325*
X1957251*
X1956706Y1609575*
X1956524Y1609825*
X1956342Y1610325*
X2005015Y1600981D02*
Y1597231D01*
X2005197Y1596481*
X2005560Y1595981*
X2006106Y1595731*
X2006469*
X2007015Y1595981*
X2007378Y1596481*
X2007560Y1597231*
Y1600981*
X2009197Y1599981D02*
X2009560Y1600231D01*
X2010106Y1600981*
Y1595731*
G54D169*
X1985438Y1644450D02*
G03X1985438I-2750J0D01*
G01Y1634450D02*
G03X1985438I-2750J0D01*
G01Y1624450D02*
G03X1985438I-2750J0D01*
G01X2013938D02*
G03X2013938I-2750J0D01*
G01X1985438Y1586950D02*
G03X1985438I-2750J0D01*
G01Y1576950D02*
G03X1985438I-2750J0D01*
G01Y1566950D02*
G03X1985438I-2750J0D01*
G01X2013938D02*
G03X2013938I-2750J0D01*
G01X1947688Y1756950D02*
Y1541950D01*
X1947688D02*
X2032688D01*
X2032688D02*
Y1626950D01*
X2032688D02*
X2037688Y1631950D01*
X2037688D02*
Y1756950D01*
X2037688D02*
X1947688D01*
G74*
X0Y0D02*
M02*
