*
*
G04 PADS VX.2.3 Build Number: 10035676 generated Gerber (RS-274-X) file*
G04 PC Version=2.1*
*
%IN "IO-1735-1.pcb"*%
*
%MOIN*%
*
%FSLAX35Y35*%
*
*
*
*
G04 PC Standard Apertures*
*
*
G04 Thermal Relief Aperture macro.*
%AMTER*
1,1,$1,0,0*
1,0,$1-$2,0,0*
21,0,$3,$4,0,0,45*
21,0,$3,$4,0,0,135*
%
*
*
G04 Annular Aperture macro.*
%AMANN*
1,1,$1,0,0*
1,0,$2,0,0*
%
*
*
G04 Odd Aperture macro.*
%AMODD*
1,1,$1,0,0*
1,0,$1-0.005,0,0*
%
*
*
G04 PC Custom Aperture Macros*
*
*
*
*
*
*
G04 PC Aperture Table*
*
%ADD010C,0.001*%
%ADD016R,0.03X0.04*%
%ADD017R,0.04X0.03*%
%ADD020R,0.062X0.06*%
%ADD025R,0.048X0.05*%
%ADD027C,0.06*%
%ADD028C,0.075*%
%ADD055R,0.06X0.06*%
%ADD056C,0.005*%
%ADD058C,0.01*%
%ADD062C,0.006*%
%ADD063C,0.008*%
%ADD094C,0.08*%
%ADD169C,0.002*%
%ADD273R,0.024X0.05*%
%ADD274R,0.095X0.13*%
*
*
*
*
G04 PC Circuitry*
G04 Layer Name IO-1735-1.pcb - circuitry*
%LPD*%
*
*
G04 PC Custom Flashes*
G04 Layer Name IO-1735-1.pcb - flashes*
%LPD*%
*
*
G04 PC Circuitry*
G04 Layer Name IO-1735-1.pcb - circuitry*
%LPD*%
*
G54D10*
G01X1932813Y1543850D02*
X1923413D01*
X1923413D02*
Y1547650D01*
X1923413D02*
X1932813D01*
X1932813D02*
Y1543850D01*
X1923413Y1544750D02*
X1911013D01*
X1911013D02*
Y1546750D01*
X1911013D02*
X1923413D01*
X1923413D02*
Y1544750D01*
X1938813Y1542950D02*
X1940413D01*
X1940413D02*
Y1548550D01*
X1940413D02*
X1938813D01*
X1938813D02*
Y1542950D01*
Y1730750D02*
X1975813D01*
X1980813Y1725751D02*
G75*
G03X1975814Y1730750I-4751J249D01*
G01X1980813Y1725750D02*
Y1635750D01*
X1975814Y1630750D02*
G03X1980813Y1635749I248J4750D01*
G01X1975813Y1630750D02*
X1938813D01*
X1938813D02*
Y1730750D01*
X1932813Y1553850D02*
X1923413D01*
X1923413D02*
Y1557650D01*
X1923413D02*
X1932813D01*
X1932813D02*
Y1553850D01*
X1923413Y1554750D02*
X1911013D01*
X1911013D02*
Y1556750D01*
X1911013D02*
X1923413D01*
X1923413D02*
Y1554750D01*
X1938813Y1552950D02*
X1940413D01*
X1940413D02*
Y1558550D01*
X1940413D02*
X1938813D01*
X1938813D02*
Y1552950D01*
X1932813Y1563850D02*
X1923413D01*
X1923413D02*
Y1567650D01*
X1923413D02*
X1932813D01*
X1932813D02*
Y1563850D01*
X1923413Y1564750D02*
X1911013D01*
X1911013D02*
Y1566750D01*
X1911013D02*
X1923413D01*
X1923413D02*
Y1564750D01*
X1938813Y1562950D02*
X1940413D01*
X1940413D02*
Y1568550D01*
X1940413D02*
X1938813D01*
X1938813D02*
Y1562950D01*
X1932813Y1601350D02*
X1923413D01*
X1923413D02*
Y1605150D01*
X1923413D02*
X1932813D01*
X1932813D02*
Y1601350D01*
X1923413Y1602250D02*
X1911013D01*
X1911013D02*
Y1604250D01*
X1911013D02*
X1923413D01*
X1923413D02*
Y1602250D01*
X1938813Y1600450D02*
X1940413D01*
X1940413D02*
Y1606050D01*
X1940413D02*
X1938813D01*
X1938813D02*
Y1600450D01*
X1932813Y1611350D02*
X1923413D01*
X1923413D02*
Y1615150D01*
X1923413D02*
X1932813D01*
X1932813D02*
Y1611350D01*
X1923413Y1612250D02*
X1911013D01*
X1911013D02*
Y1614250D01*
X1911013D02*
X1923413D01*
X1923413D02*
Y1612250D01*
X1938813Y1610450D02*
X1940413D01*
X1940413D02*
Y1616050D01*
X1940413D02*
X1938813D01*
X1938813D02*
Y1610450D01*
X1932813Y1621350D02*
X1923413D01*
X1923413D02*
Y1625150D01*
X1923413D02*
X1932813D01*
X1932813D02*
Y1621350D01*
X1923413Y1622250D02*
X1911013D01*
X1911013D02*
Y1624250D01*
X1911013D02*
X1923413D01*
X1923413D02*
Y1622250D01*
X1938813Y1620450D02*
X1940413D01*
X1940413D02*
Y1626050D01*
X1940413D02*
X1938813D01*
X1938813D02*
Y1620450D01*
X1923413Y1543850D02*
X1923415D01*
X1932813Y1520750D02*
X1932815D01*
X1911013Y1544750D02*
X1911015D01*
X1932813Y1520750D02*
X1932815D01*
X1932813Y1726750D02*
X1923813D01*
X1923813D02*
Y1724750D01*
X1923813D02*
X1932813D01*
X2058813Y1725750D02*
G03X2058813I-1000J0D01*
G01Y1705750D02*
G03X2058813I-1000J0D01*
G01X2118813D02*
G03X2118813I-1000J0D01*
G01Y1725750D02*
G03X2118813I-1000J0D01*
G01X2058813Y1645750D02*
G03X2058813I-1000J0D01*
G01X2118813D02*
G03X2118813I-1000J0D01*
G01Y1635750D02*
G03X2118813I-1000J0D01*
G01X2058813D02*
G03X2058813I-1000J0D01*
G01X1940813Y1596750D02*
X1958813D01*
X1958813D02*
Y1556750D01*
X1958813D02*
X1940813D01*
X1940813D02*
Y1596750D01*
X1932813Y1592750D02*
X1926313D01*
X1926313D02*
Y1590750D01*
X1926313D02*
X1932813D01*
Y1706750D02*
X1923813D01*
X1923813D02*
Y1704750D01*
X1923813D02*
X1932813D01*
Y1646750D02*
X1923813D01*
X1923813D02*
Y1644750D01*
X1923813D02*
X1932813D01*
Y1636750D02*
X1923813D01*
X1923813D02*
Y1634750D01*
X1923813D02*
X1932813D01*
Y1582750D02*
X1926313D01*
X1926313D02*
Y1580750D01*
X1926313D02*
X1932813D01*
Y1572750D02*
X1926313D01*
X1926313D02*
Y1570750D01*
X1926313D02*
X1932813D01*
Y1562750D02*
X1926313D01*
X1926313D02*
Y1560750D01*
X1926313D02*
X1932813D01*
X2087313Y1590750D02*
X2088313D01*
X2088313D02*
Y1592750D01*
X2088313D02*
X2087313D01*
X2087313D02*
Y1590750D01*
Y1580750D02*
X2088313D01*
X2088313D02*
Y1582750D01*
X2088313D02*
X2087313D01*
X2087313D02*
Y1580750D01*
Y1570750D02*
X2088313D01*
X2088313D02*
Y1572750D01*
X2088313D02*
X2087313D01*
X2087313D02*
Y1570750D01*
Y1560750D02*
X2088313D01*
X2088313D02*
Y1562750D01*
X2088313D02*
X2087313D01*
X2087313D02*
Y1560750D01*
X2117313D02*
X2118313D01*
X2118313D02*
Y1562750D01*
X2118313D02*
X2117313D01*
X2117313D02*
Y1560750D01*
Y1570750D02*
X2118313D01*
X2118313D02*
Y1572750D01*
X2118313D02*
X2117313D01*
X2117313D02*
Y1570750D01*
Y1590750D02*
X2118313D01*
X2118313D02*
Y1592750D01*
X2118313D02*
X2117313D01*
X2117313D02*
Y1590750D01*
Y1580750D02*
X2118313D01*
X2118313D02*
Y1582750D01*
X2118313D02*
X2117313D01*
X2117313D02*
Y1580750D01*
X1921813Y1695250D02*
X1921815D01*
X1932813Y1756250D02*
X1932815D01*
G54D16*
X2059313Y1580450D03*
Y1574050D03*
G54D17*
X2074113Y1594250D03*
X2080513D03*
X2074613Y1580250D03*
X2081013D03*
X2121513Y1603250D03*
X2115113D03*
X2074613Y1574250D03*
X2081013D03*
X2088113Y1550750D03*
X2094513D03*
X2115113D03*
X2121513D03*
X2053613Y1615250D03*
X2060013D03*
G54D20*
X2107413Y1531250D03*
X2121213D03*
X2053913Y1623250D03*
X2067713D03*
G54D25*
X2080313Y1587250D03*
X2072313D03*
G54D27*
X2087813Y1581750D03*
Y1571750D03*
Y1561750D03*
X2117813D03*
Y1571750D03*
Y1581750D03*
Y1591750D03*
G54D28*
X2077813Y1623250D03*
Y1613250D03*
Y1603250D03*
X2106313D03*
X2077813Y1565750D03*
Y1555750D03*
Y1545750D03*
X2106313D03*
G54D55*
X2087813Y1591750D03*
G54D56*
X2074563Y1536750D02*
G03X2074438Y1538724I-15750J0D01*
G01X2073929Y1541170D02*
G03X2073256Y1543030I-15116J-4420D01*
G01X2072066Y1545259D02*
G03X2070895Y1546853I-13253J-8509D01*
G01X2069145Y1548637D02*
G03X2067574Y1549838I-10332J-11887D01*
G01X2065369Y1551070D02*
G03X2063522Y1551779I-6556J-14320D01*
G01X2061059Y1552339D02*
G03X2059087Y1552498I-2246J-15589D01*
G01X2056593Y1552343D02*
G03X2054657Y1551942I2220J-15593D01*
G01X2052281Y1551082D02*
G03X2050536Y1550150I6532J-14332D01*
G01X2048500Y1548655D02*
G03X2047090Y1547268I10313J-11905D01*
G01X2045574Y1545282D02*
G03X2044609Y1543555I13239J-8532D01*
G01X2043703Y1541197D02*
G03X2043265Y1539268I15110J-4447D01*
G01X2043063Y1536750D02*
G03X2043187Y1534776I15750J0D01*
G01X2043696Y1532330D02*
G03X2044369Y1530470I15117J4420D01*
G01X2045559Y1528241D02*
G03X2046730Y1526647I13254J8509D01*
G01X2048480Y1524863D02*
G03X2050051Y1523662I10333J11887D01*
G01X2052256Y1522430D02*
G03X2054103Y1521721I6557J14320D01*
G01X2056566Y1521161D02*
G03X2058538Y1521002I2247J15589D01*
G01X2061032Y1521157D02*
G03X2062969Y1521558I-2219J15593D01*
G01X2065344Y1522418D02*
G03X2067089Y1523350I-6531J14332D01*
G01X2069125Y1524845D02*
G03X2070535Y1526232I-10312J11905D01*
G01X2072051Y1528218D02*
G03X2073016Y1529945I-13238J8532D01*
G01X2073922Y1532303D02*
G03X2074360Y1534232I-15109J4447D01*
G01X2133063Y1675750D02*
G03X2132938Y1677724I-15750J0D01*
G01X2132429Y1680170D02*
G03X2131756Y1682030I-15116J-4420D01*
G01X2130566Y1684259D02*
G03X2129395Y1685853I-13253J-8509D01*
G01X2127645Y1687637D02*
G03X2126074Y1688838I-10332J-11887D01*
G01X2123869Y1690070D02*
G03X2122022Y1690779I-6556J-14320D01*
G01X2119559Y1691339D02*
G03X2117587Y1691498I-2246J-15589D01*
G01X2115093Y1691343D02*
G03X2113157Y1690942I2220J-15593D01*
G01X2110781Y1690082D02*
G03X2109036Y1689150I6532J-14332D01*
G01X2107000Y1687655D02*
G03X2105590Y1686268I10313J-11905D01*
G01X2104074Y1684282D02*
G03X2103109Y1682555I13239J-8532D01*
G01X2102203Y1680197D02*
G03X2101765Y1678268I15110J-4447D01*
G01X2101563Y1675750D02*
G03X2101687Y1673776I15750J0D01*
G01X2102196Y1671330D02*
G03X2102869Y1669470I15117J4420D01*
G01X2104059Y1667241D02*
G03X2105230Y1665647I13254J8509D01*
G01X2106980Y1663863D02*
G03X2108551Y1662662I10333J11887D01*
G01X2110756Y1661430D02*
G03X2112603Y1660721I6557J14320D01*
G01X2115066Y1660161D02*
G03X2117038Y1660002I2247J15589D01*
G01X2119532Y1660157D02*
G03X2121469Y1660558I-2219J15593D01*
G01X2123844Y1661418D02*
G03X2125589Y1662350I-6531J14332D01*
G01X2127625Y1663845D02*
G03X2129035Y1665232I-10312J11905D01*
G01X2130551Y1667218D02*
G03X2131516Y1668945I-13238J8532D01*
G01X2132422Y1671303D02*
G03X2132860Y1673232I-15109J4447D01*
G01X2074063Y1680750D02*
G03X2073938Y1682724I-15750J0D01*
G01X2073429Y1685170D02*
G03X2072756Y1687030I-15116J-4420D01*
G01X2071566Y1689259D02*
G03X2070395Y1690853I-13253J-8509D01*
G01X2068645Y1692637D02*
G03X2067074Y1693838I-10332J-11887D01*
G01X2064869Y1695070D02*
G03X2063022Y1695779I-6556J-14320D01*
G01X2060559Y1696339D02*
G03X2058587Y1696498I-2246J-15589D01*
G01X2056093Y1696343D02*
G03X2054157Y1695942I2220J-15593D01*
G01X2051781Y1695082D02*
G03X2050036Y1694150I6532J-14332D01*
G01X2048000Y1692655D02*
G03X2046590Y1691268I10313J-11905D01*
G01X2045074Y1689282D02*
G03X2044109Y1687555I13239J-8532D01*
G01X2043203Y1685197D02*
G03X2042765Y1683268I15110J-4447D01*
G01X2042563Y1680750D02*
G03X2042687Y1678776I15750J0D01*
G01X2043196Y1676330D02*
G03X2043869Y1674470I15117J4420D01*
G01X2045059Y1672241D02*
G03X2046230Y1670647I13254J8509D01*
G01X2047980Y1668863D02*
G03X2049551Y1667662I10333J11887D01*
G01X2051756Y1666430D02*
G03X2053603Y1665721I6557J14320D01*
G01X2056066Y1665161D02*
G03X2058038Y1665002I2247J15589D01*
G01X2060532Y1665157D02*
G03X2062469Y1665558I-2219J15593D01*
G01X2064844Y1666418D02*
G03X2066589Y1667350I-6531J14332D01*
G01X2068625Y1668845D02*
G03X2070035Y1670232I-10312J11905D01*
G01X2071551Y1672218D02*
G03X2072516Y1673945I-13238J8532D01*
G01X2073422Y1676303D02*
G03X2073860Y1678232I-15109J4447D01*
G01X1932813Y1696750D02*
X1921813Y1695250D01*
X1921813D02*
Y1666250D01*
X1921813D02*
X1932813Y1664750D01*
X1932813D02*
Y1696750D01*
Y1520750D02*
X1921813Y1522250D01*
X1921813D02*
Y1543250D01*
X1932813Y1552750D02*
X1921813Y1551250D01*
X1921813D02*
Y1548750D01*
X1932813Y1660250D02*
X1921813Y1661750D01*
X1921813D02*
Y1664250D01*
G54D58*
X2124813Y1527750D02*
Y1534750D01*
X2124813D02*
X2103813D01*
X2103813D02*
Y1527750D01*
X2103813D02*
X2124813D01*
X2082813Y1592250D02*
Y1596250D01*
X2082813D02*
X2071813D01*
X2071813D02*
Y1592250D01*
X2071813D02*
X2082813D01*
X2083313Y1578250D02*
Y1582250D01*
X2083313D02*
X2072313D01*
X2072313D02*
Y1578250D01*
X2072313D02*
X2083313D01*
X2112813Y1605250D02*
Y1601250D01*
X2112813D02*
X2123813D01*
X2123813D02*
Y1605250D01*
X2123813D02*
X2112813D01*
X2069313Y1590250D02*
Y1584250D01*
X2069313D02*
X2083313D01*
X2083313D02*
Y1590250D01*
X2083313D02*
X2069313D01*
X2083313Y1572250D02*
Y1576250D01*
X2083313D02*
X2072313D01*
X2072313D02*
Y1572250D01*
X2072313D02*
X2083313D01*
X2096813Y1548750D02*
Y1552750D01*
X2096813D02*
X2085813D01*
X2085813D02*
Y1548750D01*
X2085813D02*
X2096813D01*
X2127813Y1635750D02*
Y1725750D01*
X2127813D02*
G03X2122813Y1730750I-5000J0D01*
G01X2122813D02*
X2052813D01*
X2052813D02*
G03X2047813Y1725750I-0J-5000D01*
G01X2047813D02*
Y1635750D01*
X2047813D02*
G03X2052813Y1630750I5000J0D01*
G01X2052813D02*
X2122813D01*
X2122813D02*
G03X2127813Y1635750I-0J5000D01*
G01X2125227D02*
G03X2125227I-1414J0D01*
G01X2063013Y1604950D02*
X2051613D01*
X2051613D02*
Y1598550D01*
X2051613D02*
X2063013D01*
X2063013D02*
Y1604950D01*
X2062813Y1602750D02*
X2059313D01*
X2059313D02*
Y1604750D01*
X2123813Y1548750D02*
Y1552750D01*
X2123813D02*
X2112813D01*
X2112813D02*
Y1548750D01*
X2112813D02*
X2123813D01*
X2115313Y1627000D02*
X2125313D01*
X2125313D02*
X2127813Y1624500D01*
X2127813D02*
Y1612000D01*
X2127813D02*
X2125313Y1609500D01*
X2125313D02*
X2115313D01*
X2100313Y1627000D02*
X2087813D01*
X2087813D02*
Y1609500D01*
X2087813D02*
X2100313D01*
X2070313Y1522500D02*
X2060313D01*
X2060313D02*
X2057813Y1525000D01*
X2057813D02*
Y1537500D01*
X2057813D02*
X2060313Y1540000D01*
X2060313D02*
X2070313D01*
X2085313Y1522500D02*
X2097813D01*
X2097813D02*
Y1540000D01*
X2097813D02*
X2085313D01*
X2057313Y1571750D02*
X2061313D01*
X2061313D02*
Y1582750D01*
X2061313D02*
X2057313D01*
X2057313D02*
Y1571750D01*
X2062313Y1613250D02*
Y1617250D01*
X2062313D02*
X2051313D01*
X2051313D02*
Y1613250D01*
X2051313D02*
X2062313D01*
X2071313Y1619750D02*
Y1626750D01*
X2071313D02*
X2050313D01*
X2050313D02*
Y1619750D01*
X2050313D02*
X2071313D01*
X2082313Y1678813D02*
Y1674125D01*
X2082540Y1673188*
X2082540D02*
X2082994Y1672563D01*
X2082994D02*
X2083676Y1672250D01*
X2084131*
X2084813Y1672563*
X2084813D02*
X2085267Y1673188D01*
X2085267D02*
X2085494Y1674125D01*
Y1678813*
X2087767Y1677250D02*
Y1677563D01*
X2087767D02*
X2087994Y1678188D01*
X2087994D02*
X2088222Y1678500D01*
X2088676Y1678813*
X2088676D02*
X2089585D01*
X2089585D02*
X2090040Y1678500D01*
X2090267Y1678188*
X2090267D02*
X2090494Y1677563D01*
X2090494D02*
Y1676938D01*
X2090494D02*
X2090267Y1676313D01*
X2090267D02*
X2089813Y1675375D01*
X2087540Y1672250*
X2090722*
X1994801Y1467953D02*
Y1459750D01*
Y1467953D02*
X1997358D01*
X1998210Y1467563*
X1998210D02*
X1998494Y1467172D01*
X1998778Y1466391*
Y1465609*
X1998494Y1464828*
X1998210Y1464438*
X1998210D02*
X1997358Y1464047D01*
X1994801D02*
X1997358D01*
X1998210Y1463656*
X1998494Y1463266*
X1998778Y1462484*
Y1461313*
X1998778D02*
X1998494Y1460531D01*
X1998210Y1460141*
X1997358Y1459750*
X1994801*
X2001335Y1467953D02*
Y1459750D01*
Y1467953D02*
X2003892D01*
X2004744Y1467563*
X2004744D02*
X2005028Y1467172D01*
X2005313Y1466391*
Y1465609*
X2005028Y1464828*
X2004744Y1464438*
X2004744D02*
X2003892Y1464047D01*
X2001335*
X2003324D02*
X2005313Y1459750D01*
X2009574Y1467953D02*
X2009006Y1467563D01*
X2009006D02*
X2008438Y1466781D01*
X2008153Y1466000*
X2007869Y1464828*
Y1462875*
X2008153Y1461703*
X2008438Y1460922*
X2009006Y1460141*
X2009574Y1459750*
X2010710*
X2011278Y1460141*
X2011847Y1460922*
X2012131Y1461703*
X2012415Y1462875*
Y1464828*
X2012131Y1466000*
X2011847Y1466781*
X2011278Y1467563*
X2011278D02*
X2010710Y1467953D01*
X2009574*
X2016676D02*
X2016108Y1467563D01*
X2016108D02*
X2015540Y1466781D01*
X2015256Y1466000*
X2014972Y1464828*
Y1462875*
X2015256Y1461703*
X2015540Y1460922*
X2016108Y1460141*
X2016676Y1459750*
X2017813*
X2018381Y1460141*
X2018949Y1460922*
X2019233Y1461703*
X2019517Y1462875*
Y1464828*
X2019233Y1466000*
X2018949Y1466781*
X2018381Y1467563*
X2018381D02*
X2017813Y1467953D01*
X2016676*
X2022074D02*
Y1459750D01*
X2026051Y1467953D02*
X2022074Y1462484D01*
X2023494Y1464438D02*
X2026051Y1459750D01*
X2028608Y1467953D02*
Y1459750D01*
X2032585Y1467953D02*
Y1459750D01*
X2028608Y1464047D02*
X2032585D01*
X2037415Y1467953D02*
X2035142Y1459750D01*
X2037415Y1467953D02*
X2039688Y1459750D01*
X2035994Y1462484D02*
X2038835D01*
X2042244Y1467953D02*
X2044517Y1459750D01*
X2046790Y1467953D02*
X2044517Y1459750D01*
X2049347Y1467953D02*
Y1459750D01*
Y1467953D02*
X2053040D01*
X2049347Y1464047D02*
X2051619D01*
X2049347Y1459750D02*
X2053040D01*
X2055597Y1467953D02*
Y1459750D01*
Y1467953D02*
X2059574Y1459750D01*
Y1467953D02*
Y1459750D01*
X2068665Y1467953D02*
Y1459750D01*
Y1467953D02*
X2072642Y1459750D01*
Y1467953D02*
Y1459750D01*
X2077472Y1467953D02*
X2075199Y1459750D01*
X2077472Y1467953D02*
X2079744Y1459750D01*
X2076051Y1462484D02*
X2078892D01*
X2084290Y1467953D02*
Y1459750D01*
X2082301Y1467953D02*
X2086278D01*
X2088835D02*
Y1459750D01*
X2093097Y1467953D02*
X2092528Y1467563D01*
X2092528D02*
X2091960Y1466781D01*
X2091676Y1466000*
X2091392Y1464828*
Y1462875*
X2091676Y1461703*
X2091960Y1460922*
X2092528Y1460141*
X2093097Y1459750*
X2094233*
X2094801Y1460141*
X2095369Y1460922*
X2095653Y1461703*
X2095938Y1462875*
Y1464828*
X2095653Y1466000*
X2095369Y1466781*
X2094801Y1467563*
X2094801D02*
X2094233Y1467953D01*
X2093097*
X2098494D02*
Y1459750D01*
Y1467953D02*
X2102472Y1459750D01*
Y1467953D02*
Y1459750D01*
X2107301Y1467953D02*
X2105028Y1459750D01*
X2107301Y1467953D02*
X2109574Y1459750D01*
X2105881Y1462484D02*
X2108722D01*
X2112131Y1467953D02*
Y1459750D01*
X2115540*
X2124631Y1467953D02*
Y1459750D01*
X2128040*
X2132869Y1467953D02*
X2130597Y1459750D01*
X2132869Y1467953D02*
X2135142Y1459750D01*
X2131449Y1462484D02*
X2134290D01*
X2137699Y1467953D02*
Y1459750D01*
Y1467953D02*
X2140256D01*
X2141108Y1467563*
X2141108D02*
X2141392Y1467172D01*
X2141676Y1466391*
Y1465609*
X2141392Y1464828*
X2141108Y1464438*
X2141108D02*
X2140256Y1464047D01*
X2137699D02*
X2140256D01*
X2141108Y1463656*
X2141392Y1463266*
X2141676Y1462484*
Y1461313*
X2141676D02*
X2141392Y1460531D01*
X2141108Y1460141*
X2140256Y1459750*
X2137699*
X2145938Y1467953D02*
X2145369Y1467563D01*
X2145369D02*
X2144801Y1466781D01*
X2144517Y1466000*
X2144233Y1464828*
Y1462875*
X2144517Y1461703*
X2144801Y1460922*
X2145369Y1460141*
X2145938Y1459750*
X2147074*
X2147642Y1460141*
X2148210Y1460922*
X2148494Y1461703*
X2148778Y1462875*
Y1464828*
X2148494Y1466000*
X2148210Y1466781*
X2147642Y1467563*
X2147642D02*
X2147074Y1467953D01*
X2145938*
X2151335D02*
Y1459750D01*
Y1467953D02*
X2153892D01*
X2154744Y1467563*
X2154744D02*
X2155028Y1467172D01*
X2155313Y1466391*
Y1465609*
X2155028Y1464828*
X2154744Y1464438*
X2154744D02*
X2153892Y1464047D01*
X2151335*
X2153324D02*
X2155313Y1459750D01*
X2160142Y1467953D02*
X2157869Y1459750D01*
X2160142Y1467953D02*
X2162415Y1459750D01*
X2158722Y1462484D02*
X2161563D01*
X2166960Y1467953D02*
Y1459750D01*
X2164972Y1467953D02*
X2168949D01*
X2173210D02*
X2172642Y1467563D01*
X2172642D02*
X2172074Y1466781D01*
X2171790Y1466000*
X2171506Y1464828*
Y1462875*
X2171790Y1461703*
X2172074Y1460922*
X2172642Y1460141*
X2173210Y1459750*
X2174347*
X2174915Y1460141*
X2175483Y1460922*
X2175767Y1461703*
X2176051Y1462875*
Y1464828*
X2175767Y1466000*
X2175483Y1466781*
X2174915Y1467563*
X2174915D02*
X2174347Y1467953D01*
X2173210*
X2178608D02*
Y1459750D01*
Y1467953D02*
X2181165D01*
X2182017Y1467563*
X2182017D02*
X2182301Y1467172D01*
X2182585Y1466391*
Y1465609*
X2182301Y1464828*
X2182017Y1464438*
X2182017D02*
X2181165Y1464047D01*
X2178608*
X2180597D02*
X2182585Y1459750D01*
X2185142Y1467953D02*
X2187415Y1464047D01*
Y1459750*
X2189688Y1467953D02*
X2187415Y1464047D01*
X2108790Y1444453D02*
Y1436250D01*
X2113051Y1444453D02*
X2112483Y1444063D01*
X2112483D02*
X2111915Y1443281D01*
X2111631Y1442500*
X2111347Y1441328*
Y1439375*
X2111631Y1438203*
X2111915Y1437422*
X2112483Y1436641*
X2113051Y1436250*
X2114188*
X2114188D02*
X2114756Y1436641D01*
X2115324Y1437422*
X2115608Y1438203*
X2115892Y1439375*
Y1441328*
X2115608Y1442500*
X2115324Y1443281*
X2114756Y1444063*
X2114756D02*
X2114188Y1444453D01*
X2114188D02*
X2113051D01*
X2118449Y1439766D02*
X2123563D01*
X2126119Y1442891D02*
X2126688Y1443281D01*
X2126688D02*
X2127540Y1444453D01*
Y1436250*
X2134074Y1444453D02*
X2131233Y1436250D01*
X2130097Y1444453D02*
X2134074D01*
X2137199D02*
X2140324D01*
X2138619Y1441328*
X2139472*
X2140040Y1440938*
X2140040D02*
X2140324Y1440547D01*
X2140608Y1439375*
Y1438594*
X2140324Y1437422*
X2139756Y1436641*
X2138903Y1436250*
X2138051*
X2137199Y1436641*
X2136915Y1437031*
X2136631Y1437813*
X2146858Y1444453D02*
X2144017D01*
X2143733Y1440938*
X2143733D02*
X2144017Y1441328D01*
X2144869Y1441719*
X2145722*
X2146574Y1441328*
X2147142Y1440547*
X2147426Y1439375*
X2147142Y1438594*
X2146858Y1437422*
X2146290Y1436641*
X2145438Y1436250*
X2145438D02*
X2144585D01*
X2143733Y1436641*
X2143449Y1437031*
X2143165Y1437813*
X2149983Y1439766D02*
X2155097D01*
X2157653Y1442891D02*
X2158222Y1443281D01*
X2159074Y1444453*
Y1436250*
X2168165Y1444453D02*
Y1436250D01*
Y1444453D02*
X2170722D01*
X2171574Y1444063*
X2171574D02*
X2171858Y1443672D01*
X2172142Y1442891*
Y1442109*
X2171858Y1441328*
X2171574Y1440938*
X2171574D02*
X2170722Y1440547D01*
X2168165*
X2170153D02*
X2172142Y1436250D01*
X2174699Y1444453D02*
Y1436250D01*
Y1444453D02*
X2178392D01*
X2174699Y1440547D02*
X2176972D01*
X2174699Y1436250D02*
X2178392D01*
X2180949Y1444453D02*
X2183222Y1436250D01*
X2185494Y1444453D02*
X2183222Y1436250D01*
X2194585Y1439766D02*
X2199699D01*
X1995375Y1443953D02*
X1993102Y1435750D01*
X1995375Y1443953D02*
X1997648Y1435750D01*
X1993955Y1438484D02*
X1996795D01*
X2000205Y1443953D02*
Y1435750D01*
X2004182Y1443953D02*
X2000205Y1438484D01*
X2001625Y1440438D02*
X2004182Y1435750D01*
X2011852Y1445516D02*
X2006739Y1433016D01*
X2014409Y1443953D02*
X2015830Y1435750D01*
X2017250Y1443953D02*
X2015830Y1435750D01*
X2017250Y1443953D02*
X2018670Y1435750D01*
X2020091Y1443953D02*
X2018670Y1435750D01*
X2023784Y1443953D02*
X2024068Y1443563D01*
X2024068D02*
X2024352Y1443953D01*
X2024068Y1444344*
X2023784Y1443953*
X2024068Y1441219D02*
Y1434578D01*
X2023784Y1433406*
X2023216Y1433016*
X2022648*
X2029182Y1443953D02*
X2026909Y1435750D01*
X2029182Y1443953D02*
X2031455Y1435750D01*
X2027761Y1438484D02*
X2030602D01*
X2048784Y1443953D02*
X2047932Y1443563D01*
X2047932D02*
X2047364Y1442391D01*
X2047080Y1440438*
X2047080D02*
Y1439266D01*
X2047364Y1437313*
X2047364D02*
X2047932Y1436141D01*
X2048784Y1435750*
X2049352*
X2050205Y1436141*
X2050773Y1437313*
X2050773D02*
X2051057Y1439266D01*
Y1440438*
X2051057D02*
X2050773Y1442391D01*
X2050205Y1443563*
X2050205D02*
X2049352Y1443953D01*
X2048784*
X2057307Y1441219D02*
X2057023Y1440047D01*
X2056455Y1439266*
X2055602Y1438875*
X2055318*
X2054466Y1439266*
X2053898Y1440047*
X2053614Y1441219*
Y1441609*
X2053898Y1442781*
X2054466Y1443563*
X2054466D02*
X2055318Y1443953D01*
X2055602*
X2056455Y1443563*
X2056455D02*
X2057023Y1442781D01*
X2057307Y1441219*
Y1439266*
X2057023Y1437313*
X2057023D02*
X2056455Y1436141D01*
X2055602Y1435750*
X2055034*
X2054182Y1436141*
X2053898Y1436922*
X2059864Y1439266D02*
X2064977D01*
X2067534Y1442391D02*
X2068102Y1442781D01*
X2068955Y1443953*
Y1435750*
X2075205Y1441219D02*
X2074920Y1440047D01*
X2074352Y1439266*
X2073500Y1438875*
X2073216*
X2072364Y1439266*
X2071795Y1440047*
X2071511Y1441219*
Y1441609*
X2071795Y1442781*
X2072364Y1443563*
X2072364D02*
X2073216Y1443953D01*
X2073500*
X2074352Y1443563*
X2074352D02*
X2074920Y1442781D01*
X2075205Y1441219*
Y1439266*
X2074920Y1437313*
X2074920D02*
X2074352Y1436141D01*
X2073500Y1435750*
X2072932*
X2072080Y1436141*
X2071795Y1436922*
X2077761Y1439266D02*
X2082875D01*
X2085432Y1442391D02*
X2086000Y1442781D01*
X2086852Y1443953*
Y1435750*
X2090830Y1443953D02*
X2089977Y1443563D01*
X2089977D02*
X2089693Y1442781D01*
Y1442000*
X2089977Y1441219*
X2090545Y1440828*
X2091682Y1440438*
X2091682D02*
X2092534Y1440047D01*
X2093102Y1439266*
X2093386Y1438484*
Y1437313*
X2093386D02*
X2093102Y1436531D01*
X2092818Y1436141*
X2091966Y1435750*
X2090830*
X2089977Y1436141*
X2089693Y1436531*
X2089409Y1437313*
X2089409D02*
Y1438484D01*
X2089693Y1439266*
X2090261Y1440047*
X2091114Y1440438*
X2091114D02*
X2092250Y1440828D01*
X2092818Y1441219*
X2093102Y1442000*
Y1442781*
X2092818Y1443563*
X2092818D02*
X2091966Y1443953D01*
X2090830*
X2005528Y1430453D02*
Y1422250D01*
X2008938*
X2013767Y1430453D02*
X2011494Y1422250D01*
X2013767Y1430453D02*
X2016040Y1422250D01*
X2012347Y1424984D02*
X2015188D01*
X2018597Y1430453D02*
X2020869Y1426547D01*
Y1422250*
X2023142Y1430453D02*
X2020869Y1426547D01*
X2025699Y1430453D02*
Y1422250D01*
Y1430453D02*
X2029392D01*
X2025699Y1426547D02*
X2027972D01*
X2025699Y1422250D02*
X2029392D01*
X2031949Y1430453D02*
Y1422250D01*
Y1430453D02*
X2034506D01*
X2035358Y1430063*
X2035358D02*
X2035642Y1429672D01*
X2035926Y1428891*
Y1428109*
X2035642Y1427328*
X2035358Y1426938*
X2035358D02*
X2034506Y1426547D01*
X2031949*
X2033938D02*
X2035926Y1422250D01*
X2045017Y1428891D02*
X2045585Y1429281D01*
X2046438Y1430453*
Y1422250*
X2055528Y1425766D02*
X2060642D01*
X2071722Y1430453D02*
Y1422250D01*
X2069733Y1430453D02*
X2073710D01*
X2077972D02*
X2077403Y1430063D01*
X2077403D02*
X2076835Y1429281D01*
X2076551Y1428500*
X2076267Y1427328*
Y1425375*
X2076551Y1424203*
X2076835Y1423422*
X2077403Y1422641*
X2077972Y1422250*
X2079108*
X2079676Y1422641*
X2080244Y1423422*
X2080528Y1424203*
X2080813Y1425375*
Y1427328*
X2080528Y1428500*
X2080244Y1429281*
X2079676Y1430063*
X2079676D02*
X2079108Y1430453D01*
X2077972*
X2083369D02*
Y1422250D01*
Y1430453D02*
X2085926D01*
X2086778Y1430063*
X2086778D02*
X2087063Y1429672D01*
X2087347Y1428891*
Y1427719*
X2087063Y1426938*
X2087063D02*
X2086778Y1426547D01*
X2085926Y1426156*
X2083369*
X2096438Y1425766D02*
X2101551D01*
X2110642Y1430453D02*
Y1422250D01*
Y1430453D02*
X2113199D01*
X2114051Y1430063*
X2114051D02*
X2114335Y1429672D01*
X2114619Y1428891*
Y1427719*
X2114335Y1426938*
X2114335D02*
X2114051Y1426547D01*
X2113199Y1426156*
X2110642*
X2117176Y1430453D02*
Y1422250D01*
Y1430453D02*
X2119733D01*
X2120585Y1430063*
X2120585D02*
X2120869Y1429672D01*
X2121153Y1428891*
Y1428109*
X2120869Y1427328*
X2120585Y1426938*
X2120585D02*
X2119733Y1426547D01*
X2117176*
X2119165D02*
X2121153Y1422250D01*
X2123710Y1430453D02*
Y1422250D01*
X2126267Y1430453D02*
Y1422250D01*
Y1430453D02*
X2128540Y1422250D01*
X2130813Y1430453D02*
X2128540Y1422250D01*
X2130813Y1430453D02*
Y1422250D01*
X2135642Y1430453D02*
X2133369Y1422250D01*
X2135642Y1430453D02*
X2137915Y1422250D01*
X2134222Y1424984D02*
X2137063D01*
X2140472Y1430453D02*
Y1422250D01*
Y1430453D02*
X2143028D01*
X2143881Y1430063*
X2143881D02*
X2144165Y1429672D01*
X2144449Y1428891*
Y1428109*
X2144165Y1427328*
X2143881Y1426938*
X2143881D02*
X2143028Y1426547D01*
X2140472*
X2142460D02*
X2144449Y1422250D01*
X2147006Y1430453D02*
X2149278Y1426547D01*
Y1422250*
X2151551Y1430453D02*
X2149278Y1426547D01*
X2164619Y1429281D02*
X2164051Y1430063D01*
X2164051D02*
X2163199Y1430453D01*
X2162063*
X2161210Y1430063*
X2161210D02*
X2160642Y1429281D01*
Y1428500*
X2160926Y1427719*
X2161210Y1427328*
X2161778Y1426938*
X2161778D02*
X2163483Y1426156D01*
X2164051Y1425766*
X2164335Y1425375*
X2164619Y1424594*
Y1423422*
X2164051Y1422641*
X2163199Y1422250*
X2162063*
X2161210Y1422641*
X2160642Y1423422*
X2167176Y1430453D02*
Y1422250D01*
X2169733Y1430453D02*
Y1422250D01*
Y1430453D02*
X2171722D01*
X2172574Y1430063*
X2172574D02*
X2173142Y1429281D01*
X2173426Y1428500*
X2173710Y1427328*
Y1425375*
X2173426Y1424203*
X2173142Y1423422*
X2172574Y1422641*
X2171722Y1422250*
X2169733*
X2176267Y1430453D02*
Y1422250D01*
Y1430453D02*
X2179960D01*
X2176267Y1426547D02*
X2178540D01*
X2176267Y1422250D02*
X2179960D01*
X2047290Y1429281D02*
X2046722Y1430063D01*
X2046722D02*
X2045869Y1430453D01*
X2044733*
X2043881Y1430063*
X2043881D02*
X2043313Y1429281D01*
X2043313D02*
Y1428500D01*
X2043313D02*
X2043597Y1427719D01*
X2043881Y1427328*
X2044449Y1426938*
X2044449D02*
X2046153Y1426156D01*
X2046722Y1425766*
X2047006Y1425375*
X2047290Y1424594*
Y1423422*
X2046722Y1422641*
X2045869Y1422250*
X2044733*
X2043881Y1422641*
X2043313Y1423422*
X2049847Y1430453D02*
Y1422250D01*
X2052403Y1430453D02*
Y1422250D01*
X2055813*
X2058369Y1430453D02*
Y1422250D01*
X2062347Y1430453D02*
X2058369Y1424984D01*
X2059790Y1426938D02*
X2062347Y1422250D01*
X2068881Y1429281D02*
X2068313Y1430063D01*
X2068313D02*
X2067460Y1430453D01*
X2066324*
X2065472Y1430063*
X2065472D02*
X2064903Y1429281D01*
Y1428500*
X2065188Y1427719*
X2065188D02*
X2065472Y1427328D01*
X2066040Y1426938*
X2066040D02*
X2067744Y1426156D01*
X2068313Y1425766*
X2068313D02*
X2068597Y1425375D01*
X2068881Y1424594*
Y1423422*
X2068313Y1422641*
X2068313D02*
X2067460Y1422250D01*
X2066324*
X2065472Y1422641*
X2064903Y1423422*
X2075699Y1428500D02*
X2075415Y1429281D01*
X2074847Y1430063*
X2074847D02*
X2074278Y1430453D01*
X2073142*
X2072574Y1430063*
X2072574D02*
X2072006Y1429281D01*
X2071722Y1428500*
X2071438Y1427328*
X2071438D02*
Y1425375D01*
X2071438D02*
X2071722Y1424203D01*
X2072006Y1423422*
X2072574Y1422641*
X2073142Y1422250*
X2074278*
X2074847Y1422641*
X2075415Y1423422*
X2075699Y1424203*
X2078256Y1430453D02*
Y1422250D01*
Y1430453D02*
X2080813D01*
X2080813D02*
X2081665Y1430063D01*
X2081665D02*
X2081949Y1429672D01*
X2082233Y1428891*
Y1428109*
X2081949Y1427328*
X2081665Y1426938*
X2081665D02*
X2080813Y1426547D01*
X2080813D02*
X2078256D01*
X2080244D02*
X2082233Y1422250D01*
X2084790Y1430453D02*
Y1422250D01*
Y1430453D02*
X2088483D01*
X2084790Y1426547D02*
X2087063D01*
X2084790Y1422250D02*
X2088483D01*
X2091040Y1430453D02*
Y1422250D01*
Y1430453D02*
X2094733D01*
X2091040Y1426547D02*
X2093313D01*
X2091040Y1422250D02*
X2094733D01*
X2097290Y1430453D02*
Y1422250D01*
Y1430453D02*
X2101267Y1422250D01*
Y1430453D02*
Y1422250D01*
X2110358Y1425766D02*
X2115472D01*
X2126551Y1430453D02*
Y1422250D01*
X2124563Y1430453D02*
X2128540D01*
X2132801D02*
X2132233Y1430063D01*
X2132233D02*
X2131665Y1429281D01*
X2131381Y1428500*
X2131097Y1427328*
Y1425375*
X2131381Y1424203*
X2131665Y1423422*
X2132233Y1422641*
X2132801Y1422250*
X2133938*
X2133938D02*
X2134506Y1422641D01*
X2135074Y1423422*
X2135358Y1424203*
X2135642Y1425375*
Y1427328*
X2135358Y1428500*
X2135074Y1429281*
X2134506Y1430063*
X2134506D02*
X2133938Y1430453D01*
X2133938D02*
X2132801D01*
X2138199D02*
Y1422250D01*
Y1430453D02*
X2140756D01*
X2141608Y1430063*
X2141608D02*
X2141892Y1429672D01*
X2142176Y1428891*
Y1427719*
X2141892Y1426938*
X2141892D02*
X2141608Y1426547D01*
X2140756Y1426156*
X2138199*
X2049278Y1430453D02*
X2047006Y1422250D01*
X2049278Y1430453D02*
X2051551Y1422250D01*
X2047858Y1424984D02*
X2050699D01*
X2058085Y1429281D02*
X2057517Y1430063D01*
X2057517D02*
X2056665Y1430453D01*
X2055528*
X2054676Y1430063*
X2054676D02*
X2054108Y1429281D01*
Y1428500*
X2054392Y1427719*
X2054676Y1427328*
X2055244Y1426938*
X2055244D02*
X2056949Y1426156D01*
X2057517Y1425766*
X2057801Y1425375*
X2058085Y1424594*
Y1423422*
X2057517Y1422641*
X2056665Y1422250*
X2055528*
X2054676Y1422641*
X2054108Y1423422*
X2064619Y1429281D02*
X2064051Y1430063D01*
X2064051D02*
X2063199Y1430453D01*
X2062063*
X2061210Y1430063*
X2061210D02*
X2060642Y1429281D01*
Y1428500*
X2060926Y1427719*
X2061210Y1427328*
X2061778Y1426938*
X2061778D02*
X2063483Y1426156D01*
X2064051Y1425766*
X2064335Y1425375*
X2064619Y1424594*
Y1423422*
X2064051Y1422641*
X2063199Y1422250*
X2062063*
X2061210Y1422641*
X2060642Y1423422*
X2067176Y1430453D02*
Y1422250D01*
Y1430453D02*
X2070869D01*
X2067176Y1426547D02*
X2069449D01*
X2067176Y1422250D02*
X2070869D01*
X2073426Y1430453D02*
Y1422250D01*
Y1430453D02*
X2075699Y1422250D01*
X2077972Y1430453D02*
X2075699Y1422250D01*
X2077972Y1430453D02*
Y1422250D01*
X2080528Y1430453D02*
Y1422250D01*
Y1430453D02*
X2083085D01*
X2083938Y1430063*
X2083938D02*
X2084222Y1429672D01*
X2084506Y1428891*
Y1428109*
X2084222Y1427328*
X2083938Y1426938*
X2083938D02*
X2083085Y1426547D01*
X2080528D02*
X2083085D01*
X2083938Y1426156*
X2084222Y1425766*
X2084506Y1424984*
Y1423813*
X2084506D02*
X2084222Y1423031D01*
X2083938Y1422641*
X2083085Y1422250*
X2080528*
X2087063Y1430453D02*
Y1422250D01*
X2090472*
X2093028Y1430453D02*
X2095301Y1426547D01*
Y1422250*
X2097574Y1430453D02*
X2095301Y1426547D01*
X2106665Y1425766D02*
X2111778D01*
X2122858Y1430453D02*
Y1422250D01*
X2120869Y1430453D02*
X2124847D01*
X2129108D02*
X2128540Y1430063D01*
X2128540D02*
X2127972Y1429281D01*
X2127688Y1428500*
X2127403Y1427328*
Y1425375*
X2127688Y1424203*
X2127972Y1423422*
X2128540Y1422641*
X2129108Y1422250*
X2130244*
X2130813Y1422641*
X2131381Y1423422*
X2131665Y1424203*
X2131949Y1425375*
Y1427328*
X2131665Y1428500*
X2131381Y1429281*
X2130813Y1430063*
X2130813D02*
X2130244Y1430453D01*
X2129108*
X2134506D02*
Y1422250D01*
Y1430453D02*
X2137063D01*
X2137915Y1430063*
X2137915D02*
X2138199Y1429672D01*
X2138483Y1428891*
Y1427719*
X2138199Y1426938*
X2138199D02*
X2137915Y1426547D01*
X2137063Y1426156*
X2134506*
X1987705Y1455953D02*
Y1447750D01*
Y1455953D02*
X1989693D01*
X1990545Y1455563*
X1990545D02*
X1991114Y1454781D01*
X1991398Y1454000*
X1991682Y1452828*
Y1450875*
X1991398Y1449703*
X1991114Y1448922*
X1990545Y1448141*
X1989693Y1447750*
X1987705*
X1994239Y1455953D02*
Y1447750D01*
Y1455953D02*
X1997932D01*
X1994239Y1452047D02*
X1996511D01*
X1994239Y1447750D02*
X1997932D01*
X2002477Y1455953D02*
Y1447750D01*
X2000489Y1455953D02*
X2004466D01*
X2007023D02*
Y1447750D01*
Y1455953D02*
X2010716D01*
X2007023Y1452047D02*
X2009295D01*
X2007023Y1447750D02*
X2010716D01*
X2017534Y1454000D02*
X2017250Y1454781D01*
X2016682Y1455563*
X2016682D02*
X2016114Y1455953D01*
X2014977*
X2014409Y1455563*
X2014409D02*
X2013841Y1454781D01*
X2013557Y1454000*
X2013273Y1452828*
Y1450875*
X2013557Y1449703*
X2013841Y1448922*
X2014409Y1448141*
X2014977Y1447750*
X2016114*
X2016682Y1448141*
X2017250Y1448922*
X2017534Y1449703*
X2022080Y1455953D02*
Y1447750D01*
X2020091Y1455953D02*
X2024068D01*
X2028330D02*
X2027761Y1455563D01*
X2027761D02*
X2027193Y1454781D01*
X2026909Y1454000*
X2026625Y1452828*
Y1450875*
X2026909Y1449703*
X2027193Y1448922*
X2027761Y1448141*
X2028330Y1447750*
X2029466*
X2030034Y1448141*
X2030602Y1448922*
X2030886Y1449703*
X2031170Y1450875*
Y1452828*
X2030886Y1454000*
X2030602Y1454781*
X2030034Y1455563*
X2030034D02*
X2029466Y1455953D01*
X2028330*
X2033727D02*
Y1447750D01*
Y1455953D02*
X2036284D01*
X2037136Y1455563*
X2037136D02*
X2037420Y1455172D01*
X2037705Y1454391*
Y1453609*
X2037420Y1452828*
X2037136Y1452438*
X2037136D02*
X2036284Y1452047D01*
X2033727*
X2035716D02*
X2037705Y1447750D01*
X2046795Y1455953D02*
Y1447750D01*
Y1455953D02*
X2049352D01*
X2050205Y1455563*
X2050205D02*
X2050489Y1455172D01*
X2050773Y1454391*
Y1453609*
X2050489Y1452828*
X2050205Y1452438*
X2050205D02*
X2049352Y1452047D01*
X2046795D02*
X2049352D01*
X2050205Y1451656*
X2050489Y1451266*
X2050773Y1450484*
Y1449313*
X2050773D02*
X2050489Y1448531D01*
X2050205Y1448141*
X2049352Y1447750*
X2046795*
X2053330Y1455953D02*
Y1447750D01*
X2058159Y1455953D02*
X2055886Y1447750D01*
X2058159Y1455953D02*
X2060432Y1447750D01*
X2056739Y1450484D02*
X2059580D01*
X2066966Y1454781D02*
X2066398Y1455563D01*
X2066398D02*
X2065545Y1455953D01*
X2064409*
X2063557Y1455563*
X2063557D02*
X2062989Y1454781D01*
Y1454000*
X2063273Y1453219*
X2063557Y1452828*
X2064125Y1452438*
X2064125D02*
X2065830Y1451656D01*
X2066398Y1451266*
X2066682Y1450875*
X2066966Y1450094*
Y1448922*
X2066398Y1448141*
X2065545Y1447750*
X2064409*
X2063557Y1448141*
X2062989Y1448922*
X2076057Y1455953D02*
Y1447750D01*
Y1455953D02*
X2078045D01*
X2078898Y1455563*
X2078898D02*
X2079466Y1454781D01*
X2079750Y1454000*
X2080034Y1452828*
Y1450875*
X2079750Y1449703*
X2079466Y1448922*
X2078898Y1448141*
X2078045Y1447750*
X2076057*
X2082591Y1455953D02*
Y1447750D01*
Y1455953D02*
X2085148D01*
X2086000Y1455563*
X2086000D02*
X2086284Y1455172D01*
X2086568Y1454391*
Y1453609*
X2086284Y1452828*
X2086000Y1452438*
X2086000D02*
X2085148Y1452047D01*
X2082591*
X2084580D02*
X2086568Y1447750D01*
X2089125Y1455953D02*
Y1447750D01*
X2091682Y1455953D02*
X2093955Y1447750D01*
X2096227Y1455953D02*
X2093955Y1447750D01*
X2098784Y1455953D02*
Y1447750D01*
Y1455953D02*
X2102477D01*
X2098784Y1452047D02*
X2101057D01*
X2098784Y1447750D02*
X2102477D01*
X2105034Y1455953D02*
Y1447750D01*
Y1455953D02*
X2107591D01*
X2108443Y1455563*
X2108443D02*
X2108727Y1455172D01*
X2109011Y1454391*
Y1453609*
X2108727Y1452828*
X2108443Y1452438*
X2108443D02*
X2107591Y1452047D01*
X2105034*
X2107023D02*
X2109011Y1447750D01*
X2118102Y1455953D02*
Y1447750D01*
Y1455953D02*
X2120659D01*
X2121511Y1455563*
X2121511D02*
X2121795Y1455172D01*
X2122080Y1454391*
Y1453219*
X2121795Y1452438*
X2121795D02*
X2121511Y1452047D01*
X2120659Y1451656*
X2118102*
X2124636Y1455953D02*
Y1447750D01*
X2131455Y1454000D02*
X2131170Y1454781D01*
X2130602Y1455563*
X2130602D02*
X2130034Y1455953D01*
X2128898*
X2128330Y1455563*
X2128330D02*
X2127761Y1454781D01*
X2127477Y1454000*
X2127193Y1452828*
Y1450875*
X2127477Y1449703*
X2127761Y1448922*
X2128330Y1448141*
X2128898Y1447750*
X2130034*
X2130602Y1448141*
X2131170Y1448922*
X2131455Y1449703*
Y1450875*
X2130034D02*
X2131455D01*
X2138273Y1454000D02*
X2137989Y1454781D01*
X2137420Y1455563*
X2137420D02*
X2136852Y1455953D01*
X2135716*
X2135148Y1455563*
X2135148D02*
X2134580Y1454781D01*
X2134295Y1454000*
X2134011Y1452828*
Y1450875*
X2134295Y1449703*
X2134580Y1448922*
X2135148Y1448141*
X2135716Y1447750*
X2136852*
X2137420Y1448141*
X2137989Y1448922*
X2138273Y1449703*
Y1450875*
X2136852D02*
X2138273D01*
X2140830Y1455953D02*
X2143102Y1452047D01*
Y1447750*
X2145375Y1455953D02*
X2143102Y1452047D01*
X2147932Y1455953D02*
Y1447750D01*
Y1455953D02*
X2150489D01*
X2151341Y1455563*
X2151341D02*
X2151625Y1455172D01*
X2151909Y1454391*
Y1453609*
X2151625Y1452828*
X2151341Y1452438*
X2151341D02*
X2150489Y1452047D01*
X2147932D02*
X2150489D01*
X2151341Y1451656*
X2151625Y1451266*
X2151909Y1450484*
Y1449313*
X2151909D02*
X2151625Y1448531D01*
X2151341Y1448141*
X2150489Y1447750*
X2147932*
X2156739Y1455953D02*
X2154466Y1447750D01*
X2156739Y1455953D02*
X2159011Y1447750D01*
X2155318Y1450484D02*
X2158159D01*
X2165830Y1454000D02*
X2165545Y1454781D01*
X2164977Y1455563*
X2164977D02*
X2164409Y1455953D01*
X2163273*
X2162705Y1455563*
X2162705D02*
X2162136Y1454781D01*
X2161852Y1454000*
X2161568Y1452828*
Y1450875*
X2161852Y1449703*
X2162136Y1448922*
X2162705Y1448141*
X2163273Y1447750*
X2164409*
X2164977Y1448141*
X2165545Y1448922*
X2165830Y1449703*
X2168386Y1455953D02*
Y1447750D01*
X2172364Y1455953D02*
X2168386Y1450484D01*
X2169807Y1452438D02*
X2172364Y1447750D01*
X2181455Y1455953D02*
Y1447750D01*
Y1455953D02*
X2184011D01*
X2184864Y1455563*
X2184864D02*
X2185148Y1455172D01*
X2185432Y1454391*
Y1453219*
X2185148Y1452438*
X2185148D02*
X2184864Y1452047D01*
X2184011Y1451656*
X2181455*
X2192250Y1454000D02*
X2191966Y1454781D01*
X2191398Y1455563*
X2191398D02*
X2190830Y1455953D01*
X2189693*
X2189125Y1455563*
X2189125D02*
X2188557Y1454781D01*
X2188273Y1454000*
X2187989Y1452828*
Y1450875*
X2188273Y1449703*
X2188557Y1448922*
X2189125Y1448141*
X2189693Y1447750*
X2190830*
X2191398Y1448141*
X2191966Y1448922*
X2192250Y1449703*
X2194807Y1455953D02*
Y1447750D01*
Y1455953D02*
X2197364D01*
X2198216Y1455563*
X2198216D02*
X2198500Y1455172D01*
X2198784Y1454391*
Y1453609*
X2198500Y1452828*
X2198216Y1452438*
X2198216D02*
X2197364Y1452047D01*
X2194807D02*
X2197364D01*
X2198216Y1451656*
X2198500Y1451266*
X2198784Y1450484*
Y1449313*
X2198784D02*
X2198500Y1448531D01*
X2198216Y1448141*
X2197364Y1447750*
X2194807*
X1805483Y1668570D02*
X1808608D01*
X1806903Y1665445*
X1807756*
X1808324Y1665055*
X1808608Y1664664*
X1808892Y1663492*
Y1662711*
X1808608Y1661539*
X1808040Y1660758*
X1807188Y1660367*
X1807188D02*
X1806335D01*
X1805483Y1660758*
X1805199Y1661148*
X1804915Y1661930*
X1811449Y1668570D02*
X1815426Y1660367D01*
Y1668570D02*
X1811449Y1660367D01*
X1824517Y1663883D02*
X1829631D01*
X1839290Y1668570D02*
X1842415D01*
X1840710Y1665445*
X1841563*
X1841563D02*
X1842131Y1665055D01*
X1842415Y1664664*
X1842699Y1663492*
Y1662711*
X1842415Y1661539*
X1841847Y1660758*
X1840994Y1660367*
X1840142*
X1839290Y1660758*
X1839006Y1661148*
X1838722Y1661930*
X1845256Y1668570D02*
Y1660367D01*
Y1668570D02*
X1847528Y1660367D01*
X1849801Y1668570D02*
X1847528Y1660367D01*
X1849801Y1668570D02*
Y1660367D01*
X1858892Y1668570D02*
Y1660367D01*
Y1668570D02*
X1861449D01*
X1862301Y1668180*
X1862585Y1667789*
X1862869Y1667008*
Y1666227*
X1862585Y1665445*
X1862301Y1665055*
X1861449Y1664664*
X1858892D02*
X1861449D01*
X1862301Y1664273*
X1862585Y1663883*
X1862869Y1663102*
Y1661930*
X1862585Y1661148*
X1862301Y1660758*
X1861449Y1660367*
X1858892*
X1865426Y1668570D02*
Y1662711D01*
X1865710Y1661539*
X1866278Y1660758*
X1867131Y1660367*
X1867699*
X1868551Y1660758*
X1869119Y1661539*
X1869403Y1662711*
Y1668570*
X1871960D02*
Y1660367D01*
Y1668570D02*
X1874233Y1660367D01*
X1876506Y1668570D02*
X1874233Y1660367D01*
X1876506Y1668570D02*
Y1660367D01*
X1879063Y1668570D02*
Y1660367D01*
Y1668570D02*
X1881619D01*
X1882472Y1668180*
X1882756Y1667789*
X1883040Y1667008*
Y1665836*
X1882756Y1665055*
X1882472Y1664664*
X1881619Y1664273*
X1879063*
X1887301Y1668570D02*
X1886733Y1668180D01*
X1886165Y1667398*
X1885881Y1666617*
X1885597Y1665445*
Y1663492*
X1885881Y1662320*
X1886165Y1661539*
X1886733Y1660758*
X1887301Y1660367*
X1888438*
X1888438D02*
X1889006Y1660758D01*
X1889574Y1661539*
X1889858Y1662320*
X1890142Y1663492*
Y1665445*
X1889858Y1666617*
X1889574Y1667398*
X1889006Y1668180*
X1888438Y1668570*
X1888438D02*
X1887301D01*
X1892699D02*
Y1660367D01*
Y1668570D02*
X1896676Y1660367D01*
Y1668570D02*
Y1660367D01*
X1801926Y1655398D02*
X1801358Y1656180D01*
X1800506Y1656570*
X1799369*
X1798517Y1656180*
X1797949Y1655398*
Y1654617*
X1798233Y1653836*
X1798517Y1653445*
X1799085Y1653055*
X1800790Y1652273*
X1801358Y1651883*
X1801642Y1651492*
X1801926Y1650711*
Y1649539*
X1801358Y1648758*
X1800506Y1648367*
X1799369*
X1798517Y1648758*
X1797949Y1649539*
X1807324Y1656570D02*
Y1650320D01*
X1807040Y1649148*
X1806756Y1648758*
X1806188Y1648367*
X1806188D02*
X1805619D01*
X1805051Y1648758*
X1804767Y1649148*
X1804483Y1650320*
Y1651102*
X1813574Y1656570D02*
X1810733D01*
X1810449Y1653055*
X1810733Y1653445*
X1811585Y1653836*
X1812438*
X1812438D02*
X1813290Y1653445D01*
X1813858Y1652664*
X1814142Y1651492*
X1813858Y1650711*
X1813574Y1649539*
X1813006Y1648758*
X1812153Y1648367*
X1811301*
X1810449Y1648758*
X1810165Y1649148*
X1809881Y1649930*
X1818403Y1656570D02*
X1817551Y1656180D01*
X1816983Y1655008*
X1816699Y1653055*
Y1651883*
X1816983Y1649930*
X1817551Y1648758*
X1818403Y1648367*
X1818972*
X1819824Y1648758*
X1820392Y1649930*
X1820676Y1651883*
Y1653055*
X1820392Y1655008*
X1819824Y1656180*
X1818972Y1656570*
X1818403*
X1827210D02*
X1824369Y1648367D01*
X1823233Y1656570D02*
X1827210D01*
X1833176Y1655398D02*
X1832892Y1656180D01*
X1832040Y1656570*
X1831472*
X1830619Y1656180*
X1830051Y1655008*
X1829767Y1653055*
Y1651102*
X1830051Y1649539*
X1830619Y1648758*
X1831472Y1648367*
X1831756*
X1832608Y1648758*
X1833176Y1649539*
X1833460Y1650711*
Y1651102*
X1833176Y1652273*
X1832608Y1653055*
X1831756Y1653445*
X1831472*
X1830619Y1653055*
X1830051Y1652273*
X1829767Y1651102*
X1843972Y1653836D02*
X1843403Y1653445D01*
X1842835Y1652664*
X1842551Y1651492*
Y1650711*
X1842835Y1649539*
X1843403Y1648758*
X1843972Y1648367*
X1844824*
X1845392Y1648758*
X1845960Y1649539*
X1846244Y1650711*
Y1651492*
X1845960Y1652664*
X1845392Y1653445*
X1844824Y1653836*
X1843972*
X1848801D02*
Y1648367D01*
Y1651492D02*
X1849085Y1652664D01*
X1849653Y1653445*
X1850222Y1653836*
X1851074*
X1864142Y1655398D02*
X1863574Y1656180D01*
X1862722Y1656570*
X1861585*
X1860733Y1656180*
X1860165Y1655398*
Y1654617*
X1860449Y1653836*
X1860733Y1653445*
X1861301Y1653055*
X1863006Y1652273*
X1863574Y1651883*
X1863858Y1651492*
X1864142Y1650711*
Y1649539*
X1863574Y1648758*
X1862722Y1648367*
X1861585*
X1860733Y1648758*
X1860165Y1649539*
X1869540Y1656570D02*
Y1650320D01*
X1869256Y1649148*
X1868972Y1648758*
X1868403Y1648367*
X1867835*
X1867267Y1648758*
X1866983Y1649148*
X1866699Y1650320*
Y1651102*
X1875790Y1656570D02*
X1872949D01*
X1872665Y1653055*
X1872949Y1653445*
X1873801Y1653836*
X1874653*
X1875506Y1653445*
X1876074Y1652664*
X1876358Y1651492*
X1876074Y1650711*
X1875790Y1649539*
X1875222Y1648758*
X1874369Y1648367*
X1873517*
X1872665Y1648758*
X1872381Y1649148*
X1872097Y1649930*
X1879483Y1656570D02*
X1882608D01*
X1880903Y1653445*
X1881756*
X1882324Y1653055*
X1882608Y1652664*
X1882892Y1651492*
Y1650711*
X1882608Y1649539*
X1882040Y1648758*
X1881188Y1648367*
X1881188D02*
X1880335D01*
X1879483Y1648758*
X1879199Y1649148*
X1878915Y1649930*
X1889426Y1656570D02*
X1886585Y1648367D01*
X1885449Y1656570D02*
X1889426D01*
X1895392Y1655398D02*
X1895108Y1656180D01*
X1894256Y1656570*
X1893688*
X1893688D02*
X1892835Y1656180D01*
X1892267Y1655008*
X1891983Y1653055*
Y1651102*
X1892267Y1649539*
X1892835Y1648758*
X1893688Y1648367*
X1893688D02*
X1893972D01*
X1894824Y1648758*
X1895392Y1649539*
X1895676Y1650711*
Y1651102*
X1895392Y1652273*
X1894824Y1653055*
X1893972Y1653445*
X1893688*
X1893688D02*
X1892835Y1653055D01*
X1892267Y1652273*
X1891983Y1651102*
X1819108Y1641336D02*
X1818540Y1640945D01*
X1817972Y1640164*
X1817688Y1638992*
X1817688D02*
Y1638211D01*
X1817688D02*
X1817972Y1637039D01*
X1818540Y1636258*
X1819108Y1635867*
X1819960*
X1820528Y1636258*
X1821097Y1637039*
X1821381Y1638211*
Y1638992*
X1821097Y1640164*
X1820528Y1640945*
X1819960Y1641336*
X1819108*
X1823938D02*
Y1635867D01*
Y1638992D02*
X1824222Y1640164D01*
X1824790Y1640945*
X1825358Y1641336*
X1826210*
X1835301Y1644070D02*
Y1635867D01*
Y1644070D02*
X1838994D01*
X1835301Y1640164D02*
X1837574D01*
X1835301Y1635867D02*
X1838994D01*
X1843256Y1644070D02*
X1842688Y1643680D01*
X1842688D02*
X1842119Y1642898D01*
X1841835Y1642117*
X1841551Y1640945*
Y1638992*
X1841835Y1637820*
X1842119Y1637039*
X1842688Y1636258*
X1842688D02*
X1843256Y1635867D01*
X1844392*
X1844960Y1636258*
X1845528Y1637039*
X1845813Y1637820*
X1845813D02*
X1846097Y1638992D01*
Y1640945*
X1845813Y1642117*
X1845813D02*
X1845528Y1642898D01*
X1844960Y1643680*
X1844392Y1644070*
X1843256*
X1844108Y1637430D02*
X1845813Y1635086D01*
X1848653Y1644070D02*
Y1638211D01*
X1848938Y1637039*
X1848938D02*
X1849506Y1636258D01*
X1850358Y1635867*
X1850926*
X1851778Y1636258*
X1852347Y1637039*
X1852631Y1638211*
Y1644070*
X1855188D02*
Y1635867D01*
X1857744Y1644070D02*
X1860017Y1635867D01*
X1862290Y1644070D02*
X1860017Y1635867D01*
X1867119Y1644070D02*
X1864847Y1635867D01*
X1867119Y1644070D02*
X1869392Y1635867D01*
X1865699Y1638602D02*
X1868540D01*
X1871949Y1644070D02*
Y1635867D01*
X1875358*
X1877915Y1644070D02*
Y1635867D01*
Y1644070D02*
X1881608D01*
X1877915Y1640164D02*
X1880188D01*
X1877915Y1635867D02*
X1881608D01*
X1884165Y1644070D02*
Y1635867D01*
Y1644070D02*
X1888142Y1635867D01*
Y1644070D02*
Y1635867D01*
X1892688Y1644070D02*
Y1635867D01*
X1890699Y1644070D02*
X1894676D01*
X1923413Y1503250D02*
X1908413D01*
X1923413D02*
X1913413Y1500750D01*
Y1505750*
X1923413Y1503250*
X1932813D02*
X1947812D01*
X1932813D02*
X1942812Y1505750D01*
X1942812D02*
Y1500750D01*
X1942812D02*
X1932813Y1503250D01*
X1923413Y1538850D02*
Y1498250D01*
X1932813Y1515750D02*
Y1498250D01*
X1952176Y1506063D02*
X1951494Y1505750D01*
X1951040Y1504813*
X1951040D02*
X1950813Y1503250D01*
X1950813D02*
Y1502313D01*
X1950813D02*
X1951040Y1500750D01*
X1951494Y1499813*
X1951494D02*
X1952176Y1499500D01*
X1952631*
X1953313Y1499813*
X1953313D02*
X1953767Y1500750D01*
X1953994Y1502313*
X1953994D02*
Y1503250D01*
X1953767Y1504813*
X1953767D02*
X1953313Y1505750D01*
X1953313D02*
X1952631Y1506063D01*
X1952631D02*
X1952176D01*
X1956267Y1500125D02*
X1956040Y1499813D01*
X1956040D02*
X1956267Y1499500D01*
X1956494Y1499813*
X1956494D02*
X1956267Y1500125D01*
X1959903Y1506063D02*
X1959222Y1505750D01*
X1958767Y1504813*
X1958767D02*
X1958540Y1503250D01*
Y1502313*
X1958540D02*
X1958767Y1500750D01*
X1959222Y1499813*
X1959222D02*
X1959903Y1499500D01*
X1960358*
X1961040Y1499813*
X1961040D02*
X1961494Y1500750D01*
X1961722Y1502313*
X1961722D02*
Y1503250D01*
X1961494Y1504813*
X1961494D02*
X1961040Y1505750D01*
X1960358Y1506063*
X1960358D02*
X1959903D01*
X1966722Y1503875D02*
X1966494Y1502938D01*
X1966494D02*
X1966040Y1502313D01*
X1966040D02*
X1965358Y1502000D01*
X1965131*
X1964449Y1502313*
X1964449D02*
X1963994Y1502938D01*
X1963994D02*
X1963767Y1503875D01*
Y1504188*
X1963767D02*
X1963994Y1505125D01*
X1964449Y1505750*
X1965131Y1506063*
X1965131D02*
X1965358D01*
X1965358D02*
X1966040Y1505750D01*
X1966494Y1505125*
X1966722Y1503875*
Y1502313*
X1966722D02*
X1966494Y1500750D01*
X1966040Y1499813*
X1966040D02*
X1965358Y1499500D01*
X1964903*
X1964222Y1499813*
X1964222D02*
X1963994Y1500438D01*
X1968994Y1504500D02*
Y1504813D01*
X1968994D02*
X1969222Y1505438D01*
X1969222D02*
X1969449Y1505750D01*
X1969903Y1506063*
X1969903D02*
X1970813D01*
X1970813D02*
X1971267Y1505750D01*
X1971494Y1505438*
X1971494D02*
X1971722Y1504813D01*
X1971722D02*
Y1504188D01*
X1971722D02*
X1971494Y1503563D01*
X1971494D02*
X1971040Y1502625D01*
X1968767Y1499500*
X1971949*
X1973994Y1506063D02*
Y1503875D01*
X1975813Y1506063D02*
Y1503875D01*
X1938813Y1755750D02*
X1923813D01*
X1938813D02*
X1928813Y1753250D01*
Y1758250*
X1938813Y1755750*
X1980813D02*
X1995812D01*
X1980813D02*
X1990812Y1758250D01*
X1990812D02*
Y1753250D01*
X1990812D02*
X1980813Y1755750D01*
X1938813Y1740750D02*
Y1760750D01*
X1980813Y1735750D02*
Y1760750D01*
X1949176Y1757313D02*
X1948494Y1757000D01*
X1948040Y1756063*
X1948040D02*
X1947813Y1754500D01*
X1947813D02*
Y1753563D01*
X1947813D02*
X1948040Y1752000D01*
X1948494Y1751063*
X1948494D02*
X1949176Y1750750D01*
X1949631*
X1950313Y1751063*
X1950313D02*
X1950767Y1752000D01*
X1950994Y1753563*
X1950994D02*
Y1754500D01*
X1950767Y1756063*
X1950767D02*
X1950313Y1757000D01*
X1950313D02*
X1949631Y1757313D01*
X1949631D02*
X1949176D01*
X1953267Y1751375D02*
X1953040Y1751063D01*
X1953040D02*
X1953267Y1750750D01*
X1953494Y1751063*
X1953494D02*
X1953267Y1751375D01*
X1957813Y1757313D02*
X1955540Y1752938D01*
X1955540D02*
X1958949D01*
X1957813Y1757313D02*
Y1750750D01*
X1961222Y1755750D02*
Y1756063D01*
X1961222D02*
X1961449Y1756688D01*
X1961449D02*
X1961676Y1757000D01*
X1962131Y1757313*
X1962131D02*
X1963040D01*
X1963040D02*
X1963494Y1757000D01*
X1963722Y1756688*
X1963722D02*
X1963949Y1756063D01*
X1963949D02*
Y1755438D01*
X1963949D02*
X1963722Y1754813D01*
X1963722D02*
X1963267Y1753875D01*
X1960994Y1750750*
X1964176*
X1967585Y1757313D02*
X1966903Y1757000D01*
X1966449Y1756063*
X1966449D02*
X1966222Y1754500D01*
Y1753563*
X1966222D02*
X1966449Y1752000D01*
X1966903Y1751063*
X1966903D02*
X1967585Y1750750D01*
X1968040*
X1968722Y1751063*
X1968722D02*
X1969176Y1752000D01*
X1969403Y1753563*
X1969403D02*
Y1754500D01*
X1969176Y1756063*
X1969176D02*
X1968722Y1757000D01*
X1968040Y1757313*
X1968040D02*
X1967585D01*
X1971449D02*
Y1755125D01*
X1973267Y1757313D02*
Y1755125D01*
X1911013Y1488750D02*
X1896013D01*
X1911013D02*
X1901013Y1486250D01*
Y1491250*
X1911013Y1488750*
X1932813D02*
X1947812D01*
X1932813D02*
X1942812Y1491250D01*
X1942812D02*
Y1486250D01*
X1942812D02*
X1932813Y1488750D01*
X1911013Y1539750D02*
Y1483750D01*
X1932813Y1515750D02*
Y1483750D01*
X1952176Y1491563D02*
X1951494Y1491250D01*
X1951040Y1490313*
X1951040D02*
X1950813Y1488750D01*
X1950813D02*
Y1487813D01*
X1950813D02*
X1951040Y1486250D01*
X1951494Y1485313*
X1951494D02*
X1952176Y1485000D01*
X1952631*
X1953313Y1485313*
X1953313D02*
X1953767Y1486250D01*
X1953994Y1487813*
X1953994D02*
Y1488750D01*
X1953767Y1490313*
X1953767D02*
X1953313Y1491250D01*
X1953313D02*
X1952631Y1491563D01*
X1952631D02*
X1952176D01*
X1956267Y1485625D02*
X1956040Y1485313D01*
X1956040D02*
X1956267Y1485000D01*
X1956494Y1485313*
X1956494D02*
X1956267Y1485625D01*
X1958767Y1490000D02*
Y1490313D01*
X1958767D02*
X1958994Y1490938D01*
X1958994D02*
X1959222Y1491250D01*
X1959676Y1491563*
X1959676D02*
X1960585D01*
X1960585D02*
X1961040Y1491250D01*
X1961267Y1490938*
X1961267D02*
X1961494Y1490313D01*
X1961494D02*
Y1489688D01*
X1961494D02*
X1961267Y1489063D01*
X1961267D02*
X1960813Y1488125D01*
X1960813D02*
X1958540Y1485000D01*
X1961722*
X1963767Y1490313D02*
X1964222Y1490625D01*
X1964903Y1491563*
X1964903D02*
Y1485000D01*
X1970131Y1491563D02*
X1967858Y1485000D01*
X1966949Y1491563D02*
X1970131D01*
X1972176D02*
Y1489375D01*
X1973994Y1491563D02*
Y1489375D01*
X1921813Y1678250D02*
X1900313Y1664750D01*
X1900313D02*
X1900313D01*
X1900313D02*
X1900313D01*
X1921813Y1678250D02*
X1914673Y1670815D01*
X1912014Y1675050*
X1921813Y1678250*
Y1770750D02*
X1906813D01*
X1921813D02*
X1911813Y1768250D01*
Y1773250*
X1921813Y1770750*
X1932813D02*
X1947812D01*
X1932813D02*
X1942812Y1773250D01*
X1942812D02*
Y1768250D01*
X1942812D02*
X1932813Y1770750D01*
X1921813Y1700250D02*
Y1775750D01*
X1932813Y1761250D02*
Y1775750D01*
X1884676Y1774313D02*
X1883994Y1774000D01*
X1883540Y1773063*
X1883540D02*
X1883313Y1771500D01*
X1883313D02*
Y1770563D01*
X1883313D02*
X1883540Y1769000D01*
X1883994Y1768063*
X1883994D02*
X1884676Y1767750D01*
X1885131*
X1885813Y1768063*
X1885813D02*
X1886267Y1769000D01*
X1886494Y1770563*
X1886494D02*
Y1771500D01*
X1886267Y1773063*
X1886267D02*
X1885813Y1774000D01*
X1885813D02*
X1885131Y1774313D01*
X1885131D02*
X1884676D01*
X1888767Y1768375D02*
X1888540Y1768063D01*
X1888540D02*
X1888767Y1767750D01*
X1888994Y1768063*
X1888994D02*
X1888767Y1768375D01*
X1891040Y1773063D02*
X1891494Y1773375D01*
X1892176Y1774313*
X1892176D02*
Y1767750D01*
X1894222Y1773063D02*
X1894676Y1773375D01*
X1895358Y1774313*
X1895358D02*
Y1767750D01*
X1898767Y1774313D02*
X1898085Y1774000D01*
X1897631Y1773063*
X1897631D02*
X1897403Y1771500D01*
Y1770563*
X1897403D02*
X1897631Y1769000D01*
X1898085Y1768063*
X1898085D02*
X1898767Y1767750D01*
X1899222*
X1899903Y1768063*
X1899903D02*
X1900358Y1769000D01*
X1900585Y1770563*
X1900585D02*
Y1771500D01*
X1900358Y1773063*
X1900358D02*
X1899903Y1774000D01*
X1899222Y1774313*
X1899222D02*
X1898767D01*
X1902631D02*
Y1772125D01*
X1904449Y1774313D02*
Y1772125D01*
X1932813Y1750750D02*
Y1740750D01*
G54D62*
X2113194Y1539706D02*
X2113058Y1540081D01*
X2112785Y1540456*
X2112513Y1540644*
X2112513D02*
X2111967D01*
X2111694Y1540456*
X2111422Y1540081*
X2111285Y1539706*
X2111149Y1539144*
Y1538206*
X2111285Y1537644*
X2111422Y1537269*
X2111694Y1536894*
X2111967Y1536706*
X2112513*
X2112513D02*
X2112785Y1536894D01*
X2113058Y1537269*
X2113194Y1537644*
X2114558Y1539706D02*
Y1539894D01*
X2114694Y1540269*
X2114831Y1540456*
X2115103Y1540644*
X2115649*
X2115922Y1540456*
X2116058Y1540269*
X2116194Y1539894*
Y1539519*
X2116058Y1539144*
X2115785Y1538581*
X2114422Y1536706*
X2116331*
X2065331Y1596644D02*
Y1592706D01*
Y1596644D02*
X2066558D01*
X2066967Y1596456*
X2067103Y1596269*
X2067240Y1595894*
Y1595519*
X2067103Y1595144*
X2066967Y1594956*
X2066558Y1594769*
X2065331*
X2066285D02*
X2067240Y1592706D01*
X2068467Y1595894D02*
X2068740Y1596081D01*
X2069149Y1596644*
Y1592706*
X2065217Y1582644D02*
Y1578706D01*
Y1582644D02*
X2066444D01*
X2066853Y1582456*
X2066990Y1582269*
X2067126Y1581894*
Y1581519*
X2066990Y1581144*
X2066853Y1580956*
X2066444Y1580769*
X2065217*
X2066172D02*
X2067126Y1578706D01*
X2068490Y1581706D02*
Y1581894D01*
X2068626Y1582269*
X2068763Y1582456*
X2068763D02*
X2069035Y1582644D01*
X2069581*
X2069853Y1582456*
X2069990Y1582269*
X2070126Y1581894*
Y1581519*
X2069990Y1581144*
X2069717Y1580581*
X2068353Y1578706*
X2070263*
X2117626Y1598106D02*
X2117490Y1598481D01*
X2117217Y1598856*
X2116944Y1599044*
X2116399*
X2116126Y1598856*
X2115853Y1598481*
X2115717Y1598106*
X2115581Y1597544*
Y1596606*
X2115717Y1596044*
X2115853Y1595669*
X2116126Y1595294*
X2116399Y1595106*
X2116944*
X2117217Y1595294*
X2117490Y1595669*
X2117626Y1596044*
X2120217Y1599044D02*
X2118853Y1596419D01*
X2120899*
X2120217Y1599044D02*
Y1595106D01*
X2064308Y1588106D02*
X2064172Y1588481D01*
X2063899Y1588856*
X2063626Y1589044*
X2063081*
X2062808Y1588856*
X2062535Y1588481*
X2062399Y1588106*
X2062263Y1587544*
X2062263D02*
Y1586606D01*
X2062263D02*
X2062399Y1586044D01*
X2062535Y1585669*
X2062808Y1585294*
X2063081Y1585106*
X2063626*
X2063899Y1585294*
X2064172Y1585669*
X2064308Y1586044*
X2065535Y1588294D02*
X2065808Y1588481D01*
X2066217Y1589044*
Y1585106*
X2065217Y1576144D02*
Y1572206D01*
Y1576144D02*
X2066444D01*
X2066853Y1575956*
X2066990Y1575769*
X2067126Y1575394*
Y1575019*
X2066990Y1574644*
X2066853Y1574456*
X2066444Y1574269*
X2065217*
X2066172D02*
X2067126Y1572206D01*
X2068626Y1576144D02*
X2070126D01*
X2069308Y1574644*
X2069717*
X2069990Y1574456*
X2070126Y1574269*
X2070263Y1573706*
X2070263D02*
Y1573331D01*
X2070263D02*
X2070126Y1572769D01*
X2069853Y1572394*
X2069444Y1572206*
X2069035*
X2068626Y1572394*
X2068490Y1572581*
X2068353Y1572956*
X2090763Y1545206D02*
X2090626Y1545581D01*
X2090353Y1545956*
X2090081Y1546144*
X2089535*
X2089263Y1545956*
X2089263D02*
X2088990Y1545581D01*
X2088853Y1545206*
X2088717Y1544644*
Y1543706*
X2088853Y1543144*
X2088990Y1542769*
X2089263Y1542394*
X2089263D02*
X2089535Y1542206D01*
X2090081*
X2090353Y1542394*
X2090626Y1542769*
X2090763Y1543144*
X2093626Y1545581D02*
X2093490Y1545956D01*
X2093081Y1546144*
X2092808*
X2092399Y1545956*
X2092126Y1545394*
X2091990Y1544456*
Y1543519*
X2092126Y1542769*
X2092399Y1542394*
X2092808Y1542206*
X2092944*
X2093353Y1542394*
X2093626Y1542769*
X2093763Y1543331*
X2093763D02*
Y1543519D01*
X2093763D02*
X2093626Y1544081D01*
X2093353Y1544456*
X2092944Y1544644*
X2092808*
X2092399Y1544456*
X2092126Y1544081*
X2091990Y1543519*
X2075199Y1636344D02*
Y1632406D01*
Y1636344D02*
X2076972D01*
X2075199Y1634469D02*
X2076290D01*
X2075199Y1632406D02*
X2076972D01*
X2078199Y1635594D02*
X2078472Y1635781D01*
X2078881Y1636344*
Y1632406*
X2066085Y1615344D02*
Y1611406D01*
Y1615344D02*
X2067858D01*
X2066085Y1613469D02*
X2067176D01*
X2066085Y1611406D02*
X2067858D01*
X2069222Y1614406D02*
Y1614594D01*
X2069358Y1614969*
X2069494Y1615156*
X2069767Y1615344*
X2070313*
X2070313D02*
X2070585Y1615156D01*
X2070722Y1614969*
X2070858Y1614594*
Y1614219*
X2070722Y1613844*
X2070449Y1613281*
X2069085Y1611406*
X2070994*
X2066085Y1605844D02*
Y1601906D01*
Y1605844D02*
X2067858D01*
X2066085Y1603969D02*
X2067176D01*
X2066085Y1601906D02*
X2067858D01*
X2069358Y1605844D02*
X2070858D01*
X2070040Y1604344*
X2070449*
X2070722Y1604156*
X2070858Y1603969*
X2070994Y1603406*
Y1603031*
X2070858Y1602469*
X2070585Y1602094*
X2070176Y1601906*
X2069767*
X2069358Y1602094*
X2069222Y1602281*
X2069085Y1602656*
X2094517Y1605344D02*
Y1601406D01*
Y1605344D02*
X2096290D01*
X2094517Y1603469D02*
X2095608D01*
X2094517Y1601406D02*
X2096290D01*
X2098881Y1605344D02*
X2097517Y1602719D01*
X2099563*
X2098881Y1605344D02*
Y1601406D01*
X2066017Y1567844D02*
Y1563906D01*
Y1567844D02*
X2067790D01*
X2066017Y1565969D02*
X2067108D01*
X2066017Y1563906D02*
X2067790D01*
X2070790Y1567844D02*
X2069426D01*
X2069290Y1566156*
X2069426Y1566344*
X2069835Y1566531*
X2070244*
X2070653Y1566344*
X2070926Y1565969*
X2071063Y1565406*
X2071063D02*
X2070926Y1565031D01*
X2070790Y1564469*
X2070517Y1564094*
X2070108Y1563906*
X2069699*
X2069290Y1564094*
X2069153Y1564281*
X2069017Y1564656*
X2066153Y1557844D02*
Y1553906D01*
Y1557844D02*
X2067926D01*
X2066153Y1555969D02*
X2067244D01*
X2066153Y1553906D02*
X2067926D01*
X2070790Y1557281D02*
X2070653Y1557656D01*
X2070244Y1557844*
X2069972*
X2069563Y1557656*
X2069290Y1557094*
X2069153Y1556156*
Y1555219*
X2069290Y1554469*
X2069563Y1554094*
X2069972Y1553906*
X2070108*
X2070517Y1554094*
X2070790Y1554469*
X2070926Y1555031*
Y1555219*
X2070790Y1555781*
X2070517Y1556156*
X2070108Y1556344*
X2069972*
X2069563Y1556156*
X2069290Y1555781*
X2069153Y1555219*
X2066085Y1547844D02*
Y1543906D01*
Y1547844D02*
X2067858D01*
X2066085Y1545969D02*
X2067176D01*
X2066085Y1543906D02*
X2067858D01*
X2070994Y1547844D02*
X2069631Y1543906D01*
X2069085Y1547844D02*
X2070994D01*
X2099085Y1554844D02*
Y1550906D01*
Y1554844D02*
X2100858D01*
X2099085Y1552969D02*
X2100176D01*
X2099085Y1550906D02*
X2100858D01*
X2102767Y1554844D02*
X2102358Y1554656D01*
X2102222Y1554281*
Y1553906*
X2102358Y1553531*
X2102631Y1553344*
X2103176Y1553156*
X2103585Y1552969*
X2103858Y1552594*
X2103994Y1552219*
Y1551656*
X2103858Y1551281*
X2103722Y1551094*
X2103313Y1550906*
X2103313D02*
X2102767D01*
X2102358Y1551094*
X2102222Y1551281*
X2102085Y1551656*
Y1552219*
X2102222Y1552594*
X2102494Y1552969*
X2102903Y1553156*
X2103449Y1553344*
X2103722Y1553531*
X2103858Y1553906*
Y1554281*
X2103722Y1554656*
X2103313Y1554844*
X2103313D02*
X2102767D01*
X2119149Y1547644D02*
Y1543706D01*
Y1547644D02*
X2120376D01*
X2120785Y1547456*
X2120922Y1547269*
X2121058Y1546894*
Y1546519*
X2120922Y1546144*
X2120785Y1545956*
X2120376Y1545769*
X2119149*
X2120103D02*
X2121058Y1543706D01*
X2123649Y1547644D02*
X2122285Y1545019D01*
X2124331*
X2123649Y1547644D02*
Y1543706D01*
X2107694Y1619106D02*
X2107558Y1619481D01*
X2107285Y1619856*
X2107012Y1620044*
X2107012D02*
X2106467D01*
X2106194Y1619856*
X2105922Y1619481*
X2105785Y1619106*
X2105649Y1618544*
Y1617606*
X2105785Y1617044*
X2105922Y1616669*
X2106194Y1616294*
X2106467Y1616106*
X2107012*
X2107012D02*
X2107285Y1616294D01*
X2107558Y1616669*
X2107694Y1617044*
X2109194Y1620044D02*
X2110694D01*
X2109876Y1618544*
X2110285*
X2110558Y1618356*
X2110694Y1618169*
X2110831Y1617606*
Y1617231*
X2110694Y1616669*
X2110422Y1616294*
X2110012Y1616106*
X2110012D02*
X2109603D01*
X2109194Y1616294*
X2109058Y1616481*
X2108922Y1616856*
X2052126Y1532706D02*
X2051990Y1533081D01*
X2051717Y1533456*
X2051444Y1533644*
X2050899*
X2050626Y1533456*
X2050353Y1533081*
X2050217Y1532706*
X2050081Y1532144*
Y1531206*
X2050217Y1530644*
X2050353Y1530269*
X2050626Y1529894*
X2050899Y1529706*
X2051444*
X2051717Y1529894*
X2051990Y1530269*
X2052126Y1530644*
X2055126Y1533644D02*
X2053763D01*
X2053626Y1531956*
X2053763Y1532144*
X2054172Y1532331*
X2054581*
X2054990Y1532144*
X2055263Y1531769*
X2055399Y1531206*
X2055263Y1530831*
X2055126Y1530269*
X2054853Y1529894*
X2054444Y1529706*
X2054035*
X2053626Y1529894*
X2053490Y1530081*
X2053353Y1530456*
X2052956Y1576632D02*
X2052581Y1576495D01*
X2052206Y1576223*
X2052019Y1575950*
Y1575405*
X2052206Y1575132*
X2052581Y1574859*
X2052956Y1574723*
X2053519Y1574586*
X2054456*
X2055019Y1574723*
X2055394Y1574859*
X2055769Y1575132*
X2055956Y1575405*
Y1575950*
X2055769Y1576223*
X2055394Y1576495*
X2055019Y1576632*
X2052019Y1579768D02*
X2055956Y1578405D01*
X2052019Y1577859D02*
Y1579768D01*
X2045694Y1616706D02*
X2045558Y1617081D01*
X2045285Y1617456*
X2045013Y1617644*
X2045013D02*
X2044467D01*
X2044194Y1617456*
X2043922Y1617081*
X2043785Y1616706*
X2043649Y1616144*
Y1615206*
X2043785Y1614644*
X2043922Y1614269*
X2044194Y1613894*
X2044467Y1613706*
X2045013*
X2045013D02*
X2045285Y1613894D01*
X2045558Y1614269*
X2045694Y1614644*
X2047603Y1617644D02*
X2047194Y1617456D01*
X2047058Y1617081*
Y1616706*
X2047194Y1616331*
X2047467Y1616144*
X2048013Y1615956*
X2048013D02*
X2048422Y1615769D01*
X2048694Y1615394*
X2048831Y1615019*
Y1614456*
X2048694Y1614081*
X2048558Y1613894*
X2048149Y1613706*
X2047603*
X2047194Y1613894*
X2047058Y1614081*
X2046922Y1614456*
Y1615019*
X2047058Y1615394*
X2047331Y1615769*
X2047740Y1615956*
X2048285Y1616144*
X2048558Y1616331*
X2048694Y1616706*
Y1617081*
X2048558Y1617456*
X2048149Y1617644*
X2047603*
X2045763Y1626706D02*
X2045626Y1627081D01*
X2045353Y1627456*
X2045081Y1627644*
X2044535*
X2044263Y1627456*
X2044263D02*
X2043990Y1627081D01*
X2043853Y1626706*
X2043717Y1626144*
Y1625206*
X2043853Y1624644*
X2043990Y1624269*
X2044263Y1623894*
X2044263D02*
X2044535Y1623706D01*
X2045081*
X2045353Y1623894*
X2045626Y1624269*
X2045763Y1624644*
X2048763Y1626331D02*
X2048626Y1625769D01*
X2048353Y1625394*
X2047944Y1625206*
X2047808*
X2047399Y1625394*
X2047126Y1625769*
X2046990Y1626331*
Y1626519*
X2047126Y1627081*
X2047399Y1627456*
X2047808Y1627644*
X2047944*
X2048353Y1627456*
X2048626Y1627081*
X2048763Y1626331*
X2048763D02*
Y1625394D01*
X2048763D02*
X2048626Y1624456D01*
X2048353Y1623894*
X2047944Y1623706*
X2047672*
X2047263Y1623894*
X2047263D02*
X2047126Y1624269D01*
G54D63*
X2082763Y1623250D02*
G03X2082763I-4950J0D01*
G01Y1613250D02*
G03X2082763I-4950J0D01*
G01Y1603250D02*
G03X2082763I-4950J0D01*
G01X2111263D02*
G03X2111263I-4950J0D01*
G01X2082763Y1565750D02*
G03X2082763I-4950J0D01*
G01Y1555750D02*
G03X2082763I-4950J0D01*
G01Y1545750D02*
G03X2082763I-4950J0D01*
G01X2111263D02*
G03X2111263I-4950J0D01*
G01X2092813Y1596750D02*
Y1556750D01*
X2092813D02*
X2112813D01*
X2112813D02*
Y1596750D01*
X2112813D02*
X2107813D01*
X2097813D02*
G03X2107813I5000J0D01*
G01X2097813D02*
X2092813D01*
X2047285Y1593375D02*
Y1589625D01*
X2047467Y1588875*
X2047831Y1588375*
X2048376Y1588125*
X2048740*
X2049285Y1588375*
X2049649Y1588875*
X2049831Y1589625*
Y1593375*
X2051831D02*
X2053831D01*
X2052740Y1591375*
X2053285*
X2053649Y1591125*
X2053831Y1590875*
X2054013Y1590125*
Y1589625*
X2053831Y1588875*
X2053467Y1588375*
X2052922Y1588125*
X2052376*
X2051831Y1588375*
X2051649Y1588625*
X2051467Y1589125*
X2100140Y1579781D02*
Y1576031D01*
X2100322Y1575281*
X2100685Y1574781*
X2101231Y1574531*
X2101594*
X2102140Y1574781*
X2102503Y1575281*
X2102685Y1576031*
Y1579781*
X2104322Y1578781D02*
X2104685Y1579031D01*
X2105231Y1579781*
Y1574531*
X1955185Y1688875D02*
Y1685125D01*
X1955367Y1684375*
X1955731Y1683875*
X1956276Y1683625*
X1956640*
X1957185Y1683875*
X1957549Y1684375*
X1957731Y1685125*
Y1688875*
X1959549Y1687625D02*
Y1687875D01*
X1959731Y1688375*
X1959913Y1688625*
X1959913D02*
X1960276Y1688875D01*
X1961003*
X1961367Y1688625*
X1961549Y1688375*
X1961731Y1687875*
Y1687375*
X1961549Y1686875*
X1961185Y1686125*
X1959367Y1683625*
X1961913*
X1946003Y1580375D02*
Y1576625D01*
X1946185Y1575875*
X1946549Y1575375*
X1947094Y1575125*
X1947458*
X1948003Y1575375*
X1948367Y1575875*
X1948549Y1576625*
Y1580375*
X1950185Y1579375D02*
X1950549Y1579625D01*
X1951094Y1580375*
Y1575125*
G54D94*
X2117813Y1635750D03*
Y1645750D03*
Y1705750D03*
Y1725750D03*
X2057813D03*
Y1705750D03*
Y1645750D03*
Y1635750D03*
G54D169*
X2080563Y1623250D02*
G03X2080563I-2750J0D01*
G01Y1613250D02*
G03X2080563I-2750J0D01*
G01Y1603250D02*
G03X2080563I-2750J0D01*
G01X2109063D02*
G03X2109063I-2750J0D01*
G01X2080563Y1565750D02*
G03X2080563I-2750J0D01*
G01Y1555750D02*
G03X2080563I-2750J0D01*
G01Y1545750D02*
G03X2080563I-2750J0D01*
G01X2109063D02*
G03X2109063I-2750J0D01*
G01X2042813Y1735750D02*
Y1520750D01*
X2042813D02*
X2127813D01*
X2127813D02*
Y1605750D01*
X2127813D02*
X2132813Y1610750D01*
X2132813D02*
Y1735750D01*
X2132813D02*
X2042813D01*
X1932813Y1520750D02*
X1938813D01*
X1938813D02*
Y1735750D01*
X1938813D02*
X1932813D01*
X1932813D02*
Y1520750D01*
G54D273*
X2061053Y1606350D03*
X2057313D03*
X2053572D03*
Y1597150D03*
X2057313D03*
X2061053D03*
G54D274*
X2120013Y1618250D03*
X2095613D03*
X2065613Y1531250D03*
X2090013D03*
G74*
X0Y0D02*
M02*
